<REAPER_PROJECT 0.1 "5.95/x64" 1540243851
  RIPPLE 0
  GROUPOVERRIDE 0 0 0
  AUTOXFADE 1
  ENVATTACH 1
  POOLEDENVATTACH 0
  MIXERUIFLAGS 11 48
  PEAKGAIN 1
  FEEDBACK 0
  PANLAW 1
  PROJOFFS 0 0 0
  MAXPROJLEN 0 600
  GRID 3199 8 1 8 1 0 0 0
  TIMEMODE 1 5 -1 30 0
  VIDEO_CONFIG 0 0 256
  PANMODE 3
  CURSOR 538.29685416666666
  ZOOM 1.1747815778626 0 0
  VZOOMEX 6
  USE_REC_CFG 0
  RECMODE 1
  SMPTESYNC 0 30 100 40 1000 300 0 0 1 0 0
  LOOP 0
  LOOPGRAN 0 4
  RECORD_PATH "" ""
  <RECORD_CFG
  >
  <APPLYFX_CFG
  >
  RENDER_FILE ""
  RENDER_PATTERN ""
  RENDER_FMT 0 2 0
  RENDER_1X 0
  RENDER_RANGE 1 0 0 18 1000
  RENDER_RESAMPLE 3 0 1
  RENDER_ADDTOPROJ 0
  RENDER_STEMS 0
  RENDER_DITHER 0
  TIMELOCKMODE 1
  TEMPOENVLOCKMODE 1
  ITEMMIX 0
  DEFPITCHMODE 589824
  TAKELANE 1
  SAMPLERATE 44100 0 0
  <RENDER_CFG
  >
  LOCK 1
  <METRONOME 6 2
    VOL 0.25 0.125
    FREQ 800 1600 1
    BEATLEN 4
    SAMPLES "" ""
    PATTERN 2863311530 2863311529
  >
  GLOBAL_AUTO -1
  TEMPO 120 4 4
  PLAYRATE 1 0 0.25 4
  SELECTION 0 0
  SELECTION2 0 0
  MASTERAUTOMODE 0
  MASTERTRACKHEIGHT 0 0
  MASTERPEAKCOL 16576
  MASTERMUTESOLO 0
  MASTERTRACKVIEW 0 0.6667 0.5 0.5 0 0 0
  MASTERHWOUT 0 0 1 0 0 0 0 -1
  MASTER_NCH 2 2
  MASTER_VOLUME 1 0 -1 -1 1
  MASTER_FX 1
  MASTER_SEL 0
  <MASTERPLAYSPEEDENV
    ACT 0 -1
    VIS 0 1 1
    LANEHEIGHT 0 0
    ARM 0
    DEFSHAPE 0 -1 -1
  >
  <TEMPOENVEX
    ACT 0 -1
    VIS 1 0 1
    LANEHEIGHT 0 0
    ARM 0
    DEFSHAPE 1 -1 -1
  >
  <PROJBAY
  >
  <TRACK {C8A9E87D-0B5E-4607-85EA-237BFE13EE5A}
    NAME "TimeFlux - Time Enter - a SoundMorph design_04"
    PEAKCOL 24821252
    BEAT -1
    AUTOMODE 0
    VOLPAN 1 0 -1 -1 1
    MUTESOLO 0 0 0
    IPHASE 0
    ISBUS 0 0
    BUSCOMP 0 0
    SHOWINMIX 1 0.6667 0.5 1 0.5 0 0 0
    FREEMODE 0
    SEL 1
    REC 0 0 0 0 0 0 0
    VU 2
    TRACKHEIGHT 0 0 0
    INQ 0 0 0 0.5 100 0 0 100
    NCHAN 2
    FX 1
    TRACKID {C8A9E87D-0B5E-4607-85EA-237BFE13EE5A}
    PERF 0
    MIDIOUT -1
    MAINSEND 1 0
    <ITEM
      POSITION 4
      SNAPOFFS 0
      LENGTH 7.74933333333333
      LOOP 1
      ALLTAKES 0
      FADEIN 1 0 0 1 0 0
      FADEOUT 1 0 0 1 0 0
      MUTE 0
      SEL 0
      IGUID {BDA36894-93CC-42EB-8379-3266348EF105}
      IID 5
      NAME "TimeFlux - Time Enter - a SoundMorph design_04.wav"
      VOLPAN 1 0 1 -1
      SOFFS 0
      PLAYRATE 1 1 0 -1 0 0.0025
      CHANMODE 0
      GUID {EF814B0D-5748-4797-96B1-E80F1FD2F63E}
      <SOURCE WAVE
        FILE "TimeFlux - Time Enter - a SoundMorph design_04.wav"
      >
    >
  >
  <TRACK {2E2C2B51-6EA3-46D6-84BF-197E53004EBB}
    NAME "TimeFlux - Time Enter - a SoundMorph design_02"
    PEAKCOL 31090930
    BEAT -1
    AUTOMODE 0
    VOLPAN 1 0 -1 -1 1
    MUTESOLO 0 0 0
    IPHASE 0
    ISBUS 0 0
    BUSCOMP 0 0
    SHOWINMIX 1 0.6667 0.5 1 0.5 0 0 0
    FREEMODE 0
    SEL 1
    REC 0 0 0 0 0 0 0
    VU 2
    TRACKHEIGHT 0 0 0
    INQ 0 0 0 0.5 100 0 0 100
    NCHAN 2
    FX 1
    TRACKID {2E2C2B51-6EA3-46D6-84BF-197E53004EBB}
    PERF 0
    MIDIOUT -1
    MAINSEND 1 0
    <ITEM
      POSITION 11.74933333333333
      SNAPOFFS 0
      LENGTH 4.928
      LOOP 1
      ALLTAKES 0
      FADEIN 1 0 0 1 0 0
      FADEOUT 1 0 0 1 0 0
      MUTE 0
      SEL 0
      IGUID {432928C9-F653-48E9-B033-B6549508D48F}
      IID 6
      NAME "TimeFlux - Time Enter - a SoundMorph design_02.wav"
      VOLPAN 1 0 1 -1
      SOFFS 0
      PLAYRATE 1 1 0 -1 0 0.0025
      CHANMODE 0
      GUID {EDD80894-BF15-438C-9A70-3F06CFC800D3}
      <SOURCE WAVE
        FILE "TimeFlux - Time Enter - a SoundMorph design_02.wav"
      >
    >
  >
  <TRACK {C0B2D70D-DAF7-4D33-9FD3-AC8254B01A48}
    NAME "TimeFlux - Time Enter - a SoundMorph design_01"
    PEAKCOL 20611579
    BEAT -1
    AUTOMODE 0
    VOLPAN 1 0 -1 -1 1
    MUTESOLO 0 0 0
    IPHASE 0
    ISBUS 0 0
    BUSCOMP 0 0
    SHOWINMIX 1 0.6667 0.5 1 0.5 0 0 0
    FREEMODE 0
    SEL 1
    REC 0 0 0 0 0 0 0
    VU 2
    TRACKHEIGHT 0 0 0
    INQ 0 0 0 0.5 100 0 0 100
    NCHAN 2
    FX 1
    TRACKID {C0B2D70D-DAF7-4D33-9FD3-AC8254B01A48}
    PERF 0
    MIDIOUT -1
    MAINSEND 1 0
    <ITEM
      POSITION 16.67733333333333
      SNAPOFFS 0
      LENGTH 14.9345
      LOOP 1
      ALLTAKES 0
      FADEIN 1 0 0 1 0 0
      FADEOUT 1 0 0 1 0 0
      MUTE 0
      SEL 0
      IGUID {619318A5-FE01-4ABE-90D2-F62B393BD105}
      IID 7
      NAME "TimeFlux - Time Enter - a SoundMorph design_01.wav"
      VOLPAN 1 0 1 -1
      SOFFS 0
      PLAYRATE 1 1 0 -1 0 0.0025
      CHANMODE 0
      GUID {6D8E5E10-B45A-46E2-B18C-B1F0301B7CD0}
      <SOURCE WAVE
        FILE "TimeFlux - Time Enter - a SoundMorph design_01.wav"
      >
    >
  >
  <TRACK {4A9FDDDA-AE33-4EEB-B747-3D7891FCD58E}
    NAME "untitled - GetluckyfeatPharrellWilliams.mid untitled [meta-events] untitled [meta-events]"
    PEAKCOL 27654034
    BEAT -1
    AUTOMODE 0
    VOLPAN 1 0 -1 -1 1
    MUTESOLO 0 0 0
    IPHASE 0
    ISBUS 0 0
    BUSCOMP 0 0
    SHOWINMIX 1 0.6667 0.5 1 0.5 0 0 0
    FREEMODE 0
    SEL 1
    REC 0 0 0 0 0 0 0
    VU 2
    TRACKHEIGHT 0 0 0
    INQ 0 0 0 0.5 100 0 0 100
    NCHAN 2
    FX 1
    TRACKID {4A9FDDDA-AE33-4EEB-B747-3D7891FCD58E}
    PERF 0
    MIDIOUT -1
    MAINSEND 1 0
    <ITEM
      POSITION 38.5
      SNAPOFFS 0
      LENGTH 242
      LOOP 1
      ALLTAKES 0
      FADEIN 1 0 0 1 0 0
      FADEOUT 1 0 0 1 0 0
      MUTE 0
      SEL 0
      IGUID {39E5FEA2-3138-486C-BEE5-5AFE2476672F}
      IID 9
      NAME "untitled - GetluckyfeatPharrellWilliams.mid untitled [meta-events]"
      VOLPAN 1 0 1 -1
      SOFFS 0 0
      PLAYRATE 1 1 0 -1 0 0.0025
      CHANMODE 0
      GUID {58B222E4-02B4-4F02-AF95-B3F10A04DEA1}
      <SOURCE MIDI
        HASDATA 1 960 QN
        POOLEDEVTS {5F645A75-8CC5-409C-A17E-D9DB4BC3A3BF}
        <X 0 0 0 0 3 untitled
          /wN1bnRpdGxlZA==
        >
        <X 0 0
          /1kCAAA=
        >
        E 464640 b0 7b 00
        GUID {5B74343E-7E64-4930-895D-033C7FB19CDC}
        IGNTEMPO 0 120 4 4
        SRCCOLOR 20
        VELLANE -1 100 0
      >
    >
  >
  <TRACK {F9B17F2B-D62F-410D-87FF-996853FFE81D}
    NAME "untitled - GetluckyfeatPharrellWilliams.mid [chan 1] [chan 1]"
    PEAKCOL 30501882
    BEAT -1
    AUTOMODE 0
    VOLPAN 1 0 -1 -1 1
    MUTESOLO 0 0 0
    IPHASE 0
    ISBUS 0 0
    BUSCOMP 0 0
    SHOWINMIX 1 0.6667 0.5 1 0.5 0 0 0
    FREEMODE 0
    SEL 1
    REC 0 0 0 0 0 0 0
    VU 2
    TRACKHEIGHT 0 0 0
    INQ 0 0 0 0.5 100 0 0 100
    NCHAN 2
    FX 1
    TRACKID {F9B17F2B-D62F-410D-87FF-996853FFE81D}
    PERF 0
    MIDIOUT -1
    MAINSEND 1 0
    <ITEM
      POSITION 38.5
      SNAPOFFS 0
      LENGTH 242
      LOOP 1
      ALLTAKES 0
      FADEIN 1 0 0 1 0 0
      FADEOUT 1 0 0 1 0 0
      MUTE 0
      SEL 0
      IGUID {A5951DFF-C875-432E-954D-CBC15A5B790B}
      IID 10
      NAME "untitled - GetluckyfeatPharrellWilliams.mid [chan 1]"
      VOLPAN 1 0 1 -1
      SOFFS 0 0
      PLAYRATE 1 1 0 -1 0 0.0025
      CHANMODE 0
      GUID {0E3146C1-BC8C-4E42-ADEE-A0836900734C}
      <SOURCE MIDI
        HASDATA 1 960 QN
        POOLEDEVTS {44D293FE-2CB7-4A03-A46A-EEC8D4046978}
        E 0 b0 65 00
        E 2 b0 64 00
        E 2 b0 06 0c
        E 2 b0 26 00
        E 464634 b0 7b 00
        GUID {09DAB5C2-5BE8-4514-8CA6-4C5D8DBAAD75}
        IGNTEMPO 0 120 4 4
        SRCCOLOR 22
        VELLANE -1 100 0
      >
    >
  >
  <TRACK {A871C773-D3D8-49D5-BFFA-335B663BF8E1}
    NAME "untitled - GetluckyfeatPharrellWilliams.mid [chan 2] [chan 2]"
    PEAKCOL 18705585
    BEAT -1
    AUTOMODE 0
    VOLPAN 1 0 -1 -1 1
    MUTESOLO 0 0 0
    IPHASE 0
    ISBUS 0 0
    BUSCOMP 0 0
    SHOWINMIX 1 0.6667 0.5 1 0.5 0 0 0
    FREEMODE 0
    SEL 1
    REC 0 0 0 0 0 0 0
    VU 2
    TRACKHEIGHT 0 0 0
    INQ 0 0 0 0.5 100 0 0 100
    NCHAN 2
    FX 1
    TRACKID {A871C773-D3D8-49D5-BFFA-335B663BF8E1}
    PERF 0
    MIDIOUT -1
    MAINSEND 1 0
    <ITEM
      POSITION 38.5
      SNAPOFFS 0
      LENGTH 242
      LOOP 1
      ALLTAKES 0
      FADEIN 1 0 0 1 0 0
      FADEOUT 1 0 0 1 0 0
      MUTE 0
      SEL 0
      IGUID {C3AE2361-E01A-4D38-9CC4-F6F4169490D2}
      IID 11
      NAME "untitled - GetluckyfeatPharrellWilliams.mid [chan 2]"
      VOLPAN 1 0 1 -1
      SOFFS 0 0
      PLAYRATE 1 1 0 -1 0 0.0025
      CHANMODE 0
      GUID {625759CD-29CB-400C-9DFB-89582690AC26}
      <SOURCE MIDI
        HASDATA 1 960 QN
        POOLEDEVTS {17950F7F-1392-44F9-979D-E1AD29210546}
        E 6 b1 65 00
        E 2 b1 64 00
        E 2 b1 06 0c
        E 2 b1 26 00
        E 84 c1 21 00
        E 0 b1 07 7f
        E 0 b1 0a 40
        E 0 e1 00 40
        E 0 b1 5d 00
        E 0 b1 5b 00
        E 0 b1 5f 00
        E 0 b1 5c 00
        E 3744 91 23 5f
        E 960 91 23 00
        E 0 91 23 5f
        E 480 91 23 00
        E 420 91 22 5f
        E 60 91 22 00
        E 0 91 23 5f
        E 480 91 23 00
        E 480 91 23 5f
        E 480 91 23 00
        E 480 91 26 5f
        E 960 91 26 00
        E 0 91 26 5f
        E 480 91 26 00
        E 420 91 25 5f
        E 60 91 25 00
        E 0 91 26 5f
        E 480 91 26 00
        E 480 91 26 5f
        E 480 91 26 00
        E 480 91 2a 5f
        E 960 91 2a 00
        E 0 91 2a 5f
        E 480 91 2a 00
        E 240 91 2a 5f
        E 240 91 2a 00
        E 0 91 2a 5f
        E 240 91 2a 00
        E 240 91 2a 5f
        E 720 91 2a 00
        E 240 91 2a 5f
        E 480 91 2a 00
        E 0 91 28 5f
        E 960 91 28 00
        E 0 91 28 5f
        E 480 91 28 00
        E 240 91 28 5f
        E 240 91 28 00
        E 0 91 28 5f
        E 240 91 28 00
        E 1200 91 28 5f
        E 240 91 28 00
        E 0 91 26 5f
        E 240 91 26 00
        E 0 91 23 5f
        E 960 91 23 00
        E 0 91 23 5f
        E 480 91 23 00
        E 240 91 23 5f
        E 240 91 23 00
        E 0 91 23 5f
        E 240 91 23 00
        E 1200 91 23 5f
        E 240 91 23 00
        E 0 91 25 5f
        E 240 91 25 00
        E 0 91 26 5f
        E 960 91 26 00
        E 0 91 26 5f
        E 480 91 26 00
        E 240 91 26 5f
        E 240 91 26 00
        E 0 91 26 5f
        E 240 91 26 00
        E 240 91 26 5f
        E 240 91 26 00
        E 240 91 25 5f
        E 240 91 25 00
        E 0 91 26 5f
        E 240 91 26 00
        E 0 91 28 5f
        E 240 91 28 00
        E 240 91 2a 5f
        E 960 91 2a 00
        E 0 91 2a 5f
        E 480 91 2a 00
        E 240 91 1e 5f
        E 240 91 1e 00
        E 0 91 1e 5f
        E 240 91 1e 00
        E 240 91 1e 5f
        E 480 91 1e 00
        E 480 91 1e 5f
        E 240 91 1e 00
        E 0 91 1e 5f
        E 240 91 1e 00
        E 0 91 1c 5f
        E 960 91 1c 00
        E 0 91 1c 5f
        E 480 91 1c 00
        E 240 91 1c 5f
        E 240 91 1c 00
        E 0 91 1c 5f
        E 240 91 1c 00
        E 240 91 1c 5f
        E 480 91 1c 00
        E 0 91 1d 5f
        E 240 91 1d 00
        E 0 91 1e 5f
        E 240 91 1e 00
        E 0 91 1f 5f
        E 240 91 1f 00
        E 240 91 23 5f
        E 960 91 23 00
        E 0 91 23 5f
        E 480 91 23 00
        E 240 91 23 5f
        E 240 91 23 00
        E 0 91 23 5f
        E 240 91 23 00
        E 240 91 23 5f
        E 960 91 23 00
        E 0 91 23 5f
        E 240 91 23 00
        E 0 91 25 5f
        E 240 91 25 00
        E 0 91 26 5f
        E 960 91 26 00
        E 0 91 26 5f
        E 480 91 26 00
        E 240 91 26 5f
        E 240 91 26 00
        E 0 91 26 5f
        E 240 91 26 00
        E 240 91 26 5f
        E 480 91 26 00
        E 240 91 26 5f
        E 240 91 26 00
        E 0 91 26 5f
        E 480 91 26 00
        E 0 91 1e 5f
        E 960 91 1e 00
        E 0 91 1e 5f
        E 480 91 1e 00
        E 240 91 2a 5f
        E 240 91 2a 00
        E 0 91 1e 5f
        E 240 91 1e 00
        E 240 91 1e 5f
        E 480 91 1e 00
        E 480 91 1e 5f
        E 240 91 1e 00
        E 0 91 1e 5f
        E 240 91 1e 00
        E 0 91 1c 5f
        E 960 91 1c 00
        E 0 91 1c 5f
        E 480 91 1c 00
        E 480 91 1c 5f
        E 240 91 1c 00
        E 240 91 28 5f
        E 240 91 28 00
        E 240 91 1c 5f
        E 480 91 1c 00
        E 0 91 1c 5f
        E 240 91 1c 00
        E 0 91 1c 5f
        E 240 91 1c 00
        E 0 91 23 5f
        E 960 91 23 00
        E 0 91 23 5f
        E 480 91 23 00
        E 240 91 23 5f
        E 240 91 23 00
        E 0 91 2f 5f
        E 240 91 2f 00
        E 240 91 23 5f
        E 480 91 23 00
        E 480 91 23 5f
        E 240 91 23 00
        E 0 91 25 5f
        E 240 91 25 00
        E 0 91 26 5f
        E 960 91 26 00
        E 0 91 26 5f
        E 480 91 26 00
        E 240 91 26 5f
        E 240 91 26 00
        E 0 91 26 5f
        E 240 91 26 00
        E 240 91 25 5f
        E 480 91 25 00
        E 0 91 26 5f
        E 480 91 26 00
        E 0 91 28 5f
        E 480 91 28 00
        E 0 91 1e 5f
        E 960 91 1e 00
        E 0 91 1e 5f
        E 480 91 1e 00
        E 240 91 1e 5f
        E 240 91 1e 00
        E 0 91 2a 5f
        E 240 91 2a 00
        E 240 91 1e 5f
        E 480 91 1e 00
        E 480 91 1e 5f
        E 480 91 1e 00
        E 0 91 1c 5f
        E 960 91 1c 00
        E 0 91 1c 5f
        E 480 91 1c 00
        E 240 91 1c 5f
        E 240 91 1c 00
        E 0 91 1c 5f
        E 240 91 1c 00
        E 240 91 1c 5f
        E 240 91 1c 00
        E 0 91 1e 5f
        E 240 91 1e 00
        E 0 91 20 5f
        E 240 91 20 00
        E 0 91 23 5f
        E 240 91 23 00
        E 0 91 23 5f
        E 240 91 23 00
        E 0 91 23 5f
        E 240 91 23 00
        E 0 91 23 5f
        E 960 91 23 00
        E 0 91 23 5f
        E 480 91 23 00
        E 240 91 23 5f
        E 240 91 23 00
        E 0 91 23 5f
        E 240 91 23 00
        E 240 91 23 5f
        E 480 91 23 00
        E 0 91 23 5f
        E 240 91 23 00
        E 240 91 23 5f
        E 480 91 23 00
        E 0 91 26 5f
        E 960 91 26 00
        E 0 91 26 5f
        E 480 91 26 00
        E 240 91 26 5f
        E 240 91 26 00
        E 0 91 26 5f
        E 240 91 26 00
        E 240 91 26 5f
        E 480 91 26 00
        E 0 91 26 5f
        E 240 91 26 00
        E 240 91 28 5f
        E 480 91 28 00
        E 0 91 1e 5f
        E 960 91 1e 00
        E 0 91 1e 5f
        E 480 91 1e 00
        E 240 91 1e 5f
        E 240 91 1e 00
        E 0 91 1e 5f
        E 240 91 1e 00
        E 240 91 1e 5f
        E 480 91 1e 00
        E 0 91 1e 5f
        E 240 91 1e 00
        E 240 91 1e 5f
        E 480 91 1e 00
        E 0 91 1c 5f
        E 960 91 1c 00
        E 0 91 1c 5f
        E 480 91 1c 00
        E 240 91 28 5f
        E 240 91 28 00
        E 0 91 28 5f
        E 240 91 28 00
        E 240 91 2a 5f
        E 480 91 2a 00
        E 0 91 2d 5f
        E 240 91 2d 00
        E 0 91 2f 5f
        E 240 91 2f 00
        E 0 91 2f 5f
        E 480 91 2f 00
        E 0 91 23 5f
        E 960 91 23 00
        E 0 91 23 5f
        E 480 91 23 00
        E 240 91 23 5f
        E 240 91 23 00
        E 0 91 23 5f
        E 240 91 23 00
        E 240 91 23 5f
        E 480 91 23 00
        E 0 91 23 5f
        E 240 91 23 00
        E 240 91 23 5f
        E 480 91 23 00
        E 0 91 26 5f
        E 960 91 26 00
        E 0 91 26 5f
        E 480 91 26 00
        E 240 91 26 5f
        E 240 91 26 00
        E 0 91 26 5f
        E 240 91 26 00
        E 240 91 26 5f
        E 480 91 26 00
        E 0 91 26 5f
        E 240 91 26 00
        E 240 91 26 5f
        E 480 91 26 00
        E 0 91 1e 5f
        E 960 91 1e 00
        E 0 91 1e 5f
        E 480 91 1e 00
        E 240 91 1e 5f
        E 240 91 1e 00
        E 0 91 1e 5f
        E 240 91 1e 00
        E 240 91 1e 5f
        E 480 91 1e 00
        E 0 91 1e 5f
        E 240 91 1e 00
        E 240 91 1e 5f
        E 480 91 1e 00
        E 0 91 1c 5f
        E 960 91 1c 00
        E 0 91 1c 5f
        E 480 91 1c 00
        E 240 91 1c 5f
        E 240 91 1c 00
        E 0 91 1c 5f
        E 240 91 1c 00
        E 240 91 28 5f
        E 480 91 28 00
        E 0 91 28 5f
        E 240 91 28 00
        E 0 91 28 5f
        E 240 91 28 00
        E 0 91 28 5f
        E 480 91 28 00
        E 0 91 23 5f
        E 960 91 23 00
        E 0 91 23 5f
        E 480 91 23 00
        E 240 91 23 5f
        E 240 91 23 00
        E 0 91 23 5f
        E 240 91 23 00
        E 240 91 23 5f
        E 480 91 23 00
        E 0 91 23 5f
        E 240 91 23 00
        E 240 91 23 5f
        E 480 91 23 00
        E 0 91 26 5f
        E 960 91 26 00
        E 0 91 26 5f
        E 480 91 26 00
        E 240 91 26 5f
        E 240 91 26 00
        E 240 91 26 5f
        E 240 91 26 00
        E 0 91 26 5f
        E 240 91 26 00
        E 240 91 26 5f
        E 480 91 26 00
        E 0 91 25 5f
        E 240 91 25 00
        E 0 91 21 5f
        E 240 91 21 00
        E 0 91 1e 5f
        E 960 91 1e 00
        E 0 91 1e 5f
        E 480 91 1e 00
        E 480 91 1e 5f
        E 480 91 1e 00
        E 0 91 1e 5f
        E 240 91 1e 00
        E 240 91 1e 5f
        E 480 91 1e 00
        E 0 91 1e 5f
        E 480 91 1e 00
        E 0 91 1c 5f
        E 960 91 1c 00
        E 0 91 1c 5f
        E 480 91 1c 00
        E 480 91 1c 5f
        E 480 91 1c 00
        E 0 91 28 5f
        E 240 91 28 00
        E 0 91 1c 5f
        E 720 91 1c 00
        E 0 91 1e 5f
        E 240 91 1e 00
        E 0 91 1f 5f
        E 240 91 1f 00
        E 0 91 23 5f
        E 960 91 23 00
        E 0 91 23 5f
        E 480 91 23 00
        E 480 91 23 5f
        E 240 91 23 00
        E 240 91 23 5f
        E 480 91 23 00
        E 0 91 23 5f
        E 240 91 23 00
        E 240 91 23 5f
        E 480 91 23 00
        E 0 91 26 5f
        E 960 91 26 00
        E 0 91 26 5f
        E 480 91 26 00
        E 480 91 26 5f
        E 480 91 26 00
        E 0 91 26 5f
        E 480 91 26 00
        E 0 91 26 5f
        E 240 91 26 00
        E 240 91 26 5f
        E 480 91 26 00
        E 0 91 1e 5f
        E 960 91 1e 00
        E 0 91 1e 5f
        E 480 91 1e 00
        E 240 91 1e 5f
        E 240 91 1e 00
        E 0 91 1e 5f
        E 240 91 1e 00
        E 0 91 2a 5f
        E 480 91 2a 00
        E 0 91 1e 5f
        E 240 91 1e 00
        E 0 91 1e 5f
        E 240 91 1e 00
        E 0 91 2a 5f
        E 720 91 2a 00
        E 0 91 1c 5f
        E 960 91 1c 00
        E 0 91 1c 5f
        E 480 91 1c 00
        E 240 91 23 5f
        E 240 91 23 00
        E 0 91 28 5f
        E 240 91 28 00
        E 0 91 23 5f
        E 240 91 23 00
        E 0 91 28 5f
        E 240 91 28 00
        E 0 91 23 5f
        E 240 91 23 00
        E 0 91 28 5f
        E 240 91 28 00
        E 0 91 23 5f
        E 240 91 23 00
        E 0 91 28 5f
        E 240 91 28 00
        E 0 91 2a 5f
        E 240 91 2a 00
        E 0 91 23 5f
        E 960 91 23 00
        E 0 91 23 5f
        E 480 91 23 00
        E 240 91 23 5f
        E 240 91 23 00
        E 0 91 23 5f
        E 480 91 23 00
        E 480 91 23 5f
        E 480 91 23 00
        E 480 91 26 5f
        E 960 91 26 00
        E 0 91 26 5f
        E 480 91 26 00
        E 240 91 26 5f
        E 240 91 26 00
        E 0 91 26 5f
        E 480 91 26 00
        E 480 91 26 5f
        E 480 91 26 00
        E 240 91 21 5f
        E 240 91 21 00
        E 0 91 1e 5f
        E 960 91 1e 00
        E 0 91 1e 5f
        E 480 91 1e 00
        E 240 91 1e 5f
        E 240 91 1e 00
        E 0 91 2a 5f
        E 240 91 2a 00
        E 240 91 1e 5f
        E 480 91 1e 00
        E 0 91 1e 5f
        E 240 91 1e 00
        E 240 91 1e 5f
        E 480 91 1e 00
        E 0 91 1c 5f
        E 960 91 1c 00
        E 0 91 1c 5f
        E 480 91 1c 00
        E 240 91 1c 5f
        E 240 91 1c 00
        E 0 91 1c 5f
        E 240 91 1c 00
        E 1200 91 28 5f
        E 240 91 28 00
        E 0 91 26 5f
        E 240 91 26 00
        E 0 91 23 5f
        E 960 91 23 00
        E 0 91 23 5f
        E 480 91 23 00
        E 240 91 23 5f
        E 240 91 23 00
        E 0 91 23 5f
        E 240 91 23 00
        E 1200 91 23 5f
        E 240 91 23 00
        E 0 91 25 5f
        E 240 91 25 00
        E 0 91 26 5f
        E 960 91 26 00
        E 0 91 26 5f
        E 480 91 26 00
        E 240 91 26 5f
        E 240 91 26 00
        E 0 91 26 5f
        E 240 91 26 00
        E 240 91 26 5f
        E 240 91 26 00
        E 240 91 25 5f
        E 240 91 25 00
        E 0 91 26 5f
        E 240 91 26 00
        E 0 91 28 5f
        E 240 91 28 00
        E 240 91 2a 5f
        E 960 91 2a 00
        E 0 91 2a 5f
        E 480 91 2a 00
        E 240 91 1e 5f
        E 240 91 1e 00
        E 0 91 1e 5f
        E 240 91 1e 00
        E 240 91 1e 5f
        E 480 91 1e 00
        E 480 91 1e 5f
        E 240 91 1e 00
        E 0 91 1e 5f
        E 240 91 1e 00
        E 0 91 1c 5f
        E 960 91 1c 00
        E 0 91 1c 5f
        E 480 91 1c 00
        E 240 91 1c 5f
        E 240 91 1c 00
        E 0 91 1c 5f
        E 240 91 1c 00
        E 240 91 1c 5f
        E 480 91 1c 00
        E 0 91 1d 5f
        E 240 91 1d 00
        E 0 91 1e 5f
        E 240 91 1e 00
        E 0 91 1f 5f
        E 240 91 1f 00
        E 240 91 23 5f
        E 960 91 23 00
        E 0 91 23 5f
        E 480 91 23 00
        E 240 91 23 5f
        E 240 91 23 00
        E 0 91 23 5f
        E 240 91 23 00
        E 240 91 23 5f
        E 960 91 23 00
        E 0 91 23 5f
        E 240 91 23 00
        E 0 91 25 5f
        E 240 91 25 00
        E 0 91 26 5f
        E 960 91 26 00
        E 0 91 26 5f
        E 480 91 26 00
        E 240 91 26 5f
        E 240 91 26 00
        E 0 91 26 5f
        E 240 91 26 00
        E 240 91 26 5f
        E 720 91 26 00
        E 0 91 26 5f
        E 240 91 26 00
        E 0 91 26 5f
        E 480 91 26 00
        E 0 91 1e 5f
        E 960 91 1e 00
        E 0 91 1e 5f
        E 480 91 1e 00
        E 240 91 2a 5f
        E 240 91 2a 00
        E 0 91 1e 5f
        E 240 91 1e 00
        E 240 91 1e 5f
        E 480 91 1e 00
        E 480 91 1e 5f
        E 240 91 1e 00
        E 0 91 1e 5f
        E 240 91 1e 00
        E 0 91 1c 5f
        E 960 91 1c 00
        E 0 91 1c 5f
        E 480 91 1c 00
        E 480 91 1c 5f
        E 240 91 1c 00
        E 240 91 28 5f
        E 240 91 28 00
        E 240 91 1c 5f
        E 480 91 1c 00
        E 0 91 1c 5f
        E 240 91 1c 00
        E 0 91 1c 5f
        E 240 91 1c 00
        E 0 91 23 5f
        E 960 91 23 00
        E 0 91 23 5f
        E 480 91 23 00
        E 240 91 23 5f
        E 240 91 23 00
        E 0 91 2f 5f
        E 240 91 2f 00
        E 240 91 23 5f
        E 480 91 23 00
        E 480 91 23 5f
        E 240 91 23 00
        E 0 91 25 5f
        E 240 91 25 00
        E 0 91 26 5f
        E 960 91 26 00
        E 0 91 26 5f
        E 480 91 26 00
        E 240 91 26 5f
        E 240 91 26 00
        E 0 91 26 5f
        E 240 91 26 00
        E 240 91 25 5f
        E 480 91 25 00
        E 0 91 26 5f
        E 480 91 26 00
        E 0 91 28 5f
        E 480 91 28 00
        E 0 91 1e 5f
        E 960 91 1e 00
        E 0 91 1e 5f
        E 480 91 1e 00
        E 240 91 1e 5f
        E 240 91 1e 00
        E 0 91 2a 5f
        E 240 91 2a 00
        E 240 91 1e 5f
        E 480 91 1e 00
        E 480 91 1e 5f
        E 480 91 1e 00
        E 0 91 1c 5f
        E 960 91 1c 00
        E 0 91 1c 5f
        E 480 91 1c 00
        E 240 91 1c 5f
        E 240 91 1c 00
        E 0 91 1c 5f
        E 240 91 1c 00
        E 240 91 1c 5f
        E 240 91 1c 00
        E 0 91 1e 5f
        E 240 91 1e 00
        E 0 91 20 5f
        E 240 91 20 00
        E 0 91 23 5f
        E 240 91 23 00
        E 0 91 23 5f
        E 240 91 23 00
        E 0 91 23 5f
        E 240 91 23 00
        E 0 91 23 5f
        E 960 91 23 00
        E 0 91 23 5f
        E 480 91 23 00
        E 240 91 23 5f
        E 240 91 23 00
        E 0 91 23 5f
        E 240 91 23 00
        E 240 91 23 5f
        E 480 91 23 00
        E 0 91 23 5f
        E 240 91 23 00
        E 240 91 23 5f
        E 480 91 23 00
        E 0 91 26 5f
        E 960 91 26 00
        E 0 91 26 5f
        E 480 91 26 00
        E 240 91 26 5f
        E 240 91 26 00
        E 0 91 26 5f
        E 240 91 26 00
        E 240 91 26 5f
        E 480 91 26 00
        E 0 91 26 5f
        E 240 91 26 00
        E 240 91 28 5f
        E 480 91 28 00
        E 0 91 1e 5f
        E 960 91 1e 00
        E 0 91 1e 5f
        E 480 91 1e 00
        E 240 91 1e 5f
        E 240 91 1e 00
        E 0 91 2a 5f
        E 240 91 2a 00
        E 240 91 1e 5f
        E 480 91 1e 00
        E 0 91 1e 5f
        E 240 91 1e 00
        E 240 91 1e 5f
        E 480 91 1e 00
        E 0 91 1c 5f
        E 960 91 1c 00
        E 0 91 1c 5f
        E 480 91 1c 00
        E 240 91 1c 5f
        E 240 91 1c 00
        E 0 91 1c 5f
        E 240 91 1c 00
        E 240 91 2a 5f
        E 480 91 2a 00
        E 0 91 2d 5f
        E 240 91 2d 00
        E 0 91 2f 5f
        E 240 91 2f 00
        E 0 91 2f 5f
        E 480 91 2f 00
        E 0 91 23 5f
        E 960 91 23 00
        E 0 91 23 5f
        E 480 91 23 00
        E 240 91 23 5f
        E 240 91 23 00
        E 0 91 23 5f
        E 240 91 23 00
        E 240 91 23 5f
        E 480 91 23 00
        E 0 91 23 5f
        E 240 91 23 00
        E 240 91 23 5f
        E 480 91 23 00
        E 0 91 26 5f
        E 960 91 26 00
        E 0 91 26 5f
        E 480 91 26 00
        E 240 91 26 5f
        E 240 91 26 00
        E 0 91 26 5f
        E 240 91 26 00
        E 240 91 26 5f
        E 480 91 26 00
        E 0 91 26 5f
        E 240 91 26 00
        E 240 91 26 5f
        E 480 91 26 00
        E 0 91 1e 5f
        E 960 91 1e 00
        E 0 91 1e 5f
        E 480 91 1e 00
        E 240 91 2a 5f
        E 240 91 2a 00
        E 0 91 1e 5f
        E 240 91 1e 00
        E 240 91 1e 5f
        E 480 91 1e 00
        E 0 91 1e 5f
        E 240 91 1e 00
        E 240 91 1e 5f
        E 480 91 1e 00
        E 0 91 1c 5f
        E 960 91 1c 00
        E 0 91 1c 5f
        E 480 91 1c 00
        E 240 91 1c 5f
        E 240 91 1c 00
        E 0 91 28 5f
        E 240 91 28 00
        E 240 91 28 5f
        E 480 91 28 00
        E 0 91 28 5f
        E 240 91 28 00
        E 0 91 28 5f
        E 240 91 28 00
        E 0 91 28 5f
        E 480 91 28 00
        E 0 91 23 5f
        E 960 91 23 00
        E 0 91 23 5f
        E 480 91 23 00
        E 240 91 23 5f
        E 240 91 23 00
        E 0 91 23 5f
        E 240 91 23 00
        E 240 91 23 5f
        E 480 91 23 00
        E 0 91 23 5f
        E 240 91 23 00
        E 240 91 23 5f
        E 480 91 23 00
        E 0 91 26 5f
        E 960 91 26 00
        E 0 91 26 5f
        E 480 91 26 00
        E 240 91 26 5f
        E 240 91 26 00
        E 240 91 26 5f
        E 240 91 26 00
        E 240 91 26 5f
        E 480 91 26 00
        E 0 91 26 5f
        E 240 91 26 00
        E 0 91 25 5f
        E 240 91 25 00
        E 0 91 21 5f
        E 240 91 21 00
        E 0 91 1e 5f
        E 960 91 1e 00
        E 0 91 1e 5f
        E 480 91 1e 00
        E 480 91 1e 5f
        E 480 91 1e 00
        E 0 91 1e 5f
        E 240 91 1e 00
        E 240 91 1e 5f
        E 480 91 1e 00
        E 0 91 1e 5f
        E 480 91 1e 00
        E 0 91 1c 5f
        E 960 91 1c 00
        E 0 91 1c 5f
        E 480 91 1c 00
        E 480 91 1c 5f
        E 480 91 1c 00
        E 0 91 28 5f
        E 240 91 28 00
        E 0 91 1c 5f
        E 720 91 1c 00
        E 0 91 1e 5f
        E 240 91 1e 00
        E 0 91 1f 5f
        E 240 91 1f 00
        E 28800 91 2a 5f
        E 240 91 2a 00
        E 0 91 2a 2f
        E 240 91 2a 00
        E 0 91 2a 5f
        E 480 91 2a 00
        E 0 91 2d 5f
        E 240 91 2d 00
        E 0 91 2f 5f
        E 240 91 2f 00
        E 0 91 2d 5f
        E 480 91 2d 00
        E 15360 91 23 5f
        E 960 91 23 00
        E 0 91 23 5f
        E 240 91 23 00
        E 240 91 23 5f
        E 240 91 23 00
        E 240 91 23 5f
        E 240 91 23 00
        E 240 91 23 5f
        E 480 91 23 00
        E 0 91 23 5f
        E 240 91 23 00
        E 240 91 23 5f
        E 480 91 23 00
        E 0 91 26 5f
        E 960 91 26 00
        E 0 91 26 5f
        E 240 91 26 00
        E 240 91 26 5f
        E 240 91 26 00
        E 240 91 26 5f
        E 240 91 26 00
        E 240 91 26 5f
        E 480 91 26 00
        E 0 91 26 5f
        E 240 91 26 00
        E 240 91 26 5f
        E 480 91 26 00
        E 0 91 1e 5f
        E 960 91 1e 00
        E 0 91 1e 5f
        E 240 91 1e 00
        E 240 91 1e 5f
        E 240 91 1e 00
        E 240 91 1e 5f
        E 240 91 1e 00
        E 240 91 1e 5f
        E 480 91 1e 00
        E 0 91 1e 5f
        E 240 91 1e 00
        E 240 91 1e 5f
        E 480 91 1e 00
        E 0 91 1c 5f
        E 960 91 1c 00
        E 0 91 1c 5f
        E 480 91 1c 00
        E 240 91 1c 5f
        E 240 91 1c 00
        E 0 91 23 5f
        E 240 91 23 00
        E 0 91 25 5f
        E 240 91 25 00
        E 0 91 28 5f
        E 240 91 28 00
        E 0 91 2a 5f
        E 240 91 2a 00
        E 0 91 28 5f
        E 240 91 28 00
        E 0 91 25 5f
        E 240 91 25 00
        E 0 91 23 5f
        E 240 91 23 00
        E 0 91 1c 5f
        E 240 91 1c 00
        E 0 91 23 5f
        E 960 91 23 00
        E 0 91 23 5f
        E 240 91 23 00
        E 240 91 23 5f
        E 240 91 23 00
        E 240 91 23 5f
        E 240 91 23 00
        E 240 91 23 5f
        E 480 91 23 00
        E 0 91 23 5f
        E 240 91 23 00
        E 240 91 23 5f
        E 480 91 23 00
        E 0 91 26 5f
        E 960 91 26 00
        E 0 91 26 5f
        E 240 91 26 00
        E 240 91 26 5f
        E 240 91 26 00
        E 240 91 26 5f
        E 240 91 26 00
        E 240 91 26 5f
        E 480 91 26 00
        E 0 91 26 5f
        E 240 91 26 00
        E 240 91 26 5f
        E 480 91 26 00
        E 0 91 1e 5f
        E 960 91 1e 00
        E 0 91 1e 5f
        E 240 91 1e 00
        E 240 91 1e 5f
        E 240 91 1e 00
        E 240 91 1e 5f
        E 240 91 1e 00
        E 240 91 1e 5f
        E 480 91 1e 00
        E 0 91 1e 5f
        E 240 91 1e 00
        E 240 91 1e 5f
        E 480 91 1e 00
        E 0 91 1c 5f
        E 960 91 1c 00
        E 0 91 1c 5f
        E 480 91 1c 00
        E 240 91 1c 5f
        E 240 91 1c 00
        E 0 91 23 5f
        E 240 91 23 00
        E 0 91 25 5f
        E 240 91 25 00
        E 0 91 28 5f
        E 240 91 28 00
        E 0 91 2a 5f
        E 240 91 2a 00
        E 0 91 28 5f
        E 240 91 28 00
        E 0 91 25 5f
        E 240 91 25 00
        E 0 91 23 5f
        E 240 91 23 00
        E 0 91 1c 5f
        E 240 91 1c 00
        E 0 91 23 5f
        E 960 91 23 00
        E 0 91 23 5f
        E 240 91 23 00
        E 240 91 23 5f
        E 240 91 23 00
        E 240 91 23 5f
        E 240 91 23 00
        E 240 91 23 5f
        E 480 91 23 00
        E 0 91 23 5f
        E 240 91 23 00
        E 240 91 23 5f
        E 480 91 23 00
        E 0 91 26 5f
        E 960 91 26 00
        E 0 91 26 5f
        E 240 91 26 00
        E 240 91 26 5f
        E 240 91 26 00
        E 240 91 26 5f
        E 240 91 26 00
        E 240 91 26 5f
        E 480 91 26 00
        E 0 91 26 5f
        E 240 91 26 00
        E 240 91 26 5f
        E 480 91 26 00
        E 0 91 1e 5f
        E 960 91 1e 00
        E 0 91 1e 5f
        E 240 91 1e 00
        E 240 91 1e 5f
        E 240 91 1e 00
        E 240 91 1e 5f
        E 240 91 1e 00
        E 240 91 1e 5f
        E 480 91 1e 00
        E 0 91 1e 5f
        E 240 91 1e 00
        E 240 91 1e 5f
        E 480 91 1e 00
        E 0 91 1c 5f
        E 960 91 1c 00
        E 0 91 1c 5f
        E 480 91 1c 00
        E 240 91 1c 5f
        E 240 91 1c 00
        E 0 91 23 5f
        E 240 91 23 00
        E 0 91 25 5f
        E 240 91 25 00
        E 0 91 28 5f
        E 240 91 28 00
        E 0 91 2a 5f
        E 240 91 2a 00
        E 0 91 28 5f
        E 240 91 28 00
        E 0 91 25 5f
        E 240 91 25 00
        E 0 91 23 5f
        E 240 91 23 00
        E 0 91 1c 5f
        E 240 91 1c 00
        E 0 91 23 5f
        E 960 91 23 00
        E 0 91 23 5f
        E 240 91 23 00
        E 240 91 23 5f
        E 240 91 23 00
        E 240 91 23 5f
        E 240 91 23 00
        E 240 91 23 5f
        E 480 91 23 00
        E 0 91 23 5f
        E 240 91 23 00
        E 240 91 23 5f
        E 480 91 23 00
        E 0 91 26 5f
        E 960 91 26 00
        E 0 91 26 5f
        E 240 91 26 00
        E 240 91 26 5f
        E 240 91 26 00
        E 240 91 26 5f
        E 240 91 26 00
        E 240 91 26 5f
        E 480 91 26 00
        E 0 91 26 5f
        E 240 91 26 00
        E 240 91 26 5f
        E 480 91 26 00
        E 0 91 1e 5f
        E 960 91 1e 00
        E 0 91 1e 5f
        E 240 91 1e 00
        E 240 91 1e 5f
        E 240 91 1e 00
        E 240 91 1e 5f
        E 240 91 1e 00
        E 240 91 1e 5f
        E 480 91 1e 00
        E 0 91 1e 5f
        E 240 91 1e 00
        E 240 91 1e 5f
        E 480 91 1e 00
        E 0 91 1c 5f
        E 960 91 1c 00
        E 0 91 1c 5f
        E 480 91 1c 00
        E 240 91 1c 5f
        E 240 91 1c 00
        E 0 91 23 5f
        E 240 91 23 00
        E 0 91 25 5f
        E 240 91 25 00
        E 0 91 28 5f
        E 240 91 28 00
        E 0 91 2a 5f
        E 240 91 2a 00
        E 0 91 28 5f
        E 240 91 28 00
        E 0 91 25 5f
        E 240 91 25 00
        E 0 91 23 5f
        E 240 91 23 00
        E 0 91 1c 5f
        E 240 91 1c 00
        E 0 91 23 5f
        E 960 91 23 00
        E 0 91 23 5f
        E 240 91 23 00
        E 240 91 23 5f
        E 240 91 23 00
        E 240 91 23 5f
        E 240 91 23 00
        E 240 91 23 5f
        E 480 91 23 00
        E 0 91 23 5f
        E 240 91 23 00
        E 240 91 23 5f
        E 480 91 23 00
        E 0 91 26 5f
        E 960 91 26 00
        E 0 91 26 5f
        E 240 91 26 00
        E 240 91 26 5f
        E 240 91 26 00
        E 240 91 26 5f
        E 240 91 26 00
        E 240 91 26 5f
        E 480 91 26 00
        E 0 91 26 5f
        E 240 91 26 00
        E 240 91 26 5f
        E 480 91 26 00
        E 0 91 1e 5f
        E 960 91 1e 00
        E 0 91 1e 5f
        E 240 91 1e 00
        E 240 91 1e 5f
        E 240 91 1e 00
        E 240 91 1e 5f
        E 240 91 1e 00
        E 240 91 1e 5f
        E 480 91 1e 00
        E 0 91 1e 5f
        E 240 91 1e 00
        E 240 91 1e 5f
        E 480 91 1e 00
        E 0 91 1c 5f
        E 960 91 1c 00
        E 0 91 1c 5f
        E 480 91 1c 00
        E 240 91 1c 5f
        E 240 91 1c 00
        E 0 91 23 5f
        E 240 91 23 00
        E 0 91 25 5f
        E 240 91 25 00
        E 0 91 28 5f
        E 240 91 28 00
        E 0 91 2a 5f
        E 240 91 2a 00
        E 0 91 28 5f
        E 240 91 28 00
        E 0 91 25 5f
        E 240 91 25 00
        E 0 91 23 5f
        E 240 91 23 00
        E 0 91 1c 5f
        E 240 91 1c 00
        E 0 91 23 5f
        E 960 91 23 00
        E 0 91 23 5f
        E 240 91 23 00
        E 240 91 23 5f
        E 240 91 23 00
        E 240 91 23 5f
        E 240 91 23 00
        E 240 91 23 5f
        E 480 91 23 00
        E 0 91 23 5f
        E 240 91 23 00
        E 240 91 23 5f
        E 480 91 23 00
        E 0 91 26 5f
        E 960 91 26 00
        E 0 91 26 5f
        E 240 91 26 00
        E 240 91 26 5f
        E 240 91 26 00
        E 240 91 26 5f
        E 240 91 26 00
        E 240 91 26 5f
        E 480 91 26 00
        E 0 91 26 5f
        E 240 91 26 00
        E 240 91 26 5f
        E 480 91 26 00
        E 0 91 1e 5f
        E 960 91 1e 00
        E 0 91 1e 5f
        E 240 91 1e 00
        E 240 91 2a 5f
        E 240 91 2a 00
        E 0 91 1e 5f
        E 240 91 1e 00
        E 0 91 1e 5f
        E 240 91 1e 00
        E 240 91 1e 5f
        E 480 91 1e 00
        E 0 91 1e 5f
        E 240 91 1e 00
        E 240 91 1e 5f
        E 480 91 1e 00
        E 0 91 1c 5f
        E 960 91 1c 00
        E 0 91 1c 5f
        E 480 91 1c 00
        E 240 91 1c 5f
        E 240 91 1c 00
        E 0 91 23 5f
        E 240 91 23 00
        E 0 91 25 5f
        E 240 91 25 00
        E 0 91 28 5f
        E 240 91 28 00
        E 0 91 2a 5f
        E 240 91 2a 00
        E 0 91 28 5f
        E 240 91 28 00
        E 0 91 25 5f
        E 240 91 25 00
        E 0 91 23 5f
        E 240 91 23 00
        E 0 91 1c 5f
        E 240 91 1c 00
        E 0 91 23 5f
        E 960 91 23 00
        E 0 91 23 5f
        E 240 91 23 00
        E 240 91 23 5f
        E 240 91 23 00
        E 240 91 23 5f
        E 240 91 23 00
        E 240 91 23 5f
        E 480 91 23 00
        E 0 91 23 5f
        E 240 91 23 00
        E 240 91 23 5f
        E 480 91 23 00
        E 0 91 26 5f
        E 960 91 26 00
        E 0 91 26 5f
        E 240 91 26 00
        E 240 91 26 5f
        E 240 91 26 00
        E 0 91 26 5f
        E 240 91 26 00
        E 0 91 26 5f
        E 240 91 26 00
        E 240 91 26 5f
        E 480 91 26 00
        E 0 91 26 5f
        E 240 91 26 00
        E 240 91 26 5f
        E 480 91 26 00
        E 0 91 1e 5f
        E 960 91 1e 00
        E 0 91 1e 5f
        E 240 91 1e 00
        E 240 91 1e 5f
        E 240 91 1e 00
        E 240 91 1e 5f
        E 240 91 1e 00
        E 240 91 1e 5f
        E 480 91 1e 00
        E 0 91 1e 5f
        E 240 91 1e 00
        E 240 91 1e 5f
        E 480 91 1e 00
        E 0 91 1c 5f
        E 960 91 1c 00
        E 0 91 1c 5f
        E 480 91 1c 00
        E 240 91 1c 5f
        E 240 91 1c 00
        E 0 91 23 5f
        E 240 91 23 00
        E 0 91 25 5f
        E 240 91 25 00
        E 0 91 28 5f
        E 240 91 28 00
        E 0 91 2a 5f
        E 240 91 2a 00
        E 0 91 28 5f
        E 240 91 28 00
        E 0 91 25 5f
        E 240 91 25 00
        E 0 91 23 5f
        E 240 91 23 00
        E 0 91 1c 5f
        E 240 91 1c 00
        E 0 91 23 5f
        E 960 91 23 00
        E 0 91 23 5f
        E 240 91 23 00
        E 240 91 23 5f
        E 240 91 23 00
        E 0 91 23 5f
        E 240 91 23 00
        E 0 91 23 5f
        E 240 91 23 00
        E 240 91 23 5f
        E 480 91 23 00
        E 0 91 23 5f
        E 240 91 23 00
        E 240 91 23 5f
        E 480 91 23 00
        E 0 91 26 5f
        E 960 91 26 00
        E 0 91 26 5f
        E 240 91 26 00
        E 240 91 26 5f
        E 240 91 26 00
        E 240 91 26 5f
        E 240 91 26 00
        E 240 91 26 5f
        E 480 91 26 00
        E 0 91 26 5f
        E 240 91 26 00
        E 240 91 26 5f
        E 480 91 26 00
        E 0 91 1e 5f
        E 960 91 1e 00
        E 0 91 1e 5f
        E 240 91 1e 00
        E 240 91 1e 5f
        E 240 91 1e 00
        E 240 91 1e 5f
        E 240 91 1e 00
        E 240 91 1e 5f
        E 480 91 1e 00
        E 0 91 1e 5f
        E 240 91 1e 00
        E 240 91 1e 5f
        E 480 91 1e 00
        E 0 91 1c 5f
        E 960 91 1c 00
        E 0 91 1c 5f
        E 480 91 1c 00
        E 240 91 1c 5f
        E 240 91 1c 00
        E 0 91 23 5f
        E 240 91 23 00
        E 0 91 25 5f
        E 240 91 25 00
        E 0 91 28 5f
        E 240 91 28 00
        E 0 91 2a 5f
        E 240 91 2a 00
        E 0 91 28 5f
        E 240 91 28 00
        E 0 91 25 5f
        E 240 91 25 00
        E 0 91 23 5f
        E 240 91 23 00
        E 0 91 1c 5f
        E 240 91 1c 00
        E 0 91 23 5f
        E 960 91 23 00
        E 0 91 23 5f
        E 240 91 23 00
        E 240 91 23 5f
        E 240 91 23 00
        E 240 91 23 5f
        E 240 91 23 00
        E 240 91 23 5f
        E 480 91 23 00
        E 0 91 23 5f
        E 240 91 23 00
        E 240 91 23 5f
        E 480 91 23 00
        E 0 91 26 5f
        E 960 91 26 00
        E 0 91 26 5f
        E 240 91 26 00
        E 240 91 26 5f
        E 240 91 26 00
        E 240 91 26 5f
        E 240 91 26 00
        E 240 91 26 5f
        E 480 91 26 00
        E 0 91 26 5f
        E 240 91 26 00
        E 240 91 26 5f
        E 480 91 26 00
        E 0 91 1e 5f
        E 960 91 1e 00
        E 0 91 1e 5f
        E 240 91 1e 00
        E 240 91 1e 5f
        E 240 91 1e 00
        E 240 91 1e 5f
        E 240 91 1e 00
        E 240 91 1e 5f
        E 480 91 1e 00
        E 0 91 1e 5f
        E 240 91 1e 00
        E 240 91 1e 5f
        E 480 91 1e 00
        E 0 91 1c 5f
        E 960 91 1c 00
        E 0 91 1c 5f
        E 480 91 1c 00
        E 240 91 1c 5f
        E 240 91 1c 00
        E 0 91 23 5f
        E 240 91 23 00
        E 0 91 25 5f
        E 240 91 25 00
        E 0 91 28 5f
        E 240 91 28 00
        E 0 91 2a 5f
        E 240 91 2a 00
        E 0 91 28 5f
        E 240 91 28 00
        E 0 91 25 5f
        E 240 91 25 00
        E 0 91 23 5f
        E 240 91 23 00
        E 0 91 1c 5f
        E 240 91 1c 00
        E 0 91 23 5f
        E 960 91 23 00
        E 0 91 23 5f
        E 480 91 23 00
        E 420 91 22 5f
        E 60 91 22 00
        E 0 91 23 5f
        E 480 91 23 00
        E 480 91 23 5f
        E 480 91 23 00
        E 240 91 25 5f
        E 240 91 25 00
        E 0 91 26 5f
        E 960 91 26 00
        E 0 91 26 5f
        E 480 91 26 00
        E 420 91 25 5f
        E 60 91 25 00
        E 0 91 26 5f
        E 480 91 26 00
        E 480 91 26 5f
        E 480 91 26 00
        E 480 91 2a 5f
        E 960 91 2a 00
        E 0 91 2a 5f
        E 480 91 2a 00
        E 240 91 2a 5f
        E 240 91 2a 00
        E 0 91 2a 5f
        E 240 91 2a 00
        E 240 91 2a 5f
        E 720 91 2a 00
        E 240 91 2a 5f
        E 480 91 2a 00
        E 0 91 28 5f
        E 960 91 28 00
        E 0 91 28 5f
        E 480 91 28 00
        E 240 91 28 5f
        E 240 91 28 00
        E 0 91 28 5f
        E 240 91 28 00
        E 1200 91 28 5f
        E 240 91 28 00
        E 0 91 26 5f
        E 240 91 26 00
        E 0 91 23 5f
        E 960 91 23 00
        E 0 91 23 5f
        E 480 91 23 00
        E 240 91 23 5f
        E 240 91 23 00
        E 0 91 23 5f
        E 240 91 23 00
        E 1200 91 23 5f
        E 240 91 23 00
        E 0 91 25 5f
        E 240 91 25 00
        E 0 91 26 5f
        E 960 91 26 00
        E 0 91 26 5f
        E 480 91 26 00
        E 240 91 26 5f
        E 240 91 26 00
        E 0 91 26 5f
        E 240 91 26 00
        E 240 91 26 5f
        E 240 91 26 00
        E 240 91 25 5f
        E 240 91 25 00
        E 0 91 26 5f
        E 240 91 26 00
        E 0 91 28 5f
        E 240 91 28 00
        E 240 91 2a 5f
        E 960 91 2a 00
        E 0 91 2a 5f
        E 480 91 2a 00
        E 240 91 1e 5f
        E 240 91 1e 00
        E 0 91 1e 5f
        E 240 91 1e 00
        E 240 91 1e 5f
        E 480 91 1e 00
        E 480 91 1e 5f
        E 240 91 1e 00
        E 0 91 1e 5f
        E 240 91 1e 00
        E 0 91 1c 5f
        E 960 91 1c 00
        E 0 91 1c 5f
        E 480 91 1c 00
        E 240 91 1c 5f
        E 240 91 1c 00
        E 0 91 1c 5f
        E 240 91 1c 00
        E 240 91 1c 5f
        E 480 91 1c 00
        E 0 91 1d 5f
        E 240 91 1d 00
        E 0 91 1e 5f
        E 240 91 1e 00
        E 0 91 1f 5f
        E 240 91 1f 00
        E 240 91 23 5f
        E 960 91 23 00
        E 0 91 23 5f
        E 480 91 23 00
        E 420 91 22 5f
        E 60 91 22 00
        E 0 91 23 5f
        E 480 91 23 00
        E 480 91 23 5f
        E 480 91 23 00
        E 480 91 26 5f
        E 960 91 26 00
        E 0 91 26 5f
        E 480 91 26 00
        E 420 91 25 5f
        E 60 91 25 00
        E 0 91 26 5f
        E 480 91 26 00
        E 480 91 26 5f
        E 480 91 26 00
        E 480 91 2a 5f
        E 960 91 2a 00
        E 0 91 2a 5f
        E 480 91 2a 00
        E 240 91 2a 5f
        E 240 91 2a 00
        E 0 91 2a 5f
        E 240 91 2a 00
        E 240 91 2a 5f
        E 720 91 2a 00
        E 240 91 2a 5f
        E 480 91 2a 00
        E 0 91 28 5f
        E 960 91 28 00
        E 0 91 28 5f
        E 480 91 28 00
        E 240 91 28 5f
        E 240 91 28 00
        E 0 91 28 5f
        E 240 91 28 00
        E 1200 91 28 5f
        E 240 91 28 00
        E 0 91 26 5f
        E 238 91 26 00
        E 2 b0 7b 00
        GUID {42AF4CBC-3EE6-4442-B43C-041E3A692C5F}
        IGNTEMPO 0 120 4 4
        SRCCOLOR 24
        VELLANE -1 100 0
      >
    >
  >
  <TRACK {973B5916-2A04-4CDF-9D46-C60B87DE0F44}
    NAME "untitled - GetluckyfeatPharrellWilliams.mid [chan 3] [chan 3]"
    PEAKCOL 16809919
    BEAT -1
    AUTOMODE 0
    VOLPAN 1 0 -1 -1 1
    MUTESOLO 0 0 0
    IPHASE 0
    ISBUS 0 0
    BUSCOMP 0 0
    SHOWINMIX 1 0.6667 0.5 1 0.5 0 0 0
    FREEMODE 0
    SEL 1
    REC 0 0 0 0 0 0 0
    VU 2
    TRACKHEIGHT 0 0 0
    INQ 0 0 0 0.5 100 0 0 100
    NCHAN 2
    FX 1
    TRACKID {973B5916-2A04-4CDF-9D46-C60B87DE0F44}
    PERF 0
    MIDIOUT -1
    MAINSEND 1 0
    <ITEM
      POSITION 38.5
      SNAPOFFS 0
      LENGTH 242
      LOOP 1
      ALLTAKES 0
      FADEIN 1 0 0 1 0 0
      FADEOUT 1 0 0 1 0 0
      MUTE 0
      SEL 0
      IGUID {6A3A0129-E883-4524-AA7B-E881B34A9AF4}
      IID 12
      NAME "untitled - GetluckyfeatPharrellWilliams.mid [chan 3]"
      VOLPAN 1 0 1 -1
      SOFFS 0 0
      PLAYRATE 1 1 0 -1 0 0.0025
      CHANMODE 0
      GUID {35340B6C-D364-4D7A-A104-13728F95C553}
      <SOURCE MIDI
        HASDATA 1 960 QN
        POOLEDEVTS {1CDEA760-4FBF-4789-8290-33D8A2FF5342}
        E 12 b2 65 00
        E 2 b2 64 00
        E 2 b2 06 0c
        E 2 b2 26 00
        E 78 c2 21 00
        E 0 b2 07 7f
        E 0 b2 0a 40
        E 0 e2 00 40
        E 0 b2 5d 00
        E 0 b2 5b 00
        E 0 b2 5f 00
        E 0 b2 5c 00
        E 0 b2 07 7f
        E 0 b2 0a 3f
        E 0 b2 5d 00
        E 0 b2 5b 00
        E 0 b2 5f 00
        E 0 b2 5c 00
        E 3744 92 23 5f
        E 960 92 23 00
        E 0 92 23 5f
        E 480 92 23 00
        E 420 92 22 5f
        E 60 92 22 00
        E 0 92 23 5f
        E 480 92 23 00
        E 480 92 23 5f
        E 480 92 23 00
        E 480 92 26 5f
        E 960 92 26 00
        E 0 92 26 5f
        E 480 92 26 00
        E 420 92 25 5f
        E 60 92 25 00
        E 0 92 26 5f
        E 480 92 26 00
        E 480 92 26 5f
        E 480 92 26 00
        E 480 92 2a 5f
        E 960 92 2a 00
        E 0 92 2a 5f
        E 480 92 2a 00
        E 240 92 2a 5f
        E 240 92 2a 00
        E 0 92 2a 5f
        E 240 92 2a 00
        E 240 92 2a 5f
        E 720 92 2a 00
        E 240 92 2a 5f
        E 480 92 2a 00
        E 0 92 28 5f
        E 960 92 28 00
        E 0 92 28 5f
        E 480 92 28 00
        E 240 92 28 5f
        E 240 92 28 00
        E 0 92 28 5f
        E 240 92 28 00
        E 1200 92 28 5f
        E 240 92 28 00
        E 0 92 26 5f
        E 240 92 26 00
        E 0 92 23 5f
        E 960 92 23 00
        E 0 92 23 5f
        E 480 92 23 00
        E 240 92 23 5f
        E 240 92 23 00
        E 0 92 23 5f
        E 240 92 23 00
        E 1200 92 23 5f
        E 240 92 23 00
        E 0 92 25 5f
        E 240 92 25 00
        E 0 92 26 5f
        E 960 92 26 00
        E 0 92 26 5f
        E 480 92 26 00
        E 240 92 26 5f
        E 240 92 26 00
        E 0 92 26 5f
        E 240 92 26 00
        E 240 92 26 5f
        E 240 92 26 00
        E 240 92 25 5f
        E 240 92 25 00
        E 0 92 26 5f
        E 240 92 26 00
        E 0 92 28 5f
        E 240 92 28 00
        E 240 92 2a 5f
        E 960 92 2a 00
        E 0 92 2a 5f
        E 480 92 2a 00
        E 240 92 1e 5f
        E 240 92 1e 00
        E 0 92 1e 5f
        E 240 92 1e 00
        E 240 92 1e 5f
        E 480 92 1e 00
        E 480 92 1e 5f
        E 240 92 1e 00
        E 0 92 1e 5f
        E 240 92 1e 00
        E 0 92 1c 5f
        E 960 92 1c 00
        E 0 92 1c 5f
        E 480 92 1c 00
        E 240 92 1c 5f
        E 240 92 1c 00
        E 0 92 1c 5f
        E 240 92 1c 00
        E 240 92 1c 5f
        E 480 92 1c 00
        E 0 92 1d 5f
        E 240 92 1d 00
        E 0 92 1e 5f
        E 240 92 1e 00
        E 0 92 1f 5f
        E 240 92 1f 00
        E 240 92 17 5f
        E 960 92 17 00
        E 0 92 17 5f
        E 480 92 17 00
        E 240 92 17 5f
        E 240 92 17 00
        E 0 92 17 5f
        E 240 92 17 00
        E 240 92 17 5f
        E 960 92 17 00
        E 0 92 17 5f
        E 240 92 17 00
        E 0 92 19 5f
        E 240 92 19 00
        E 0 92 1a 5f
        E 960 92 1a 00
        E 0 92 1a 5f
        E 480 92 1a 00
        E 240 92 26 5f
        E 240 92 26 00
        E 0 92 26 5f
        E 240 92 26 00
        E 240 92 1a 5f
        E 240 92 1a 00
        E 240 92 1a 5f
        E 480 92 1a 00
        E 0 92 1a 5f
        E 240 92 1a 00
        E 0 92 1c 5f
        E 240 92 1c 00
        E 0 92 1e 5f
        E 960 92 1e 00
        E 0 92 1e 5f
        E 480 92 1e 00
        E 240 92 2a 5f
        E 240 92 2a 00
        E 0 92 1e 5f
        E 240 92 1e 00
        E 240 92 1e 5f
        E 480 92 1e 00
        E 480 92 1e 5f
        E 240 92 1e 00
        E 0 92 1e 5f
        E 240 92 1e 00
        E 0 92 1c 5f
        E 960 92 1c 00
        E 0 92 1c 5f
        E 480 92 1c 00
        E 480 92 1c 5f
        E 240 92 1c 00
        E 240 92 28 5f
        E 240 92 28 00
        E 240 92 1c 5f
        E 480 92 1c 00
        E 0 92 1c 5f
        E 240 92 1c 00
        E 0 92 1c 5f
        E 240 92 1c 00
        E 0 92 17 5f
        E 960 92 17 00
        E 0 92 17 5f
        E 480 92 17 00
        E 240 92 23 5f
        E 240 92 23 00
        E 0 92 17 5f
        E 240 92 17 00
        E 240 92 17 5f
        E 480 92 17 00
        E 480 92 17 5f
        E 240 92 17 00
        E 0 92 19 5f
        E 240 92 19 00
        E 0 92 1a 5f
        E 960 92 1a 00
        E 0 92 1a 5f
        E 480 92 1a 00
        E 240 92 1a 5f
        E 240 92 1a 00
        E 0 92 1a 5f
        E 240 92 1a 00
        E 240 92 19 5f
        E 480 92 19 00
        E 0 92 1a 5f
        E 480 92 1a 00
        E 0 92 1c 5f
        E 480 92 1c 00
        E 0 92 1e 5f
        E 960 92 1e 00
        E 0 92 1e 5f
        E 480 92 1e 00
        E 240 92 1e 5f
        E 240 92 1e 00
        E 0 92 2a 5f
        E 240 92 2a 00
        E 240 92 1e 5f
        E 480 92 1e 00
        E 240 92 1e 5f
        E 240 92 1e 00
        E 0 92 1e 5f
        E 480 92 1e 00
        E 0 92 1c 5f
        E 960 92 1c 00
        E 0 92 1c 5f
        E 480 92 1c 00
        E 240 92 1c 5f
        E 240 92 1c 00
        E 0 92 1c 5f
        E 240 92 1c 00
        E 240 92 1c 5f
        E 240 92 1c 00
        E 0 92 1e 5f
        E 240 92 1e 00
        E 0 92 20 5f
        E 240 92 20 00
        E 0 92 23 5f
        E 240 92 23 00
        E 0 92 23 5f
        E 240 92 23 00
        E 0 92 23 5f
        E 240 92 23 00
        E 0 92 17 5f
        E 960 92 17 00
        E 0 92 17 5f
        E 480 92 17 00
        E 240 92 17 5f
        E 240 92 17 00
        E 0 92 17 5f
        E 240 92 17 00
        E 240 92 17 5f
        E 480 92 17 00
        E 0 92 17 5f
        E 240 92 17 00
        E 240 92 17 5f
        E 480 92 17 00
        E 0 92 1a 5f
        E 960 92 1a 00
        E 0 92 1a 5f
        E 480 92 1a 00
        E 240 92 1a 5f
        E 240 92 1a 00
        E 0 92 1a 5f
        E 240 92 1a 00
        E 240 92 1a 5f
        E 480 92 1a 00
        E 0 92 1a 5f
        E 240 92 1a 00
        E 240 92 1c 5f
        E 480 92 1c 00
        E 0 92 1e 5f
        E 960 92 1e 00
        E 0 92 1e 5f
        E 480 92 1e 00
        E 240 92 2a 5f
        E 240 92 2a 00
        E 0 92 1e 5f
        E 240 92 1e 00
        E 240 92 1e 5f
        E 480 92 1e 00
        E 0 92 1e 5f
        E 240 92 1e 00
        E 240 92 1e 5f
        E 480 92 1e 00
        E 0 92 1c 5f
        E 960 92 1c 00
        E 0 92 1c 5f
        E 480 92 1c 00
        E 240 92 1c 5f
        E 240 92 1c 00
        E 0 92 1c 5f
        E 240 92 1c 00
        E 240 92 2a 5f
        E 480 92 2a 00
        E 0 92 2d 5f
        E 240 92 2d 00
        E 0 92 2f 5f
        E 240 92 2f 00
        E 0 92 2f 5f
        E 480 92 2f 00
        E 0 92 23 5f
        E 960 92 23 00
        E 0 92 23 5f
        E 480 92 23 00
        E 240 92 23 5f
        E 240 92 23 00
        E 0 92 23 5f
        E 240 92 23 00
        E 240 92 17 5f
        E 480 92 17 00
        E 0 92 17 5f
        E 240 92 17 00
        E 240 92 17 5f
        E 480 92 17 00
        E 0 92 1a 5f
        E 960 92 1a 00
        E 0 92 1a 5f
        E 480 92 1a 00
        E 240 92 1a 5f
        E 240 92 1a 00
        E 0 92 1a 5f
        E 240 92 1a 00
        E 240 92 1a 5f
        E 480 92 1a 00
        E 0 92 1a 5f
        E 240 92 1a 00
        E 240 92 1c 5f
        E 480 92 1c 00
        E 0 92 1e 5f
        E 960 92 1e 00
        E 0 92 1e 5f
        E 480 92 1e 00
        E 240 92 2a 5f
        E 240 92 2a 00
        E 0 92 1e 5f
        E 240 92 1e 00
        E 240 92 1e 5f
        E 480 92 1e 00
        E 0 92 1e 5f
        E 240 92 1e 00
        E 240 92 1e 5f
        E 480 92 1e 00
        E 0 92 1c 5f
        E 960 92 1c 00
        E 0 92 1c 5f
        E 480 92 1c 00
        E 240 92 28 5f
        E 240 92 28 00
        E 0 92 28 5f
        E 240 92 28 00
        E 240 92 28 5f
        E 480 92 28 00
        E 0 92 28 5f
        E 240 92 28 00
        E 0 92 28 5f
        E 240 92 28 00
        E 0 92 28 5f
        E 480 92 28 00
        E 0 92 17 5f
        E 960 92 17 00
        E 0 92 17 5f
        E 480 92 17 00
        E 240 92 17 5f
        E 240 92 17 00
        E 0 92 17 5f
        E 240 92 17 00
        E 240 92 17 5f
        E 480 92 17 00
        E 0 92 17 5f
        E 240 92 17 00
        E 240 92 17 5f
        E 240 92 17 00
        E 0 92 19 5f
        E 240 92 19 00
        E 0 92 1a 5f
        E 960 92 1a 00
        E 0 92 1a 5f
        E 480 92 1a 00
        E 240 92 1a 5f
        E 240 92 1a 00
        E 0 92 1a 5f
        E 240 92 1a 00
        E 0 92 1a 5f
        E 240 92 1a 00
        E 0 92 1a 5f
        E 240 92 1a 00
        E 240 92 1a 5f
        E 240 92 1a 00
        E 240 92 1a 5f
        E 240 92 1a 00
        E 0 92 1a 5f
        E 240 92 1a 00
        E 0 92 1e 5f
        E 960 92 1e 00
        E 0 92 1e 5f
        E 480 92 1e 00
        E 480 92 1e 5f
        E 480 92 1e 00
        E 0 92 1e 5f
        E 240 92 1e 00
        E 240 92 1e 5f
        E 480 92 1e 00
        E 240 92 1e 5f
        E 240 92 1e 00
        E 0 92 1c 5f
        E 960 92 1c 00
        E 0 92 1c 5f
        E 480 92 1c 00
        E 480 92 1c 5f
        E 480 92 1c 00
        E 0 92 28 5f
        E 240 92 28 00
        E 0 92 1c 5f
        E 240 92 1c 00
        E 0 92 1e 5f
        E 480 92 1e 00
        E 0 92 23 5f
        E 480 92 23 00
        E 0 92 17 5f
        E 960 92 17 00
        E 0 92 17 5f
        E 480 92 17 00
        E 480 92 17 5f
        E 240 92 17 00
        E 240 92 17 5f
        E 480 92 17 00
        E 0 92 17 5f
        E 240 92 17 00
        E 240 92 17 5f
        E 480 92 17 00
        E 0 92 1a 5f
        E 960 92 1a 00
        E 0 92 1a 5f
        E 480 92 1a 00
        E 480 92 1a 5f
        E 480 92 1a 00
        E 0 92 26 5f
        E 480 92 26 00
        E 0 92 1a 5f
        E 480 92 1a 00
        E 0 92 1a 5f
        E 240 92 1a 00
        E 0 92 1a 5f
        E 240 92 1a 00
        E 0 92 1e 5f
        E 960 92 1e 00
        E 0 92 1e 5f
        E 480 92 1e 00
        E 240 92 1e 5f
        E 240 92 1e 00
        E 0 92 1e 5f
        E 240 92 1e 00
        E 0 92 2a 5f
        E 480 92 2a 00
        E 0 92 1e 5f
        E 240 92 1e 00
        E 0 92 1e 5f
        E 240 92 1e 00
        E 0 92 2a 5f
        E 720 92 2a 00
        E 0 92 1c 5f
        E 960 92 1c 00
        E 0 92 1c 5f
        E 480 92 1c 00
        E 240 92 23 5f
        E 240 92 23 00
        E 0 92 28 5f
        E 240 92 28 00
        E 0 92 23 5f
        E 240 92 23 00
        E 0 92 28 5f
        E 240 92 28 00
        E 0 92 23 5f
        E 240 92 23 00
        E 0 92 28 5f
        E 240 92 28 00
        E 0 92 23 5f
        E 240 92 23 00
        E 0 92 2a 5f
        E 480 92 2a 00
        E 0 92 17 5f
        E 960 92 17 00
        E 0 92 17 5f
        E 480 92 17 00
        E 240 92 17 5f
        E 240 92 17 00
        E 0 92 17 5f
        E 480 92 17 00
        E 480 92 17 5f
        E 480 92 17 00
        E 240 92 17 5f
        E 240 92 17 00
        E 0 92 1a 5f
        E 960 92 1a 00
        E 0 92 1a 5f
        E 480 92 1a 00
        E 240 92 1a 5f
        E 240 92 1a 00
        E 0 92 1a 5f
        E 480 92 1a 00
        E 480 92 1a 5f
        E 480 92 1a 00
        E 240 92 1c 5f
        E 240 92 1c 00
        E 0 92 1e 5f
        E 960 92 1e 00
        E 0 92 1e 5f
        E 480 92 1e 00
        E 240 92 1e 5f
        E 240 92 1e 00
        E 0 92 1e 5f
        E 240 92 1e 00
        E 240 92 2a 5f
        E 480 92 2a 00
        E 0 92 1e 5f
        E 240 92 1e 00
        E 240 92 1e 5f
        E 480 92 1e 00
        E 0 92 28 5f
        E 960 92 28 00
        E 0 92 28 5f
        E 480 92 28 00
        E 240 92 28 5f
        E 240 92 28 00
        E 0 92 28 5f
        E 240 92 28 00
        E 1200 92 28 5f
        E 240 92 28 00
        E 0 92 26 5f
        E 240 92 26 00
        E 0 92 23 5f
        E 960 92 23 00
        E 0 92 23 5f
        E 480 92 23 00
        E 240 92 23 5f
        E 240 92 23 00
        E 0 92 23 5f
        E 240 92 23 00
        E 1200 92 23 5f
        E 240 92 23 00
        E 0 92 25 5f
        E 240 92 25 00
        E 0 92 26 5f
        E 960 92 26 00
        E 0 92 26 5f
        E 480 92 26 00
        E 240 92 26 5f
        E 240 92 26 00
        E 0 92 26 5f
        E 240 92 26 00
        E 240 92 26 5f
        E 240 92 26 00
        E 240 92 25 5f
        E 240 92 25 00
        E 0 92 26 5f
        E 240 92 26 00
        E 0 92 28 5f
        E 240 92 28 00
        E 240 92 2a 5f
        E 960 92 2a 00
        E 0 92 2a 5f
        E 480 92 2a 00
        E 240 92 1e 5f
        E 240 92 1e 00
        E 0 92 1e 5f
        E 240 92 1e 00
        E 240 92 1e 5f
        E 480 92 1e 00
        E 480 92 1e 5f
        E 240 92 1e 00
        E 0 92 1e 5f
        E 240 92 1e 00
        E 0 92 1c 5f
        E 960 92 1c 00
        E 0 92 1c 5f
        E 480 92 1c 00
        E 240 92 1c 5f
        E 240 92 1c 00
        E 0 92 1c 5f
        E 240 92 1c 00
        E 240 92 1c 5f
        E 480 92 1c 00
        E 0 92 1d 5f
        E 240 92 1d 00
        E 0 92 1e 5f
        E 240 92 1e 00
        E 0 92 1f 5f
        E 240 92 1f 00
        E 240 92 17 5f
        E 960 92 17 00
        E 0 92 17 5f
        E 480 92 17 00
        E 240 92 17 5f
        E 240 92 17 00
        E 0 92 17 5f
        E 240 92 17 00
        E 240 92 17 5f
        E 960 92 17 00
        E 0 92 17 5f
        E 240 92 17 00
        E 0 92 19 5f
        E 240 92 19 00
        E 0 92 1a 5f
        E 960 92 1a 00
        E 0 92 1a 5f
        E 480 92 1a 00
        E 240 92 1a 5f
        E 240 92 1a 00
        E 0 92 1a 5f
        E 240 92 1a 00
        E 240 92 1a 5f
        E 480 92 1a 00
        E 240 92 1a 5f
        E 480 92 1a 00
        E 0 92 1a 5f
        E 240 92 1a 00
        E 0 92 1e 5f
        E 960 92 1e 00
        E 0 92 1e 5f
        E 480 92 1e 00
        E 240 92 2a 5f
        E 240 92 2a 00
        E 0 92 1e 5f
        E 240 92 1e 00
        E 240 92 1e 5f
        E 480 92 1e 00
        E 480 92 1e 5f
        E 240 92 1e 00
        E 0 92 1e 5f
        E 240 92 1e 00
        E 0 92 1c 5f
        E 960 92 1c 00
        E 0 92 1c 5f
        E 480 92 1c 00
        E 480 92 1c 5f
        E 240 92 1c 00
        E 240 92 28 5f
        E 240 92 28 00
        E 240 92 1c 5f
        E 480 92 1c 00
        E 0 92 1c 5f
        E 240 92 1c 00
        E 0 92 1c 5f
        E 240 92 1c 00
        E 0 92 17 5f
        E 960 92 17 00
        E 0 92 17 5f
        E 480 92 17 00
        E 240 92 17 5f
        E 240 92 17 00
        E 0 92 23 5f
        E 240 92 23 00
        E 240 92 17 5f
        E 480 92 17 00
        E 480 92 17 5f
        E 240 92 17 00
        E 0 92 19 5f
        E 240 92 19 00
        E 0 92 1a 5f
        E 960 92 1a 00
        E 0 92 1a 5f
        E 480 92 1a 00
        E 240 92 1a 5f
        E 240 92 1a 00
        E 0 92 1a 5f
        E 240 92 1a 00
        E 240 92 19 5f
        E 480 92 19 00
        E 0 92 1a 5f
        E 480 92 1a 00
        E 0 92 1c 5f
        E 480 92 1c 00
        E 0 92 1e 5f
        E 960 92 1e 00
        E 0 92 1e 5f
        E 480 92 1e 00
        E 240 92 1e 5f
        E 240 92 1e 00
        E 0 92 2a 5f
        E 240 92 2a 00
        E 240 92 1e 5f
        E 480 92 1e 00
        E 480 92 1e 5f
        E 480 92 1e 00
        E 0 92 1c 5f
        E 960 92 1c 00
        E 0 92 1c 5f
        E 480 92 1c 00
        E 240 92 1c 5f
        E 240 92 1c 00
        E 0 92 1c 5f
        E 240 92 1c 00
        E 240 92 1c 5f
        E 240 92 1c 00
        E 0 92 1e 5f
        E 240 92 1e 00
        E 0 92 20 5f
        E 240 92 20 00
        E 0 92 23 5f
        E 240 92 23 00
        E 0 92 23 5f
        E 240 92 23 00
        E 0 92 23 5f
        E 240 92 23 00
        E 0 92 23 5f
        E 960 92 23 00
        E 0 92 23 5f
        E 480 92 23 00
        E 240 92 23 5f
        E 240 92 23 00
        E 0 92 17 5f
        E 240 92 17 00
        E 240 92 17 5f
        E 480 92 17 00
        E 0 92 17 5f
        E 240 92 17 00
        E 240 92 17 5f
        E 480 92 17 00
        E 0 92 1a 5f
        E 960 92 1a 00
        E 0 92 1a 5f
        E 480 92 1a 00
        E 240 92 1a 5f
        E 240 92 1a 00
        E 0 92 1a 5f
        E 240 92 1a 00
        E 240 92 1a 5f
        E 480 92 1a 00
        E 0 92 1a 5f
        E 240 92 1a 00
        E 240 92 1c 5f
        E 480 92 1c 00
        E 0 92 1e 5f
        E 960 92 1e 00
        E 0 92 1e 5f
        E 480 92 1e 00
        E 240 92 1e 5f
        E 240 92 1e 00
        E 0 92 2a 5f
        E 240 92 2a 00
        E 240 92 1e 5f
        E 480 92 1e 00
        E 0 92 1e 5f
        E 240 92 1e 00
        E 240 92 1e 5f
        E 480 92 1e 00
        E 0 92 1c 5f
        E 960 92 1c 00
        E 0 92 1c 5f
        E 480 92 1c 00
        E 240 92 1c 5f
        E 240 92 1c 00
        E 0 92 1c 5f
        E 240 92 1c 00
        E 240 92 2a 5f
        E 480 92 2a 00
        E 0 92 2d 5f
        E 240 92 2d 00
        E 0 92 2f 5f
        E 240 92 2f 00
        E 0 92 2f 5f
        E 480 92 2f 00
        E 0 92 23 5f
        E 960 92 23 00
        E 0 92 23 5f
        E 480 92 23 00
        E 240 92 23 5f
        E 240 92 23 00
        E 0 92 23 5f
        E 240 92 23 00
        E 240 92 17 5f
        E 480 92 17 00
        E 0 92 17 5f
        E 240 92 17 00
        E 240 92 17 5f
        E 480 92 17 00
        E 0 92 1a 5f
        E 960 92 1a 00
        E 0 92 1a 5f
        E 480 92 1a 00
        E 240 92 1a 5f
        E 240 92 1a 00
        E 0 92 26 5f
        E 240 92 26 00
        E 240 92 1a 5f
        E 480 92 1a 00
        E 0 92 1a 5f
        E 240 92 1a 00
        E 240 92 1a 5f
        E 480 92 1a 00
        E 0 92 1e 5f
        E 960 92 1e 00
        E 0 92 1e 5f
        E 480 92 1e 00
        E 240 92 2a 5f
        E 240 92 2a 00
        E 0 92 1e 5f
        E 240 92 1e 00
        E 240 92 1e 5f
        E 480 92 1e 00
        E 0 92 1e 5f
        E 240 92 1e 00
        E 240 92 1e 5f
        E 480 92 1e 00
        E 0 92 1c 5f
        E 960 92 1c 00
        E 0 92 1c 5f
        E 480 92 1c 00
        E 240 92 1c 5f
        E 240 92 1c 00
        E 0 92 28 5f
        E 240 92 28 00
        E 240 92 28 5f
        E 480 92 28 00
        E 0 92 28 5f
        E 240 92 28 00
        E 0 92 28 5f
        E 240 92 28 00
        E 0 92 28 5f
        E 480 92 28 00
        E 0 92 23 5f
        E 960 92 23 00
        E 0 92 23 5f
        E 480 92 23 00
        E 240 92 23 5f
        E 240 92 23 00
        E 0 92 23 5f
        E 240 92 23 00
        E 240 92 17 5f
        E 480 92 17 00
        E 0 92 17 5f
        E 240 92 17 00
        E 0 92 17 5f
        E 240 92 17 00
        E 0 92 17 5f
        E 480 92 17 00
        E 0 92 1a 5f
        E 960 92 1a 00
        E 0 92 1a 5f
        E 480 92 1a 00
        E 240 92 1a 5f
        E 240 92 1a 00
        E 240 92 1a 5f
        E 240 92 1a 00
        E 0 92 1a 5f
        E 240 92 1a 00
        E 240 92 1a 5f
        E 240 92 1a 00
        E 240 92 1a 5f
        E 480 92 1a 00
        E 0 92 1e 5f
        E 960 92 1e 00
        E 0 92 1e 5f
        E 480 92 1e 00
        E 480 92 1e 5f
        E 480 92 1e 00
        E 0 92 1e 5f
        E 240 92 1e 00
        E 240 92 1e 5f
        E 480 92 1e 00
        E 0 92 1e 5f
        E 480 92 1e 00
        E 0 92 1c 5f
        E 960 92 1c 00
        E 0 92 1c 5f
        E 480 92 1c 00
        E 480 92 1c 5f
        E 480 92 1c 00
        E 0 92 28 5f
        E 240 92 28 00
        E 0 92 1c 5f
        E 720 92 1c 00
        E 0 92 1e 5f
        E 240 92 1e 00
        E 0 92 1f 5f
        E 240 92 1f 00
        E 28800 92 2a 5f
        E 240 92 2a 00
        E 0 92 2a 2f
        E 240 92 2a 00
        E 0 92 2a 5f
        E 480 92 2a 00
        E 0 92 2d 5f
        E 240 92 2d 00
        E 0 92 2f 5f
        E 240 92 2f 00
        E 0 92 2d 5f
        E 480 92 2d 00
        E 15360 92 17 5f
        E 960 92 17 00
        E 0 92 17 5f
        E 240 92 17 00
        E 240 92 17 5f
        E 240 92 17 00
        E 240 92 17 5f
        E 240 92 17 00
        E 240 92 17 5f
        E 480 92 17 00
        E 0 92 17 5f
        E 240 92 17 00
        E 240 92 17 5f
        E 480 92 17 00
        E 0 92 1a 5f
        E 960 92 1a 00
        E 0 92 1a 5f
        E 240 92 1a 00
        E 240 92 1a 5f
        E 240 92 1a 00
        E 240 92 1a 5f
        E 240 92 1a 00
        E 240 92 1a 5f
        E 480 92 1a 00
        E 0 92 1a 5f
        E 240 92 1a 00
        E 240 92 1a 5f
        E 480 92 1a 00
        E 0 92 1e 5f
        E 960 92 1e 00
        E 0 92 1e 5f
        E 240 92 1e 00
        E 240 92 1e 5f
        E 240 92 1e 00
        E 240 92 1e 5f
        E 240 92 1e 00
        E 240 92 1e 5f
        E 480 92 1e 00
        E 0 92 1e 5f
        E 240 92 1e 00
        E 240 92 1e 5f
        E 480 92 1e 00
        E 0 92 1c 5f
        E 960 92 1c 00
        E 0 92 1c 5f
        E 480 92 1c 00
        E 240 92 1c 5f
        E 240 92 1c 00
        E 0 92 23 5f
        E 240 92 23 00
        E 0 92 25 5f
        E 240 92 25 00
        E 0 92 28 5f
        E 240 92 28 00
        E 0 92 2a 5f
        E 240 92 2a 00
        E 0 92 28 5f
        E 240 92 28 00
        E 0 92 25 5f
        E 240 92 25 00
        E 0 92 23 5f
        E 240 92 23 00
        E 0 92 1c 5f
        E 240 92 1c 00
        E 0 92 17 5f
        E 960 92 17 00
        E 0 92 17 5f
        E 240 92 17 00
        E 240 92 17 5f
        E 240 92 17 00
        E 240 92 17 5f
        E 240 92 17 00
        E 240 92 17 5f
        E 480 92 17 00
        E 0 92 17 5f
        E 240 92 17 00
        E 240 92 17 5f
        E 480 92 17 00
        E 0 92 1a 5f
        E 960 92 1a 00
        E 0 92 1a 5f
        E 240 92 1a 00
        E 240 92 1a 5f
        E 240 92 1a 00
        E 240 92 1a 5f
        E 240 92 1a 00
        E 240 92 1a 5f
        E 480 92 1a 00
        E 0 92 1a 5f
        E 240 92 1a 00
        E 240 92 1a 5f
        E 480 92 1a 00
        E 0 92 1e 5f
        E 960 92 1e 00
        E 0 92 1e 5f
        E 240 92 1e 00
        E 240 92 1e 5f
        E 240 92 1e 00
        E 240 92 1e 5f
        E 240 92 1e 00
        E 240 92 1e 5f
        E 480 92 1e 00
        E 0 92 1e 5f
        E 240 92 1e 00
        E 240 92 1e 5f
        E 480 92 1e 00
        E 0 92 1c 5f
        E 960 92 1c 00
        E 0 92 1c 5f
        E 480 92 1c 00
        E 240 92 1c 5f
        E 240 92 1c 00
        E 0 92 23 5f
        E 240 92 23 00
        E 0 92 25 5f
        E 240 92 25 00
        E 0 92 28 5f
        E 240 92 28 00
        E 0 92 2a 5f
        E 240 92 2a 00
        E 0 92 28 5f
        E 240 92 28 00
        E 0 92 25 5f
        E 240 92 25 00
        E 0 92 23 5f
        E 240 92 23 00
        E 0 92 1c 5f
        E 240 92 1c 00
        E 0 92 17 5f
        E 960 92 17 00
        E 0 92 17 5f
        E 240 92 17 00
        E 240 92 17 5f
        E 240 92 17 00
        E 240 92 17 5f
        E 240 92 17 00
        E 240 92 17 5f
        E 480 92 17 00
        E 0 92 17 5f
        E 240 92 17 00
        E 240 92 17 5f
        E 480 92 17 00
        E 0 92 1a 5f
        E 960 92 1a 00
        E 0 92 1a 5f
        E 240 92 1a 00
        E 240 92 1a 5f
        E 240 92 1a 00
        E 240 92 1a 5f
        E 240 92 1a 00
        E 240 92 1a 5f
        E 480 92 1a 00
        E 0 92 1a 5f
        E 240 92 1a 00
        E 240 92 1a 5f
        E 480 92 1a 00
        E 0 92 1e 5f
        E 960 92 1e 00
        E 0 92 1e 5f
        E 240 92 1e 00
        E 240 92 1e 5f
        E 240 92 1e 00
        E 240 92 1e 5f
        E 240 92 1e 00
        E 240 92 1e 5f
        E 480 92 1e 00
        E 0 92 1e 5f
        E 240 92 1e 00
        E 240 92 1e 5f
        E 480 92 1e 00
        E 0 92 1c 5f
        E 960 92 1c 00
        E 0 92 1c 5f
        E 480 92 1c 00
        E 240 92 1c 5f
        E 240 92 1c 00
        E 0 92 23 5f
        E 240 92 23 00
        E 0 92 25 5f
        E 240 92 25 00
        E 0 92 28 5f
        E 240 92 28 00
        E 0 92 2a 5f
        E 240 92 2a 00
        E 0 92 28 5f
        E 240 92 28 00
        E 0 92 25 5f
        E 240 92 25 00
        E 0 92 23 5f
        E 240 92 23 00
        E 0 92 1c 5f
        E 240 92 1c 00
        E 0 92 17 5f
        E 960 92 17 00
        E 0 92 17 5f
        E 240 92 17 00
        E 240 92 17 5f
        E 240 92 17 00
        E 240 92 17 5f
        E 240 92 17 00
        E 240 92 17 5f
        E 480 92 17 00
        E 0 92 17 5f
        E 240 92 17 00
        E 240 92 17 5f
        E 480 92 17 00
        E 0 92 1a 5f
        E 960 92 1a 00
        E 0 92 1a 5f
        E 240 92 1a 00
        E 240 92 1a 5f
        E 240 92 1a 00
        E 240 92 1a 5f
        E 240 92 1a 00
        E 240 92 1a 5f
        E 480 92 1a 00
        E 0 92 1a 5f
        E 240 92 1a 00
        E 240 92 1a 5f
        E 480 92 1a 00
        E 0 92 1e 5f
        E 960 92 1e 00
        E 0 92 1e 5f
        E 240 92 1e 00
        E 240 92 1e 5f
        E 240 92 1e 00
        E 240 92 1e 5f
        E 240 92 1e 00
        E 240 92 1e 5f
        E 480 92 1e 00
        E 0 92 1e 5f
        E 240 92 1e 00
        E 240 92 1e 5f
        E 480 92 1e 00
        E 0 92 1c 5f
        E 960 92 1c 00
        E 0 92 1c 5f
        E 480 92 1c 00
        E 240 92 1c 5f
        E 240 92 1c 00
        E 0 92 23 5f
        E 240 92 23 00
        E 0 92 25 5f
        E 240 92 25 00
        E 0 92 28 5f
        E 240 92 28 00
        E 0 92 2a 5f
        E 240 92 2a 00
        E 0 92 28 5f
        E 240 92 28 00
        E 0 92 25 5f
        E 240 92 25 00
        E 0 92 23 5f
        E 240 92 23 00
        E 0 92 1c 5f
        E 240 92 1c 00
        E 0 92 17 5f
        E 960 92 17 00
        E 0 92 17 5f
        E 240 92 17 00
        E 240 92 17 5f
        E 240 92 17 00
        E 240 92 17 5f
        E 240 92 17 00
        E 240 92 17 5f
        E 480 92 17 00
        E 0 92 17 5f
        E 240 92 17 00
        E 240 92 17 5f
        E 480 92 17 00
        E 0 92 1a 5f
        E 960 92 1a 00
        E 0 92 1a 5f
        E 240 92 1a 00
        E 240 92 1a 5f
        E 240 92 1a 00
        E 240 92 1a 5f
        E 240 92 1a 00
        E 240 92 1a 5f
        E 480 92 1a 00
        E 0 92 1a 5f
        E 240 92 1a 00
        E 240 92 1a 5f
        E 480 92 1a 00
        E 0 92 1e 5f
        E 960 92 1e 00
        E 0 92 1e 5f
        E 240 92 1e 00
        E 240 92 1e 5f
        E 240 92 1e 00
        E 240 92 1e 5f
        E 240 92 1e 00
        E 240 92 1e 5f
        E 480 92 1e 00
        E 0 92 1e 5f
        E 240 92 1e 00
        E 240 92 1e 5f
        E 480 92 1e 00
        E 0 92 1c 5f
        E 960 92 1c 00
        E 0 92 1c 5f
        E 480 92 1c 00
        E 240 92 1c 5f
        E 240 92 1c 00
        E 0 92 23 5f
        E 240 92 23 00
        E 0 92 25 5f
        E 240 92 25 00
        E 0 92 28 5f
        E 240 92 28 00
        E 0 92 2a 5f
        E 240 92 2a 00
        E 0 92 28 5f
        E 240 92 28 00
        E 0 92 25 5f
        E 240 92 25 00
        E 0 92 23 5f
        E 240 92 23 00
        E 0 92 1c 5f
        E 240 92 1c 00
        E 0 92 17 5f
        E 960 92 17 00
        E 0 92 17 5f
        E 240 92 17 00
        E 240 92 23 5f
        E 240 92 23 00
        E 0 92 23 5f
        E 240 92 23 00
        E 0 92 17 5f
        E 240 92 17 00
        E 240 92 17 5f
        E 480 92 17 00
        E 0 92 17 5f
        E 240 92 17 00
        E 240 92 17 5f
        E 240 92 17 00
        E 0 92 19 5f
        E 240 92 19 00
        E 0 92 1a 5f
        E 960 92 1a 00
        E 0 92 1a 5f
        E 240 92 1a 00
        E 240 92 1a 5f
        E 240 92 1a 00
        E 240 92 1a 5f
        E 240 92 1a 00
        E 240 92 1a 5f
        E 480 92 1a 00
        E 0 92 1a 5f
        E 240 92 1a 00
        E 240 92 1a 5f
        E 480 92 1a 00
        E 0 92 1e 5f
        E 960 92 1e 00
        E 0 92 1e 5f
        E 240 92 1e 00
        E 240 92 2a 5f
        E 240 92 2a 00
        E 0 92 1e 5f
        E 240 92 1e 00
        E 0 92 1e 5f
        E 240 92 1e 00
        E 240 92 1e 5f
        E 480 92 1e 00
        E 0 92 1e 5f
        E 240 92 1e 00
        E 240 92 1e 5f
        E 480 92 1e 00
        E 0 92 1c 5f
        E 960 92 1c 00
        E 0 92 1c 5f
        E 480 92 1c 00
        E 240 92 1c 5f
        E 240 92 1c 00
        E 0 92 23 5f
        E 240 92 23 00
        E 0 92 25 5f
        E 240 92 25 00
        E 0 92 28 5f
        E 240 92 28 00
        E 0 92 2a 5f
        E 240 92 2a 00
        E 0 92 28 5f
        E 240 92 28 00
        E 0 92 25 5f
        E 240 92 25 00
        E 0 92 23 5f
        E 240 92 23 00
        E 0 92 1c 5f
        E 240 92 1c 00
        E 0 92 17 5f
        E 960 92 17 00
        E 0 92 17 5f
        E 240 92 17 00
        E 240 92 23 5f
        E 240 92 23 00
        E 0 92 23 5f
        E 240 92 23 00
        E 0 92 17 5f
        E 240 92 17 00
        E 240 92 17 5f
        E 480 92 17 00
        E 0 92 17 5f
        E 240 92 17 00
        E 240 92 17 5f
        E 240 92 17 00
        E 0 92 19 5f
        E 240 92 19 00
        E 0 92 1a 5f
        E 960 92 1a 00
        E 0 92 1a 5f
        E 240 92 1a 00
        E 240 92 26 5f
        E 240 92 26 00
        E 0 92 1a 5f
        E 240 92 1a 00
        E 0 92 1a 5f
        E 240 92 1a 00
        E 240 92 1a 5f
        E 480 92 1a 00
        E 0 92 1a 5f
        E 240 92 1a 00
        E 240 92 1a 5f
        E 480 92 1a 00
        E 0 92 1e 5f
        E 960 92 1e 00
        E 0 92 1e 5f
        E 240 92 1e 00
        E 240 92 2a 5f
        E 240 92 2a 00
        E 0 92 1e 5f
        E 240 92 1e 00
        E 0 92 1e 5f
        E 240 92 1e 00
        E 240 92 1e 5f
        E 480 92 1e 00
        E 0 92 1e 5f
        E 240 92 1e 00
        E 240 92 1e 5f
        E 480 92 1e 00
        E 0 92 1c 5f
        E 960 92 1c 00
        E 0 92 1c 5f
        E 480 92 1c 00
        E 240 92 1c 5f
        E 240 92 1c 00
        E 0 92 23 5f
        E 240 92 23 00
        E 0 92 25 5f
        E 240 92 25 00
        E 0 92 28 5f
        E 240 92 28 00
        E 0 92 2a 5f
        E 240 92 2a 00
        E 0 92 28 5f
        E 240 92 28 00
        E 0 92 25 5f
        E 240 92 25 00
        E 0 92 23 5f
        E 240 92 23 00
        E 0 92 1c 5f
        E 240 92 1c 00
        E 0 92 17 5f
        E 960 92 17 00
        E 0 92 17 5f
        E 240 92 17 00
        E 240 92 23 5f
        E 240 92 23 00
        E 0 92 23 5f
        E 240 92 23 00
        E 0 92 17 5f
        E 240 92 17 00
        E 240 92 17 5f
        E 480 92 17 00
        E 0 92 17 5f
        E 240 92 17 00
        E 240 92 17 5f
        E 240 92 17 00
        E 0 92 19 5f
        E 240 92 19 00
        E 0 92 1a 5f
        E 960 92 1a 00
        E 0 92 1a 5f
        E 240 92 1a 00
        E 240 92 26 5f
        E 240 92 26 00
        E 0 92 1a 5f
        E 240 92 1a 00
        E 0 92 1a 5f
        E 240 92 1a 00
        E 240 92 1a 5f
        E 480 92 1a 00
        E 0 92 1a 5f
        E 240 92 1a 00
        E 240 92 1a 5f
        E 480 92 1a 00
        E 0 92 1e 5f
        E 960 92 1e 00
        E 0 92 1e 5f
        E 240 92 1e 00
        E 240 92 2a 5f
        E 240 92 2a 00
        E 0 92 1e 5f
        E 240 92 1e 00
        E 0 92 1e 5f
        E 240 92 1e 00
        E 240 92 1e 5f
        E 480 92 1e 00
        E 0 92 1e 5f
        E 240 92 1e 00
        E 240 92 1e 5f
        E 480 92 1e 00
        E 0 92 1c 5f
        E 960 92 1c 00
        E 0 92 1c 5f
        E 480 92 1c 00
        E 240 92 1c 5f
        E 240 92 1c 00
        E 0 92 23 5f
        E 240 92 23 00
        E 0 92 25 5f
        E 240 92 25 00
        E 0 92 28 5f
        E 240 92 28 00
        E 0 92 2a 5f
        E 240 92 2a 00
        E 0 92 28 5f
        E 240 92 28 00
        E 0 92 25 5f
        E 240 92 25 00
        E 0 92 23 5f
        E 240 92 23 00
        E 0 92 1c 5f
        E 240 92 1c 00
        E 0 92 17 5f
        E 960 92 17 00
        E 0 92 17 5f
        E 240 92 17 00
        E 240 92 23 5f
        E 240 92 23 00
        E 0 92 23 5f
        E 240 92 23 00
        E 0 92 17 5f
        E 240 92 17 00
        E 240 92 17 5f
        E 480 92 17 00
        E 0 92 17 5f
        E 240 92 17 00
        E 240 92 17 5f
        E 240 92 17 00
        E 0 92 19 5f
        E 240 92 19 00
        E 0 92 1a 5f
        E 960 92 1a 00
        E 0 92 1a 5f
        E 240 92 1a 00
        E 240 92 26 5f
        E 240 92 26 00
        E 0 92 1a 5f
        E 240 92 1a 00
        E 0 92 1a 5f
        E 240 92 1a 00
        E 240 92 1a 5f
        E 480 92 1a 00
        E 0 92 1a 5f
        E 240 92 1a 00
        E 240 92 1a 5f
        E 480 92 1a 00
        E 0 92 1e 5f
        E 960 92 1e 00
        E 0 92 1e 5f
        E 240 92 1e 00
        E 240 92 2a 5f
        E 240 92 2a 00
        E 0 92 1e 5f
        E 240 92 1e 00
        E 0 92 1e 5f
        E 240 92 1e 00
        E 240 92 1e 5f
        E 480 92 1e 00
        E 0 92 1e 5f
        E 240 92 1e 00
        E 240 92 1e 5f
        E 480 92 1e 00
        E 0 92 1c 5f
        E 960 92 1c 00
        E 0 92 1c 5f
        E 480 92 1c 00
        E 240 92 1c 5f
        E 240 92 1c 00
        E 0 92 28 5f
        E 240 92 28 00
        E 0 92 2a 5f
        E 240 92 2a 00
        E 0 92 2a 5f
        E 480 92 2a 00
        E 0 92 2d 5f
        E 240 92 2d 00
        E 0 92 2f 5f
        E 240 92 2f 00
        E 0 92 2d 5f
        E 480 92 2d 00
        E 0 92 23 5f
        E 960 92 23 00
        E 0 92 23 5f
        E 480 92 23 00
        E 420 92 22 5f
        E 60 92 22 00
        E 0 92 23 5f
        E 480 92 23 00
        E 480 92 23 5f
        E 480 92 23 00
        E 240 92 25 5f
        E 240 92 25 00
        E 0 92 26 5f
        E 960 92 26 00
        E 0 92 26 5f
        E 480 92 26 00
        E 420 92 25 5f
        E 60 92 25 00
        E 0 92 26 5f
        E 480 92 26 00
        E 480 92 26 5f
        E 480 92 26 00
        E 480 92 2a 5f
        E 960 92 2a 00
        E 0 92 2a 5f
        E 480 92 2a 00
        E 240 92 2a 5f
        E 240 92 2a 00
        E 0 92 2a 5f
        E 240 92 2a 00
        E 240 92 2a 5f
        E 720 92 2a 00
        E 240 92 2a 5f
        E 480 92 2a 00
        E 0 92 28 5f
        E 960 92 28 00
        E 0 92 28 5f
        E 480 92 28 00
        E 240 92 28 5f
        E 240 92 28 00
        E 0 92 28 5f
        E 240 92 28 00
        E 1200 92 28 5f
        E 240 92 28 00
        E 0 92 26 5f
        E 240 92 26 00
        E 0 92 23 5f
        E 960 92 23 00
        E 0 92 23 5f
        E 480 92 23 00
        E 240 92 23 5f
        E 240 92 23 00
        E 0 92 23 5f
        E 240 92 23 00
        E 1200 92 23 5f
        E 240 92 23 00
        E 0 92 25 5f
        E 240 92 25 00
        E 0 92 26 5f
        E 960 92 26 00
        E 0 92 26 5f
        E 480 92 26 00
        E 240 92 26 5f
        E 240 92 26 00
        E 0 92 26 5f
        E 240 92 26 00
        E 240 92 26 5f
        E 240 92 26 00
        E 240 92 25 5f
        E 240 92 25 00
        E 0 92 26 5f
        E 240 92 26 00
        E 0 92 28 5f
        E 240 92 28 00
        E 240 92 2a 5f
        E 960 92 2a 00
        E 0 92 2a 5f
        E 480 92 2a 00
        E 240 92 1e 5f
        E 240 92 1e 00
        E 0 92 1e 5f
        E 240 92 1e 00
        E 240 92 1e 5f
        E 480 92 1e 00
        E 480 92 1e 5f
        E 240 92 1e 00
        E 0 92 1e 5f
        E 240 92 1e 00
        E 0 92 1c 5f
        E 960 92 1c 00
        E 0 92 1c 5f
        E 480 92 1c 00
        E 240 92 1c 5f
        E 240 92 1c 00
        E 0 92 1c 5f
        E 240 92 1c 00
        E 240 92 1c 5f
        E 480 92 1c 00
        E 0 92 1d 5f
        E 240 92 1d 00
        E 0 92 1e 5f
        E 240 92 1e 00
        E 0 92 1f 5f
        E 240 92 1f 00
        E 240 92 23 5f
        E 960 92 23 00
        E 0 92 23 5f
        E 480 92 23 00
        E 420 92 22 5f
        E 60 92 22 00
        E 0 92 23 5f
        E 480 92 23 00
        E 480 92 23 5f
        E 480 92 23 00
        E 480 92 26 5f
        E 960 92 26 00
        E 0 92 26 5f
        E 480 92 26 00
        E 420 92 25 5f
        E 60 92 25 00
        E 0 92 26 5f
        E 480 92 26 00
        E 480 92 26 5f
        E 480 92 26 00
        E 480 92 2a 5f
        E 960 92 2a 00
        E 0 92 2a 5f
        E 480 92 2a 00
        E 240 92 2a 5f
        E 240 92 2a 00
        E 0 92 2a 5f
        E 240 92 2a 00
        E 240 92 2a 5f
        E 720 92 2a 00
        E 240 92 2a 5f
        E 480 92 2a 00
        E 0 92 28 5f
        E 960 92 28 00
        E 0 92 28 5f
        E 480 92 28 00
        E 240 92 28 5f
        E 240 92 28 00
        E 0 92 28 5f
        E 240 92 28 00
        E 1200 92 28 5f
        E 240 92 28 00
        E 0 92 26 5f
        E 238 92 26 00
        E 2 b0 7b 00
        GUID {FACDEAA0-7503-415E-8C11-BB952F791EC1}
        IGNTEMPO 0 120 4 4
        SRCCOLOR 26
        VELLANE -1 100 0
      >
    >
  >
  <TRACK {0D0436A6-B40A-4E6D-8ADA-F540513DCE43}
    NAME "untitled - GetluckyfeatPharrellWilliams.mid [chan 4] [chan 4]"
    PEAKCOL 29616490
    BEAT -1
    AUTOMODE 0
    VOLPAN 1 0 -1 -1 1
    MUTESOLO 0 0 0
    IPHASE 0
    ISBUS 0 0
    BUSCOMP 0 0
    SHOWINMIX 1 0.6667 0.5 1 0.5 0 0 0
    FREEMODE 0
    SEL 1
    REC 0 0 0 0 0 0 0
    VU 2
    TRACKHEIGHT 0 0 0
    INQ 0 0 0 0.5 100 0 0 100
    NCHAN 2
    FX 1
    TRACKID {0D0436A6-B40A-4E6D-8ADA-F540513DCE43}
    PERF 0
    MIDIOUT -1
    MAINSEND 1 0
    <ITEM
      POSITION 38.5
      SNAPOFFS 0
      LENGTH 242
      LOOP 1
      ALLTAKES 0
      FADEIN 1 0 0 1 0 0
      FADEOUT 1 0 0 1 0 0
      MUTE 0
      SEL 0
      IGUID {84E1114D-6981-48D7-BD89-1D52B4953F97}
      IID 13
      NAME "untitled - GetluckyfeatPharrellWilliams.mid [chan 4]"
      VOLPAN 1 0 1 -1
      SOFFS 0 0
      PLAYRATE 1 1 0 -1 0 0.0025
      CHANMODE 0
      GUID {FAF6649C-9D55-4F85-B621-C12793AE8242}
      <SOURCE MIDI
        HASDATA 1 960 QN
        POOLEDEVTS {6DDD78B7-788D-445F-80B5-1E44A535C46A}
        E 18 b3 65 00
        E 2 b3 64 00
        E 2 b3 06 0c
        E 2 b3 26 00
        E 464616 b0 7b 00
        GUID {2FA4B746-A29F-4646-974B-3FADB2D72B7A}
        IGNTEMPO 0 120 4 4
        SRCCOLOR 28
        VELLANE -1 100 0
      >
    >
  >
  <TRACK {421966F5-E197-4C9F-9F36-60525B3DAF41}
    NAME "untitled - GetluckyfeatPharrellWilliams.mid [chan 5] [chan 5]"
    PEAKCOL 25202768
    BEAT -1
    AUTOMODE 0
    VOLPAN 1 0 -1 -1 1
    MUTESOLO 0 0 0
    IPHASE 0
    ISBUS 0 0
    BUSCOMP 0 0
    SHOWINMIX 1 0.6667 0.5 1 0.5 0 0 0
    FREEMODE 0
    SEL 1
    REC 0 0 0 0 0 0 0
    VU 2
    TRACKHEIGHT 0 0 0
    INQ 0 0 0 0.5 100 0 0 100
    NCHAN 2
    FX 1
    TRACKID {421966F5-E197-4C9F-9F36-60525B3DAF41}
    PERF 0
    MIDIOUT -1
    MAINSEND 1 0
    <ITEM
      POSITION 38.5
      SNAPOFFS 0
      LENGTH 242
      LOOP 1
      ALLTAKES 0
      FADEIN 1 0 0 1 0 0
      FADEOUT 1 0 0 1 0 0
      MUTE 0
      SEL 0
      IGUID {4AD833D6-C587-46FE-9B41-5C55504797B8}
      IID 14
      NAME "untitled - GetluckyfeatPharrellWilliams.mid [chan 5]"
      VOLPAN 1 0 1 -1
      SOFFS 0 0
      PLAYRATE 1 1 0 -1 0 0.0025
      CHANMODE 0
      GUID {92F5FFCB-C5A8-4CAD-B210-432E3937E2C8}
      <SOURCE MIDI
        HASDATA 1 960 QN
        POOLEDEVTS {6E7B583E-14FC-41D9-A313-81461C80FDEA}
        E 24 b4 65 00
        E 2 b4 64 00
        E 2 b4 06 0c
        E 2 b4 26 00
        E 464610 b0 7b 00
        GUID {ECE945CC-2256-4410-9B08-F0EF9F5517F3}
        IGNTEMPO 0 120 4 4
        SRCCOLOR 30
        VELLANE -1 100 0
      >
    >
  >
  <TRACK {EA8DE66B-75C4-47CC-86B4-F019EC5F464E}
    NAME "untitled - GetluckyfeatPharrellWilliams.mid [chan 6] [chan 6]"
    PEAKCOL 32586893
    BEAT -1
    AUTOMODE 0
    VOLPAN 1 0 -1 -1 1
    MUTESOLO 0 0 0
    IPHASE 0
    ISBUS 0 0
    BUSCOMP 0 0
    SHOWINMIX 1 0.6667 0.5 1 0.5 0 0 0
    FREEMODE 0
    SEL 1
    REC 0 0 0 0 0 0 0
    VU 2
    TRACKHEIGHT 0 0 0
    INQ 0 0 0 0.5 100 0 0 100
    NCHAN 2
    FX 1
    TRACKID {EA8DE66B-75C4-47CC-86B4-F019EC5F464E}
    PERF 0
    MIDIOUT -1
    MAINSEND 1 0
    <ITEM
      POSITION 38.5
      SNAPOFFS 0
      LENGTH 242
      LOOP 1
      ALLTAKES 0
      FADEIN 1 0 0 1 0 0
      FADEOUT 1 0 0 1 0 0
      MUTE 0
      SEL 0
      IGUID {DE83896C-E512-4F3F-B506-5C577458B3D4}
      IID 15
      NAME "untitled - GetluckyfeatPharrellWilliams.mid [chan 6]"
      VOLPAN 1 0 1 -1
      SOFFS 0 0
      PLAYRATE 1 1 0 -1 0 0.0025
      CHANMODE 0
      GUID {ECE0F258-A375-4B9A-AF08-010C29A8713B}
      <SOURCE MIDI
        HASDATA 1 960 QN
        POOLEDEVTS {975632F2-F327-496D-B72F-9781DE59C078}
        E 30 b5 65 00
        E 2 b5 64 00
        E 2 b5 06 0c
        E 2 b5 26 00
        E 464604 b0 7b 00
        GUID {8DD306D0-0426-452C-A395-79B658E84BCC}
        IGNTEMPO 0 120 4 4
        SRCCOLOR 32
        VELLANE -1 100 0
      >
    >
  >
  <TRACK {DE5A4769-E3CC-4AE1-9F2C-6B7F8B8FE7D0}
    NAME "untitled - GetluckyfeatPharrellWilliams.mid [chan 7] [chan 7]"
    PEAKCOL 30100416
    BEAT -1
    AUTOMODE 0
    VOLPAN 1 0 -1 -1 1
    MUTESOLO 0 0 0
    IPHASE 0
    ISBUS 0 0
    BUSCOMP 0 0
    SHOWINMIX 1 0.6667 0.5 1 0.5 0 0 0
    FREEMODE 0
    SEL 1
    REC 0 0 0 0 0 0 0
    VU 2
    TRACKHEIGHT 0 0 0
    INQ 0 0 0 0.5 100 0 0 100
    NCHAN 2
    FX 1
    TRACKID {DE5A4769-E3CC-4AE1-9F2C-6B7F8B8FE7D0}
    PERF 0
    MIDIOUT -1
    MAINSEND 1 0
    <ITEM
      POSITION 38.5
      SNAPOFFS 0
      LENGTH 242
      LOOP 1
      ALLTAKES 0
      FADEIN 1 0 0 1 0 0
      FADEOUT 1 0 0 1 0 0
      MUTE 0
      SEL 0
      IGUID {97C0A642-9C96-4C70-9331-C234EC335C94}
      IID 16
      NAME "untitled - GetluckyfeatPharrellWilliams.mid [chan 7]"
      VOLPAN 1 0 1 -1
      SOFFS 0 0
      PLAYRATE 1 1 0 -1 0 0.0025
      CHANMODE 0
      GUID {F6461EE2-6961-4508-8699-3B4CA8845C3B}
      <SOURCE MIDI
        HASDATA 1 960 QN
        POOLEDEVTS {A8D7A10D-0111-4E31-A71F-5FEC8AC805FD}
        E 36 b6 65 00
        E 2 b6 64 00
        E 2 b6 06 0c
        E 2 b6 26 00
        E 54 c6 05 00
        E 0 b6 07 46
        E 0 b6 0a 40
        E 0 e6 00 40
        E 0 b6 5d 00
        E 0 b6 5b 00
        E 0 b6 5f 00
        E 0 b6 5c 00
        E 4224 96 3e 5f
        E 0 96 39 5f
        E 480 96 39 00
        E 0 96 3e 00
        E 480 96 3e 5f
        E 0 96 39 5f
        E 480 96 3e 00
        E 0 96 39 00
        E 480 96 3e 5f
        E 0 96 39 5f
        E 480 96 39 00
        E 0 96 3e 00
        E 240 96 3e 5f
        E 0 96 39 5f
        E 240 96 39 00
        E 0 96 3e 00
        E 0 96 3e 5f
        E 0 96 39 5f
        E 480 96 39 00
        E 0 96 3e 00
        E 480 96 40 5f
        E 0 96 3e 5f
        E 0 96 39 5f
        E 480 96 39 00
        E 0 96 40 00
        E 0 96 3e 00
        E 480 96 40 2f
        E 0 96 3e 5f
        E 0 96 39 5f
        E 480 96 3e 00
        E 0 96 40 00
        E 0 96 39 00
        E 480 96 40 2f
        E 0 96 3e 5f
        E 0 96 39 5f
        E 480 96 39 00
        E 0 96 40 00
        E 0 96 3e 00
        E 240 96 40 2f
        E 0 96 3e 5f
        E 0 96 39 5f
        E 240 96 39 00
        E 0 96 40 00
        E 0 96 3e 00
        E 0 96 40 2f
        E 0 96 3e 5f
        E 0 96 39 5f
        E 480 96 3e 00
        E 0 96 39 00
        E 0 96 40 00
        E 480 96 40 5f
        E 0 96 3d 5f
        E 480 96 40 00
        E 0 96 3d 00
        E 480 96 40 5f
        E 0 96 3d 5f
        E 480 96 40 00
        E 0 96 3d 00
        E 480 96 40 5f
        E 0 96 3d 5f
        E 480 96 3d 00
        E 0 96 40 00
        E 240 96 40 5f
        E 0 96 3d 5f
        E 240 96 40 00
        E 0 96 3d 00
        E 0 96 40 5f
        E 0 96 3d 5f
        E 480 96 40 00
        E 0 96 3d 00
        E 480 96 40 5f
        E 0 96 3b 5f
        E 480 96 3b 00
        E 0 96 40 00
        E 480 96 40 5f
        E 0 96 3b 5f
        E 480 96 40 00
        E 0 96 3b 00
        E 480 96 40 5f
        E 0 96 3b 5f
        E 480 96 40 00
        E 0 96 3b 00
        E 0 96 3e 5f
        E 0 96 3b 5f
        E 480 96 3e 00
        E 0 96 3b 00
        E 0 96 3d 5f
        E 0 96 3b 5f
        E 480 96 3b 00
        E 0 96 3d 00
        E 480 96 3e 5f
        E 0 96 3b 5f
        E 480 96 3b 00
        E 0 96 3e 00
        E 480 96 3e 5f
        E 0 96 3b 5f
        E 480 96 3e 00
        E 0 96 3b 00
        E 480 96 3e 5f
        E 0 96 3b 5f
        E 480 96 3e 00
        E 0 96 3b 00
        E 240 96 3e 5f
        E 0 96 3b 5f
        E 240 96 3b 00
        E 0 96 3e 00
        E 0 96 3e 5f
        E 0 96 3b 5f
        E 480 96 3b 00
        E 0 96 3e 00
        E 480 96 40 5f
        E 0 96 3e 5f
        E 0 96 39 5f
        E 480 96 39 00
        E 0 96 40 00
        E 0 96 3e 00
        E 480 96 40 2f
        E 0 96 3e 5f
        E 0 96 39 5f
        E 480 96 40 00
        E 0 96 3e 00
        E 0 96 39 00
        E 480 96 40 2f
        E 0 96 3e 5f
        E 0 96 39 5f
        E 480 96 39 00
        E 0 96 40 00
        E 0 96 3e 00
        E 240 96 40 2f
        E 0 96 3e 5f
        E 0 96 39 5f
        E 240 96 39 00
        E 0 96 40 00
        E 0 96 3e 00
        E 0 96 40 2f
        E 0 96 3e 5f
        E 0 96 39 5f
        E 480 96 39 00
        E 0 96 3e 00
        E 0 96 40 00
        E 480 96 40 5f
        E 0 96 3d 5f
        E 480 96 3d 00
        E 0 96 40 00
        E 480 96 40 5f
        E 0 96 3d 5f
        E 480 96 40 00
        E 0 96 3d 00
        E 480 96 40 5f
        E 0 96 3d 5f
        E 480 96 40 00
        E 0 96 3d 00
        E 240 96 40 5f
        E 0 96 3d 5f
        E 240 96 3d 00
        E 0 96 40 00
        E 0 96 40 5f
        E 0 96 3d 5f
        E 480 96 3d 00
        E 0 96 40 00
        E 480 96 40 5f
        E 0 96 3b 5f
        E 480 96 3b 00
        E 0 96 40 00
        E 480 96 40 5f
        E 0 96 3b 5f
        E 480 96 40 00
        E 0 96 3b 00
        E 480 96 40 5f
        E 0 96 3b 5f
        E 480 96 3b 00
        E 0 96 40 00
        E 0 96 3e 5f
        E 0 96 3b 5f
        E 480 96 3e 00
        E 0 96 3b 00
        E 0 96 3d 5f
        E 0 96 3b 5f
        E 480 96 3b 00
        E 0 96 3d 00
        E 108000 96 3e 5f
        E 0 96 3b 5f
        E 480 96 3b 00
        E 0 96 3e 00
        E 480 96 3e 5f
        E 0 96 3b 5f
        E 480 96 3e 00
        E 0 96 3b 00
        E 480 96 3e 5f
        E 0 96 3b 5f
        E 480 96 3e 00
        E 0 96 3b 00
        E 240 96 3e 5f
        E 0 96 3b 5f
        E 240 96 3b 00
        E 0 96 3e 00
        E 0 96 3e 5f
        E 0 96 3b 5f
        E 480 96 3b 00
        E 0 96 3e 00
        E 480 96 40 5f
        E 0 96 3e 5f
        E 0 96 39 5f
        E 480 96 39 00
        E 0 96 40 00
        E 0 96 3e 00
        E 480 96 40 2f
        E 0 96 3e 5f
        E 0 96 39 5f
        E 480 96 40 00
        E 0 96 3e 00
        E 0 96 39 00
        E 480 96 40 2f
        E 0 96 3e 5f
        E 0 96 39 5f
        E 480 96 39 00
        E 0 96 40 00
        E 0 96 3e 00
        E 240 96 40 2f
        E 0 96 3e 5f
        E 0 96 39 5f
        E 240 96 39 00
        E 0 96 40 00
        E 0 96 3e 00
        E 0 96 40 2f
        E 0 96 3e 5f
        E 0 96 39 5f
        E 480 96 39 00
        E 0 96 3e 00
        E 0 96 40 00
        E 480 96 40 5f
        E 0 96 3d 5f
        E 480 96 3d 00
        E 0 96 40 00
        E 480 96 40 5f
        E 0 96 3d 5f
        E 480 96 40 00
        E 0 96 3d 00
        E 480 96 40 5f
        E 0 96 3d 5f
        E 480 96 40 00
        E 0 96 3d 00
        E 240 96 40 5f
        E 0 96 3d 5f
        E 240 96 3d 00
        E 0 96 40 00
        E 0 96 40 5f
        E 0 96 3d 5f
        E 480 96 3d 00
        E 0 96 40 00
        E 480 96 40 2f
        E 0 96 3b 2f
        E 480 96 3b 00
        E 0 96 40 00
        E 480 96 40 2f
        E 0 96 3b 2f
        E 480 96 40 00
        E 0 96 3b 00
        E 480 96 40 2f
        E 0 96 3b 2f
        E 480 96 3b 00
        E 0 96 40 00
        E 0 96 3e 2f
        E 0 96 3b 2f
        E 480 96 3e 00
        E 0 96 3b 00
        E 0 96 3d 2f
        E 0 96 3b 2f
        E 480 96 3b 00
        E 0 96 3d 00
        E 207360 96 36 5f
        E 3840 96 36 00
        E 0 96 34 5f
        E 3840 96 34 00
        E 480 96 42 5f
        E 960 96 42 00
        E 0 96 4a 5f
        E 960 96 4a 00
        E 5760 96 40 5f
        E 1920 96 40 00
        E 0 96 45 5f
        E 1440 96 45 00
        E 0 96 47 5f
        E 3840 96 47 00
        E 31200 96 3e 5f
        E 0 96 39 5f
        E 480 96 3e 00
        E 0 96 39 00
        E 480 96 3e 5f
        E 0 96 39 5f
        E 480 96 3e 00
        E 0 96 39 00
        E 480 96 3e 5f
        E 0 96 39 5f
        E 480 96 39 00
        E 0 96 3e 00
        E 240 96 3e 5f
        E 0 96 39 5f
        E 240 96 3e 00
        E 0 96 39 00
        E 0 96 3e 5f
        E 0 96 39 5f
        E 480 96 39 00
        E 0 96 3e 00
        E 480 96 40 5f
        E 0 96 3e 5f
        E 0 96 39 5f
        E 480 96 3e 00
        E 0 96 40 00
        E 0 96 39 00
        E 480 96 40 2f
        E 0 96 3e 5f
        E 0 96 39 5f
        E 480 96 39 00
        E 0 96 40 00
        E 0 96 3e 00
        E 480 96 40 2f
        E 0 96 3e 5f
        E 0 96 39 5f
        E 480 96 39 00
        E 0 96 3e 00
        E 0 96 40 00
        E 240 96 40 2f
        E 0 96 3e 5f
        E 0 96 39 5f
        E 240 96 39 00
        E 0 96 3e 00
        E 0 96 40 00
        E 0 96 40 2f
        E 0 96 3e 5f
        E 0 96 39 5f
        E 480 96 39 00
        E 0 96 3e 00
        E 0 96 40 00
        E 480 96 40 5f
        E 0 96 3d 5f
        E 480 96 40 00
        E 0 96 3d 00
        E 480 96 40 5f
        E 0 96 3d 5f
        E 480 96 40 00
        E 0 96 3d 00
        E 480 96 40 5f
        E 0 96 3d 5f
        E 480 96 3d 00
        E 0 96 40 00
        E 240 96 40 5f
        E 0 96 3d 5f
        E 240 96 40 00
        E 0 96 3d 00
        E 0 96 40 5f
        E 0 96 3d 5f
        E 480 96 3d 00
        E 0 96 40 00
        E 480 96 40 5f
        E 0 96 3b 5f
        E 480 96 40 00
        E 0 96 3b 00
        E 480 96 40 5f
        E 0 96 3b 5f
        E 480 96 40 00
        E 0 96 3b 00
        E 480 96 40 5f
        E 0 96 3b 5f
        E 480 96 40 00
        E 0 96 3b 00
        E 0 96 3e 5f
        E 0 96 3b 5f
        E 480 96 3e 00
        E 0 96 3b 00
        E 0 96 3d 5f
        E 0 96 3b 5f
        E 480 96 3b 00
        E 0 96 3d 00
        E 480 96 3e 5f
        E 0 96 3b 5f
        E 480 96 3e 00
        E 0 96 3b 00
        E 480 96 3e 5f
        E 0 96 3b 5f
        E 480 96 3e 00
        E 0 96 3b 00
        E 480 96 3e 5f
        E 0 96 3b 5f
        E 480 96 3b 00
        E 0 96 3e 00
        E 240 96 3e 5f
        E 0 96 3b 5f
        E 240 96 3b 00
        E 0 96 3e 00
        E 0 96 3e 5f
        E 0 96 3b 5f
        E 480 96 3b 00
        E 0 96 3e 00
        E 480 96 40 5f
        E 0 96 3e 5f
        E 0 96 39 5f
        E 480 96 3e 00
        E 0 96 40 00
        E 0 96 39 00
        E 480 96 40 2f
        E 0 96 3e 5f
        E 0 96 39 5f
        E 480 96 39 00
        E 0 96 40 00
        E 0 96 3e 00
        E 480 96 40 2f
        E 0 96 3e 5f
        E 0 96 39 5f
        E 480 96 3e 00
        E 0 96 39 00
        E 0 96 40 00
        E 240 96 40 2f
        E 0 96 3e 5f
        E 0 96 39 5f
        E 240 96 3e 00
        E 0 96 40 00
        E 0 96 39 00
        E 0 96 40 2f
        E 0 96 3e 5f
        E 0 96 39 5f
        E 480 96 39 00
        E 0 96 40 00
        E 0 96 3e 00
        E 480 96 40 5f
        E 0 96 3d 5f
        E 480 96 3d 00
        E 0 96 40 00
        E 480 96 40 5f
        E 0 96 3d 5f
        E 480 96 40 00
        E 0 96 3d 00
        E 480 96 40 5f
        E 0 96 3d 5f
        E 480 96 40 00
        E 0 96 3d 00
        E 240 96 40 5f
        E 0 96 3d 5f
        E 240 96 3d 00
        E 0 96 40 00
        E 0 96 40 5f
        E 0 96 3d 5f
        E 480 96 3d 00
        E 0 96 40 00
        E 480 96 40 5f
        E 0 96 3b 5f
        E 480 96 40 00
        E 0 96 3b 00
        E 480 96 40 5f
        E 0 96 3b 5f
        E 480 96 40 00
        E 0 96 3b 00
        E 480 96 40 5f
        E 0 96 3b 5f
        E 480 96 40 00
        E 0 96 3b 00
        E 0 96 3e 5f
        E 0 96 3b 5f
        E 480 96 3b 00
        E 0 96 3e 00
        E 0 96 3d 5f
        E 0 96 3b 5f
        E 480 96 3b 00
        E 0 96 3d 00
        E 480 96 3e 5f
        E 0 96 39 5f
        E 480 96 3e 00
        E 0 96 39 00
        E 480 96 3e 5f
        E 0 96 39 5f
        E 480 96 3e 00
        E 0 96 39 00
        E 480 96 3e 5f
        E 0 96 39 5f
        E 480 96 39 00
        E 0 96 3e 00
        E 240 96 3e 5f
        E 0 96 39 5f
        E 240 96 3e 00
        E 0 96 39 00
        E 0 96 3e 5f
        E 0 96 39 5f
        E 480 96 39 00
        E 0 96 3e 00
        E 480 96 40 5f
        E 0 96 3e 5f
        E 0 96 39 5f
        E 480 96 3e 00
        E 0 96 40 00
        E 0 96 39 00
        E 480 96 40 2f
        E 0 96 3e 5f
        E 0 96 39 5f
        E 480 96 39 00
        E 0 96 40 00
        E 0 96 3e 00
        E 480 96 40 2f
        E 0 96 3e 5f
        E 0 96 39 5f
        E 480 96 39 00
        E 0 96 3e 00
        E 0 96 40 00
        E 240 96 40 2f
        E 0 96 3e 5f
        E 0 96 39 5f
        E 240 96 39 00
        E 0 96 3e 00
        E 0 96 40 00
        E 0 96 40 2f
        E 0 96 3e 5f
        E 0 96 39 5f
        E 480 96 39 00
        E 0 96 3e 00
        E 0 96 40 00
        E 480 96 40 5f
        E 0 96 3d 5f
        E 480 96 40 00
        E 0 96 3d 00
        E 480 96 40 5f
        E 0 96 3d 5f
        E 480 96 40 00
        E 0 96 3d 00
        E 480 96 40 5f
        E 0 96 3d 5f
        E 480 96 3d 00
        E 0 96 40 00
        E 240 96 40 5f
        E 0 96 3d 5f
        E 240 96 40 00
        E 0 96 3d 00
        E 0 96 40 5f
        E 0 96 3d 5f
        E 480 96 3d 00
        E 0 96 40 00
        E 480 96 40 5f
        E 0 96 3b 5f
        E 480 96 40 00
        E 0 96 3b 00
        E 480 96 40 5f
        E 0 96 3b 5f
        E 480 96 40 00
        E 0 96 3b 00
        E 480 96 40 5f
        E 0 96 3b 5f
        E 480 96 40 00
        E 0 96 3b 00
        E 0 96 3e 5f
        E 0 96 3b 5f
        E 480 96 3e 00
        E 0 96 3b 00
        E 0 96 3d 5f
        E 0 96 3b 5f
        E 478 96 3b 00
        E 0 96 3d 00
        E 2 b0 7b 00
        GUID {F4AECEE9-3A04-4899-A8FB-1A217E81EDFC}
        IGNTEMPO 0 120 4 4
        SRCCOLOR 34
        VELLANE -1 100 0
      >
    >
  >
  <TRACK {C19DA1A7-19B7-43A1-BE49-87DCE0D1DD3F}
    NAME "untitled - GetluckyfeatPharrellWilliams.mid [chan 8] [chan 8]"
    PEAKCOL 28278289
    BEAT -1
    AUTOMODE 0
    VOLPAN 1 0 -1 -1 1
    MUTESOLO 0 0 0
    IPHASE 0
    ISBUS 0 0
    BUSCOMP 0 0
    SHOWINMIX 1 0.6667 0.5 1 0.5 0 0 0
    FREEMODE 0
    SEL 1
    REC 0 0 0 0 0 0 0
    VU 2
    TRACKHEIGHT 0 0 0
    INQ 0 0 0 0.5 100 0 0 100
    NCHAN 2
    FX 1
    TRACKID {C19DA1A7-19B7-43A1-BE49-87DCE0D1DD3F}
    PERF 0
    MIDIOUT -1
    MAINSEND 1 0
    <ITEM
      POSITION 38.5
      SNAPOFFS 0
      LENGTH 242
      LOOP 1
      ALLTAKES 0
      FADEIN 1 0 0 1 0 0
      FADEOUT 1 0 0 1 0 0
      MUTE 0
      SEL 0
      IGUID {63A910C7-F1C2-42D3-9A09-4DC7824F35CE}
      IID 17
      NAME "untitled - GetluckyfeatPharrellWilliams.mid [chan 8]"
      VOLPAN 1 0 1 -1
      SOFFS 0 0
      PLAYRATE 1 1 0 -1 0 0.0025
      CHANMODE 0
      GUID {7046DE79-4DDC-45F2-80CE-BA6637722AED}
      <SOURCE MIDI
        HASDATA 1 960 QN
        POOLEDEVTS {A785AAC7-13D5-4A3E-83BC-30347944B8FA}
        E 42 b7 65 00
        E 2 b7 64 00
        E 2 b7 06 0c
        E 2 b7 26 00
        E 48 c7 00 00
        E 0 b7 07 73
        E 0 b7 0a 70
        E 0 e7 00 40
        E 0 b7 5d 00
        E 0 b7 5b 00
        E 0 b7 5f 00
        E 0 b7 5c 00
        E 0 b7 07 6f
        E 0 b7 0a 3f
        E 0 b7 5d 00
        E 0 b7 5b 00
        E 0 b7 5f 00
        E 0 b7 5c 00
        E 3744 97 42 5f
        E 0 97 3e 5f
        E 0 97 3b 5f
        E 3840 97 3b 00
        E 0 97 3e 00
        E 0 97 42 00
        E 0 97 4a 5f
        E 0 97 45 5f
        E 0 97 42 5f
        E 3840 97 45 00
        E 0 97 42 00
        E 0 97 4a 00
        E 0 97 49 5f
        E 0 97 45 5f
        E 0 97 42 5f
        E 3840 97 49 00
        E 0 97 42 00
        E 0 97 45 00
        E 0 97 47 5f
        E 0 97 44 5f
        E 0 97 40 5f
        E 3840 97 40 00
        E 0 97 47 00
        E 0 97 44 00
        E 0 97 42 5f
        E 0 97 3e 5f
        E 0 97 3b 5f
        E 3840 97 3b 00
        E 0 97 3e 00
        E 0 97 42 00
        E 0 97 4a 5f
        E 0 97 45 5f
        E 0 97 42 5f
        E 3840 97 45 00
        E 0 97 4a 00
        E 0 97 42 00
        E 0 97 49 5f
        E 0 97 45 5f
        E 0 97 42 5f
        E 3840 97 49 00
        E 0 97 42 00
        E 0 97 45 00
        E 0 97 47 5f
        E 0 97 44 5f
        E 0 97 40 5f
        E 3840 97 40 00
        E 0 97 47 00
        E 0 97 44 00
        E 0 97 42 5f
        E 0 97 3e 5f
        E 0 97 3b 5f
        E 3840 97 3e 00
        E 0 97 42 00
        E 0 97 3b 00
        E 0 97 4a 5f
        E 0 97 45 5f
        E 0 97 42 5f
        E 3840 97 4a 00
        E 0 97 45 00
        E 0 97 42 00
        E 0 97 49 5f
        E 0 97 45 5f
        E 0 97 42 5f
        E 3840 97 45 00
        E 0 97 42 00
        E 0 97 49 00
        E 0 97 47 5f
        E 0 97 44 5f
        E 0 97 40 5f
        E 3840 97 47 00
        E 0 97 40 00
        E 0 97 44 00
        E 0 97 42 5f
        E 0 97 3e 5f
        E 0 97 3b 5f
        E 3840 97 3e 00
        E 0 97 42 00
        E 0 97 3b 00
        E 0 97 4a 5f
        E 0 97 45 5f
        E 0 97 42 5f
        E 3840 97 45 00
        E 0 97 4a 00
        E 0 97 42 00
        E 0 97 49 5f
        E 0 97 45 5f
        E 0 97 42 5f
        E 3840 97 45 00
        E 0 97 42 00
        E 0 97 49 00
        E 0 97 47 5f
        E 0 97 44 5f
        E 0 97 40 5f
        E 3840 97 40 00
        E 0 97 44 00
        E 0 97 47 00
        E 0 97 42 5f
        E 0 97 3e 5f
        E 0 97 3b 5f
        E 3840 97 42 00
        E 0 97 3b 00
        E 0 97 3e 00
        E 0 97 4a 5f
        E 0 97 45 5f
        E 0 97 42 5f
        E 3840 97 42 00
        E 0 97 4a 00
        E 0 97 45 00
        E 0 97 49 5f
        E 0 97 45 5f
        E 0 97 42 5f
        E 3840 97 42 00
        E 0 97 45 00
        E 0 97 49 00
        E 0 97 47 5f
        E 0 97 44 5f
        E 0 97 40 5f
        E 3840 97 40 00
        E 0 97 44 00
        E 0 97 47 00
        E 0 97 42 5f
        E 0 97 3e 5f
        E 0 97 3b 5f
        E 3840 97 42 00
        E 0 97 3b 00
        E 0 97 3e 00
        E 0 97 4a 5f
        E 0 97 45 5f
        E 0 97 42 5f
        E 3840 97 42 00
        E 0 97 4a 00
        E 0 97 45 00
        E 0 97 49 5f
        E 0 97 45 5f
        E 0 97 42 5f
        E 3840 97 42 00
        E 0 97 45 00
        E 0 97 49 00
        E 0 97 47 5f
        E 0 97 44 5f
        E 0 97 40 5f
        E 3840 97 40 00
        E 0 97 44 00
        E 0 97 47 00
        E 0 97 42 5f
        E 0 97 3e 5f
        E 0 97 3b 5f
        E 3840 97 42 00
        E 0 97 3e 00
        E 0 97 3b 00
        E 0 97 4a 5f
        E 0 97 45 5f
        E 0 97 42 5f
        E 3840 97 4a 00
        E 0 97 45 00
        E 0 97 42 00
        E 0 97 36 5f
        E 3840 97 36 00
        E 0 97 34 5f
        E 3840 97 34 00
        E 0 97 42 5f
        E 0 97 3e 5f
        E 0 97 3b 5f
        E 3840 97 42 00
        E 0 97 3b 00
        E 0 97 3e 00
        E 0 97 4a 5f
        E 0 97 45 5f
        E 0 97 42 5f
        E 3840 97 4a 00
        E 0 97 42 00
        E 0 97 45 00
        E 0 97 49 5f
        E 0 97 45 5f
        E 0 97 42 5f
        E 3840 97 42 00
        E 0 97 45 00
        E 0 97 49 00
        E 0 97 47 5f
        E 0 97 44 5f
        E 0 97 40 5f
        E 3840 97 44 00
        E 0 97 47 00
        E 0 97 40 00
        E 0 97 42 5f
        E 0 97 3e 5f
        E 0 97 3b 5f
        E 3840 97 3e 00
        E 0 97 3b 00
        E 0 97 42 00
        E 0 97 4a 5f
        E 0 97 45 5f
        E 0 97 42 5f
        E 3840 97 42 00
        E 0 97 45 00
        E 0 97 4a 00
        E 0 97 49 5f
        E 0 97 45 5f
        E 0 97 42 5f
        E 3840 97 42 00
        E 0 97 45 00
        E 0 97 49 00
        E 0 97 47 5f
        E 0 97 44 5f
        E 0 97 40 5f
        E 3840 97 40 00
        E 0 97 44 00
        E 0 97 47 00
        E 0 97 42 5f
        E 0 97 3e 5f
        E 0 97 3b 5f
        E 3840 97 3b 00
        E 0 97 3e 00
        E 0 97 42 00
        E 0 97 4a 5f
        E 0 97 45 5f
        E 0 97 42 5f
        E 3840 97 45 00
        E 0 97 4a 00
        E 0 97 42 00
        E 0 97 49 5f
        E 0 97 45 5f
        E 0 97 42 5f
        E 3840 97 49 00
        E 0 97 42 00
        E 0 97 45 00
        E 0 97 47 5f
        E 0 97 44 5f
        E 0 97 40 5f
        E 3840 97 40 00
        E 0 97 47 00
        E 0 97 44 00
        E 0 97 42 5f
        E 0 97 3e 5f
        E 0 97 3b 5f
        E 3840 97 3e 00
        E 0 97 42 00
        E 0 97 3b 00
        E 0 97 4a 5f
        E 0 97 45 5f
        E 0 97 42 5f
        E 3840 97 45 00
        E 0 97 42 00
        E 0 97 4a 00
        E 0 97 49 5f
        E 0 97 45 5f
        E 0 97 42 5f
        E 3840 97 42 00
        E 0 97 49 00
        E 0 97 45 00
        E 0 97 47 5f
        E 0 97 44 5f
        E 0 97 40 5f
        E 3840 97 44 00
        E 0 97 47 00
        E 0 97 40 00
        E 0 97 42 5f
        E 0 97 3e 5f
        E 0 97 3b 5f
        E 3840 97 3b 00
        E 0 97 42 00
        E 0 97 3e 00
        E 0 97 4a 5f
        E 0 97 45 5f
        E 0 97 42 5f
        E 3840 97 4a 00
        E 0 97 42 00
        E 0 97 45 00
        E 0 97 49 5f
        E 0 97 45 5f
        E 0 97 42 5f
        E 3840 97 45 00
        E 0 97 42 00
        E 0 97 49 00
        E 0 97 47 5f
        E 0 97 44 5f
        E 0 97 40 5f
        E 3840 97 40 00
        E 0 97 44 00
        E 0 97 47 00
        E 0 97 42 5f
        E 0 97 3e 5f
        E 0 97 3b 5f
        E 3840 97 42 00
        E 0 97 3b 00
        E 0 97 3e 00
        E 0 97 4a 5f
        E 0 97 45 5f
        E 0 97 42 5f
        E 3840 97 42 00
        E 0 97 4a 00
        E 0 97 45 00
        E 0 97 49 5f
        E 0 97 45 5f
        E 0 97 42 5f
        E 3840 97 42 00
        E 0 97 45 00
        E 0 97 49 00
        E 0 97 47 5f
        E 0 97 44 5f
        E 0 97 40 5f
        E 3840 97 40 00
        E 0 97 44 00
        E 0 97 47 00
        E 0 97 42 5f
        E 0 97 3e 5f
        E 0 97 3b 5f
        E 3840 97 42 00
        E 0 97 3b 00
        E 0 97 3e 00
        E 0 97 4a 5f
        E 0 97 45 5f
        E 0 97 42 5f
        E 3840 97 42 00
        E 0 97 4a 00
        E 0 97 45 00
        E 0 97 49 5f
        E 0 97 45 5f
        E 0 97 42 5f
        E 3840 97 42 00
        E 0 97 45 00
        E 0 97 49 00
        E 0 97 47 5f
        E 0 97 44 5f
        E 0 97 40 5f
        E 3840 97 40 00
        E 0 97 44 00
        E 0 97 47 00
        E 0 97 42 5f
        E 0 97 3e 5f
        E 0 97 3b 5f
        E 3840 97 42 00
        E 0 97 3e 00
        E 0 97 3b 00
        E 0 97 4a 5f
        E 0 97 45 5f
        E 0 97 42 5f
        E 3840 97 42 00
        E 0 97 4a 00
        E 0 97 45 00
        E 0 97 49 5f
        E 0 97 45 5f
        E 0 97 42 5f
        E 3840 97 42 00
        E 0 97 45 00
        E 0 97 49 00
        E 0 97 47 5f
        E 0 97 44 5f
        E 0 97 40 5f
        E 3840 97 47 00
        E 0 97 40 00
        E 0 97 44 00
        E 0 97 47 5f
        E 0 97 42 5f
        E 0 97 3e 5f
        E 0 97 3b 5f
        E 3840 97 47 00
        E 0 97 42 00
        E 0 97 3b 00
        E 0 97 3e 00
        E 0 97 51 2f
        E 0 97 4e 2f
        E 0 97 4a 5f
        E 0 97 45 5f
        E 0 97 42 5f
        E 0 97 3e 5f
        E 3840 97 4a 00
        E 0 97 51 00
        E 0 97 42 00
        E 0 97 4e 00
        E 0 97 45 00
        E 0 97 3e 00
        E 0 97 51 5f
        E 0 97 4e 5f
        E 0 97 49 5f
        E 0 97 45 5f
        E 0 97 42 5f
        E 3840 97 49 00
        E 0 97 45 00
        E 0 97 42 00
        E 0 97 51 00
        E 0 97 4e 00
        E 0 97 4c 5f
        E 0 97 47 5f
        E 0 97 44 5f
        E 0 97 40 5f
        E 3840 97 47 00
        E 0 97 4c 00
        E 0 97 40 00
        E 0 97 44 00
        E 0 97 47 5f
        E 0 97 42 5f
        E 0 97 3e 5f
        E 0 97 3b 5f
        E 3840 97 47 00
        E 0 97 42 00
        E 0 97 3b 00
        E 0 97 3e 00
        E 0 97 45 5f
        E 0 97 42 5f
        E 0 97 3e 5f
        E 3840 97 45 00
        E 0 97 42 00
        E 0 97 3e 00
        E 0 97 45 5f
        E 0 97 42 5f
        E 0 97 3d 5f
        E 3840 97 42 00
        E 0 97 3d 00
        E 0 97 45 00
        E 0 97 47 5f
        E 0 97 44 5f
        E 0 97 40 5f
        E 0 97 3b 5f
        E 3840 97 40 00
        E 0 97 47 00
        E 0 97 44 00
        E 0 97 3b 00
        E 0 97 4a 5f
        E 0 97 47 5f
        E 0 97 42 5f
        E 3840 97 47 00
        E 0 97 42 00
        E 0 97 4a 00
        E 0 97 4a 5f
        E 0 97 45 5f
        E 0 97 42 5f
        E 3840 97 45 00
        E 0 97 42 00
        E 0 97 4a 00
        E 0 97 45 5f
        E 0 97 42 5f
        E 0 97 3d 5f
        E 3840 97 42 00
        E 0 97 45 00
        E 0 97 3d 00
        E 0 97 40 2f
        E 0 97 3b 2f
        E 0 97 34 5f
        E 3840 97 3b 00
        E 0 97 34 00
        E 0 97 40 00
        E 0 97 4a 5f
        E 0 97 47 5f
        E 0 97 42 5f
        E 3840 97 47 00
        E 0 97 4a 00
        E 0 97 42 00
        E 0 97 4a 5f
        E 0 97 45 5f
        E 0 97 42 5f
        E 3840 97 4a 00
        E 0 97 45 00
        E 0 97 42 00
        E 0 97 45 5f
        E 0 97 42 5f
        E 0 97 3d 5f
        E 3840 97 45 00
        E 0 97 3d 00
        E 0 97 42 00
        E 0 97 40 2f
        E 0 97 3b 2f
        E 0 97 34 5f
        E 3840 97 3b 00
        E 0 97 40 00
        E 0 97 34 00
        E 0 97 4a 5f
        E 0 97 47 5f
        E 0 97 42 5f
        E 3840 97 42 00
        E 0 97 4a 00
        E 0 97 47 00
        E 0 97 4a 5f
        E 0 97 45 5f
        E 0 97 42 5f
        E 3840 97 45 00
        E 0 97 42 00
        E 0 97 4a 00
        E 0 97 45 5f
        E 0 97 42 5f
        E 0 97 3d 5f
        E 3840 97 45 00
        E 0 97 42 00
        E 0 97 3d 00
        E 0 97 40 2f
        E 0 97 3b 2f
        E 0 97 34 5f
        E 3840 97 40 00
        E 0 97 34 00
        E 0 97 3b 00
        E 0 97 4a 5f
        E 0 97 47 5f
        E 0 97 42 5f
        E 3840 97 47 00
        E 0 97 4a 00
        E 0 97 42 00
        E 0 97 4a 5f
        E 0 97 45 5f
        E 0 97 42 5f
        E 3840 97 4a 00
        E 0 97 45 00
        E 0 97 42 00
        E 0 97 45 5f
        E 0 97 42 5f
        E 0 97 3d 5f
        E 3840 97 45 00
        E 0 97 42 00
        E 0 97 3d 00
        E 0 97 40 2f
        E 0 97 3b 2f
        E 0 97 34 5f
        E 3840 97 3b 00
        E 0 97 34 00
        E 0 97 40 00
        E 0 97 4a 5f
        E 0 97 47 5f
        E 0 97 42 5f
        E 3840 97 47 00
        E 0 97 4a 00
        E 0 97 42 00
        E 0 97 4a 5f
        E 0 97 45 5f
        E 0 97 42 5f
        E 3840 97 42 00
        E 0 97 4a 00
        E 0 97 45 00
        E 0 97 45 5f
        E 0 97 42 5f
        E 0 97 3d 5f
        E 3840 97 3d 00
        E 0 97 42 00
        E 0 97 45 00
        E 0 97 40 2f
        E 0 97 3b 5f
        E 0 97 34 5f
        E 3840 97 40 00
        E 0 97 3b 00
        E 0 97 34 00
        E 0 97 4a 5f
        E 0 97 47 5f
        E 0 97 42 5f
        E 3840 97 47 00
        E 0 97 4a 00
        E 0 97 42 00
        E 0 97 4a 5f
        E 0 97 45 5f
        E 0 97 42 5f
        E 3840 97 42 00
        E 0 97 4a 00
        E 0 97 45 00
        E 0 97 45 5f
        E 0 97 42 5f
        E 0 97 3d 5f
        E 3840 97 3d 00
        E 0 97 42 00
        E 0 97 45 00
        E 0 97 40 5f
        E 0 97 3b 5f
        E 0 97 34 5f
        E 3840 97 34 00
        E 0 97 40 00
        E 0 97 3b 00
        E 0 97 47 5f
        E 0 97 42 5f
        E 0 97 3e 5f
        E 0 97 3b 5f
        E 3840 97 3e 00
        E 0 97 47 00
        E 0 97 3b 00
        E 0 97 42 00
        E 0 97 51 5f
        E 0 97 4e 5f
        E 0 97 4a 5f
        E 0 97 45 5f
        E 0 97 42 5f
        E 3840 97 4a 00
        E 0 97 51 00
        E 0 97 42 00
        E 0 97 45 00
        E 0 97 4e 00
        E 0 97 51 5f
        E 0 97 4e 5f
        E 0 97 49 5f
        E 0 97 45 5f
        E 0 97 42 5f
        E 3840 97 45 00
        E 0 97 49 00
        E 0 97 4e 00
        E 0 97 51 00
        E 0 97 42 00
        E 0 97 4c 5f
        E 0 97 47 5f
        E 0 97 44 5f
        E 0 97 40 5f
        E 3840 97 47 00
        E 0 97 44 00
        E 0 97 40 00
        E 0 97 4c 00
        E 0 97 47 5f
        E 0 97 42 5f
        E 0 97 3e 5f
        E 0 97 3b 5f
        E 3840 97 3b 00
        E 0 97 42 00
        E 0 97 47 00
        E 0 97 3e 00
        E 0 97 51 5f
        E 0 97 4e 5f
        E 0 97 4a 5f
        E 0 97 45 5f
        E 0 97 42 5f
        E 3840 97 51 00
        E 0 97 45 00
        E 0 97 42 00
        E 0 97 4e 00
        E 0 97 4a 00
        E 0 97 51 5f
        E 0 97 4e 5f
        E 0 97 49 5f
        E 0 97 45 5f
        E 0 97 42 5f
        E 3840 97 49 00
        E 0 97 45 00
        E 0 97 42 00
        E 0 97 51 00
        E 0 97 4e 00
        E 0 97 4c 5f
        E 0 97 47 5f
        E 0 97 44 5f
        E 0 97 40 5f
        E 3840 97 47 00
        E 0 97 4c 00
        E 0 97 40 00
        E 0 97 44 00
        E 0 97 47 5f
        E 0 97 42 5f
        E 0 97 3e 5f
        E 0 97 3b 5f
        E 3840 97 42 00
        E 0 97 3e 00
        E 0 97 3b 00
        E 0 97 47 00
        E 0 97 51 5f
        E 0 97 4e 5f
        E 0 97 4a 5f
        E 0 97 45 5f
        E 0 97 42 5f
        E 3840 97 42 00
        E 0 97 4a 00
        E 0 97 4e 00
        E 0 97 51 00
        E 0 97 45 00
        E 0 97 51 5f
        E 0 97 4e 5f
        E 0 97 49 5f
        E 0 97 45 5f
        E 0 97 42 5f
        E 3840 97 51 00
        E 0 97 42 00
        E 0 97 49 00
        E 0 97 4e 00
        E 0 97 45 00
        E 0 97 4c 5f
        E 0 97 47 5f
        E 0 97 44 5f
        E 0 97 40 5f
        E 3840 97 4c 00
        E 0 97 40 00
        E 0 97 47 00
        E 0 97 44 00
        E 0 97 47 5f
        E 0 97 42 5f
        E 0 97 3e 5f
        E 0 97 3b 5f
        E 3840 97 47 00
        E 0 97 3e 00
        E 0 97 42 00
        E 0 97 3b 00
        E 0 97 51 5f
        E 0 97 4e 5f
        E 0 97 4a 5f
        E 0 97 45 5f
        E 0 97 42 5f
        E 3840 97 51 00
        E 0 97 45 00
        E 0 97 42 00
        E 0 97 4a 00
        E 0 97 4e 00
        E 0 97 51 5f
        E 0 97 4e 5f
        E 0 97 49 5f
        E 0 97 45 5f
        E 0 97 42 5f
        E 3840 97 51 00
        E 0 97 42 00
        E 0 97 49 00
        E 0 97 4e 00
        E 0 97 45 00
        E 0 97 4c 5f
        E 0 97 47 5f
        E 0 97 44 5f
        E 0 97 40 5f
        E 3840 97 40 00
        E 0 97 47 00
        E 0 97 4c 00
        E 0 97 44 00
        E 0 97 42 5f
        E 0 97 3e 5f
        E 0 97 3b 5f
        E 3840 97 3e 00
        E 0 97 42 00
        E 0 97 3b 00
        E 0 97 4a 5f
        E 0 97 45 5f
        E 0 97 42 5f
        E 3840 97 42 00
        E 0 97 45 00
        E 0 97 4a 00
        E 0 97 49 5f
        E 0 97 45 5f
        E 0 97 42 5f
        E 3840 97 42 00
        E 0 97 49 00
        E 0 97 45 00
        E 0 97 47 5f
        E 0 97 44 5f
        E 0 97 40 5f
        E 3840 97 44 00
        E 0 97 40 00
        E 0 97 47 00
        E 0 97 42 5f
        E 0 97 3e 5f
        E 0 97 3b 5f
        E 3840 97 3b 00
        E 0 97 3e 00
        E 0 97 42 00
        E 0 97 4a 5f
        E 0 97 45 5f
        E 0 97 42 5f
        E 3840 97 42 00
        E 0 97 45 00
        E 0 97 4a 00
        E 0 97 49 5f
        E 0 97 45 5f
        E 0 97 42 5f
        E 3840 97 42 00
        E 0 97 45 00
        E 0 97 49 00
        E 0 97 47 5f
        E 0 97 44 5f
        E 0 97 40 5f
        E 3840 97 44 00
        E 0 97 47 00
        E 0 97 40 00
        E 0 97 42 5f
        E 0 97 3e 5f
        E 0 97 3b 5f
        E 3840 97 3e 00
        E 0 97 3b 00
        E 0 97 42 00
        E 0 97 4a 5f
        E 0 97 45 5f
        E 0 97 42 5f
        E 3840 97 42 00
        E 0 97 45 00
        E 0 97 4a 00
        E 0 97 49 5f
        E 0 97 45 5f
        E 0 97 42 5f
        E 3840 97 42 00
        E 0 97 45 00
        E 0 97 49 00
        E 0 97 47 5f
        E 0 97 44 5f
        E 0 97 40 5f
        E 3838 97 40 00
        E 0 97 47 00
        E 0 97 44 00
        E 2 b0 7b 00
        GUID {2FE339FC-2FCF-47DC-9981-B0268C35B5C8}
        IGNTEMPO 0 120 4 4
        SRCCOLOR 36
        VELLANE -1 100 0
      >
    >
  >
  <TRACK {5575220E-B2DA-4709-8D3C-20A130C02530}
    NAME "untitled - GetluckyfeatPharrellWilliams.mid [chan 9] [chan 9]"
    PEAKCOL 29753210
    BEAT -1
    AUTOMODE 0
    VOLPAN 1 0 -1 -1 1
    MUTESOLO 0 0 0
    IPHASE 0
    ISBUS 0 0
    BUSCOMP 0 0
    SHOWINMIX 1 0.6667 0.5 1 0.5 0 0 0
    FREEMODE 0
    SEL 1
    REC 0 0 0 0 0 0 0
    VU 2
    TRACKHEIGHT 0 0 0
    INQ 0 0 0 0.5 100 0 0 100
    NCHAN 2
    FX 1
    TRACKID {5575220E-B2DA-4709-8D3C-20A130C02530}
    PERF 0
    MIDIOUT -1
    MAINSEND 1 0
    <ITEM
      POSITION 38.5
      SNAPOFFS 0
      LENGTH 242
      LOOP 1
      ALLTAKES 0
      FADEIN 1 0 0 1 0 0
      FADEOUT 1 0 0 1 0 0
      MUTE 0
      SEL 0
      IGUID {1868EA9A-200F-43CE-A186-B7E9169C07EF}
      IID 18
      NAME "untitled - GetluckyfeatPharrellWilliams.mid [chan 9]"
      VOLPAN 1 0 1 -1
      SOFFS 0 0
      PLAYRATE 1 1 0 -1 0 0.0025
      CHANMODE 0
      GUID {CF6E5836-D3AB-407F-BF4D-F64C85790ED1}
      <SOURCE MIDI
        HASDATA 1 960 QN
        POOLEDEVTS {F78783BC-607D-4324-B798-E078125830EB}
        E 48 b8 65 00
        E 2 b8 64 00
        E 2 b8 06 0c
        E 2 b8 26 00
        E 42 c8 1b 00
        E 0 b8 07 64
        E 0 b8 0a 10
        E 0 e8 00 40
        E 0 b8 5d 00
        E 0 b8 5b 00
        E 0 b8 5f 00
        E 0 b8 5c 00
        E 0 b8 07 5f
        E 0 b8 0a 3f
        E 0 b8 5d 00
        E 0 b8 5b 00
        E 0 b8 5f 00
        E 0 b8 5c 00
        E 3744 98 32 5f
        E 50 98 32 00
        E 190 98 32 5f
        E 50 98 32 00
        E 190 98 42 2f
        E 0 98 3e 5f
        E 0 98 39 5f
        E 240 98 39 00
        E 0 98 3e 00
        E 0 98 42 00
        E 0 98 32 5f
        E 50 98 32 00
        E 190 98 36 5f
        E 240 98 36 00
        E 0 98 42 2f
        E 0 98 3e 5f
        E 0 98 39 5f
        E 240 98 39 00
        E 0 98 3e 00
        E 0 98 42 00
        E 0 98 32 5f
        E 50 98 32 00
        E 190 98 3e 5f
        E 0 98 3b 5f
        E 240 98 3e 00
        E 0 98 3b 00
        E 0 98 42 5f
        E 0 98 3e 5f
        E 0 98 3b 5f
        E 240 98 3b 00
        E 0 98 42 00
        E 0 98 3e 00
        E 0 98 32 5f
        E 50 98 32 00
        E 190 98 3e 5f
        E 0 98 3b 5f
        E 240 98 3b 00
        E 0 98 3e 00
        E 0 98 42 5f
        E 0 98 3e 5f
        E 0 98 3b 5f
        E 240 98 3b 00
        E 0 98 3e 00
        E 0 98 42 00
        E 0 98 32 5f
        E 50 98 32 00
        E 190 98 32 5f
        E 50 98 32 00
        E 190 98 42 5f
        E 0 98 3e 5f
        E 0 98 3b 5f
        E 240 98 3b 00
        E 0 98 42 00
        E 0 98 3e 00
        E 0 98 42 5f
        E 0 98 3e 5f
        E 0 98 3b 5f
        E 240 98 3e 00
        E 0 98 42 00
        E 0 98 3b 00
        E 0 98 32 5f
        E 50 98 32 00
        E 190 98 32 5f
        E 50 98 32 00
        E 190 98 42 5f
        E 0 98 3e 5f
        E 0 98 39 5f
        E 240 98 39 00
        E 0 98 3e 00
        E 0 98 42 00
        E 0 98 32 5f
        E 50 98 32 00
        E 190 98 32 5f
        E 50 98 32 00
        E 190 98 42 5f
        E 0 98 3e 5f
        E 0 98 39 5f
        E 240 98 39 00
        E 0 98 3e 00
        E 0 98 42 00
        E 0 98 32 5f
        E 50 98 32 00
        E 190 98 3e 5f
        E 0 98 32 5f
        E 50 98 32 00
        E 190 98 3e 00
        E 0 98 42 2f
        E 0 98 3e 5f
        E 0 98 39 5f
        E 240 98 39 00
        E 0 98 42 00
        E 0 98 3e 00
        E 0 98 32 5f
        E 50 98 32 00
        E 190 98 3e 5f
        E 0 98 32 5f
        E 50 98 32 00
        E 190 98 3e 00
        E 0 98 42 2f
        E 0 98 3e 5f
        E 0 98 39 5f
        E 240 98 39 00
        E 0 98 3e 00
        E 0 98 42 00
        E 0 98 3d 5f
        E 0 98 32 5f
        E 50 98 32 00
        E 430 98 3d 00
        E 0 98 42 5f
        E 0 98 3e 5f
        E 0 98 39 5f
        E 240 98 39 00
        E 0 98 42 00
        E 0 98 3e 00
        E 0 98 42 5f
        E 0 98 3e 5f
        E 0 98 39 5f
        E 240 98 3e 00
        E 0 98 42 00
        E 0 98 39 00
        E 0 98 49 5f
        E 0 98 45 5f
        E 120 e8 00 25
        E 120 e8 00 40
        E 0 98 45 00
        E 0 98 49 00
        E 0 98 49 5f
        E 0 98 3b 5f
        E 50 98 3b 00
        E 190 98 49 00
        E 0 98 49 2f
        E 0 98 3b 5f
        E 50 98 3b 00
        E 190 98 49 00
        E 0 98 3b 5f
        E 50 98 3b 00
        E 190 98 3b 5f
        E 0 98 3d 5f
        E 50 98 3b 00
        E 190 98 3d 00
        E 0 98 45 5f
        E 0 98 42 5f
        E 0 98 3d 5f
        E 240 98 3d 00
        E 0 98 42 00
        E 0 98 45 00
        E 0 98 32 5f
        E 50 98 32 00
        E 190 98 37 5f
        E 0 98 3d 2f
        E 50 98 37 00
        E 190 98 3d 00
        E 0 98 45 5f
        E 0 98 42 5f
        E 0 98 3d 5f
        E 240 98 45 00
        E 0 98 3d 00
        E 0 98 42 00
        E 0 98 32 5f
        E 50 98 32 00
        E 190 98 37 5f
        E 0 98 3d 5f
        E 50 98 37 00
        E 190 98 3d 00
        E 0 98 45 5f
        E 0 98 42 5f
        E 0 98 3d 5f
        E 240 98 3d 00
        E 0 98 42 00
        E 0 98 45 00
        E 0 98 32 5f
        E 50 98 32 00
        E 190 98 3b 5f
        E 0 98 37 5f
        E 0 98 3d 5f
        E 50 98 37 00
        E 0 98 3b 00
        E 190 98 3d 00
        E 0 98 45 5f
        E 0 98 42 5f
        E 0 98 3d 5f
        E 480 98 45 00
        E 0 98 42 00
        E 0 98 3d 00
        E 0 98 32 5f
        E 50 98 32 00
        E 190 98 32 5f
        E 50 98 32 00
        E 190 98 44 2f
        E 0 98 40 5f
        E 0 98 3b 2f
        E 240 98 3b 00
        E 0 98 40 00
        E 0 98 44 00
        E 0 98 32 5f
        E 50 98 32 00
        E 190 98 44 2f
        E 0 98 40 2f
        E 0 98 3b 5f
        E 240 98 3b 00
        E 0 98 44 00
        E 0 98 40 00
        E 0 98 44 2f
        E 0 98 40 5f
        E 0 98 3b 2f
        E 240 98 3b 00
        E 0 98 40 00
        E 0 98 44 00
        E 0 98 40 5f
        E 50 98 40 00
        E 190 98 44 2f
        E 0 98 40 5f
        E 0 98 3b 2f
        E 240 98 40 00
        E 0 98 44 00
        E 0 98 3b 00
        E 0 98 37 5f
        E 50 98 37 00
        E 190 98 40 5f
        E 50 98 40 00
        E 190 98 44 2f
        E 0 98 40 5f
        E 0 98 3b 2f
        E 240 98 3b 00
        E 0 98 44 00
        E 0 98 40 00
        E 0 98 37 5f
        E 50 98 37 00
        E 190 98 37 5f
        E 50 98 37 00
        E 190 98 40 5f
        E 50 98 40 00
        E 190 98 44 2f
        E 0 98 40 5f
        E 0 98 3b 5f
        E 240 98 44 00
        E 0 98 3b 00
        E 0 98 40 00
        E 0 98 44 2f
        E 0 98 40 5f
        E 0 98 3b 5f
        E 240 98 40 00
        E 0 98 3b 00
        E 0 98 44 00
        E 0 98 32 5f
        E 50 98 32 00
        E 190 98 32 5f
        E 50 98 32 00
        E 190 98 42 2f
        E 0 98 3e 5f
        E 0 98 39 5f
        E 240 98 39 00
        E 0 98 3e 00
        E 0 98 42 00
        E 0 98 32 5f
        E 50 98 32 00
        E 190 98 36 5f
        E 240 98 36 00
        E 0 98 42 2f
        E 0 98 3e 5f
        E 0 98 39 5f
        E 240 98 39 00
        E 0 98 3e 00
        E 0 98 42 00
        E 0 98 32 5f
        E 50 98 32 00
        E 190 98 42 2f
        E 0 98 3e 5f
        E 0 98 3b 5f
        E 240 98 3e 00
        E 0 98 42 00
        E 0 98 3b 00
        E 0 98 3e 5f
        E 50 98 3e 00
        E 190 98 3e 5f
        E 50 98 3e 00
        E 190 98 42 5f
        E 0 98 3e 5f
        E 0 98 3b 5f
        E 50 98 3b 00
        E 190 98 42 00
        E 0 98 3e 00
        E 0 98 42 5f
        E 0 98 3e 5f
        E 0 98 3b 5f
        E 50 98 3b 00
        E 190 98 3e 00
        E 0 98 42 00
        E 0 98 32 5f
        E 50 98 32 00
        E 190 98 32 5f
        E 50 98 32 00
        E 190 98 42 5f
        E 0 98 3e 5f
        E 0 98 3b 5f
        E 240 98 3b 00
        E 0 98 42 00
        E 0 98 3e 00
        E 0 98 42 5f
        E 0 98 3e 5f
        E 0 98 3b 5f
        E 240 98 3b 00
        E 0 98 3e 00
        E 0 98 42 00
        E 0 98 32 5f
        E 50 98 32 00
        E 190 98 32 5f
        E 50 98 32 00
        E 190 98 42 5f
        E 0 98 3e 5f
        E 0 98 39 5f
        E 240 98 39 00
        E 0 98 3e 00
        E 0 98 42 00
        E 0 98 32 5f
        E 50 98 32 00
        E 190 98 32 5f
        E 50 98 32 00
        E 190 98 42 5f
        E 0 98 3e 5f
        E 0 98 39 5f
        E 240 98 39 00
        E 0 98 3e 00
        E 0 98 42 00
        E 0 98 32 5f
        E 50 98 32 00
        E 190 98 3e 5f
        E 0 98 32 5f
        E 50 98 32 00
        E 190 98 3e 00
        E 0 98 42 5f
        E 0 98 3e 5f
        E 0 98 39 5f
        E 240 98 42 00
        E 0 98 39 00
        E 0 98 3e 00
        E 0 98 32 5f
        E 50 98 32 00
        E 190 98 3e 5f
        E 0 98 32 5f
        E 50 98 32 00
        E 190 98 3e 00
        E 0 98 42 5f
        E 0 98 3e 5f
        E 0 98 39 5f
        E 240 98 39 00
        E 0 98 3e 00
        E 0 98 42 00
        E 0 98 3d 5f
        E 0 98 32 5f
        E 50 98 32 00
        E 430 98 3d 00
        E 0 98 42 5f
        E 0 98 3e 5f
        E 0 98 39 5f
        E 240 98 39 00
        E 0 98 42 00
        E 0 98 3e 00
        E 0 98 42 5f
        E 0 98 3e 5f
        E 0 98 39 5f
        E 240 98 3e 00
        E 0 98 42 00
        E 0 98 39 00
        E 0 98 32 5f
        E 50 98 32 00
        E 190 98 32 5f
        E 50 98 32 00
        E 190 98 40 5f
        E 50 98 40 00
        E 190 98 40 5f
        E 0 98 32 5f
        E 50 98 32 00
        E 0 98 40 00
        E 190 98 3b 5f
        E 0 98 3d 5f
        E 50 98 3b 00
        E 190 98 3d 00
        E 0 98 45 5f
        E 0 98 42 5f
        E 0 98 3d 5f
        E 240 98 3d 00
        E 0 98 42 00
        E 0 98 45 00
        E 0 98 32 5f
        E 50 98 32 00
        E 190 98 37 5f
        E 0 98 3d 2f
        E 50 98 37 00
        E 190 98 3d 00
        E 0 98 45 5f
        E 0 98 42 5f
        E 0 98 3d 5f
        E 240 98 45 00
        E 0 98 3d 00
        E 0 98 42 00
        E 0 98 32 5f
        E 50 98 32 00
        E 190 98 37 5f
        E 0 98 3d 5f
        E 50 98 37 00
        E 190 98 3d 00
        E 0 98 45 5f
        E 0 98 42 5f
        E 0 98 3d 5f
        E 240 98 3d 00
        E 0 98 42 00
        E 0 98 45 00
        E 0 98 32 5f
        E 50 98 32 00
        E 190 98 42 5f
        E 0 98 3d 5f
        E 240 98 42 00
        E 0 98 3d 00
        E 0 98 45 2f
        E 0 98 42 5f
        E 0 98 3d 5f
        E 240 98 3d 00
        E 0 98 45 00
        E 0 98 42 00
        E 0 98 45 5f
        E 0 98 42 5f
        E 0 98 3d 5f
        E 240 98 3d 00
        E 0 98 42 00
        E 0 98 45 00
        E 0 98 32 5f
        E 50 98 32 00
        E 190 98 32 5f
        E 50 98 32 00
        E 190 98 44 2f
        E 0 98 40 5f
        E 0 98 3b 5f
        E 240 98 3b 00
        E 0 98 40 00
        E 0 98 44 00
        E 0 98 32 5f
        E 50 98 32 00
        E 190 98 44 2f
        E 0 98 40 2f
        E 0 98 3b 5f
        E 240 98 3b 00
        E 0 98 44 00
        E 0 98 40 00
        E 0 98 44 2f
        E 0 98 40 5f
        E 0 98 3b 5f
        E 240 98 3b 00
        E 0 98 44 00
        E 0 98 40 00
        E 0 98 40 5f
        E 50 98 40 00
        E 190 98 44 2f
        E 0 98 40 5f
        E 0 98 3b 5f
        E 240 98 3b 00
        E 0 98 44 00
        E 0 98 40 00
        E 0 98 37 5f
        E 50 98 37 00
        E 190 98 40 5f
        E 50 98 40 00
        E 190 98 44 2f
        E 0 98 40 5f
        E 0 98 3b 5f
        E 240 98 44 00
        E 0 98 3b 00
        E 0 98 40 00
        E 0 98 37 5f
        E 50 98 37 00
        E 190 98 37 5f
        E 50 98 37 00
        E 190 98 40 5f
        E 50 98 40 00
        E 190 98 44 2f
        E 0 98 40 5f
        E 0 98 3b 5f
        E 240 98 3b 00
        E 0 98 40 00
        E 0 98 44 00
        E 0 98 44 2f
        E 0 98 40 5f
        E 0 98 3b 5f
        E 240 98 3b 00
        E 0 98 40 00
        E 0 98 44 00
        E 0 98 32 5f
        E 50 98 32 00
        E 190 98 32 5f
        E 50 98 32 00
        E 190 98 42 5f
        E 0 98 3e 5f
        E 0 98 3b 5f
        E 240 98 3b 00
        E 0 98 3e 00
        E 0 98 42 00
        E 0 98 32 5f
        E 50 98 32 00
        E 190 98 3e 5f
        E 0 98 32 5f
        E 50 98 32 00
        E 130 98 3e 00
        E 60 98 42 5f
        E 0 98 32 5f
        E 50 98 32 00
        E 130 98 42 00
        E 60 98 40 5f
        E 0 98 32 5f
        E 50 98 32 00
        E 130 98 40 00
        E 60 98 37 5f
        E 0 98 3b 5f
        E 50 98 37 00
        E 130 98 3b 00
        E 60 98 42 5f
        E 0 98 3e 5f
        E 0 98 3b 5f
        E 240 98 42 00
        E 0 98 3b 00
        E 0 98 3e 00
        E 0 98 32 5f
        E 50 98 32 00
        E 190 98 32 5f
        E 50 98 32 00
        E 190 98 42 5f
        E 0 98 3e 5f
        E 0 98 3b 5f
        E 240 98 3b 00
        E 0 98 3e 00
        E 0 98 42 00
        E 0 98 32 5f
        E 50 98 32 00
        E 190 98 32 5f
        E 50 98 32 00
        E 190 98 42 5f
        E 0 98 3e 5f
        E 0 98 3b 5f
        E 240 98 42 00
        E 0 98 3e 00
        E 0 98 3b 00
        E 0 98 42 5f
        E 0 98 3e 5f
        E 0 98 3b 5f
        E 240 98 42 00
        E 0 98 3e 00
        E 0 98 3b 00
        E 0 98 32 5f
        E 50 98 32 00
        E 190 98 32 5f
        E 50 98 32 00
        E 190 98 42 5f
        E 0 98 3e 5f
        E 0 98 39 5f
        E 240 98 39 00
        E 0 98 3e 00
        E 0 98 42 00
        E 0 98 32 5f
        E 50 98 32 00
        E 190 98 32 5f
        E 50 98 32 00
        E 190 98 42 5f
        E 0 98 3e 5f
        E 0 98 39 5f
        E 240 98 39 00
        E 0 98 3e 00
        E 0 98 42 00
        E 0 98 42 2f
        E 0 98 32 5f
        E 50 98 32 00
        E 190 98 42 00
        E 0 98 3e 5f
        E 0 98 32 5f
        E 50 98 32 00
        E 190 98 3e 00
        E 0 98 32 5f
        E 50 98 32 00
        E 190 98 32 5f
        E 50 98 32 00
        E 190 98 32 5f
        E 50 98 32 00
        E 190 98 42 2f
        E 0 98 3e 5f
        E 0 98 39 5f
        E 240 98 39 00
        E 0 98 3e 00
        E 0 98 42 00
        E 0 98 32 5f
        E 50 98 32 00
        E 190 98 32 5f
        E 50 98 32 00
        E 190 98 3e 5f
        E 0 98 39 5f
        E 240 98 39 00
        E 0 98 3e 00
        E 0 98 42 5f
        E 0 98 3e 5f
        E 0 98 39 5f
        E 240 98 39 00
        E 0 98 42 00
        E 0 98 3e 00
        E 0 98 32 5f
        E 50 98 32 00
        E 190 98 32 5f
        E 50 98 32 00
        E 190 98 42 5f
        E 0 98 3d 5f
        E 240 98 3d 00
        E 0 98 42 00
        E 0 98 32 5f
        E 50 98 32 00
        E 190 98 3e 5f
        E 50 98 3e 00
        E 190 98 42 5f
        E 0 98 3d 5f
        E 240 98 3d 00
        E 0 98 42 00
        E 0 98 37 5f
        E 0 98 33 5f
        E 50 98 33 00
        E 0 98 37 00
        E 190 98 32 5f
        E 50 98 32 00
        E 190 98 42 5f
        E 0 98 3d 5f
        E 240 98 42 00
        E 0 98 3d 00
        E 0 98 32 5f
        E 50 98 32 00
        E 190 98 3e 5f
        E 50 98 3e 00
        E 190 98 42 5f
        E 0 98 3d 5f
        E 240 98 3d 00
        E 0 98 42 00
        E 0 98 32 5f
        E 50 98 32 00
        E 190 98 32 5f
        E 50 98 32 00
        E 190 98 45 2f
        E 0 98 42 5f
        E 0 98 3d 5f
        E 240 98 45 00
        E 0 98 42 00
        E 0 98 3d 00
        E 0 98 45 2f
        E 0 98 42 5f
        E 0 98 3d 5f
        E 240 98 45 00
        E 0 98 42 00
        E 0 98 3d 00
        E 0 98 32 5f
        E 50 98 32 00
        E 190 98 32 5f
        E 50 98 32 00
        E 190 98 47 5f
        E 0 98 44 5f
        E 0 98 40 5f
        E 0 98 3b 2f
        E 240 98 3b 00
        E 0 98 40 00
        E 0 98 44 00
        E 0 98 47 00
        E 0 98 47 5f
        E 0 98 32 5f
        E 50 98 32 00
        E 190 98 47 00
        E 0 98 44 5f
        E 0 98 32 5f
        E 50 98 32 00
        E 190 98 44 00
        E 0 98 40 5f
        E 0 98 3b 5f
        E 240 98 3b 00
        E 0 98 40 00
        E 0 98 32 5f
        E 50 98 32 00
        E 190 98 32 5f
        E 50 98 32 00
        E 190 98 40 5f
        E 0 98 3b 2f
        E 240 98 40 00
        E 0 98 3b 00
        E 0 98 32 5f
        E 50 98 32 00
        E 190 98 32 5f
        E 50 98 32 00
        E 190 98 40 5f
        E 0 98 3b 2f
        E 240 98 3b 00
        E 0 98 40 00
        E 0 98 32 5f
        E 50 98 32 00
        E 190 98 32 5f
        E 50 98 32 00
        E 190 98 44 2f
        E 0 98 40 5f
        E 0 98 3b 5f
        E 240 98 3b 00
        E 0 98 44 00
        E 0 98 40 00
        E 0 98 44 2f
        E 0 98 40 5f
        E 0 98 3b 5f
        E 240 98 3b 00
        E 0 98 44 00
        E 0 98 40 00
        E 0 98 32 5f
        E 50 98 32 00
        E 190 98 32 5f
        E 50 98 32 00
        E 190 98 42 5f
        E 0 98 3e 5f
        E 0 98 3b 5f
        E 240 98 3b 00
        E 0 98 3e 00
        E 0 98 42 00
        E 0 98 32 5f
        E 50 98 32 00
        E 190 98 3e 5f
        E 0 98 32 5f
        E 50 98 32 00
        E 190 98 3e 00
        E 0 98 42 5f
        E 0 98 3e 5f
        E 0 98 3b 5f
        E 240 98 3b 00
        E 0 98 3e 00
        E 0 98 42 00
        E 0 98 3e 5f
        E 0 98 32 5f
        E 50 98 32 00
        E 190 98 3e 00
        E 0 98 37 5f
        E 0 98 3b 5f
        E 50 98 37 00
        E 190 98 3b 00
        E 0 98 42 5f
        E 0 98 3e 5f
        E 0 98 3b 5f
        E 240 98 42 00
        E 0 98 3b 00
        E 0 98 3e 00
        E 0 98 32 5f
        E 50 98 32 00
        E 190 98 32 5f
        E 50 98 32 00
        E 190 98 42 5f
        E 0 98 3e 5f
        E 0 98 3b 5f
        E 240 98 3b 00
        E 0 98 3e 00
        E 0 98 42 00
        E 0 98 32 5f
        E 50 98 32 00
        E 190 98 32 5f
        E 50 98 32 00
        E 190 98 42 5f
        E 0 98 3e 5f
        E 0 98 3b 5f
        E 240 98 42 00
        E 0 98 3e 00
        E 0 98 3b 00
        E 0 98 42 5f
        E 0 98 3e 5f
        E 0 98 3b 5f
        E 240 98 42 00
        E 0 98 3b 00
        E 0 98 3e 00
        E 0 98 32 5f
        E 50 98 32 00
        E 190 98 32 5f
        E 50 98 32 00
        E 190 98 42 5f
        E 0 98 3e 5f
        E 0 98 39 5f
        E 240 98 39 00
        E 0 98 3e 00
        E 0 98 42 00
        E 0 98 32 5f
        E 50 98 32 00
        E 190 98 32 5f
        E 50 98 32 00
        E 190 98 42 5f
        E 0 98 3e 5f
        E 0 98 39 5f
        E 240 98 39 00
        E 0 98 3e 00
        E 0 98 42 00
        E 0 98 42 2f
        E 0 98 32 5f
        E 50 98 32 00
        E 190 98 42 00
        E 0 98 3e 5f
        E 0 98 32 5f
        E 50 98 32 00
        E 190 98 3e 00
        E 0 98 42 5f
        E 0 98 3e 5f
        E 0 98 39 5f
        E 240 98 42 00
        E 0 98 39 00
        E 0 98 3e 00
        E 0 98 32 5f
        E 50 98 32 00
        E 190 98 32 5f
        E 50 98 32 00
        E 190 98 42 2f
        E 0 98 3e 5f
        E 0 98 39 5f
        E 240 98 39 00
        E 0 98 3e 00
        E 0 98 42 00
        E 0 98 32 5f
        E 50 98 32 00
        E 190 98 32 5f
        E 50 98 32 00
        E 190 98 3e 5f
        E 0 98 39 5f
        E 240 98 39 00
        E 0 98 3e 00
        E 0 98 42 5f
        E 0 98 3e 5f
        E 0 98 39 5f
        E 240 98 39 00
        E 0 98 3e 00
        E 0 98 42 00
        E 0 98 32 5f
        E 50 98 32 00
        E 190 98 32 5f
        E 50 98 32 00
        E 190 98 49 2f
        E 0 98 45 2f
        E 0 98 42 5f
        E 0 98 3d 5f
        E 240 98 3d 00
        E 0 98 42 00
        E 0 98 49 00
        E 0 98 45 00
        E 0 98 49 2f
        E 0 98 45 2f
        E 0 98 42 5f
        E 0 98 3d 5f
        E 240 98 3d 00
        E 0 98 49 00
        E 0 98 42 00
        E 0 98 45 00
        E 0 98 3e 5f
        E 50 98 3e 00
        E 190 98 45 2f
        E 0 98 42 5f
        E 0 98 3d 5f
        E 240 98 3d 00
        E 0 98 42 00
        E 0 98 45 00
        E 0 98 37 5f
        E 0 98 33 5f
        E 50 98 33 00
        E 0 98 37 00
        E 190 98 32 5f
        E 50 98 32 00
        E 190 98 45 2f
        E 0 98 42 5f
        E 0 98 3d 5f
        E 240 98 45 00
        E 0 98 3d 00
        E 0 98 42 00
        E 0 98 32 5f
        E 50 98 32 00
        E 190 98 3e 5f
        E 50 98 3e 00
        E 190 98 45 2f
        E 0 98 42 5f
        E 0 98 3d 5f
        E 240 98 3d 00
        E 0 98 42 00
        E 0 98 45 00
        E 0 98 32 5f
        E 50 98 32 00
        E 190 98 32 5f
        E 50 98 32 00
        E 190 98 45 2f
        E 0 98 42 5f
        E 0 98 3d 5f
        E 240 98 3d 00
        E 0 98 45 00
        E 0 98 42 00
        E 0 98 45 2f
        E 0 98 42 5f
        E 0 98 3d 5f
        E 240 98 42 00
        E 0 98 45 00
        E 0 98 3d 00
        E 0 98 32 5f
        E 50 98 32 00
        E 190 98 32 5f
        E 50 98 32 00
        E 190 98 47 2f
        E 0 98 44 2f
        E 0 98 40 5f
        E 0 98 3b 2f
        E 240 98 3b 00
        E 0 98 40 00
        E 0 98 44 00
        E 0 98 47 00
        E 0 98 47 2f
        E 0 98 44 2f
        E 0 98 40 5f
        E 0 98 3b 5f
        E 240 98 3b 00
        E 0 98 40 00
        E 0 98 47 00
        E 0 98 44 00
        E 0 98 32 5f
        E 50 98 32 00
        E 190 98 44 2f
        E 0 98 40 5f
        E 0 98 3b 5f
        E 240 98 3b 00
        E 0 98 40 00
        E 0 98 44 00
        E 0 98 32 5f
        E 50 98 32 00
        E 190 98 32 5f
        E 50 98 32 00
        E 190 98 44 2f
        E 0 98 40 5f
        E 0 98 3b 2f
        E 240 98 44 00
        E 0 98 3b 00
        E 0 98 40 00
        E 0 98 32 5f
        E 50 98 32 00
        E 190 98 32 5f
        E 50 98 32 00
        E 190 98 44 2f
        E 0 98 40 5f
        E 0 98 3b 2f
        E 240 98 44 00
        E 0 98 3b 00
        E 0 98 40 00
        E 0 98 32 5f
        E 50 98 32 00
        E 190 98 32 5f
        E 50 98 32 00
        E 190 98 44 2f
        E 0 98 40 5f
        E 0 98 3b 5f
        E 240 98 44 00
        E 0 98 40 00
        E 0 98 3b 00
        E 0 98 44 2f
        E 0 98 40 5f
        E 0 98 3b 5f
        E 240 98 44 00
        E 0 98 3b 00
        E 0 98 40 00
        E 0 98 32 5f
        E 50 98 32 00
        E 190 98 32 5f
        E 50 98 32 00
        E 190 98 47 2f
        E 0 98 42 5f
        E 0 98 3e 5f
        E 0 98 3b 5f
        E 240 98 3b 00
        E 0 98 3e 00
        E 0 98 47 00
        E 0 98 42 00
        E 0 98 47 2f
        E 0 98 42 5f
        E 0 98 3e 5f
        E 0 98 3b 5f
        E 240 98 3b 00
        E 0 98 47 00
        E 0 98 3e 00
        E 0 98 42 00
        E 0 98 32 5f
        E 50 98 32 00
        E 190 98 47 5f
        E 0 98 42 5f
        E 0 98 3e 5f
        E 0 98 3b 5f
        E 240 98 3b 00
        E 0 98 47 00
        E 0 98 3e 00
        E 0 98 42 00
        E 0 98 3b 5f
        E 50 98 3b 00
        E 190 98 3e 5f
        E 0 98 3b 5f
        E 240 98 3b 00
        E 0 98 3e 00
        E 0 98 47 5f
        E 0 98 42 5f
        E 0 98 3e 5f
        E 0 98 3b 5f
        E 240 98 3e 00
        E 0 98 3b 00
        E 0 98 42 00
        E 0 98 47 00
        E 0 98 3b 5f
        E 50 98 3b 00
        E 190 98 3e 5f
        E 0 98 3b 5f
        E 240 98 3b 00
        E 0 98 3e 00
        E 0 98 47 5f
        E 0 98 42 5f
        E 0 98 3e 5f
        E 0 98 3b 5f
        E 240 98 3b 00
        E 0 98 47 00
        E 0 98 3e 00
        E 0 98 42 00
        E 0 98 3e 5f
        E 0 98 32 5f
        E 50 98 32 00
        E 190 98 3e 00
        E 0 98 32 5f
        E 50 98 32 00
        E 190 98 42 5f
        E 0 98 3e 5f
        E 0 98 3b 5f
        E 240 98 3b 00
        E 0 98 42 00
        E 0 98 3e 00
        E 0 98 47 5f
        E 0 98 42 5f
        E 0 98 3e 5f
        E 0 98 3b 5f
        E 240 98 42 00
        E 0 98 3b 00
        E 0 98 3e 00
        E 0 98 47 00
        E 0 98 32 5f
        E 50 98 32 00
        E 190 98 32 5f
        E 50 98 32 00
        E 190 98 45 2f
        E 0 98 42 5f
        E 0 98 3e 5f
        E 0 98 39 5f
        E 240 98 39 00
        E 0 98 3e 00
        E 0 98 45 00
        E 0 98 42 00
        E 0 98 45 2f
        E 0 98 42 5f
        E 0 98 3e 5f
        E 0 98 39 5f
        E 240 98 39 00
        E 0 98 45 00
        E 0 98 3e 00
        E 0 98 42 00
        E 0 98 32 5f
        E 50 98 32 00
        E 190 98 45 5f
        E 0 98 42 5f
        E 0 98 3e 5f
        E 0 98 39 5f
        E 240 98 39 00
        E 0 98 45 00
        E 0 98 3e 00
        E 0 98 42 00
        E 0 98 3b 5f
        E 50 98 3b 00
        E 190 98 3e 5f
        E 0 98 39 5f
        E 240 98 39 00
        E 0 98 3e 00
        E 0 98 45 5f
        E 0 98 42 5f
        E 0 98 3e 5f
        E 0 98 39 5f
        E 240 98 3e 00
        E 0 98 39 00
        E 0 98 42 00
        E 0 98 45 00
        E 0 98 3b 5f
        E 50 98 3b 00
        E 190 98 3e 5f
        E 0 98 39 5f
        E 240 98 39 00
        E 0 98 3e 00
        E 0 98 45 5f
        E 0 98 42 5f
        E 0 98 3e 5f
        E 0 98 39 5f
        E 240 98 39 00
        E 0 98 45 00
        E 0 98 42 00
        E 0 98 3e 00
        E 0 98 3e 5f
        E 0 98 32 5f
        E 50 98 32 00
        E 190 98 3e 00
        E 0 98 32 5f
        E 50 98 32 00
        E 190 98 42 5f
        E 0 98 3e 5f
        E 0 98 39 5f
        E 240 98 39 00
        E 0 98 42 00
        E 0 98 3e 00
        E 0 98 45 5f
        E 0 98 42 5f
        E 0 98 3e 5f
        E 0 98 39 5f
        E 240 98 42 00
        E 0 98 45 00
        E 0 98 3e 00
        E 0 98 39 00
        E 0 98 32 5f
        E 50 98 32 00
        E 190 98 32 5f
        E 50 98 32 00
        E 190 98 49 2f
        E 0 98 45 5f
        E 0 98 42 5f
        E 0 98 3d 5f
        E 240 98 3d 00
        E 0 98 45 00
        E 0 98 49 00
        E 0 98 42 00
        E 0 98 32 5f
        E 50 98 32 00
        E 190 98 45 5f
        E 0 98 42 5f
        E 0 98 3d 5f
        E 240 98 3d 00
        E 0 98 42 00
        E 0 98 45 00
        E 0 98 49 2f
        E 0 98 45 5f
        E 0 98 42 5f
        E 0 98 3d 5f
        E 240 98 3d 00
        E 0 98 49 00
        E 0 98 42 00
        E 0 98 45 00
        E 0 98 32 5f
        E 50 98 32 00
        E 190 98 32 5f
        E 50 98 32 00
        E 190 98 49 2f
        E 0 98 45 5f
        E 0 98 42 5f
        E 0 98 3d 5f
        E 240 98 3d 00
        E 0 98 49 00
        E 0 98 42 00
        E 0 98 45 00
        E 0 98 32 5f
        E 50 98 32 00
        E 190 98 42 5f
        E 0 98 32 5f
        E 50 98 32 00
        E 190 98 42 00
        E 0 98 49 2f
        E 0 98 45 5f
        E 0 98 42 5f
        E 0 98 3d 5f
        E 240 98 3d 00
        E 0 98 49 00
        E 0 98 45 00
        E 0 98 42 00
        E 0 98 32 5f
        E 50 98 32 00
        E 190 98 32 5f
        E 50 98 32 00
        E 190 98 42 5f
        E 0 98 3d 5f
        E 240 98 3d 00
        E 0 98 42 00
        E 0 98 45 5f
        E 0 98 42 5f
        E 0 98 3d 5f
        E 240 98 42 00
        E 0 98 45 00
        E 0 98 3d 00
        E 0 98 32 5f
        E 50 98 32 00
        E 190 98 32 5f
        E 50 98 32 00
        E 190 98 47 2f
        E 0 98 44 5f
        E 0 98 40 5f
        E 0 98 3b 5f
        E 240 98 3b 00
        E 0 98 44 00
        E 0 98 47 00
        E 0 98 40 00
        E 0 98 44 5f
        E 0 98 40 5f
        E 0 98 3b 5f
        E 240 98 3b 00
        E 0 98 44 00
        E 0 98 40 00
        E 0 98 3b 5f
        E 240 98 3b 00
        E 0 98 47 2f
        E 0 98 44 5f
        E 0 98 40 5f
        E 0 98 3b 5f
        E 240 98 3b 00
        E 0 98 47 00
        E 0 98 40 00
        E 0 98 44 00
        E 0 98 32 5f
        E 50 98 32 00
        E 190 98 32 5f
        E 50 98 32 00
        E 190 98 47 2f
        E 0 98 44 5f
        E 0 98 40 5f
        E 0 98 3b 5f
        E 240 98 3b 00
        E 0 98 47 00
        E 0 98 40 00
        E 0 98 44 00
        E 0 98 32 5f
        E 50 98 32 00
        E 190 98 40 5f
        E 0 98 3b 5f
        E 240 98 3b 00
        E 0 98 40 00
        E 0 98 47 2f
        E 0 98 44 5f
        E 0 98 40 5f
        E 0 98 3b 5f
        E 240 98 3b 00
        E 0 98 47 00
        E 0 98 44 00
        E 0 98 40 00
        E 0 98 32 5f
        E 50 98 32 00
        E 190 98 32 5f
        E 50 98 32 00
        E 190 98 40 5f
        E 0 98 3b 5f
        E 240 98 3b 00
        E 0 98 40 00
        E 0 98 44 5f
        E 0 98 40 5f
        E 0 98 3b 5f
        E 240 98 3b 00
        E 0 98 44 00
        E 0 98 40 00
        E 0 98 32 5f
        E 50 98 32 00
        E 190 98 32 5f
        E 50 98 32 00
        E 190 98 47 2f
        E 0 98 42 2f
        E 0 98 3e 5f
        E 0 98 3b 5f
        E 240 98 3b 00
        E 0 98 3e 00
        E 0 98 47 00
        E 0 98 42 00
        E 0 98 47 2f
        E 0 98 42 5f
        E 0 98 3e 5f
        E 0 98 3b 5f
        E 240 98 3b 00
        E 0 98 47 00
        E 0 98 3e 00
        E 0 98 42 00
        E 0 98 32 5f
        E 50 98 32 00
        E 190 98 47 2f
        E 0 98 42 5f
        E 0 98 3e 5f
        E 0 98 3b 5f
        E 240 98 3b 00
        E 0 98 47 00
        E 0 98 3e 00
        E 0 98 42 00
        E 0 98 3b 5f
        E 50 98 3b 00
        E 190 98 3e 5f
        E 0 98 3b 5f
        E 240 98 3b 00
        E 0 98 3e 00
        E 0 98 47 2f
        E 0 98 42 2f
        E 0 98 3e 5f
        E 0 98 3b 5f
        E 240 98 3e 00
        E 0 98 3b 00
        E 0 98 42 00
        E 0 98 47 00
        E 0 98 3b 5f
        E 50 98 3b 00
        E 190 98 3e 2f
        E 0 98 3b 5f
        E 240 98 3b 00
        E 0 98 3e 00
        E 0 98 47 2f
        E 0 98 42 5f
        E 0 98 3e 5f
        E 0 98 3b 5f
        E 240 98 3b 00
        E 0 98 47 00
        E 0 98 3e 00
        E 0 98 42 00
        E 0 98 3e 2f
        E 0 98 32 5f
        E 50 98 32 00
        E 190 98 3e 00
        E 0 98 32 5f
        E 50 98 32 00
        E 190 98 42 5f
        E 0 98 3e 2f
        E 0 98 3b 5f
        E 240 98 3b 00
        E 0 98 42 00
        E 0 98 3e 00
        E 0 98 47 2f
        E 0 98 42 2f
        E 0 98 3e 5f
        E 0 98 3b 5f
        E 240 98 42 00
        E 0 98 3b 00
        E 0 98 3e 00
        E 0 98 47 00
        E 0 98 32 5f
        E 50 98 32 00
        E 190 98 32 5f
        E 50 98 32 00
        E 190 98 45 2f
        E 0 98 42 5f
        E 0 98 3e 2f
        E 0 98 39 5f
        E 240 98 39 00
        E 0 98 3e 00
        E 0 98 45 00
        E 0 98 42 00
        E 0 98 45 2f
        E 0 98 42 5f
        E 0 98 3e 5f
        E 0 98 39 5f
        E 240 98 39 00
        E 0 98 45 00
        E 0 98 3e 00
        E 0 98 42 00
        E 0 98 32 5f
        E 50 98 32 00
        E 190 98 45 5f
        E 0 98 42 5f
        E 0 98 3e 5f
        E 0 98 39 5f
        E 240 98 39 00
        E 0 98 45 00
        E 0 98 3e 00
        E 0 98 42 00
        E 0 98 3b 5f
        E 50 98 3b 00
        E 190 98 3e 5f
        E 0 98 39 5f
        E 240 98 39 00
        E 0 98 3e 00
        E 0 98 45 2f
        E 0 98 42 2f
        E 0 98 3e 5f
        E 0 98 39 5f
        E 240 98 3e 00
        E 0 98 39 00
        E 0 98 42 00
        E 0 98 45 00
        E 0 98 3b 5f
        E 50 98 3b 00
        E 190 98 3e 2f
        E 0 98 39 2f
        E 240 98 39 00
        E 0 98 3e 00
        E 0 98 45 2f
        E 0 98 42 2f
        E 0 98 3e 5f
        E 0 98 39 5f
        E 240 98 39 00
        E 0 98 45 00
        E 0 98 42 00
        E 0 98 3e 00
        E 0 98 3e 2f
        E 0 98 32 5f
        E 50 98 32 00
        E 190 98 3e 00
        E 0 98 32 5f
        E 50 98 32 00
        E 190 98 42 5f
        E 0 98 3e 5f
        E 0 98 39 2f
        E 240 98 39 00
        E 0 98 42 00
        E 0 98 3e 00
        E 0 98 45 5f
        E 0 98 42 5f
        E 0 98 3e 2f
        E 0 98 39 5f
        E 240 98 42 00
        E 0 98 45 00
        E 0 98 3e 00
        E 0 98 39 00
        E 0 98 32 5f
        E 50 98 32 00
        E 190 98 32 5f
        E 50 98 32 00
        E 190 98 49 2f
        E 0 98 45 5f
        E 0 98 42 2f
        E 0 98 3d 5f
        E 240 98 3d 00
        E 0 98 45 00
        E 0 98 49 00
        E 0 98 42 00
        E 0 98 32 5f
        E 50 98 32 00
        E 190 98 45 5f
        E 0 98 42 2f
        E 0 98 3d 2f
        E 240 98 3d 00
        E 0 98 42 00
        E 0 98 45 00
        E 0 98 49 2f
        E 0 98 45 5f
        E 0 98 42 5f
        E 0 98 3d 2f
        E 240 98 3d 00
        E 0 98 49 00
        E 0 98 42 00
        E 0 98 45 00
        E 0 98 32 5f
        E 50 98 32 00
        E 190 98 32 5f
        E 50 98 32 00
        E 190 98 49 2f
        E 0 98 45 5f
        E 0 98 42 2f
        E 0 98 3d 5f
        E 240 98 3d 00
        E 0 98 49 00
        E 0 98 42 00
        E 0 98 45 00
        E 0 98 32 5f
        E 50 98 32 00
        E 190 98 42 2f
        E 0 98 32 5f
        E 50 98 32 00
        E 190 98 42 00
        E 0 98 49 2f
        E 0 98 45 5f
        E 0 98 42 5f
        E 0 98 3d 5f
        E 240 98 3d 00
        E 0 98 45 00
        E 0 98 49 00
        E 0 98 42 00
        E 0 98 32 5f
        E 50 98 32 00
        E 190 98 32 5f
        E 50 98 32 00
        E 190 98 42 2f
        E 0 98 3d 5f
        E 240 98 3d 00
        E 0 98 42 00
        E 0 98 45 5f
        E 0 98 42 5f
        E 0 98 3d 5f
        E 240 98 42 00
        E 0 98 45 00
        E 0 98 3d 00
        E 0 98 32 5f
        E 50 98 32 00
        E 190 98 32 5f
        E 50 98 32 00
        E 190 98 44 2f
        E 0 98 40 2f
        E 0 98 3b 5f
        E 240 98 3b 00
        E 0 98 40 00
        E 0 98 44 00
        E 0 98 44 2f
        E 0 98 40 5f
        E 0 98 3b 2f
        E 240 98 3b 00
        E 0 98 44 00
        E 0 98 40 00
        E 0 98 3b 5f
        E 240 98 3b 00
        E 0 98 44 2f
        E 0 98 40 5f
        E 0 98 3b 2f
        E 240 98 3b 00
        E 0 98 40 00
        E 0 98 44 00
        E 0 98 32 5f
        E 50 98 32 00
        E 190 98 32 5f
        E 50 98 32 00
        E 190 98 44 2f
        E 0 98 40 5f
        E 0 98 3b 2f
        E 240 98 44 00
        E 0 98 3b 00
        E 0 98 40 00
        E 0 98 32 5f
        E 50 98 32 00
        E 190 98 40 5f
        E 0 98 3b 2f
        E 240 98 3b 00
        E 0 98 40 00
        E 0 98 44 5f
        E 0 98 40 2f
        E 0 98 3b 5f
        E 240 98 3b 00
        E 0 98 44 00
        E 0 98 40 00
        E 0 98 3e 5f
        E 0 98 32 5f
        E 50 98 32 00
        E 430 98 3e 00
        E 0 98 3d 5f
        E 0 98 32 5f
        E 50 98 32 00
        E 430 98 3d 00
        E 0 98 32 5f
        E 50 98 32 00
        E 190 98 32 5f
        E 50 98 32 00
        E 190 98 42 5f
        E 0 98 3e 5f
        E 0 98 3b 5f
        E 240 98 3b 00
        E 0 98 3e 00
        E 0 98 42 00
        E 0 98 32 5f
        E 50 98 32 00
        E 190 98 32 5f
        E 50 98 32 00
        E 190 98 40 5f
        E 240 98 40 00
        E 0 98 3e 5f
        E 0 98 32 5f
        E 50 98 32 00
        E 190 98 3e 00
        E 0 98 3b 5f
        E 240 98 3b 00
        E 0 98 42 5f
        E 0 98 3e 5f
        E 0 98 3b 5f
        E 240 98 3b 00
        E 0 98 3e 00
        E 0 98 42 00
        E 0 98 3b 5f
        E 240 98 3b 00
        E 0 98 32 5f
        E 50 98 32 00
        E 190 98 42 5f
        E 0 98 3e 5f
        E 0 98 3b 5f
        E 240 98 3b 00
        E 0 98 3e 00
        E 0 98 42 00
        E 0 98 3b 5f
        E 240 98 3b 00
        E 0 98 32 5f
        E 50 98 32 00
        E 190 98 42 5f
        E 0 98 3e 5f
        E 0 98 3b 5f
        E 480 98 3b 00
        E 0 98 42 00
        E 0 98 3e 00
        E 0 98 32 5f
        E 50 98 32 00
        E 190 98 32 5f
        E 50 98 32 00
        E 190 98 42 5f
        E 0 98 3e 5f
        E 0 98 39 5f
        E 240 98 39 00
        E 0 98 3e 00
        E 0 98 42 00
        E 0 98 32 5f
        E 50 98 32 00
        E 190 98 32 5f
        E 50 98 32 00
        E 190 98 3e 5f
        E 0 98 39 5f
        E 240 98 39 00
        E 0 98 3e 00
        E 0 98 3e 5f
        E 240 98 3e 00
        E 0 98 32 5f
        E 50 98 32 00
        E 190 98 42 5f
        E 0 98 3e 5f
        E 0 98 39 5f
        E 240 98 39 00
        E 0 98 3e 00
        E 0 98 42 00
        E 0 98 3e 5f
        E 0 98 32 5f
        E 50 98 32 00
        E 190 98 3e 00
        E 0 98 39 5f
        E 240 98 39 00
        E 0 98 42 5f
        E 0 98 3e 5f
        E 0 98 39 5f
        E 240 98 39 00
        E 0 98 3e 00
        E 0 98 42 00
        E 0 98 3e 5f
        E 0 98 32 5f
        E 50 98 32 00
        E 190 98 3e 00
        E 0 98 39 5f
        E 50 98 39 00
        E 190 98 42 5f
        E 0 98 3e 5f
        E 0 98 39 5f
        E 480 98 39 00
        E 0 98 42 00
        E 0 98 3e 00
        E 0 98 32 5f
        E 50 98 32 00
        E 190 98 32 5f
        E 50 98 32 00
        E 190 98 45 2f
        E 0 98 42 5f
        E 0 98 3d 5f
        E 240 98 3d 00
        E 0 98 45 00
        E 0 98 42 00
        E 0 98 32 5f
        E 50 98 32 00
        E 190 98 32 5f
        E 50 98 32 00
        E 190 98 42 5f
        E 0 98 3d 5f
        E 0 98 39 2f
        E 240 98 39 00
        E 0 98 3d 00
        E 0 98 42 00
        E 0 98 32 5f
        E 50 98 32 00
        E 190 98 3d 5f
        E 240 98 3d 00
        E 0 98 45 2f
        E 0 98 42 5f
        E 0 98 3d 5f
        E 0 98 39 2f
        E 240 98 39 00
        E 0 98 42 00
        E 0 98 45 00
        E 0 98 3d 00
        E 0 98 42 5f
        E 0 98 32 5f
        E 50 98 32 00
        E 190 98 42 00
        E 0 98 3d 5f
        E 0 98 39 2f
        E 240 98 39 00
        E 0 98 3d 00
        E 0 98 45 2f
        E 0 98 42 5f
        E 0 98 3d 5f
        E 0 98 39 2f
        E 240 98 39 00
        E 0 98 42 00
        E 0 98 45 00
        E 0 98 3d 00
        E 0 98 37 5f
        E 50 98 37 00
        E 190 98 37 5f
        E 50 98 37 00
        E 190 98 45 2f
        E 0 98 42 5f
        E 0 98 3d 5f
        E 0 98 39 2f
        E 480 98 42 00
        E 0 98 3d 00
        E 0 98 45 00
        E 0 98 39 00
        E 0 98 32 5f
        E 50 98 32 00
        E 190 98 32 5f
        E 50 98 32 00
        E 190 98 3b 5f
        E 50 98 3b 00
        E 190 98 37 5f
        E 0 98 3b 2f
        E 50 98 37 00
        E 190 98 3b 00
        E 0 98 37 5f
        E 0 98 3b 5f
        E 50 98 37 00
        E 190 98 3b 00
        E 0 98 47 2f
        E 0 98 44 5f
        E 0 98 40 5f
        E 0 98 3b 5f
        E 240 98 3b 00
        E 0 98 40 00
        E 0 98 47 00
        E 0 98 44 00
        E 0 98 40 2f
        E 0 98 3b 5f
        E 240 98 3b 00
        E 0 98 40 00
        E 0 98 32 5f
        E 50 98 32 00
        E 190 98 3b 5f
        E 240 98 3b 00
        E 0 98 40 5f
        E 240 98 40 00
        E 0 98 3b 5f
        E 240 98 3b 00
        E 0 98 32 5f
        E 50 98 32 00
        E 190 98 3e 5f
        E 480 98 3e 00
        E 0 98 3d 5f
        E 480 98 3d 00
        E 0 98 32 5f
        E 50 98 32 00
        E 190 98 32 5f
        E 50 98 32 00
        E 190 98 42 5f
        E 0 98 3e 5f
        E 0 98 3b 5f
        E 240 98 3b 00
        E 0 98 3e 00
        E 0 98 42 00
        E 0 98 32 5f
        E 50 98 32 00
        E 190 98 32 5f
        E 50 98 32 00
        E 190 98 40 5f
        E 240 98 40 00
        E 0 98 3e 5f
        E 0 98 32 5f
        E 50 98 32 00
        E 190 98 3e 00
        E 0 98 3b 5f
        E 240 98 3b 00
        E 0 98 42 5f
        E 0 98 3e 5f
        E 0 98 3b 5f
        E 240 98 3b 00
        E 0 98 3e 00
        E 0 98 42 00
        E 0 98 3b 2f
        E 240 98 3b 00
        E 0 98 32 5f
        E 50 98 32 00
        E 190 98 42 5f
        E 0 98 3e 5f
        E 0 98 3b 5f
        E 240 98 3b 00
        E 0 98 3e 00
        E 0 98 42 00
        E 0 98 3e 2f
        E 0 98 3b 5f
        E 240 98 3e 00
        E 0 98 3b 00
        E 0 98 32 5f
        E 50 98 32 00
        E 190 98 42 5f
        E 0 98 3e 5f
        E 0 98 3b 5f
        E 480 98 42 00
        E 0 98 3b 00
        E 0 98 3e 00
        E 0 98 32 5f
        E 50 98 32 00
        E 190 98 32 5f
        E 50 98 32 00
        E 190 98 42 5f
        E 0 98 3e 5f
        E 0 98 39 5f
        E 240 98 39 00
        E 0 98 3e 00
        E 0 98 42 00
        E 0 98 32 5f
        E 50 98 32 00
        E 190 98 32 5f
        E 50 98 32 00
        E 190 98 3e 5f
        E 0 98 39 5f
        E 240 98 39 00
        E 0 98 3e 00
        E 0 98 3e 5f
        E 240 98 3e 00
        E 0 98 32 5f
        E 50 98 32 00
        E 190 98 42 5f
        E 0 98 3e 5f
        E 0 98 39 2f
        E 240 98 39 00
        E 0 98 3e 00
        E 0 98 42 00
        E 0 98 3e 5f
        E 0 98 32 5f
        E 50 98 32 00
        E 190 98 3e 00
        E 0 98 39 5f
        E 240 98 39 00
        E 0 98 42 5f
        E 0 98 3e 2f
        E 0 98 39 5f
        E 240 98 39 00
        E 0 98 3e 00
        E 0 98 42 00
        E 0 98 3e 5f
        E 0 98 32 5f
        E 50 98 32 00
        E 190 98 3e 00
        E 0 98 39 5f
        E 50 98 39 00
        E 190 98 42 5f
        E 0 98 3e 5f
        E 0 98 39 5f
        E 480 98 39 00
        E 0 98 42 00
        E 0 98 3e 00
        E 0 98 32 5f
        E 50 98 32 00
        E 190 98 32 5f
        E 50 98 32 00
        E 190 98 45 2f
        E 0 98 42 5f
        E 0 98 3d 5f
        E 240 98 3d 00
        E 0 98 42 00
        E 0 98 45 00
        E 0 98 32 5f
        E 50 98 32 00
        E 190 98 32 5f
        E 50 98 32 00
        E 190 98 42 5f
        E 0 98 3d 5f
        E 0 98 39 2f
        E 240 98 39 00
        E 0 98 3d 00
        E 0 98 42 00
        E 0 98 32 5f
        E 50 98 32 00
        E 190 98 3d 5f
        E 240 98 3d 00
        E 0 98 45 2f
        E 0 98 42 5f
        E 0 98 3d 5f
        E 0 98 39 2f
        E 240 98 3d 00
        E 0 98 39 00
        E 0 98 42 00
        E 0 98 45 00
        E 0 98 42 5f
        E 0 98 32 5f
        E 50 98 32 00
        E 190 98 42 00
        E 0 98 3d 5f
        E 0 98 39 2f
        E 240 98 39 00
        E 0 98 3d 00
        E 0 98 45 2f
        E 0 98 42 5f
        E 0 98 3d 5f
        E 0 98 39 2f
        E 240 98 3d 00
        E 0 98 42 00
        E 0 98 39 00
        E 0 98 45 00
        E 0 98 37 5f
        E 50 98 37 00
        E 190 98 37 5f
        E 50 98 37 00
        E 190 98 45 2f
        E 0 98 42 5f
        E 0 98 3d 5f
        E 0 98 39 2f
        E 480 98 3d 00
        E 0 98 39 00
        E 0 98 45 00
        E 0 98 42 00
        E 0 98 32 5f
        E 50 98 32 00
        E 190 98 32 5f
        E 50 98 32 00
        E 190 98 40 5f
        E 0 98 3b 5f
        E 240 98 3b 00
        E 0 98 40 00
        E 0 98 3b 5f
        E 50 98 3b 00
        E 190 98 3b 5f
        E 50 98 3b 00
        E 190 98 47 2f
        E 0 98 44 2f
        E 0 98 40 5f
        E 0 98 3b 5f
        E 240 98 3b 00
        E 0 98 44 00
        E 0 98 47 00
        E 0 98 40 00
        E 0 98 32 5f
        E 50 98 32 00
        E 190 98 32 5f
        E 50 98 32 00
        E 190 98 40 2f
        E 0 98 3b 5f
        E 240 98 3b 00
        E 0 98 40 00
        E 0 98 40 5f
        E 0 98 3b 2f
        E 240 98 3b 00
        E 0 98 40 00
        E 0 98 3b 5f
        E 240 98 3b 00
        E 0 98 32 5f
        E 50 98 32 00
        E 190 98 3e 5f
        E 480 98 3e 00
        E 0 98 3d 5f
        E 480 98 3d 00
        E 0 98 32 5f
        E 50 98 32 00
        E 190 98 32 5f
        E 50 98 32 00
        E 190 98 42 5f
        E 0 98 3e 5f
        E 0 98 3b 5f
        E 240 98 3b 00
        E 0 98 3e 00
        E 0 98 42 00
        E 0 98 32 5f
        E 50 98 32 00
        E 190 98 32 5f
        E 50 98 32 00
        E 190 98 42 5f
        E 0 98 3e 5f
        E 0 98 3b 5f
        E 240 98 3b 00
        E 0 98 3e 00
        E 0 98 42 00
        E 0 98 3e 5f
        E 0 98 32 5f
        E 50 98 32 00
        E 190 98 3e 00
        E 0 98 3b 5f
        E 240 98 3b 00
        E 0 98 3e 5f
        E 0 98 3b 5f
        E 240 98 3b 00
        E 0 98 3e 00
        E 0 98 3b 5f
        E 240 98 3b 00
        E 0 98 32 5f
        E 50 98 32 00
        E 190 98 3e 5f
        E 0 98 3b 5f
        E 240 98 3b 00
        E 0 98 3e 00
        E 0 98 3e 5f
        E 0 98 32 5f
        E 50 98 32 00
        E 190 98 3e 00
        E 0 98 32 5f
        E 50 98 32 00
        E 190 98 42 5f
        E 0 98 3e 5f
        E 0 98 3b 5f
        E 480 98 42 00
        E 0 98 3e 00
        E 0 98 3b 00
        E 0 98 32 5f
        E 50 98 32 00
        E 190 98 32 5f
        E 50 98 32 00
        E 190 98 42 5f
        E 0 98 3e 5f
        E 0 98 39 5f
        E 240 98 39 00
        E 0 98 3e 00
        E 0 98 42 00
        E 0 98 32 5f
        E 50 98 32 00
        E 190 98 32 5f
        E 50 98 32 00
        E 190 98 42 5f
        E 0 98 3e 5f
        E 0 98 39 5f
        E 240 98 39 00
        E 0 98 3e 00
        E 0 98 42 00
        E 0 98 3e 5f
        E 0 98 32 5f
        E 50 98 32 00
        E 190 98 3e 00
        E 0 98 39 5f
        E 240 98 39 00
        E 0 98 3e 5f
        E 0 98 39 5f
        E 240 98 39 00
        E 0 98 3e 00
        E 0 98 39 5f
        E 50 98 39 00
        E 190 98 32 5f
        E 50 98 32 00
        E 190 98 3e 5f
        E 0 98 39 5f
        E 240 98 39 00
        E 0 98 3e 00
        E 0 98 3e 5f
        E 0 98 32 5f
        E 50 98 32 00
        E 190 98 3e 00
        E 0 98 32 5f
        E 50 98 32 00
        E 190 98 42 5f
        E 0 98 3e 5f
        E 0 98 39 5f
        E 120 e8 00 44
        E 120 e8 00 48
        E 120 e8 00 4c
        E 120 e8 00 40
        E 0 98 42 00
        E 0 98 3e 00
        E 0 98 39 00
        E 0 98 49 5f
        E 0 98 45 5f
        E 0 98 32 5f
        E 50 98 32 00
        E 190 98 49 00
        E 0 98 45 00
        E 0 98 45 5f
        E 0 98 32 5f
        E 50 98 32 00
        E 0 98 45 00
        E 190 98 45 2f
        E 0 98 42 5f
        E 0 98 3d 5f
        E 240 98 3d 00
        E 0 98 42 00
        E 0 98 45 00
        E 0 98 32 5f
        E 50 98 32 00
        E 190 98 32 5f
        E 50 98 32 00
        E 190 98 45 2f
        E 0 98 42 5f
        E 0 98 3d 5f
        E 240 98 3d 00
        E 0 98 42 00
        E 0 98 45 00
        E 0 98 42 5f
        E 0 98 32 5f
        E 50 98 32 00
        E 190 98 42 00
        E 0 98 3d 5f
        E 240 98 3d 00
        E 0 98 42 5f
        E 0 98 3d 5f
        E 0 98 39 2f
        E 240 98 39 00
        E 0 98 3d 00
        E 0 98 42 00
        E 0 98 39 5f
        E 50 98 39 00
        E 190 98 32 5f
        E 50 98 32 00
        E 190 98 42 5f
        E 0 98 3d 5f
        E 240 98 3d 00
        E 0 98 42 00
        E 0 98 42 5f
        E 0 98 32 5f
        E 0 98 39 2f
        E 50 98 32 00
        E 190 98 42 00
        E 0 98 39 00
        E 0 98 32 5f
        E 50 98 32 00
        E 190 98 45 2f
        E 0 98 42 5f
        E 0 98 3d 5f
        E 480 98 45 00
        E 0 98 42 00
        E 0 98 3d 00
        E 0 98 32 5f
        E 50 98 32 00
        E 190 98 32 5f
        E 50 98 32 00
        E 190 98 44 2f
        E 0 98 40 5f
        E 0 98 3b 2f
        E 240 98 3b 00
        E 0 98 40 00
        E 0 98 44 00
        E 0 98 3b 5f
        E 240 98 3b 00
        E 0 98 32 5f
        E 50 98 32 00
        E 190 98 44 2f
        E 0 98 40 5f
        E 0 98 3b 2f
        E 240 98 3b 00
        E 0 98 40 00
        E 0 98 44 00
        E 0 98 40 5f
        E 0 98 32 5f
        E 50 98 32 00
        E 190 98 40 00
        E 0 98 3b 5f
        E 50 98 3b 00
        E 190 98 44 2f
        E 0 98 40 5f
        E 0 98 3b 5f
        E 240 98 3b 00
        E 0 98 44 00
        E 0 98 40 00
        E 0 98 39 5f
        E 50 98 39 00
        E 190 98 32 5f
        E 50 98 32 00
        E 190 98 44 2f
        E 0 98 40 5f
        E 0 98 3b 5f
        E 240 98 3b 00
        E 0 98 40 00
        E 0 98 44 00
        E 0 98 3e 5f
        E 480 98 3e 00
        E 0 98 3d 5f
        E 480 98 3d 00
        E 0 98 32 5f
        E 50 98 32 00
        E 190 98 32 5f
        E 50 98 32 00
        E 190 98 42 2f
        E 0 98 3e 5f
        E 0 98 39 5f
        E 240 98 39 00
        E 0 98 3e 00
        E 0 98 42 00
        E 0 98 32 5f
        E 50 98 32 00
        E 190 98 36 5f
        E 240 98 36 00
        E 0 98 42 2f
        E 0 98 3e 5f
        E 0 98 39 5f
        E 240 98 39 00
        E 0 98 3e 00
        E 0 98 42 00
        E 0 98 32 5f
        E 50 98 32 00
        E 190 98 42 2f
        E 0 98 3e 5f
        E 0 98 3b 5f
        E 240 98 3e 00
        E 0 98 42 00
        E 0 98 3b 00
        E 0 98 3e 5f
        E 50 98 3e 00
        E 190 98 3e 5f
        E 50 98 3e 00
        E 190 98 42 5f
        E 0 98 3e 5f
        E 0 98 3b 5f
        E 50 98 3b 00
        E 190 98 42 00
        E 0 98 3e 00
        E 0 98 42 5f
        E 0 98 3e 5f
        E 0 98 3b 5f
        E 50 98 3b 00
        E 190 98 3e 00
        E 0 98 42 00
        E 0 98 32 5f
        E 50 98 32 00
        E 190 98 32 5f
        E 50 98 32 00
        E 190 98 42 5f
        E 0 98 3e 5f
        E 0 98 3b 2f
        E 240 98 3b 00
        E 0 98 42 00
        E 0 98 3e 00
        E 0 98 42 5f
        E 0 98 3e 5f
        E 0 98 3b 2f
        E 240 98 3b 00
        E 0 98 3e 00
        E 0 98 42 00
        E 0 98 32 5f
        E 50 98 32 00
        E 190 98 32 5f
        E 50 98 32 00
        E 190 98 42 5f
        E 0 98 3e 5f
        E 0 98 39 5f
        E 240 98 39 00
        E 0 98 3e 00
        E 0 98 42 00
        E 0 98 32 5f
        E 50 98 32 00
        E 190 98 32 5f
        E 50 98 32 00
        E 190 98 42 5f
        E 0 98 3e 5f
        E 0 98 39 5f
        E 240 98 39 00
        E 0 98 3e 00
        E 0 98 42 00
        E 0 98 32 5f
        E 50 98 32 00
        E 190 98 3e 5f
        E 0 98 32 5f
        E 50 98 32 00
        E 190 98 3e 00
        E 0 98 42 5f
        E 0 98 3e 5f
        E 0 98 39 5f
        E 240 98 42 00
        E 0 98 39 00
        E 0 98 3e 00
        E 0 98 32 5f
        E 50 98 32 00
        E 190 98 3e 5f
        E 0 98 32 5f
        E 50 98 32 00
        E 190 98 3e 00
        E 0 98 42 5f
        E 0 98 3e 5f
        E 0 98 39 5f
        E 240 98 39 00
        E 0 98 3e 00
        E 0 98 42 00
        E 0 98 3d 5f
        E 0 98 32 5f
        E 50 98 32 00
        E 430 98 3d 00
        E 0 98 42 5f
        E 0 98 3e 5f
        E 0 98 39 5f
        E 240 98 39 00
        E 0 98 42 00
        E 0 98 3e 00
        E 0 98 42 5f
        E 0 98 3e 5f
        E 0 98 39 5f
        E 240 98 3e 00
        E 0 98 42 00
        E 0 98 39 00
        E 0 98 32 5f
        E 50 98 32 00
        E 190 98 32 5f
        E 50 98 32 00
        E 190 98 40 5f
        E 50 98 40 00
        E 190 98 40 5f
        E 0 98 32 5f
        E 50 98 32 00
        E 0 98 40 00
        E 190 98 3b 5f
        E 0 98 3d 5f
        E 50 98 3b 00
        E 190 98 3d 00
        E 0 98 45 5f
        E 0 98 42 5f
        E 0 98 3d 5f
        E 240 98 3d 00
        E 0 98 42 00
        E 0 98 45 00
        E 0 98 32 5f
        E 50 98 32 00
        E 190 98 37 5f
        E 0 98 3d 2f
        E 50 98 37 00
        E 190 98 3d 00
        E 0 98 45 5f
        E 0 98 42 5f
        E 0 98 3d 5f
        E 240 98 45 00
        E 0 98 3d 00
        E 0 98 42 00
        E 0 98 32 5f
        E 50 98 32 00
        E 190 98 37 5f
        E 0 98 3d 5f
        E 50 98 37 00
        E 190 98 3d 00
        E 0 98 45 5f
        E 0 98 42 5f
        E 0 98 3d 5f
        E 240 98 3d 00
        E 0 98 42 00
        E 0 98 45 00
        E 0 98 32 5f
        E 50 98 32 00
        E 190 98 42 5f
        E 0 98 3d 5f
        E 240 98 42 00
        E 0 98 3d 00
        E 0 98 45 2f
        E 0 98 42 5f
        E 0 98 3d 5f
        E 240 98 3d 00
        E 0 98 45 00
        E 0 98 42 00
        E 0 98 45 5f
        E 0 98 42 5f
        E 0 98 3d 5f
        E 240 98 3d 00
        E 0 98 42 00
        E 0 98 45 00
        E 0 98 32 5f
        E 50 98 32 00
        E 190 98 32 5f
        E 50 98 32 00
        E 190 98 44 2f
        E 0 98 40 5f
        E 0 98 3b 5f
        E 240 98 3b 00
        E 0 98 40 00
        E 0 98 44 00
        E 0 98 32 5f
        E 50 98 32 00
        E 190 98 44 2f
        E 0 98 40 2f
        E 0 98 3b 5f
        E 240 98 3b 00
        E 0 98 44 00
        E 0 98 40 00
        E 0 98 44 2f
        E 0 98 40 5f
        E 0 98 3b 5f
        E 240 98 3b 00
        E 0 98 44 00
        E 0 98 40 00
        E 0 98 40 5f
        E 50 98 40 00
        E 190 98 44 2f
        E 0 98 40 5f
        E 0 98 3b 5f
        E 240 98 3b 00
        E 0 98 44 00
        E 0 98 40 00
        E 0 98 37 5f
        E 50 98 37 00
        E 190 98 40 5f
        E 50 98 40 00
        E 190 98 44 2f
        E 0 98 40 5f
        E 0 98 3b 5f
        E 240 98 44 00
        E 0 98 3b 00
        E 0 98 40 00
        E 0 98 37 5f
        E 50 98 37 00
        E 190 98 37 5f
        E 50 98 37 00
        E 190 98 40 5f
        E 50 98 40 00
        E 190 98 44 2f
        E 0 98 40 5f
        E 0 98 3b 5f
        E 240 98 3b 00
        E 0 98 40 00
        E 0 98 44 00
        E 0 98 44 2f
        E 0 98 40 5f
        E 0 98 3b 5f
        E 240 98 3b 00
        E 0 98 40 00
        E 0 98 44 00
        E 0 98 32 5f
        E 50 98 32 00
        E 190 98 32 5f
        E 50 98 32 00
        E 190 98 42 5f
        E 0 98 3e 5f
        E 0 98 3b 2f
        E 240 98 3b 00
        E 0 98 3e 00
        E 0 98 42 00
        E 0 98 32 5f
        E 50 98 32 00
        E 190 98 3e 2f
        E 0 98 32 5f
        E 50 98 32 00
        E 130 98 3e 00
        E 60 98 42 5f
        E 0 98 32 5f
        E 50 98 32 00
        E 130 98 42 00
        E 60 98 40 5f
        E 0 98 32 5f
        E 50 98 32 00
        E 130 98 40 00
        E 60 98 37 5f
        E 0 98 3b 5f
        E 50 98 37 00
        E 130 98 3b 00
        E 60 98 42 2f
        E 0 98 3e 5f
        E 0 98 3b 5f
        E 240 98 42 00
        E 0 98 3b 00
        E 0 98 3e 00
        E 0 98 32 5f
        E 50 98 32 00
        E 190 98 32 5f
        E 50 98 32 00
        E 190 98 42 2f
        E 0 98 3e 5f
        E 0 98 3b 5f
        E 240 98 3b 00
        E 0 98 3e 00
        E 0 98 42 00
        E 0 98 32 5f
        E 50 98 32 00
        E 190 98 32 5f
        E 50 98 32 00
        E 190 98 42 5f
        E 0 98 3e 5f
        E 0 98 3b 5f
        E 240 98 42 00
        E 0 98 3e 00
        E 0 98 3b 00
        E 0 98 42 5f
        E 0 98 3e 5f
        E 0 98 3b 5f
        E 240 98 42 00
        E 0 98 3e 00
        E 0 98 3b 00
        E 0 98 32 5f
        E 50 98 32 00
        E 190 98 32 5f
        E 50 98 32 00
        E 190 98 42 2f
        E 0 98 3e 5f
        E 0 98 39 5f
        E 240 98 39 00
        E 0 98 3e 00
        E 0 98 42 00
        E 0 98 32 5f
        E 50 98 32 00
        E 190 98 32 5f
        E 50 98 32 00
        E 190 98 42 2f
        E 0 98 3e 5f
        E 0 98 39 5f
        E 240 98 39 00
        E 0 98 3e 00
        E 0 98 42 00
        E 0 98 42 5f
        E 0 98 32 5f
        E 50 98 32 00
        E 190 98 42 00
        E 0 98 3e 5f
        E 0 98 32 5f
        E 50 98 32 00
        E 190 98 3e 00
        E 0 98 32 5f
        E 50 98 32 00
        E 190 98 32 5f
        E 50 98 32 00
        E 190 98 32 5f
        E 50 98 32 00
        E 190 98 42 2f
        E 0 98 3e 5f
        E 0 98 39 5f
        E 240 98 39 00
        E 0 98 3e 00
        E 0 98 42 00
        E 0 98 32 5f
        E 50 98 32 00
        E 190 98 32 5f
        E 50 98 32 00
        E 190 98 3e 5f
        E 0 98 39 5f
        E 240 98 39 00
        E 0 98 3e 00
        E 0 98 42 2f
        E 0 98 3e 5f
        E 0 98 39 5f
        E 240 98 39 00
        E 0 98 42 00
        E 0 98 3e 00
        E 0 98 32 5f
        E 50 98 32 00
        E 190 98 32 5f
        E 50 98 32 00
        E 190 98 45 5f
        E 0 98 42 2f
        E 0 98 3d 5f
        E 240 98 3d 00
        E 0 98 42 00
        E 0 98 45 00
        E 0 98 32 5f
        E 50 98 32 00
        E 190 98 3e 5f
        E 50 98 3e 00
        E 190 98 45 2f
        E 0 98 42 5f
        E 0 98 3d 2f
        E 240 98 3d 00
        E 0 98 42 00
        E 0 98 45 00
        E 0 98 37 5f
        E 0 98 33 5f
        E 50 98 33 00
        E 0 98 37 00
        E 190 98 32 5f
        E 50 98 32 00
        E 190 98 45 2f
        E 0 98 42 5f
        E 0 98 3d 5f
        E 240 98 45 00
        E 0 98 3d 00
        E 0 98 42 00
        E 0 98 32 5f
        E 50 98 32 00
        E 190 98 3e 5f
        E 50 98 3e 00
        E 190 98 45 2f
        E 0 98 42 5f
        E 0 98 3d 5f
        E 240 98 3d 00
        E 0 98 42 00
        E 0 98 45 00
        E 0 98 32 5f
        E 50 98 32 00
        E 190 98 32 5f
        E 50 98 32 00
        E 190 98 45 2f
        E 0 98 42 5f
        E 0 98 3d 5f
        E 240 98 45 00
        E 0 98 42 00
        E 0 98 3d 00
        E 0 98 45 2f
        E 0 98 42 5f
        E 0 98 3d 5f
        E 240 98 45 00
        E 0 98 42 00
        E 0 98 3d 00
        E 0 98 32 5f
        E 50 98 32 00
        E 190 98 32 5f
        E 50 98 32 00
        E 190 98 47 2f
        E 0 98 44 5f
        E 0 98 40 2f
        E 0 98 3b 2f
        E 240 98 3b 00
        E 0 98 40 00
        E 0 98 44 00
        E 0 98 47 00
        E 0 98 47 2f
        E 0 98 32 5f
        E 50 98 32 00
        E 190 98 47 00
        E 0 98 44 5f
        E 0 98 32 5f
        E 50 98 32 00
        E 190 98 44 00
        E 0 98 40 5f
        E 0 98 3b 5f
        E 240 98 3b 00
        E 0 98 40 00
        E 0 98 32 5f
        E 50 98 32 00
        E 190 98 32 5f
        E 50 98 32 00
        E 190 98 40 5f
        E 0 98 3b 2f
        E 240 98 40 00
        E 0 98 3b 00
        E 0 98 32 5f
        E 50 98 32 00
        E 190 98 32 5f
        E 50 98 32 00
        E 190 98 40 5f
        E 0 98 3b 2f
        E 240 98 3b 00
        E 0 98 40 00
        E 0 98 32 5f
        E 50 98 32 00
        E 190 98 32 5f
        E 50 98 32 00
        E 190 98 44 2f
        E 0 98 40 5f
        E 0 98 3b 5f
        E 240 98 3b 00
        E 0 98 44 00
        E 0 98 40 00
        E 0 98 44 2f
        E 0 98 40 5f
        E 0 98 3b 5f
        E 240 98 3b 00
        E 0 98 44 00
        E 0 98 40 00
        E 0 98 32 5f
        E 50 98 32 00
        E 190 98 32 5f
        E 50 98 32 00
        E 190 98 42 5f
        E 0 98 3e 2f
        E 0 98 3b 5f
        E 240 98 3b 00
        E 0 98 3e 00
        E 0 98 42 00
        E 0 98 32 5f
        E 50 98 32 00
        E 190 98 3e 5f
        E 0 98 32 5f
        E 50 98 32 00
        E 190 98 3e 00
        E 0 98 42 2f
        E 0 98 3e 5f
        E 0 98 3b 5f
        E 240 98 3b 00
        E 0 98 3e 00
        E 0 98 42 00
        E 0 98 3e 5f
        E 0 98 32 5f
        E 50 98 32 00
        E 190 98 3e 00
        E 0 98 37 5f
        E 0 98 3b 5f
        E 50 98 37 00
        E 190 98 3b 00
        E 0 98 42 2f
        E 0 98 3e 5f
        E 0 98 3b 5f
        E 240 98 42 00
        E 0 98 3b 00
        E 0 98 3e 00
        E 0 98 32 5f
        E 50 98 32 00
        E 190 98 32 5f
        E 50 98 32 00
        E 190 98 42 2f
        E 0 98 3e 5f
        E 0 98 3b 5f
        E 240 98 3b 00
        E 0 98 3e 00
        E 0 98 42 00
        E 0 98 32 5f
        E 50 98 32 00
        E 190 98 32 5f
        E 50 98 32 00
        E 190 98 42 2f
        E 0 98 3e 5f
        E 0 98 3b 5f
        E 240 98 42 00
        E 0 98 3e 00
        E 0 98 3b 00
        E 0 98 42 2f
        E 0 98 3e 5f
        E 0 98 3b 5f
        E 240 98 42 00
        E 0 98 3e 00
        E 0 98 3b 00
        E 0 98 32 5f
        E 50 98 32 00
        E 190 98 32 5f
        E 50 98 32 00
        E 190 98 42 5f
        E 0 98 3e 5f
        E 0 98 39 5f
        E 240 98 39 00
        E 0 98 3e 00
        E 0 98 42 00
        E 0 98 32 5f
        E 50 98 32 00
        E 190 98 32 5f
        E 50 98 32 00
        E 190 98 42 5f
        E 0 98 3e 5f
        E 0 98 39 2f
        E 240 98 39 00
        E 0 98 3e 00
        E 0 98 42 00
        E 0 98 42 2f
        E 0 98 32 5f
        E 50 98 32 00
        E 190 98 42 00
        E 0 98 3e 5f
        E 0 98 32 5f
        E 50 98 32 00
        E 190 98 3e 00
        E 0 98 42 5f
        E 0 98 3e 5f
        E 0 98 39 5f
        E 240 98 42 00
        E 0 98 39 00
        E 0 98 3e 00
        E 0 98 32 5f
        E 50 98 32 00
        E 190 98 32 5f
        E 50 98 32 00
        E 190 98 42 2f
        E 0 98 3e 5f
        E 0 98 39 5f
        E 240 98 39 00
        E 0 98 3e 00
        E 0 98 42 00
        E 0 98 32 5f
        E 50 98 32 00
        E 190 98 32 5f
        E 50 98 32 00
        E 190 98 3e 5f
        E 0 98 39 5f
        E 240 98 39 00
        E 0 98 3e 00
        E 0 98 42 5f
        E 0 98 3e 5f
        E 0 98 39 5f
        E 240 98 39 00
        E 0 98 3e 00
        E 0 98 42 00
        E 0 98 32 5f
        E 50 98 32 00
        E 190 98 32 5f
        E 50 98 32 00
        E 190 98 49 2f
        E 0 98 45 2f
        E 0 98 42 5f
        E 0 98 3d 5f
        E 240 98 3d 00
        E 0 98 42 00
        E 0 98 49 00
        E 0 98 45 00
        E 0 98 49 2f
        E 0 98 45 2f
        E 0 98 42 5f
        E 0 98 3d 2f
        E 240 98 3d 00
        E 0 98 49 00
        E 0 98 42 00
        E 0 98 45 00
        E 0 98 3e 5f
        E 50 98 3e 00
        E 190 98 45 2f
        E 0 98 42 5f
        E 0 98 3d 5f
        E 240 98 3d 00
        E 0 98 42 00
        E 0 98 45 00
        E 0 98 37 5f
        E 0 98 33 5f
        E 50 98 33 00
        E 0 98 37 00
        E 190 98 32 5f
        E 50 98 32 00
        E 190 98 45 2f
        E 0 98 42 5f
        E 0 98 3d 2f
        E 240 98 45 00
        E 0 98 3d 00
        E 0 98 42 00
        E 0 98 32 5f
        E 50 98 32 00
        E 190 98 3e 5f
        E 50 98 3e 00
        E 190 98 45 2f
        E 0 98 42 5f
        E 0 98 3d 5f
        E 240 98 3d 00
        E 0 98 42 00
        E 0 98 45 00
        E 0 98 32 5f
        E 50 98 32 00
        E 190 98 32 5f
        E 50 98 32 00
        E 190 98 45 5f
        E 0 98 42 5f
        E 0 98 3d 2f
        E 240 98 3d 00
        E 0 98 45 00
        E 0 98 42 00
        E 0 98 45 2f
        E 0 98 42 2f
        E 0 98 3d 5f
        E 240 98 42 00
        E 0 98 45 00
        E 0 98 3d 00
        E 0 98 32 5f
        E 50 98 32 00
        E 190 98 32 5f
        E 50 98 32 00
        E 190 98 47 2f
        E 0 98 44 2f
        E 0 98 40 5f
        E 0 98 3b 2f
        E 240 98 3b 00
        E 0 98 40 00
        E 0 98 44 00
        E 0 98 47 00
        E 0 98 47 2f
        E 0 98 44 2f
        E 0 98 40 2f
        E 0 98 3b 5f
        E 240 98 3b 00
        E 0 98 40 00
        E 0 98 47 00
        E 0 98 44 00
        E 0 98 32 5f
        E 50 98 32 00
        E 190 98 44 2f
        E 0 98 40 5f
        E 0 98 3b 5f
        E 240 98 3b 00
        E 0 98 40 00
        E 0 98 44 00
        E 0 98 32 5f
        E 50 98 32 00
        E 190 98 32 5f
        E 50 98 32 00
        E 190 98 44 2f
        E 0 98 40 5f
        E 0 98 3b 2f
        E 240 98 44 00
        E 0 98 3b 00
        E 0 98 40 00
        E 0 98 32 5f
        E 50 98 32 00
        E 190 98 32 5f
        E 50 98 32 00
        E 190 98 44 2f
        E 0 98 40 5f
        E 0 98 3b 2f
        E 240 98 44 00
        E 0 98 3b 00
        E 0 98 40 00
        E 0 98 32 5f
        E 50 98 32 00
        E 190 98 32 5f
        E 50 98 32 00
        E 190 98 44 2f
        E 0 98 40 5f
        E 0 98 3b 2f
        E 240 98 44 00
        E 0 98 40 00
        E 0 98 3b 00
        E 0 98 44 2f
        E 0 98 40 5f
        E 0 98 3b 5f
        E 240 98 44 00
        E 0 98 3b 00
        E 0 98 40 00
        E 0 98 32 5f
        E 50 98 32 00
        E 190 98 32 5f
        E 50 98 32 00
        E 190 98 47 2f
        E 0 98 42 5f
        E 0 98 3e 5f
        E 0 98 3b 5f
        E 240 98 3b 00
        E 0 98 3e 00
        E 0 98 47 00
        E 0 98 42 00
        E 0 98 47 2f
        E 0 98 42 5f
        E 0 98 3e 5f
        E 0 98 3b 5f
        E 240 98 3b 00
        E 0 98 47 00
        E 0 98 3e 00
        E 0 98 42 00
        E 0 98 32 5f
        E 50 98 32 00
        E 190 98 47 2f
        E 0 98 42 5f
        E 0 98 3e 5f
        E 0 98 3b 5f
        E 240 98 3b 00
        E 0 98 47 00
        E 0 98 3e 00
        E 0 98 42 00
        E 0 98 3b 5f
        E 50 98 3b 00
        E 190 98 3e 5f
        E 0 98 3b 5f
        E 240 98 3b 00
        E 0 98 3e 00
        E 0 98 47 2f
        E 0 98 42 2f
        E 0 98 3e 5f
        E 0 98 3b 2f
        E 240 98 3e 00
        E 0 98 3b 00
        E 0 98 42 00
        E 0 98 47 00
        E 0 98 3b 5f
        E 50 98 3b 00
        E 190 98 3e 5f
        E 0 98 3b 5f
        E 240 98 3b 00
        E 0 98 3e 00
        E 0 98 47 2f
        E 0 98 42 2f
        E 0 98 3e 5f
        E 0 98 3b 5f
        E 240 98 3b 00
        E 0 98 47 00
        E 0 98 3e 00
        E 0 98 42 00
        E 0 98 3e 5f
        E 0 98 32 5f
        E 50 98 32 00
        E 190 98 3e 00
        E 0 98 32 5f
        E 50 98 32 00
        E 190 98 42 5f
        E 0 98 3e 5f
        E 0 98 3b 5f
        E 240 98 3b 00
        E 0 98 42 00
        E 0 98 3e 00
        E 0 98 47 5f
        E 0 98 42 5f
        E 0 98 3e 5f
        E 0 98 3b 5f
        E 240 98 42 00
        E 0 98 3b 00
        E 0 98 3e 00
        E 0 98 47 00
        E 0 98 32 5f
        E 50 98 32 00
        E 190 98 32 5f
        E 50 98 32 00
        E 190 98 45 2f
        E 0 98 42 5f
        E 0 98 3e 5f
        E 0 98 39 5f
        E 240 98 39 00
        E 0 98 3e 00
        E 0 98 45 00
        E 0 98 42 00
        E 0 98 45 2f
        E 0 98 42 5f
        E 0 98 3e 5f
        E 0 98 39 5f
        E 240 98 39 00
        E 0 98 45 00
        E 0 98 3e 00
        E 0 98 42 00
        E 0 98 32 5f
        E 50 98 32 00
        E 190 98 45 2f
        E 0 98 42 2f
        E 0 98 3e 5f
        E 0 98 39 5f
        E 240 98 39 00
        E 0 98 45 00
        E 0 98 3e 00
        E 0 98 42 00
        E 0 98 3b 5f
        E 50 98 3b 00
        E 190 98 3e 5f
        E 0 98 39 5f
        E 240 98 39 00
        E 0 98 3e 00
        E 0 98 45 2f
        E 0 98 42 2f
        E 0 98 3e 2f
        E 0 98 39 5f
        E 240 98 3e 00
        E 0 98 39 00
        E 0 98 42 00
        E 0 98 45 00
        E 0 98 3b 5f
        E 50 98 3b 00
        E 190 98 3e 5f
        E 0 98 39 5f
        E 240 98 39 00
        E 0 98 3e 00
        E 0 98 45 2f
        E 0 98 42 2f
        E 0 98 3e 5f
        E 0 98 39 5f
        E 240 98 39 00
        E 0 98 45 00
        E 0 98 42 00
        E 0 98 3e 00
        E 0 98 3e 5f
        E 0 98 32 5f
        E 50 98 32 00
        E 190 98 3e 00
        E 0 98 32 5f
        E 50 98 32 00
        E 190 98 42 2f
        E 0 98 3e 5f
        E 0 98 39 5f
        E 240 98 39 00
        E 0 98 42 00
        E 0 98 3e 00
        E 0 98 45 2f
        E 0 98 42 2f
        E 0 98 3e 5f
        E 0 98 39 5f
        E 240 98 42 00
        E 0 98 45 00
        E 0 98 3e 00
        E 0 98 39 00
        E 0 98 32 5f
        E 50 98 32 00
        E 190 98 32 5f
        E 50 98 32 00
        E 190 98 49 2f
        E 0 98 45 5f
        E 0 98 42 5f
        E 0 98 3d 5f
        E 240 98 3d 00
        E 0 98 45 00
        E 0 98 49 00
        E 0 98 42 00
        E 0 98 32 5f
        E 50 98 32 00
        E 190 98 45 2f
        E 0 98 42 5f
        E 0 98 3d 5f
        E 240 98 3d 00
        E 0 98 42 00
        E 0 98 45 00
        E 0 98 49 2f
        E 0 98 45 2f
        E 0 98 42 2f
        E 0 98 3d 5f
        E 240 98 3d 00
        E 0 98 49 00
        E 0 98 42 00
        E 0 98 45 00
        E 0 98 32 5f
        E 50 98 32 00
        E 190 98 32 5f
        E 50 98 32 00
        E 190 98 49 2f
        E 0 98 45 5f
        E 0 98 42 2f
        E 0 98 3d 5f
        E 240 98 3d 00
        E 0 98 49 00
        E 0 98 42 00
        E 0 98 45 00
        E 0 98 32 5f
        E 50 98 32 00
        E 190 98 42 5f
        E 0 98 32 5f
        E 50 98 32 00
        E 190 98 42 00
        E 0 98 49 2f
        E 0 98 45 5f
        E 0 98 42 2f
        E 0 98 3d 5f
        E 240 98 3d 00
        E 0 98 49 00
        E 0 98 45 00
        E 0 98 42 00
        E 0 98 32 5f
        E 50 98 32 00
        E 190 98 32 5f
        E 50 98 32 00
        E 190 98 42 5f
        E 0 98 3d 5f
        E 240 98 3d 00
        E 0 98 42 00
        E 0 98 45 5f
        E 0 98 42 2f
        E 0 98 3d 5f
        E 240 98 42 00
        E 0 98 45 00
        E 0 98 3d 00
        E 0 98 32 5f
        E 50 98 32 00
        E 190 98 32 5f
        E 50 98 32 00
        E 190 98 47 2f
        E 0 98 44 5f
        E 0 98 40 5f
        E 0 98 3b 5f
        E 240 98 3b 00
        E 0 98 44 00
        E 0 98 47 00
        E 0 98 40 00
        E 0 98 44 5f
        E 0 98 40 5f
        E 0 98 3b 5f
        E 240 98 3b 00
        E 0 98 44 00
        E 0 98 40 00
        E 0 98 3b 5f
        E 240 98 3b 00
        E 0 98 47 2f
        E 0 98 44 5f
        E 0 98 40 5f
        E 0 98 3b 2f
        E 240 98 3b 00
        E 0 98 47 00
        E 0 98 40 00
        E 0 98 44 00
        E 0 98 32 5f
        E 50 98 32 00
        E 190 98 32 5f
        E 50 98 32 00
        E 190 98 47 2f
        E 0 98 44 5f
        E 0 98 40 2f
        E 0 98 3b 2f
        E 240 98 3b 00
        E 0 98 47 00
        E 0 98 40 00
        E 0 98 44 00
        E 0 98 32 5f
        E 50 98 32 00
        E 190 98 40 5f
        E 0 98 3b 5f
        E 240 98 3b 00
        E 0 98 40 00
        E 0 98 47 2f
        E 0 98 44 5f
        E 0 98 40 2f
        E 0 98 3b 2f
        E 240 98 3b 00
        E 0 98 47 00
        E 0 98 44 00
        E 0 98 40 00
        E 0 98 32 5f
        E 50 98 32 00
        E 190 98 32 5f
        E 50 98 32 00
        E 190 98 40 5f
        E 0 98 3b 5f
        E 240 98 3b 00
        E 0 98 40 00
        E 0 98 44 2f
        E 0 98 40 5f
        E 0 98 3b 5f
        E 240 98 3b 00
        E 0 98 44 00
        E 0 98 40 00
        E 0 98 32 5f
        E 50 98 32 00
        E 190 98 32 5f
        E 50 98 32 00
        E 190 98 47 2f
        E 0 98 42 2f
        E 0 98 3e 5f
        E 0 98 3b 5f
        E 240 98 3b 00
        E 0 98 3e 00
        E 0 98 47 00
        E 0 98 42 00
        E 0 98 47 2f
        E 0 98 42 5f
        E 0 98 3e 5f
        E 0 98 3b 5f
        E 240 98 3b 00
        E 0 98 47 00
        E 0 98 3e 00
        E 0 98 42 00
        E 0 98 32 5f
        E 50 98 32 00
        E 190 98 47 2f
        E 0 98 42 5f
        E 0 98 3e 5f
        E 0 98 3b 5f
        E 240 98 3b 00
        E 0 98 47 00
        E 0 98 3e 00
        E 0 98 42 00
        E 0 98 3b 5f
        E 50 98 3b 00
        E 190 98 3e 5f
        E 0 98 3b 5f
        E 240 98 3b 00
        E 0 98 3e 00
        E 0 98 47 2f
        E 0 98 42 2f
        E 0 98 3e 5f
        E 0 98 3b 5f
        E 240 98 3e 00
        E 0 98 3b 00
        E 0 98 42 00
        E 0 98 47 00
        E 0 98 3b 5f
        E 50 98 3b 00
        E 190 98 3e 2f
        E 0 98 3b 5f
        E 240 98 3b 00
        E 0 98 3e 00
        E 0 98 47 2f
        E 0 98 42 5f
        E 0 98 3e 5f
        E 0 98 3b 5f
        E 240 98 3b 00
        E 0 98 47 00
        E 0 98 3e 00
        E 0 98 42 00
        E 0 98 3e 2f
        E 0 98 32 5f
        E 50 98 32 00
        E 190 98 3e 00
        E 0 98 32 5f
        E 50 98 32 00
        E 190 98 42 5f
        E 0 98 3e 2f
        E 0 98 3b 5f
        E 240 98 3b 00
        E 0 98 42 00
        E 0 98 3e 00
        E 0 98 47 2f
        E 0 98 42 2f
        E 0 98 3e 5f
        E 0 98 3b 5f
        E 240 98 42 00
        E 0 98 3b 00
        E 0 98 3e 00
        E 0 98 47 00
        E 0 98 32 5f
        E 50 98 32 00
        E 190 98 32 5f
        E 50 98 32 00
        E 190 98 45 2f
        E 0 98 42 5f
        E 0 98 3e 2f
        E 0 98 39 5f
        E 240 98 39 00
        E 0 98 3e 00
        E 0 98 45 00
        E 0 98 42 00
        E 0 98 45 2f
        E 0 98 42 5f
        E 0 98 3e 5f
        E 0 98 39 5f
        E 240 98 39 00
        E 0 98 45 00
        E 0 98 3e 00
        E 0 98 42 00
        E 0 98 32 5f
        E 50 98 32 00
        E 190 98 45 5f
        E 0 98 42 5f
        E 0 98 3e 5f
        E 0 98 39 5f
        E 240 98 39 00
        E 0 98 45 00
        E 0 98 3e 00
        E 0 98 42 00
        E 0 98 3b 5f
        E 50 98 3b 00
        E 190 98 3e 5f
        E 0 98 39 5f
        E 240 98 39 00
        E 0 98 3e 00
        E 0 98 45 2f
        E 0 98 42 2f
        E 0 98 3e 5f
        E 0 98 39 5f
        E 240 98 3e 00
        E 0 98 39 00
        E 0 98 42 00
        E 0 98 45 00
        E 0 98 3b 5f
        E 50 98 3b 00
        E 190 98 3e 2f
        E 0 98 39 2f
        E 240 98 39 00
        E 0 98 3e 00
        E 0 98 45 2f
        E 0 98 42 2f
        E 0 98 3e 5f
        E 0 98 39 5f
        E 240 98 39 00
        E 0 98 45 00
        E 0 98 42 00
        E 0 98 3e 00
        E 0 98 3e 2f
        E 0 98 32 5f
        E 50 98 32 00
        E 190 98 3e 00
        E 0 98 32 5f
        E 50 98 32 00
        E 190 98 42 5f
        E 0 98 3e 5f
        E 0 98 39 2f
        E 240 98 39 00
        E 0 98 42 00
        E 0 98 3e 00
        E 0 98 45 5f
        E 0 98 42 5f
        E 0 98 3e 2f
        E 0 98 39 5f
        E 240 98 42 00
        E 0 98 45 00
        E 0 98 3e 00
        E 0 98 39 00
        E 0 98 32 5f
        E 50 98 32 00
        E 190 98 32 5f
        E 50 98 32 00
        E 190 98 49 2f
        E 0 98 45 5f
        E 0 98 42 2f
        E 0 98 3d 5f
        E 240 98 3d 00
        E 0 98 45 00
        E 0 98 49 00
        E 0 98 42 00
        E 0 98 32 5f
        E 50 98 32 00
        E 190 98 45 5f
        E 0 98 42 2f
        E 0 98 3d 2f
        E 240 98 3d 00
        E 0 98 42 00
        E 0 98 45 00
        E 0 98 49 2f
        E 0 98 45 5f
        E 0 98 42 5f
        E 0 98 3d 2f
        E 240 98 3d 00
        E 0 98 49 00
        E 0 98 42 00
        E 0 98 45 00
        E 0 98 32 5f
        E 50 98 32 00
        E 190 98 32 5f
        E 50 98 32 00
        E 190 98 49 2f
        E 0 98 45 5f
        E 0 98 42 2f
        E 0 98 3d 5f
        E 240 98 3d 00
        E 0 98 49 00
        E 0 98 42 00
        E 0 98 45 00
        E 0 98 32 5f
        E 50 98 32 00
        E 190 98 42 2f
        E 0 98 32 5f
        E 50 98 32 00
        E 190 98 42 00
        E 0 98 49 2f
        E 0 98 45 5f
        E 0 98 42 5f
        E 0 98 3d 5f
        E 240 98 3d 00
        E 0 98 45 00
        E 0 98 49 00
        E 0 98 42 00
        E 0 98 32 5f
        E 50 98 32 00
        E 190 98 32 5f
        E 50 98 32 00
        E 190 98 42 2f
        E 0 98 3d 5f
        E 240 98 3d 00
        E 0 98 42 00
        E 0 98 45 5f
        E 0 98 42 5f
        E 0 98 3d 5f
        E 240 98 42 00
        E 0 98 45 00
        E 0 98 3d 00
        E 0 98 32 5f
        E 50 98 32 00
        E 190 98 32 5f
        E 50 98 32 00
        E 190 98 44 2f
        E 0 98 40 2f
        E 0 98 3b 5f
        E 240 98 3b 00
        E 0 98 40 00
        E 0 98 44 00
        E 0 98 44 2f
        E 0 98 40 5f
        E 0 98 3b 2f
        E 240 98 3b 00
        E 0 98 44 00
        E 0 98 40 00
        E 0 98 3b 5f
        E 240 98 3b 00
        E 0 98 44 2f
        E 0 98 40 5f
        E 0 98 3b 2f
        E 240 98 3b 00
        E 0 98 40 00
        E 0 98 44 00
        E 0 98 32 5f
        E 50 98 32 00
        E 190 98 32 5f
        E 50 98 32 00
        E 190 98 44 2f
        E 0 98 40 5f
        E 0 98 3b 2f
        E 240 98 44 00
        E 0 98 3b 00
        E 0 98 40 00
        E 0 98 32 5f
        E 50 98 32 00
        E 190 98 40 5f
        E 0 98 3b 2f
        E 240 98 3b 00
        E 0 98 40 00
        E 0 98 44 5f
        E 0 98 40 2f
        E 0 98 3b 5f
        E 240 98 3b 00
        E 0 98 44 00
        E 0 98 40 00
        E 0 98 3e 5f
        E 0 98 32 5f
        E 50 98 32 00
        E 430 98 3e 00
        E 0 98 3d 5f
        E 0 98 32 5f
        E 50 98 32 00
        E 430 98 3d 00
        E 0 98 32 5f
        E 50 98 32 00
        E 190 98 32 5f
        E 50 98 32 00
        E 190 98 42 5f
        E 0 98 3e 5f
        E 0 98 3b 5f
        E 240 98 3b 00
        E 0 98 3e 00
        E 0 98 42 00
        E 0 98 32 5f
        E 50 98 32 00
        E 190 98 32 5f
        E 50 98 32 00
        E 190 98 40 5f
        E 240 98 40 00
        E 0 98 3e 5f
        E 0 98 32 5f
        E 50 98 32 00
        E 190 98 3e 00
        E 0 98 3b 5f
        E 240 98 3b 00
        E 0 98 42 5f
        E 0 98 3e 5f
        E 0 98 3b 5f
        E 240 98 3b 00
        E 0 98 3e 00
        E 0 98 42 00
        E 0 98 3b 5f
        E 240 98 3b 00
        E 0 98 32 5f
        E 50 98 32 00
        E 190 98 42 5f
        E 0 98 3e 5f
        E 0 98 3b 5f
        E 240 98 3b 00
        E 0 98 3e 00
        E 0 98 42 00
        E 0 98 3b 5f
        E 240 98 3b 00
        E 0 98 32 5f
        E 50 98 32 00
        E 190 98 42 5f
        E 0 98 3e 5f
        E 0 98 3b 5f
        E 480 98 42 00
        E 0 98 3b 00
        E 0 98 3e 00
        E 0 98 32 5f
        E 50 98 32 00
        E 190 98 32 5f
        E 50 98 32 00
        E 190 98 42 5f
        E 0 98 3e 5f
        E 0 98 39 5f
        E 240 98 39 00
        E 0 98 3e 00
        E 0 98 42 00
        E 0 98 32 5f
        E 50 98 32 00
        E 190 98 32 5f
        E 50 98 32 00
        E 190 98 3e 5f
        E 0 98 39 5f
        E 240 98 39 00
        E 0 98 3e 00
        E 0 98 3e 5f
        E 240 98 3e 00
        E 0 98 32 5f
        E 50 98 32 00
        E 190 98 42 5f
        E 0 98 3e 5f
        E 0 98 39 5f
        E 240 98 39 00
        E 0 98 3e 00
        E 0 98 42 00
        E 0 98 3e 5f
        E 0 98 32 5f
        E 50 98 32 00
        E 190 98 3e 00
        E 0 98 39 5f
        E 240 98 39 00
        E 0 98 42 5f
        E 0 98 3e 5f
        E 0 98 39 5f
        E 240 98 39 00
        E 0 98 3e 00
        E 0 98 42 00
        E 0 98 3e 5f
        E 0 98 32 5f
        E 50 98 32 00
        E 190 98 3e 00
        E 0 98 39 5f
        E 50 98 39 00
        E 190 98 42 5f
        E 0 98 3e 5f
        E 0 98 39 5f
        E 480 98 39 00
        E 0 98 42 00
        E 0 98 3e 00
        E 0 98 32 5f
        E 50 98 32 00
        E 190 98 32 5f
        E 50 98 32 00
        E 190 98 45 2f
        E 0 98 42 5f
        E 0 98 3d 5f
        E 240 98 3d 00
        E 0 98 42 00
        E 0 98 45 00
        E 0 98 32 5f
        E 50 98 32 00
        E 190 98 32 5f
        E 50 98 32 00
        E 190 98 42 5f
        E 0 98 3d 5f
        E 0 98 39 2f
        E 240 98 39 00
        E 0 98 3d 00
        E 0 98 42 00
        E 0 98 32 5f
        E 50 98 32 00
        E 190 98 3d 5f
        E 240 98 3d 00
        E 0 98 45 2f
        E 0 98 42 5f
        E 0 98 3d 5f
        E 0 98 39 2f
        E 240 98 39 00
        E 0 98 3d 00
        E 0 98 42 00
        E 0 98 45 00
        E 0 98 42 5f
        E 0 98 32 5f
        E 50 98 32 00
        E 190 98 42 00
        E 0 98 3d 5f
        E 0 98 39 2f
        E 240 98 3d 00
        E 0 98 39 00
        E 0 98 45 2f
        E 0 98 42 5f
        E 0 98 3d 5f
        E 0 98 39 2f
        E 240 98 39 00
        E 0 98 3d 00
        E 0 98 42 00
        E 0 98 45 00
        E 0 98 37 5f
        E 50 98 37 00
        E 190 98 37 5f
        E 50 98 37 00
        E 190 98 45 2f
        E 0 98 42 5f
        E 0 98 3d 5f
        E 0 98 39 2f
        E 480 98 45 00
        E 0 98 3d 00
        E 0 98 42 00
        E 0 98 39 00
        E 0 98 32 5f
        E 50 98 32 00
        E 190 98 32 5f
        E 50 98 32 00
        E 190 98 40 5f
        E 0 98 3b 5f
        E 240 98 3b 00
        E 0 98 40 00
        E 0 98 3b 5f
        E 50 98 3b 00
        E 190 98 3b 5f
        E 50 98 3b 00
        E 190 98 47 2f
        E 0 98 44 5f
        E 0 98 40 5f
        E 0 98 3b 5f
        E 240 98 3b 00
        E 0 98 44 00
        E 0 98 47 00
        E 0 98 40 00
        E 0 98 32 5f
        E 50 98 32 00
        E 190 98 32 5f
        E 50 98 32 00
        E 190 98 44 5f
        E 0 98 40 5f
        E 0 98 3b 5f
        E 240 98 3b 00
        E 0 98 40 00
        E 0 98 44 00
        E 0 98 40 5f
        E 240 98 40 00
        E 0 98 3b 5f
        E 240 98 3b 00
        E 0 98 32 5f
        E 50 98 32 00
        E 190 98 3e 5f
        E 480 98 3e 00
        E 0 98 3d 5f
        E 480 98 3d 00
        E 0 98 32 5f
        E 50 98 32 00
        E 190 98 32 5f
        E 50 98 32 00
        E 190 98 42 5f
        E 0 98 3e 5f
        E 0 98 3b 5f
        E 240 98 3b 00
        E 0 98 42 00
        E 0 98 3e 00
        E 0 98 32 5f
        E 50 98 32 00
        E 190 98 32 5f
        E 50 98 32 00
        E 190 98 40 5f
        E 240 98 40 00
        E 0 98 3e 5f
        E 0 98 32 5f
        E 50 98 32 00
        E 190 98 3e 00
        E 0 98 3b 5f
        E 240 98 3b 00
        E 0 98 42 5f
        E 0 98 3e 5f
        E 0 98 3b 5f
        E 240 98 3b 00
        E 0 98 3e 00
        E 0 98 42 00
        E 0 98 3b 2f
        E 240 98 3b 00
        E 0 98 32 5f
        E 50 98 32 00
        E 190 98 42 5f
        E 0 98 3e 5f
        E 0 98 3b 5f
        E 240 98 3b 00
        E 0 98 3e 00
        E 0 98 42 00
        E 0 98 3e 2f
        E 0 98 3b 5f
        E 240 98 3b 00
        E 0 98 3e 00
        E 0 98 32 5f
        E 50 98 32 00
        E 190 98 42 5f
        E 0 98 3e 5f
        E 0 98 3b 5f
        E 480 98 3b 00
        E 0 98 42 00
        E 0 98 3e 00
        E 0 98 32 5f
        E 50 98 32 00
        E 190 98 32 5f
        E 50 98 32 00
        E 190 98 42 5f
        E 0 98 3e 5f
        E 0 98 39 5f
        E 240 98 39 00
        E 0 98 42 00
        E 0 98 3e 00
        E 0 98 32 5f
        E 50 98 32 00
        E 190 98 32 5f
        E 50 98 32 00
        E 190 98 3e 5f
        E 0 98 39 5f
        E 240 98 39 00
        E 0 98 3e 00
        E 0 98 3e 5f
        E 240 98 3e 00
        E 0 98 32 5f
        E 50 98 32 00
        E 190 98 42 5f
        E 0 98 3e 5f
        E 0 98 39 2f
        E 240 98 39 00
        E 0 98 3e 00
        E 0 98 42 00
        E 0 98 3e 5f
        E 0 98 32 5f
        E 50 98 32 00
        E 190 98 3e 00
        E 0 98 39 5f
        E 240 98 39 00
        E 0 98 42 5f
        E 0 98 3e 2f
        E 0 98 39 5f
        E 240 98 39 00
        E 0 98 3e 00
        E 0 98 42 00
        E 0 98 3e 5f
        E 0 98 32 5f
        E 50 98 32 00
        E 190 98 3e 00
        E 0 98 39 5f
        E 50 98 39 00
        E 190 98 42 5f
        E 0 98 3e 5f
        E 0 98 39 5f
        E 480 98 39 00
        E 0 98 42 00
        E 0 98 3e 00
        E 0 98 32 5f
        E 50 98 32 00
        E 190 98 32 5f
        E 50 98 32 00
        E 190 98 45 2f
        E 0 98 42 5f
        E 0 98 3d 5f
        E 240 98 3d 00
        E 0 98 42 00
        E 0 98 45 00
        E 0 98 32 5f
        E 50 98 32 00
        E 190 98 32 5f
        E 50 98 32 00
        E 190 98 42 5f
        E 0 98 3d 5f
        E 240 98 3d 00
        E 0 98 42 00
        E 0 98 32 5f
        E 50 98 32 00
        E 190 98 3d 5f
        E 240 98 3d 00
        E 0 98 45 2f
        E 0 98 42 5f
        E 0 98 3d 5f
        E 240 98 3d 00
        E 0 98 42 00
        E 0 98 45 00
        E 0 98 42 5f
        E 0 98 32 5f
        E 50 98 32 00
        E 190 98 42 00
        E 0 98 3d 5f
        E 240 98 3d 00
        E 0 98 45 2f
        E 0 98 42 5f
        E 0 98 3d 5f
        E 240 98 3d 00
        E 0 98 42 00
        E 0 98 45 00
        E 0 98 37 5f
        E 50 98 37 00
        E 190 98 37 5f
        E 50 98 37 00
        E 190 98 45 2f
        E 0 98 42 5f
        E 0 98 3d 5f
        E 480 98 3d 00
        E 0 98 45 00
        E 0 98 42 00
        E 0 98 32 5f
        E 50 98 32 00
        E 190 98 32 5f
        E 50 98 32 00
        E 190 98 40 5f
        E 0 98 3b 5f
        E 240 98 40 00
        E 0 98 3b 00
        E 0 98 3b 5f
        E 50 98 3b 00
        E 190 98 3b 5f
        E 50 98 3b 00
        E 190 98 47 2f
        E 0 98 44 2f
        E 0 98 40 5f
        E 0 98 3b 5f
        E 240 98 3b 00
        E 0 98 40 00
        E 0 98 44 00
        E 0 98 47 00
        E 0 98 32 5f
        E 50 98 32 00
        E 190 98 32 5f
        E 50 98 32 00
        E 190 98 40 2f
        E 0 98 3b 5f
        E 240 98 3b 00
        E 0 98 40 00
        E 0 98 40 5f
        E 0 98 3b 2f
        E 240 98 40 00
        E 0 98 3b 00
        E 0 98 3b 5f
        E 240 98 3b 00
        E 0 98 32 5f
        E 50 98 32 00
        E 190 98 3e 5f
        E 480 98 3e 00
        E 0 98 3d 5f
        E 480 98 3d 00
        E 0 98 32 5f
        E 50 98 32 00
        E 190 98 32 5f
        E 50 98 32 00
        E 190 98 42 5f
        E 0 98 3e 5f
        E 0 98 3b 5f
        E 240 98 3b 00
        E 0 98 42 00
        E 0 98 3e 00
        E 0 98 32 5f
        E 50 98 32 00
        E 190 98 32 5f
        E 50 98 32 00
        E 190 98 42 5f
        E 0 98 3e 5f
        E 0 98 3b 5f
        E 240 98 3b 00
        E 0 98 3e 00
        E 0 98 42 00
        E 0 98 3e 5f
        E 0 98 32 5f
        E 50 98 32 00
        E 190 98 3e 00
        E 0 98 3b 5f
        E 240 98 3b 00
        E 0 98 3e 5f
        E 0 98 3b 5f
        E 240 98 3b 00
        E 0 98 3e 00
        E 0 98 3b 5f
        E 240 98 3b 00
        E 0 98 32 5f
        E 50 98 32 00
        E 190 98 3e 5f
        E 0 98 3b 5f
        E 240 98 3b 00
        E 0 98 3e 00
        E 0 98 3e 5f
        E 0 98 32 5f
        E 50 98 32 00
        E 190 98 3e 00
        E 0 98 32 5f
        E 50 98 32 00
        E 190 98 42 5f
        E 0 98 3e 5f
        E 0 98 3b 5f
        E 480 98 3e 00
        E 0 98 42 00
        E 0 98 3b 00
        E 0 98 32 5f
        E 50 98 32 00
        E 190 98 32 5f
        E 50 98 32 00
        E 190 98 42 5f
        E 0 98 3e 5f
        E 0 98 39 5f
        E 240 98 3e 00
        E 0 98 42 00
        E 0 98 39 00
        E 0 98 32 5f
        E 50 98 32 00
        E 190 98 32 5f
        E 50 98 32 00
        E 190 98 42 5f
        E 0 98 3e 5f
        E 0 98 39 5f
        E 240 98 39 00
        E 0 98 3e 00
        E 0 98 42 00
        E 0 98 3e 5f
        E 0 98 32 5f
        E 50 98 32 00
        E 190 98 3e 00
        E 0 98 39 5f
        E 240 98 39 00
        E 0 98 3e 5f
        E 0 98 39 5f
        E 240 98 39 00
        E 0 98 3e 00
        E 0 98 39 5f
        E 50 98 39 00
        E 190 98 32 5f
        E 50 98 32 00
        E 190 98 3e 5f
        E 0 98 39 5f
        E 240 98 39 00
        E 0 98 3e 00
        E 0 98 3e 5f
        E 0 98 32 5f
        E 50 98 32 00
        E 190 98 3e 00
        E 0 98 32 5f
        E 50 98 32 00
        E 190 98 45 2f
        E 0 98 42 2f
        E 0 98 3e 5f
        E 0 98 39 5f
        E 120 e8 00 44
        E 120 e8 00 48
        E 120 e8 00 4c
        E 120 e8 00 40
        E 0 98 45 00
        E 0 98 3e 00
        E 0 98 42 00
        E 0 98 39 00
        E 0 98 49 5f
        E 0 98 45 5f
        E 0 98 32 5f
        E 50 98 32 00
        E 190 98 49 00
        E 0 98 45 00
        E 0 98 45 5f
        E 0 98 32 5f
        E 50 98 32 00
        E 0 98 45 00
        E 190 98 45 2f
        E 0 98 42 5f
        E 0 98 3d 5f
        E 240 98 42 00
        E 0 98 45 00
        E 0 98 3d 00
        E 0 98 32 5f
        E 50 98 32 00
        E 190 98 32 5f
        E 50 98 32 00
        E 190 98 45 2f
        E 0 98 42 5f
        E 0 98 3d 5f
        E 240 98 3d 00
        E 0 98 42 00
        E 0 98 45 00
        E 0 98 42 5f
        E 0 98 32 5f
        E 50 98 32 00
        E 190 98 42 00
        E 0 98 3d 5f
        E 240 98 3d 00
        E 0 98 42 5f
        E 0 98 3d 5f
        E 0 98 39 2f
        E 240 98 39 00
        E 0 98 42 00
        E 0 98 3d 00
        E 0 98 39 5f
        E 50 98 39 00
        E 190 98 32 5f
        E 50 98 32 00
        E 190 98 42 5f
        E 0 98 3d 5f
        E 240 98 3d 00
        E 0 98 42 00
        E 0 98 42 5f
        E 0 98 32 5f
        E 0 98 39 2f
        E 50 98 32 00
        E 190 98 42 00
        E 0 98 39 00
        E 0 98 32 5f
        E 50 98 32 00
        E 190 98 45 2f
        E 0 98 42 5f
        E 0 98 3d 5f
        E 480 98 45 00
        E 0 98 42 00
        E 0 98 3d 00
        E 0 98 32 5f
        E 50 98 32 00
        E 190 98 32 5f
        E 50 98 32 00
        E 190 98 44 2f
        E 0 98 40 5f
        E 0 98 3b 2f
        E 240 98 3b 00
        E 0 98 44 00
        E 0 98 40 00
        E 0 98 3b 5f
        E 240 98 3b 00
        E 0 98 32 5f
        E 50 98 32 00
        E 190 98 44 2f
        E 0 98 40 5f
        E 0 98 3b 2f
        E 240 98 3b 00
        E 0 98 40 00
        E 0 98 44 00
        E 0 98 40 5f
        E 0 98 32 5f
        E 50 98 32 00
        E 190 98 40 00
        E 0 98 3b 5f
        E 50 98 3b 00
        E 190 98 44 2f
        E 0 98 40 5f
        E 0 98 3b 5f
        E 240 98 3b 00
        E 0 98 40 00
        E 0 98 44 00
        E 0 98 39 5f
        E 50 98 39 00
        E 190 98 32 5f
        E 50 98 32 00
        E 190 98 44 2f
        E 0 98 40 5f
        E 0 98 3b 5f
        E 240 98 3b 00
        E 0 98 40 00
        E 0 98 44 00
        E 0 98 3e 5f
        E 480 98 3e 00
        E 0 98 3d 5f
        E 480 98 3d 00
        E 0 98 37 5f
        E 50 98 37 00
        E 190 98 53 5f
        E 0 98 4e 5f
        E 240 98 53 00
        E 0 98 4e 00
        E 0 98 53 5f
        E 0 98 4e 5f
        E 240 98 4e 00
        E 0 98 53 00
        E 0 98 53 5f
        E 0 98 4e 5f
        E 240 98 53 00
        E 0 98 4e 00
        E 0 98 4e 5f
        E 50 98 4e 00
        E 190 98 53 5f
        E 0 98 4e 5f
        E 240 98 4e 00
        E 0 98 53 00
        E 0 98 3b 5f
        E 50 98 3b 00
        E 190 98 53 5f
        E 0 98 4e 5f
        E 240 98 4e 00
        E 0 98 53 00
        E 0 98 53 5f
        E 0 98 4e 5f
        E 240 98 4e 00
        E 0 98 53 00
        E 0 98 53 5f
        E 0 98 4e 5f
        E 240 98 4e 00
        E 0 98 53 00
        E 0 98 53 5f
        E 0 98 4e 5f
        E 240 98 53 00
        E 0 98 4e 00
        E 0 98 53 5f
        E 0 98 4e 5f
        E 240 98 53 00
        E 0 98 4e 00
        E 0 98 53 5f
        E 0 98 4e 5f
        E 240 98 4e 00
        E 0 98 53 00
        E 0 98 47 5f
        E 240 98 47 00
        E 0 98 47 5f
        E 240 98 47 00
        E 0 98 47 5f
        E 240 98 47 00
        E 0 98 37 5f
        E 50 98 37 00
        E 190 98 4a 5f
        E 240 98 4a 00
        E 0 98 4a 5f
        E 240 98 4a 00
        E 0 98 4a 5f
        E 240 98 4a 00
        E 0 98 37 5f
        E 50 98 37 00
        E 190 98 4a 5f
        E 240 98 4a 00
        E 0 98 37 5f
        E 50 98 37 00
        E 190 98 4a 5f
        E 240 98 4a 00
        E 0 98 4a 5f
        E 240 98 4a 00
        E 0 98 4a 5f
        E 0 98 37 5f
        E 50 98 37 00
        E 190 98 4a 00
        E 0 98 4a 5f
        E 0 98 37 5f
        E 50 98 37 00
        E 190 98 4a 00
        E 0 98 37 5f
        E 50 98 37 00
        E 190 98 37 5f
        E 50 98 37 00
        E 190 98 4a 5f
        E 0 98 45 5f
        E 240 98 4a 00
        E 0 98 45 00
        E 0 98 4a 5f
        E 0 98 45 2f
        E 240 98 4a 00
        E 0 98 45 00
        E 0 98 4a 5f
        E 0 98 45 5f
        E 240 98 45 00
        E 0 98 4a 00
        E 0 98 37 5f
        E 50 98 37 00
        E 190 98 49 5f
        E 240 98 49 00
        E 0 98 49 5f
        E 240 98 49 00
        E 0 98 49 5f
        E 240 98 49 00
        E 0 98 3b 5f
        E 50 98 3b 00
        E 190 98 49 5f
        E 240 98 49 00
        E 0 98 3b 5f
        E 50 98 3b 00
        E 190 98 49 5f
        E 240 98 49 00
        E 0 98 49 5f
        E 240 98 49 00
        E 0 98 49 5f
        E 240 98 49 00
        E 0 98 49 5f
        E 240 98 49 00
        E 0 98 37 5f
        E 50 98 37 00
        E 190 98 37 5f
        E 50 98 37 00
        E 190 98 49 5f
        E 240 98 49 00
        E 0 98 49 5f
        E 240 98 49 00
        E 0 98 48 5f
        E 240 98 48 00
        E 0 98 37 5f
        E 50 98 37 00
        E 190 98 47 5f
        E 240 98 47 00
        E 0 98 47 5f
        E 240 98 47 00
        E 0 98 47 5f
        E 240 98 47 00
        E 0 98 47 5f
        E 50 98 47 00
        E 190 98 47 5f
        E 240 98 47 00
        E 0 98 3b 5f
        E 50 98 3b 00
        E 190 98 47 5f
        E 240 98 47 00
        E 0 98 47 5f
        E 240 98 47 00
        E 0 98 47 5f
        E 240 98 47 00
        E 0 98 47 5f
        E 240 98 47 00
        E 0 98 3b 5f
        E 50 98 3b 00
        E 190 98 3b 5f
        E 50 98 3b 00
        E 190 98 47 5f
        E 240 98 47 00
        E 0 98 47 5f
        E 240 98 47 00
        E 0 98 40 5f
        E 240 98 40 00
        E 0 98 37 5f
        E 50 98 37 00
        E 190 98 47 5f
        E 240 98 47 00
        E 0 98 47 5f
        E 240 98 47 00
        E 0 98 47 5f
        E 240 98 47 00
        E 0 98 3b 5f
        E 50 98 3b 00
        E 190 98 47 5f
        E 240 98 47 00
        E 0 98 3b 5f
        E 50 98 3b 00
        E 190 98 47 5f
        E 240 98 47 00
        E 0 98 47 5f
        E 240 98 47 00
        E 0 98 47 5f
        E 240 98 47 00
        E 0 98 47 5f
        E 240 98 47 00
        E 0 98 3b 5f
        E 50 98 3b 00
        E 190 98 47 5f
        E 50 98 47 00
        E 190 98 47 5f
        E 240 98 47 00
        E 0 98 47 5f
        E 240 98 47 00
        E 0 98 47 5f
        E 240 98 47 00
        E 0 98 37 5f
        E 50 98 37 00
        E 190 98 4a 5f
        E 240 98 4a 00
        E 0 98 4a 5f
        E 240 98 4a 00
        E 0 98 4a 5f
        E 240 98 4a 00
        E 0 98 37 5f
        E 50 98 37 00
        E 190 98 4a 5f
        E 240 98 4a 00
        E 0 98 37 5f
        E 50 98 37 00
        E 190 98 4a 5f
        E 240 98 4a 00
        E 0 98 4a 5f
        E 240 98 4a 00
        E 0 98 4a 5f
        E 0 98 37 5f
        E 50 98 37 00
        E 190 98 4a 00
        E 0 98 4a 5f
        E 0 98 37 5f
        E 50 98 37 00
        E 190 98 4a 00
        E 0 98 37 5f
        E 50 98 37 00
        E 190 98 37 5f
        E 50 98 37 00
        E 190 98 4a 5f
        E 0 98 45 5f
        E 240 98 4a 00
        E 0 98 45 00
        E 0 98 4a 5f
        E 0 98 45 2f
        E 240 98 4a 00
        E 0 98 45 00
        E 0 98 4a 5f
        E 0 98 45 5f
        E 240 98 45 00
        E 0 98 4a 00
        E 0 98 37 5f
        E 50 98 37 00
        E 190 98 49 5f
        E 240 98 49 00
        E 0 98 49 5f
        E 240 98 49 00
        E 0 98 49 5f
        E 240 98 49 00
        E 0 98 3b 5f
        E 50 98 3b 00
        E 190 98 49 5f
        E 240 98 49 00
        E 0 98 3b 5f
        E 50 98 3b 00
        E 190 98 49 5f
        E 240 98 49 00
        E 0 98 49 5f
        E 240 98 49 00
        E 0 98 49 5f
        E 240 98 49 00
        E 0 98 49 5f
        E 240 98 49 00
        E 0 98 37 5f
        E 50 98 37 00
        E 190 98 37 5f
        E 50 98 37 00
        E 190 98 49 5f
        E 240 98 49 00
        E 0 98 49 5f
        E 240 98 49 00
        E 0 98 48 5f
        E 240 98 48 00
        E 0 98 37 5f
        E 50 98 37 00
        E 190 98 47 5f
        E 240 98 47 00
        E 0 98 47 5f
        E 240 98 47 00
        E 0 98 47 5f
        E 240 98 47 00
        E 0 98 3b 5f
        E 50 98 3b 00
        E 190 98 47 5f
        E 240 98 47 00
        E 0 98 3b 5f
        E 50 98 3b 00
        E 190 98 47 5f
        E 240 98 47 00
        E 0 98 47 5f
        E 240 98 47 00
        E 0 98 47 5f
        E 240 98 47 00
        E 0 98 47 5f
        E 240 98 47 00
        E 0 98 3b 5f
        E 50 98 3b 00
        E 190 98 47 5f
        E 50 98 47 00
        E 190 98 47 5f
        E 240 98 47 00
        E 0 98 47 5f
        E 240 98 47 00
        E 0 98 47 5f
        E 240 98 47 00
        E 0 98 37 5f
        E 50 98 37 00
        E 190 98 47 5f
        E 240 98 47 00
        E 0 98 47 5f
        E 240 98 47 00
        E 0 98 47 5f
        E 240 98 47 00
        E 0 98 3b 5f
        E 50 98 3b 00
        E 190 98 47 5f
        E 240 98 47 00
        E 0 98 3b 5f
        E 50 98 3b 00
        E 190 98 3b 5f
        E 50 98 3b 00
        E 190 98 53 5f
        E 0 98 4e 5f
        E 240 98 4e 00
        E 0 98 53 00
        E 0 98 53 5f
        E 0 98 4e 5f
        E 240 98 53 00
        E 0 98 4e 00
        E 0 98 53 5f
        E 0 98 4e 5f
        E 240 98 4e 00
        E 0 98 53 00
        E 0 98 53 5f
        E 0 98 4e 5f
        E 240 98 53 00
        E 0 98 4e 00
        E 0 98 53 2f
        E 0 98 4e 5f
        E 240 98 53 00
        E 0 98 4e 00
        E 0 98 53 5f
        E 0 98 4e 5f
        E 240 98 4e 00
        E 0 98 53 00
        E 0 98 53 5f
        E 0 98 4e 5f
        E 240 98 4e 00
        E 0 98 53 00
        E 0 98 53 5f
        E 0 98 4e 5f
        E 240 98 53 00
        E 0 98 4e 00
        E 0 98 37 5f
        E 50 98 37 00
        E 190 98 4a 5f
        E 240 98 4a 00
        E 0 98 4a 5f
        E 240 98 4a 00
        E 0 98 4a 5f
        E 240 98 4a 00
        E 0 98 37 5f
        E 50 98 37 00
        E 190 98 4a 5f
        E 240 98 4a 00
        E 0 98 37 5f
        E 50 98 37 00
        E 190 98 4a 5f
        E 240 98 4a 00
        E 0 98 4a 5f
        E 240 98 4a 00
        E 0 98 4a 5f
        E 0 98 37 5f
        E 50 98 37 00
        E 190 98 4a 00
        E 0 98 4a 5f
        E 0 98 37 5f
        E 50 98 37 00
        E 190 98 4a 00
        E 0 98 37 5f
        E 50 98 37 00
        E 190 98 37 5f
        E 50 98 37 00
        E 190 98 4a 5f
        E 0 98 45 5f
        E 240 98 45 00
        E 0 98 4a 00
        E 0 98 4a 5f
        E 0 98 45 2f
        E 240 98 45 00
        E 0 98 4a 00
        E 0 98 4a 5f
        E 0 98 45 5f
        E 240 98 4a 00
        E 0 98 45 00
        E 0 98 37 5f
        E 50 98 37 00
        E 190 98 49 5f
        E 240 98 49 00
        E 0 98 49 5f
        E 240 98 49 00
        E 0 98 49 5f
        E 240 98 49 00
        E 0 98 3b 5f
        E 50 98 3b 00
        E 190 98 49 5f
        E 240 98 49 00
        E 0 98 3b 5f
        E 50 98 3b 00
        E 190 98 49 5f
        E 240 98 49 00
        E 0 98 49 5f
        E 240 98 49 00
        E 0 98 49 5f
        E 240 98 49 00
        E 0 98 49 5f
        E 240 98 49 00
        E 0 98 37 5f
        E 50 98 37 00
        E 190 98 37 5f
        E 50 98 37 00
        E 190 98 49 5f
        E 240 98 49 00
        E 0 98 49 5f
        E 240 98 49 00
        E 0 98 48 5f
        E 240 98 48 00
        E 0 98 37 5f
        E 50 98 37 00
        E 190 98 47 5f
        E 240 98 47 00
        E 0 98 47 5f
        E 240 98 47 00
        E 0 98 47 5f
        E 240 98 47 00
        E 0 98 3b 5f
        E 50 98 3b 00
        E 190 98 47 5f
        E 240 98 47 00
        E 0 98 3b 5f
        E 50 98 3b 00
        E 190 98 47 5f
        E 240 98 47 00
        E 0 98 47 5f
        E 240 98 47 00
        E 0 98 47 5f
        E 240 98 47 00
        E 0 98 47 5f
        E 240 98 47 00
        E 0 98 3b 5f
        E 50 98 3b 00
        E 190 98 47 5f
        E 50 98 47 00
        E 190 98 47 5f
        E 240 98 47 00
        E 0 98 47 5f
        E 240 98 47 00
        E 0 98 47 5f
        E 240 98 47 00
        E 0 98 37 5f
        E 50 98 37 00
        E 190 98 53 2f
        E 0 98 4e 5f
        E 240 98 4e 00
        E 0 98 53 00
        E 0 98 53 2f
        E 0 98 4e 5f
        E 240 98 4e 00
        E 0 98 53 00
        E 0 98 53 2f
        E 0 98 4e 5f
        E 240 98 4e 00
        E 0 98 53 00
        E 0 98 3b 5f
        E 50 98 3b 00
        E 190 98 4e 5f
        E 240 98 4e 00
        E 0 98 3b 5f
        E 50 98 3b 00
        E 190 98 53 2f
        E 0 98 4e 5f
        E 240 98 53 00
        E 0 98 4e 00
        E 0 98 53 5f
        E 0 98 4e 5f
        E 240 98 4e 00
        E 0 98 53 00
        E 0 98 53 5f
        E 0 98 4e 5f
        E 240 98 53 00
        E 0 98 4e 00
        E 0 98 53 5f
        E 0 98 4e 5f
        E 240 98 4e 00
        E 0 98 53 00
        E 0 98 53 5f
        E 0 98 4e 5f
        E 240 98 53 00
        E 0 98 4e 00
        E 0 98 53 2f
        E 0 98 4e 5f
        E 240 98 53 00
        E 0 98 4e 00
        E 0 98 53 2f
        E 0 98 4e 5f
        E 240 98 4e 00
        E 0 98 53 00
        E 0 98 53 2f
        E 0 98 4e 5f
        E 240 98 4e 00
        E 0 98 53 00
        E 0 98 53 2f
        E 0 98 4e 5f
        E 240 98 53 00
        E 0 98 4e 00
        E 0 98 37 5f
        E 50 98 37 00
        E 190 98 4a 5f
        E 240 98 4a 00
        E 0 98 4a 5f
        E 240 98 4a 00
        E 0 98 4a 5f
        E 240 98 4a 00
        E 0 98 37 5f
        E 50 98 37 00
        E 190 98 4a 5f
        E 240 98 4a 00
        E 0 98 37 5f
        E 50 98 37 00
        E 190 98 4a 5f
        E 240 98 4a 00
        E 0 98 4a 5f
        E 240 98 4a 00
        E 0 98 4a 5f
        E 0 98 37 5f
        E 50 98 37 00
        E 190 98 4a 00
        E 0 98 4a 5f
        E 0 98 37 5f
        E 50 98 37 00
        E 190 98 4a 00
        E 0 98 37 5f
        E 50 98 37 00
        E 190 98 37 5f
        E 50 98 37 00
        E 190 98 4a 5f
        E 0 98 45 5f
        E 0 98 42 2f
        E 240 98 42 00
        E 0 98 4a 00
        E 0 98 45 00
        E 0 98 4a 5f
        E 0 98 45 2f
        E 0 98 42 2f
        E 240 98 42 00
        E 0 98 4a 00
        E 0 98 45 00
        E 0 98 4a 5f
        E 0 98 45 5f
        E 0 98 42 2f
        E 240 98 4a 00
        E 0 98 42 00
        E 0 98 45 00
        E 0 98 37 5f
        E 50 98 37 00
        E 190 98 49 5f
        E 240 98 49 00
        E 0 98 49 5f
        E 240 98 49 00
        E 0 98 49 5f
        E 240 98 49 00
        E 0 98 3b 5f
        E 50 98 3b 00
        E 190 98 49 5f
        E 240 98 49 00
        E 0 98 3b 5f
        E 50 98 3b 00
        E 190 98 49 5f
        E 240 98 49 00
        E 0 98 49 5f
        E 240 98 49 00
        E 0 98 49 5f
        E 240 98 49 00
        E 0 98 49 5f
        E 240 98 49 00
        E 0 98 37 5f
        E 50 98 37 00
        E 190 98 37 5f
        E 50 98 37 00
        E 190 98 49 5f
        E 240 98 49 00
        E 0 98 49 5f
        E 120 e8 00 3e
        E 120 e8 00 40
        E 0 98 49 00
        E 0 98 48 5f
        E 240 98 48 00
        E 0 98 37 5f
        E 50 98 37 00
        E 190 98 47 5f
        E 240 98 47 00
        E 0 98 47 5f
        E 240 98 47 00
        E 0 98 47 5f
        E 240 98 47 00
        E 0 98 3b 5f
        E 50 98 3b 00
        E 190 98 47 5f
        E 240 98 47 00
        E 0 98 3b 5f
        E 50 98 3b 00
        E 190 98 47 5f
        E 240 98 47 00
        E 0 98 47 5f
        E 240 98 47 00
        E 0 98 47 5f
        E 240 98 47 00
        E 0 98 47 5f
        E 240 98 47 00
        E 0 98 3b 5f
        E 50 98 3b 00
        E 190 98 47 5f
        E 50 98 47 00
        E 190 98 40 5f
        E 0 98 47 5f
        E 50 98 40 00
        E 190 98 47 00
        E 0 98 40 5f
        E 0 98 47 5f
        E 50 98 40 00
        E 190 98 47 00
        E 0 98 47 5f
        E 240 98 47 00
        E 0 98 32 5f
        E 50 98 32 00
        E 190 98 32 5f
        E 50 98 32 00
        E 190 98 42 2f
        E 0 98 3e 5f
        E 0 98 3b 5f
        E 240 98 42 00
        E 0 98 3b 00
        E 0 98 3e 00
        E 0 98 32 5f
        E 50 98 32 00
        E 190 98 32 5f
        E 50 98 32 00
        E 190 98 42 2f
        E 0 98 3e 5f
        E 0 98 3b 5f
        E 240 98 3b 00
        E 0 98 42 00
        E 0 98 3e 00
        E 0 98 32 5f
        E 50 98 32 00
        E 190 98 42 2f
        E 0 98 3e 5f
        E 0 98 3b 5f
        E 240 98 3b 00
        E 0 98 3e 00
        E 0 98 42 00
        E 0 98 3e 5f
        E 50 98 3e 00
        E 190 98 3e 5f
        E 50 98 3e 00
        E 190 98 42 5f
        E 0 98 3e 5f
        E 0 98 3b 5f
        E 50 98 3b 00
        E 190 98 42 00
        E 0 98 3e 00
        E 0 98 42 5f
        E 0 98 3e 5f
        E 0 98 3b 5f
        E 50 98 3b 00
        E 190 98 3e 00
        E 0 98 42 00
        E 0 98 32 5f
        E 50 98 32 00
        E 190 98 32 5f
        E 50 98 32 00
        E 190 98 42 5f
        E 0 98 3e 5f
        E 0 98 3b 2f
        E 240 98 3b 00
        E 0 98 42 00
        E 0 98 3e 00
        E 0 98 42 5f
        E 0 98 3e 5f
        E 0 98 3b 2f
        E 240 98 42 00
        E 0 98 3e 00
        E 0 98 3b 00
        E 0 98 32 5f
        E 50 98 32 00
        E 190 98 32 5f
        E 50 98 32 00
        E 190 98 42 2f
        E 0 98 3e 5f
        E 0 98 39 2f
        E 240 98 42 00
        E 0 98 39 00
        E 0 98 3e 00
        E 0 98 32 5f
        E 50 98 32 00
        E 190 98 32 5f
        E 50 98 32 00
        E 190 98 42 5f
        E 0 98 3e 2f
        E 0 98 39 5f
        E 240 98 39 00
        E 0 98 42 00
        E 0 98 3e 00
        E 0 98 32 5f
        E 50 98 32 00
        E 190 98 3e 5f
        E 0 98 32 5f
        E 50 98 32 00
        E 190 98 3e 00
        E 0 98 42 5f
        E 0 98 3e 2f
        E 0 98 39 5f
        E 240 98 39 00
        E 0 98 42 00
        E 0 98 3e 00
        E 0 98 32 5f
        E 50 98 32 00
        E 190 98 3e 5f
        E 0 98 32 5f
        E 50 98 32 00
        E 190 98 3e 00
        E 0 98 42 5f
        E 0 98 3e 2f
        E 0 98 39 5f
        E 240 98 39 00
        E 0 98 42 00
        E 0 98 3e 00
        E 0 98 32 5f
        E 50 98 32 00
        E 190 98 42 2f
        E 0 98 3e 2f
        E 0 98 39 2f
        E 240 98 42 00
        E 0 98 3e 00
        E 0 98 39 00
        E 0 98 42 2f
        E 0 98 3e 5f
        E 0 98 39 5f
        E 240 98 39 00
        E 0 98 42 00
        E 0 98 3e 00
        E 0 98 42 5f
        E 0 98 3e 5f
        E 0 98 39 5f
        E 240 98 42 00
        E 0 98 3e 00
        E 0 98 39 00
        E 0 98 32 5f
        E 50 98 32 00
        E 190 98 32 5f
        E 50 98 32 00
        E 190 98 42 5f
        E 0 98 3d 5f
        E 240 98 3d 00
        E 0 98 42 00
        E 0 98 40 5f
        E 0 98 32 5f
        E 50 98 32 00
        E 0 98 40 00
        E 190 98 3b 5f
        E 0 98 3d 5f
        E 50 98 3b 00
        E 190 98 3d 00
        E 0 98 45 5f
        E 0 98 42 5f
        E 0 98 3d 5f
        E 240 98 45 00
        E 0 98 3d 00
        E 0 98 42 00
        E 0 98 32 5f
        E 50 98 32 00
        E 190 98 37 5f
        E 0 98 3d 2f
        E 50 98 37 00
        E 190 98 3d 00
        E 0 98 45 5f
        E 0 98 42 5f
        E 0 98 3d 5f
        E 240 98 3d 00
        E 0 98 45 00
        E 0 98 42 00
        E 0 98 32 5f
        E 50 98 32 00
        E 190 98 37 5f
        E 0 98 3d 5f
        E 50 98 37 00
        E 190 98 3d 00
        E 0 98 45 5f
        E 0 98 42 5f
        E 0 98 3d 5f
        E 240 98 3d 00
        E 0 98 45 00
        E 0 98 42 00
        E 0 98 32 5f
        E 50 98 32 00
        E 190 98 42 5f
        E 0 98 3d 5f
        E 240 98 42 00
        E 0 98 3d 00
        E 0 98 45 2f
        E 0 98 42 5f
        E 0 98 3d 5f
        E 240 98 3d 00
        E 0 98 45 00
        E 0 98 42 00
        E 0 98 45 5f
        E 0 98 42 5f
        E 0 98 3d 5f
        E 240 98 45 00
        E 0 98 42 00
        E 0 98 3d 00
        E 0 98 32 5f
        E 50 98 32 00
        E 190 98 32 5f
        E 50 98 32 00
        E 190 98 40 5f
        E 50 98 40 00
        E 190 98 40 5f
        E 0 98 3b 5f
        E 240 98 3b 00
        E 0 98 40 00
        E 0 98 3b 5f
        E 50 98 3b 00
        E 190 98 3b 00
        E 0 98 44 2f
        E 0 98 40 5f
        E 0 98 3b 5f
        E 240 98 40 00
        E 0 98 44 00
        E 0 98 3b 00
        E 0 98 32 5f
        E 50 98 32 00
        E 190 98 37 5f
        E 0 98 3b 2f
        E 50 98 37 00
        E 190 98 3b 00
        E 0 98 44 2f
        E 0 98 40 5f
        E 0 98 3b 5f
        E 240 98 3b 00
        E 0 98 44 00
        E 0 98 40 00
        E 0 98 32 5f
        E 50 98 32 00
        E 190 98 37 5f
        E 0 98 3b 5f
        E 50 98 37 00
        E 190 98 3b 00
        E 0 98 44 2f
        E 0 98 40 5f
        E 0 98 3b 5f
        E 240 98 40 00
        E 0 98 3b 00
        E 0 98 44 00
        E 0 98 32 5f
        E 50 98 32 00
        E 190 98 40 5f
        E 0 98 3b 5f
        E 240 98 3b 00
        E 0 98 40 00
        E 0 98 44 2f
        E 0 98 40 5f
        E 0 98 3b 5f
        E 240 98 44 00
        E 0 98 3b 00
        E 0 98 40 00
        E 0 98 44 5f
        E 0 98 40 5f
        E 0 98 3b 5f
        E 240 98 3b 00
        E 0 98 44 00
        E 0 98 40 00
        E 0 98 32 5f
        E 50 98 32 00
        E 190 98 32 5f
        E 50 98 32 00
        E 190 98 42 2f
        E 0 98 3e 5f
        E 0 98 3b 5f
        E 240 98 42 00
        E 0 98 3b 00
        E 0 98 3e 00
        E 0 98 32 5f
        E 50 98 32 00
        E 190 98 32 5f
        E 50 98 32 00
        E 190 98 42 2f
        E 0 98 3e 5f
        E 0 98 3b 5f
        E 240 98 3b 00
        E 0 98 42 00
        E 0 98 3e 00
        E 0 98 32 5f
        E 50 98 32 00
        E 190 98 42 2f
        E 0 98 3e 5f
        E 0 98 3b 5f
        E 240 98 3b 00
        E 0 98 3e 00
        E 0 98 42 00
        E 0 98 3e 5f
        E 50 98 3e 00
        E 190 98 3e 5f
        E 50 98 3e 00
        E 190 98 42 5f
        E 0 98 3e 5f
        E 0 98 3b 5f
        E 50 98 3b 00
        E 190 98 42 00
        E 0 98 3e 00
        E 0 98 42 5f
        E 0 98 3e 5f
        E 0 98 3b 5f
        E 50 98 3b 00
        E 190 98 3e 00
        E 0 98 42 00
        E 0 98 32 5f
        E 50 98 32 00
        E 190 98 32 5f
        E 50 98 32 00
        E 190 98 42 5f
        E 0 98 3e 5f
        E 0 98 3b 2f
        E 240 98 3b 00
        E 0 98 42 00
        E 0 98 3e 00
        E 0 98 42 5f
        E 0 98 3e 5f
        E 0 98 3b 2f
        E 240 98 42 00
        E 0 98 3e 00
        E 0 98 3b 00
        E 0 98 32 5f
        E 50 98 32 00
        E 190 98 32 5f
        E 50 98 32 00
        E 190 98 42 2f
        E 0 98 3e 5f
        E 0 98 39 2f
        E 240 98 42 00
        E 0 98 39 00
        E 0 98 3e 00
        E 0 98 32 5f
        E 50 98 32 00
        E 190 98 32 5f
        E 50 98 32 00
        E 190 98 42 5f
        E 0 98 3e 2f
        E 0 98 39 5f
        E 240 98 39 00
        E 0 98 42 00
        E 0 98 3e 00
        E 0 98 32 5f
        E 50 98 32 00
        E 190 98 3e 5f
        E 0 98 32 5f
        E 50 98 32 00
        E 190 98 3e 00
        E 0 98 42 5f
        E 0 98 3e 2f
        E 0 98 39 5f
        E 240 98 39 00
        E 0 98 42 00
        E 0 98 3e 00
        E 0 98 32 5f
        E 50 98 32 00
        E 190 98 3e 5f
        E 0 98 32 5f
        E 50 98 32 00
        E 190 98 3e 00
        E 0 98 42 5f
        E 0 98 3e 2f
        E 0 98 39 5f
        E 240 98 39 00
        E 0 98 42 00
        E 0 98 3e 00
        E 0 98 32 5f
        E 50 98 32 00
        E 190 98 42 2f
        E 0 98 3e 2f
        E 0 98 39 2f
        E 240 98 42 00
        E 0 98 3e 00
        E 0 98 39 00
        E 0 98 42 2f
        E 0 98 3e 5f
        E 0 98 39 5f
        E 240 98 39 00
        E 0 98 42 00
        E 0 98 3e 00
        E 0 98 42 5f
        E 0 98 3e 5f
        E 0 98 39 5f
        E 240 98 42 00
        E 0 98 3e 00
        E 0 98 39 00
        E 0 98 32 5f
        E 50 98 32 00
        E 190 98 32 5f
        E 50 98 32 00
        E 190 98 42 5f
        E 0 98 3d 5f
        E 240 98 3d 00
        E 0 98 42 00
        E 0 98 40 5f
        E 0 98 32 5f
        E 50 98 32 00
        E 0 98 40 00
        E 190 98 3b 5f
        E 0 98 3d 5f
        E 50 98 3b 00
        E 190 98 3d 00
        E 0 98 45 2f
        E 0 98 42 2f
        E 0 98 3d 5f
        E 240 98 45 00
        E 0 98 3d 00
        E 0 98 42 00
        E 0 98 32 5f
        E 50 98 32 00
        E 190 98 37 5f
        E 0 98 3d 2f
        E 50 98 37 00
        E 190 98 3d 00
        E 0 98 45 2f
        E 0 98 42 5f
        E 0 98 3d 5f
        E 240 98 3d 00
        E 0 98 45 00
        E 0 98 42 00
        E 0 98 32 5f
        E 50 98 32 00
        E 190 98 37 5f
        E 0 98 3d 5f
        E 50 98 37 00
        E 190 98 3d 00
        E 0 98 45 2f
        E 0 98 42 5f
        E 0 98 3d 5f
        E 240 98 45 00
        E 0 98 42 00
        E 0 98 3d 00
        E 0 98 32 5f
        E 50 98 32 00
        E 190 98 42 5f
        E 0 98 3d 5f
        E 240 98 42 00
        E 0 98 3d 00
        E 0 98 45 2f
        E 0 98 42 5f
        E 0 98 3d 5f
        E 240 98 3d 00
        E 0 98 45 00
        E 0 98 42 00
        E 0 98 45 5f
        E 0 98 42 5f
        E 0 98 3d 5f
        E 240 98 45 00
        E 0 98 42 00
        E 0 98 3d 00
        E 0 98 32 5f
        E 50 98 32 00
        E 190 98 32 5f
        E 50 98 32 00
        E 190 98 44 2f
        E 0 98 40 5f
        E 0 98 3b 5f
        E 240 98 40 00
        E 0 98 44 00
        E 0 98 3b 00
        E 0 98 40 2f
        E 0 98 3b 2f
        E 240 98 3b 00
        E 0 98 40 00
        E 0 98 3b 2f
        E 50 98 3b 00
        E 190 98 3b 00
        E 0 98 44 2f
        E 0 98 40 5f
        E 0 98 3b 5f
        E 240 98 40 00
        E 0 98 44 00
        E 0 98 3b 00
        E 0 98 32 5f
        E 50 98 32 00
        E 190 98 37 5f
        E 0 98 3b 2f
        E 50 98 37 00
        E 190 98 3b 00
        E 0 98 44 2f
        E 0 98 40 5f
        E 0 98 3b 5f
        E 240 98 3b 00
        E 0 98 44 00
        E 0 98 40 00
        E 0 98 32 5f
        E 50 98 32 00
        E 190 98 37 5f
        E 0 98 3b 2f
        E 50 98 37 00
        E 190 98 3b 00
        E 0 98 44 2f
        E 0 98 40 5f
        E 0 98 3b 5f
        E 240 98 40 00
        E 0 98 3b 00
        E 0 98 44 00
        E 0 98 32 5f
        E 50 98 32 00
        E 190 98 40 2f
        E 0 98 3b 2f
        E 240 98 3b 00
        E 0 98 40 00
        E 0 98 44 2f
        E 0 98 40 5f
        E 0 98 3b 5f
        E 240 98 44 00
        E 0 98 3b 00
        E 0 98 40 00
        E 0 98 44 5f
        E 0 98 40 5f
        E 0 98 3b 5f
        E 240 98 44 00
        E 0 98 40 00
        E 0 98 3b 00
        E 0 98 32 5f
        E 50 98 32 00
        E 190 98 32 5f
        E 50 98 32 00
        E 190 98 42 5f
        E 0 98 3e 2f
        E 240 98 42 00
        E 0 98 3e 00
        E 0 98 42 5f
        E 0 98 3e 2f
        E 240 98 3e 00
        E 0 98 42 00
        E 0 98 32 5f
        E 50 98 32 00
        E 190 98 42 5f
        E 0 98 3e 2f
        E 240 98 3e 00
        E 0 98 42 00
        E 0 98 32 5f
        E 50 98 32 00
        E 190 98 32 5f
        E 50 98 32 00
        E 190 98 42 5f
        E 0 98 3e 2f
        E 240 98 3e 00
        E 0 98 42 00
        E 0 98 32 5f
        E 50 98 32 00
        E 190 98 32 5f
        E 50 98 32 00
        E 190 98 42 5f
        E 240 98 42 00
        E 0 98 42 5f
        E 240 98 42 00
        E 0 98 42 5f
        E 0 98 3e 2f
        E 240 98 3e 00
        E 0 98 42 00
        E 0 98 42 5f
        E 0 98 3e 2f
        E 0 98 39 2f
        E 240 98 3e 00
        E 0 98 39 00
        E 0 98 42 00
        E 0 98 42 5f
        E 0 98 3e 5f
        E 0 98 32 5f
        E 50 98 32 00
        E 190 98 3e 00
        E 0 98 42 00
        E 0 98 32 5f
        E 50 98 32 00
        E 190 98 32 5f
        E 50 98 32 00
        E 190 98 42 5f
        E 0 98 3e 2f
        E 240 98 42 00
        E 0 98 3e 00
        E 0 98 42 2f
        E 240 98 42 00
        E 0 98 42 5f
        E 0 98 3e 2f
        E 240 98 3e 00
        E 0 98 42 00
        E 0 98 42 5f
        E 0 98 3e 2f
        E 240 98 3e 00
        E 0 98 42 00
        E 0 98 32 5f
        E 50 98 32 00
        E 190 98 32 5f
        E 50 98 32 00
        E 190 98 42 5f
        E 0 98 3e 2f
        E 240 98 3e 00
        E 0 98 42 00
        E 0 98 42 5f
        E 0 98 3e 2f
        E 240 98 3e 00
        E 0 98 42 00
        E 0 98 42 5f
        E 0 98 3e 2f
        E 240 98 3e 00
        E 0 98 42 00
        E 0 98 42 2f
        E 0 98 32 5f
        E 50 98 32 00
        E 190 98 42 00
        E 0 98 37 5f
        E 50 98 37 00
        E 190 98 42 5f
        E 240 98 42 00
        E 0 98 42 5f
        E 0 98 3e 2f
        E 240 98 3e 00
        E 0 98 42 00
        E 0 98 42 5f
        E 0 98 3e 2f
        E 240 98 42 00
        E 0 98 3e 00
        E 0 98 32 5f
        E 50 98 32 00
        E 190 98 32 5f
        E 50 98 32 00
        E 190 98 42 5f
        E 240 98 42 00
        E 0 98 42 5f
        E 240 98 42 00
        E 0 98 32 5f
        E 50 98 32 00
        E 190 98 42 5f
        E 240 98 42 00
        E 0 98 32 5f
        E 50 98 32 00
        E 190 98 37 5f
        E 50 98 37 00
        E 190 98 42 5f
        E 240 98 42 00
        E 0 98 42 5f
        E 240 98 42 00
        E 0 98 42 5f
        E 0 98 3d 2f
        E 240 98 3d 00
        E 0 98 42 00
        E 0 98 45 2f
        E 0 98 42 5f
        E 0 98 3d 2f
        E 240 98 45 00
        E 0 98 3d 00
        E 0 98 42 00
        E 0 98 3b 5f
        E 50 98 3b 00
        E 190 98 42 5f
        E 0 98 3d 2f
        E 240 98 3d 00
        E 0 98 42 00
        E 0 98 45 2f
        E 0 98 42 5f
        E 0 98 3d 2f
        E 240 98 42 00
        E 0 98 45 00
        E 0 98 3d 00
        E 0 98 45 2f
        E 0 98 42 5f
        E 0 98 3d 5f
        E 240 98 42 00
        E 0 98 3d 00
        E 0 98 45 00
        E 0 98 37 5f
        E 50 98 37 00
        E 190 98 37 5f
        E 50 98 37 00
        E 190 98 40 5f
        E 240 98 40 00
        E 0 98 40 2f
        E 240 98 40 00
        E 0 98 40 5f
        E 0 98 3b 2f
        E 240 98 3b 00
        E 0 98 40 00
        E 0 98 40 5f
        E 0 98 3b 2f
        E 240 98 3b 00
        E 0 98 40 00
        E 0 98 37 5f
        E 50 98 37 00
        E 190 98 37 5f
        E 50 98 37 00
        E 190 98 40 5f
        E 240 98 40 00
        E 0 98 40 5f
        E 240 98 40 00
        E 0 98 40 5f
        E 0 98 3b 2f
        E 240 98 3b 00
        E 0 98 40 00
        E 0 98 40 5f
        E 0 98 3b 2f
        E 240 98 3b 00
        E 0 98 40 00
        E 0 98 37 5f
        E 50 98 37 00
        E 190 98 40 5f
        E 240 98 40 00
        E 0 98 40 5f
        E 0 98 3b 2f
        E 240 98 3b 00
        E 0 98 40 00
        E 0 98 40 5f
        E 0 98 3b 2f
        E 240 98 40 00
        E 0 98 3b 00
        E 0 98 32 5f
        E 50 98 32 00
        E 190 98 32 5f
        E 50 98 32 00
        E 190 98 42 5f
        E 240 98 42 00
        E 0 98 42 5f
        E 240 98 42 00
        E 0 98 32 5f
        E 50 98 32 00
        E 190 98 42 5f
        E 0 98 3e 2f
        E 240 98 3e 00
        E 0 98 42 00
        E 0 98 32 5f
        E 50 98 32 00
        E 190 98 32 5f
        E 50 98 32 00
        E 190 98 42 5f
        E 0 98 3e 2f
        E 240 98 3e 00
        E 0 98 42 00
        E 0 98 32 5f
        E 50 98 32 00
        E 190 98 32 5f
        E 50 98 32 00
        E 190 98 42 5f
        E 240 98 42 00
        E 0 98 42 5f
        E 240 98 42 00
        E 0 98 42 5f
        E 0 98 3e 2f
        E 240 98 3e 00
        E 0 98 42 00
        E 0 98 42 5f
        E 0 98 3e 2f
        E 0 98 39 2f
        E 240 98 3e 00
        E 0 98 39 00
        E 0 98 42 00
        E 0 98 42 5f
        E 0 98 3e 5f
        E 0 98 32 5f
        E 50 98 32 00
        E 190 98 3e 00
        E 0 98 42 00
        E 0 98 32 5f
        E 50 98 32 00
        E 190 98 32 5f
        E 50 98 32 00
        E 190 98 42 5f
        E 240 98 42 00
        E 0 98 42 2f
        E 240 98 42 00
        E 0 98 42 5f
        E 240 98 42 00
        E 0 98 42 5f
        E 240 98 42 00
        E 0 98 32 5f
        E 50 98 32 00
        E 190 98 32 5f
        E 50 98 32 00
        E 190 98 42 5f
        E 0 98 3e 2f
        E 240 98 3e 00
        E 0 98 42 00
        E 0 98 42 5f
        E 0 98 3e 2f
        E 240 98 3e 00
        E 0 98 42 00
        E 0 98 42 5f
        E 0 98 3e 2f
        E 240 98 3e 00
        E 0 98 42 00
        E 0 98 42 2f
        E 0 98 3e 2f
        E 0 98 32 5f
        E 50 98 32 00
        E 190 98 3e 00
        E 0 98 42 00
        E 0 98 37 5f
        E 50 98 37 00
        E 190 98 42 5f
        E 0 98 3e 2f
        E 240 98 3e 00
        E 0 98 42 00
        E 0 98 42 5f
        E 0 98 3e 2f
        E 240 98 3e 00
        E 0 98 42 00
        E 0 98 42 5f
        E 0 98 3e 2f
        E 240 98 42 00
        E 0 98 3e 00
        E 0 98 32 5f
        E 50 98 32 00
        E 190 98 32 5f
        E 50 98 32 00
        E 190 98 42 5f
        E 240 98 42 00
        E 0 98 42 5f
        E 0 98 3d 2f
        E 240 98 3d 00
        E 0 98 42 00
        E 0 98 32 5f
        E 50 98 32 00
        E 190 98 42 5f
        E 0 98 3d 2f
        E 240 98 3d 00
        E 0 98 42 00
        E 0 98 32 5f
        E 50 98 32 00
        E 190 98 37 5f
        E 50 98 37 00
        E 190 98 42 5f
        E 240 98 42 00
        E 0 98 42 5f
        E 240 98 42 00
        E 0 98 42 5f
        E 240 98 42 00
        E 0 98 45 2f
        E 0 98 42 5f
        E 0 98 3d 2f
        E 240 98 45 00
        E 0 98 3d 00
        E 0 98 42 00
        E 0 98 3b 5f
        E 50 98 3b 00
        E 190 98 45 2f
        E 0 98 42 5f
        E 0 98 3d 2f
        E 240 98 45 00
        E 0 98 3d 00
        E 0 98 42 00
        E 0 98 45 2f
        E 0 98 42 5f
        E 0 98 3d 2f
        E 240 98 42 00
        E 0 98 45 00
        E 0 98 3d 00
        E 0 98 45 2f
        E 0 98 42 5f
        E 0 98 3d 5f
        E 240 98 42 00
        E 0 98 3d 00
        E 0 98 45 00
        E 0 98 37 5f
        E 50 98 37 00
        E 190 98 37 5f
        E 50 98 37 00
        E 190 98 40 5f
        E 240 98 40 00
        E 0 98 40 2f
        E 0 98 3b 2f
        E 240 98 3b 00
        E 0 98 40 00
        E 0 98 40 5f
        E 240 98 40 00
        E 0 98 40 5f
        E 0 98 3b 2f
        E 240 98 3b 00
        E 0 98 40 00
        E 0 98 37 5f
        E 50 98 37 00
        E 190 98 37 5f
        E 50 98 37 00
        E 190 98 40 5f
        E 240 98 40 00
        E 0 98 40 5f
        E 240 98 40 00
        E 0 98 40 5f
        E 0 98 3b 2f
        E 240 98 3b 00
        E 0 98 40 00
        E 0 98 40 5f
        E 0 98 3b 2f
        E 240 98 3b 00
        E 0 98 40 00
        E 0 98 37 5f
        E 50 98 37 00
        E 190 98 40 5f
        E 0 98 3b 2f
        E 240 98 3b 00
        E 0 98 40 00
        E 0 98 40 5f
        E 0 98 3b 2f
        E 240 98 3b 00
        E 0 98 40 00
        E 0 98 40 5f
        E 0 98 3b 2f
        E 240 98 40 00
        E 0 98 3b 00
        E 0 98 32 5f
        E 50 98 32 00
        E 190 98 32 5f
        E 50 98 32 00
        E 190 98 42 5f
        E 240 98 42 00
        E 0 98 42 5f
        E 240 98 42 00
        E 0 98 32 5f
        E 50 98 32 00
        E 190 98 42 5f
        E 0 98 3e 2f
        E 240 98 3e 00
        E 0 98 42 00
        E 0 98 32 5f
        E 50 98 32 00
        E 190 98 32 5f
        E 50 98 32 00
        E 190 98 42 5f
        E 0 98 3e 2f
        E 240 98 3e 00
        E 0 98 42 00
        E 0 98 32 5f
        E 50 98 32 00
        E 190 98 32 5f
        E 50 98 32 00
        E 190 98 42 5f
        E 0 98 3e 2f
        E 240 98 3e 00
        E 0 98 42 00
        E 0 98 42 5f
        E 240 98 42 00
        E 0 98 42 5f
        E 0 98 3e 2f
        E 240 98 3e 00
        E 0 98 42 00
        E 0 98 42 5f
        E 0 98 3e 2f
        E 0 98 39 2f
        E 240 98 39 00
        E 0 98 3e 00
        E 0 98 42 00
        E 0 98 42 5f
        E 0 98 3e 5f
        E 0 98 32 5f
        E 50 98 32 00
        E 190 98 3e 00
        E 0 98 42 00
        E 0 98 32 5f
        E 50 98 32 00
        E 190 98 32 5f
        E 50 98 32 00
        E 190 98 42 5f
        E 0 98 3e 2f
        E 240 98 42 00
        E 0 98 3e 00
        E 0 98 42 2f
        E 240 98 42 00
        E 0 98 42 5f
        E 0 98 3e 2f
        E 240 98 3e 00
        E 0 98 42 00
        E 0 98 42 5f
        E 0 98 3e 2f
        E 240 98 3e 00
        E 0 98 42 00
        E 0 98 32 5f
        E 50 98 32 00
        E 190 98 32 5f
        E 50 98 32 00
        E 190 98 42 5f
        E 240 98 42 00
        E 0 98 42 5f
        E 240 98 42 00
        E 0 98 42 5f
        E 240 98 42 00
        E 0 98 42 2f
        E 0 98 32 5f
        E 50 98 32 00
        E 190 98 42 00
        E 0 98 37 5f
        E 50 98 37 00
        E 190 98 42 5f
        E 240 98 42 00
        E 0 98 42 5f
        E 240 98 42 00
        E 0 98 42 5f
        E 240 98 42 00
        E 0 98 32 5f
        E 50 98 32 00
        E 190 98 32 5f
        E 50 98 32 00
        E 190 98 42 5f
        E 240 98 42 00
        E 0 98 42 5f
        E 240 98 42 00
        E 0 98 32 5f
        E 50 98 32 00
        E 190 98 42 5f
        E 240 98 42 00
        E 0 98 32 5f
        E 50 98 32 00
        E 190 98 37 5f
        E 50 98 37 00
        E 190 98 42 5f
        E 240 98 42 00
        E 0 98 42 5f
        E 240 98 42 00
        E 0 98 42 5f
        E 240 98 42 00
        E 0 98 45 2f
        E 0 98 42 5f
        E 0 98 3d 2f
        E 240 98 42 00
        E 0 98 45 00
        E 0 98 3d 00
        E 0 98 3b 5f
        E 50 98 3b 00
        E 190 98 45 2f
        E 0 98 42 5f
        E 0 98 3d 2f
        E 240 98 3d 00
        E 0 98 45 00
        E 0 98 42 00
        E 0 98 45 2f
        E 0 98 42 5f
        E 0 98 3d 2f
        E 240 98 3d 00
        E 0 98 42 00
        E 0 98 45 00
        E 0 98 45 2f
        E 0 98 42 5f
        E 0 98 3d 5f
        E 240 98 45 00
        E 0 98 3d 00
        E 0 98 42 00
        E 0 98 37 5f
        E 50 98 37 00
        E 190 98 37 5f
        E 50 98 37 00
        E 190 98 40 5f
        E 240 98 40 00
        E 0 98 40 2f
        E 240 98 40 00
        E 0 98 40 5f
        E 240 98 40 00
        E 0 98 40 5f
        E 240 98 40 00
        E 0 98 37 5f
        E 50 98 37 00
        E 190 98 37 5f
        E 50 98 37 00
        E 190 98 40 5f
        E 240 98 40 00
        E 0 98 40 5f
        E 0 98 3b 2f
        E 240 98 40 00
        E 0 98 3b 00
        E 0 98 40 5f
        E 0 98 3b 2f
        E 240 98 3b 00
        E 0 98 40 00
        E 0 98 40 5f
        E 0 98 3b 2f
        E 240 98 3b 00
        E 0 98 40 00
        E 0 98 37 5f
        E 50 98 37 00
        E 190 98 40 5f
        E 0 98 3b 2f
        E 240 98 3b 00
        E 0 98 40 00
        E 0 98 40 5f
        E 0 98 3b 2f
        E 240 98 3b 00
        E 0 98 40 00
        E 0 98 40 5f
        E 0 98 3b 2f
        E 0 98 38 2f
        E 240 98 3b 00
        E 0 98 38 00
        E 0 98 40 00
        E 0 98 32 5f
        E 50 98 32 00
        E 190 98 32 5f
        E 50 98 32 00
        E 190 98 42 5f
        E 240 98 42 00
        E 0 98 42 5f
        E 0 98 3e 2f
        E 240 98 3e 00
        E 0 98 42 00
        E 0 98 32 5f
        E 50 98 32 00
        E 190 98 42 5f
        E 0 98 3e 2f
        E 240 98 3e 00
        E 0 98 42 00
        E 0 98 32 5f
        E 50 98 32 00
        E 190 98 32 5f
        E 50 98 32 00
        E 190 98 42 5f
        E 240 98 42 00
        E 0 98 32 5f
        E 50 98 32 00
        E 190 98 32 5f
        E 50 98 32 00
        E 190 98 42 5f
        E 240 98 42 00
        E 0 98 42 5f
        E 240 98 42 00
        E 0 98 42 5f
        E 0 98 3e 2f
        E 240 98 3e 00
        E 0 98 42 00
        E 0 98 42 5f
        E 0 98 3e 2f
        E 0 98 39 2f
        E 240 98 39 00
        E 0 98 3e 00
        E 0 98 42 00
        E 0 98 42 5f
        E 0 98 3e 5f
        E 0 98 32 5f
        E 50 98 32 00
        E 190 98 3e 00
        E 0 98 42 00
        E 0 98 32 5f
        E 50 98 32 00
        E 190 98 32 5f
        E 50 98 32 00
        E 190 98 42 5f
        E 240 98 42 00
        E 0 98 42 2f
        E 240 98 42 00
        E 0 98 42 5f
        E 240 98 42 00
        E 0 98 42 5f
        E 240 98 42 00
        E 0 98 32 5f
        E 50 98 32 00
        E 190 98 32 5f
        E 50 98 32 00
        E 190 98 42 5f
        E 0 98 3e 2f
        E 240 98 3e 00
        E 0 98 42 00
        E 0 98 42 5f
        E 0 98 3e 2f
        E 240 98 3e 00
        E 0 98 42 00
        E 0 98 42 5f
        E 0 98 3e 2f
        E 240 98 3e 00
        E 0 98 42 00
        E 0 98 42 2f
        E 0 98 3e 2f
        E 0 98 32 5f
        E 50 98 32 00
        E 190 98 3e 00
        E 0 98 42 00
        E 0 98 37 5f
        E 50 98 37 00
        E 190 98 42 5f
        E 0 98 3e 2f
        E 240 98 3e 00
        E 0 98 42 00
        E 0 98 42 5f
        E 0 98 3e 2f
        E 240 98 3e 00
        E 0 98 42 00
        E 0 98 42 5f
        E 0 98 3e 2f
        E 240 98 42 00
        E 0 98 3e 00
        E 0 98 32 5f
        E 50 98 32 00
        E 190 98 32 5f
        E 50 98 32 00
        E 190 98 42 5f
        E 240 98 42 00
        E 0 98 42 5f
        E 240 98 42 00
        E 0 98 32 5f
        E 50 98 32 00
        E 190 98 42 5f
        E 240 98 42 00
        E 0 98 32 5f
        E 50 98 32 00
        E 190 98 37 5f
        E 50 98 37 00
        E 190 98 42 5f
        E 240 98 42 00
        E 0 98 42 5f
        E 240 98 42 00
        E 0 98 42 5f
        E 240 98 42 00
        E 0 98 45 2f
        E 0 98 42 5f
        E 0 98 3d 2f
        E 240 98 42 00
        E 0 98 45 00
        E 0 98 3d 00
        E 0 98 3b 5f
        E 50 98 3b 00
        E 190 98 45 2f
        E 0 98 42 5f
        E 0 98 3d 2f
        E 240 98 3d 00
        E 0 98 45 00
        E 0 98 42 00
        E 0 98 45 2f
        E 0 98 42 5f
        E 0 98 3d 2f
        E 240 98 3d 00
        E 0 98 42 00
        E 0 98 45 00
        E 0 98 45 2f
        E 0 98 42 5f
        E 0 98 3d 5f
        E 240 98 45 00
        E 0 98 3d 00
        E 0 98 42 00
        E 0 98 37 5f
        E 50 98 37 00
        E 190 98 37 5f
        E 50 98 37 00
        E 190 98 40 5f
        E 240 98 40 00
        E 0 98 40 2f
        E 240 98 40 00
        E 0 98 40 5f
        E 240 98 40 00
        E 0 98 40 5f
        E 240 98 40 00
        E 0 98 37 5f
        E 50 98 37 00
        E 190 98 37 5f
        E 50 98 37 00
        E 190 98 40 5f
        E 240 98 40 00
        E 0 98 40 5f
        E 240 98 40 00
        E 0 98 40 5f
        E 0 98 3d 2f
        E 240 98 3d 00
        E 0 98 40 00
        E 0 98 40 5f
        E 0 98 3d 2f
        E 240 98 3d 00
        E 0 98 40 00
        E 0 98 37 5f
        E 50 98 37 00
        E 190 98 40 5f
        E 0 98 3d 2f
        E 240 98 3d 00
        E 0 98 40 00
        E 0 98 40 5f
        E 0 98 3d 2f
        E 240 98 3d 00
        E 0 98 40 00
        E 0 98 40 5f
        E 0 98 3d 2f
        E 240 98 40 00
        E 0 98 3d 00
        E 0 98 32 5f
        E 50 98 32 00
        E 190 98 32 5f
        E 50 98 32 00
        E 190 98 42 2f
        E 0 98 3e 5f
        E 0 98 39 5f
        E 240 98 39 00
        E 0 98 3e 00
        E 0 98 42 00
        E 0 98 32 5f
        E 50 98 32 00
        E 190 98 36 5f
        E 240 98 36 00
        E 0 98 42 2f
        E 0 98 3e 5f
        E 0 98 39 5f
        E 240 98 39 00
        E 0 98 42 00
        E 0 98 3e 00
        E 0 98 32 5f
        E 50 98 32 00
        E 190 98 3e 5f
        E 0 98 3b 5f
        E 240 98 3e 00
        E 0 98 3b 00
        E 0 98 42 5f
        E 0 98 3e 5f
        E 0 98 3b 5f
        E 240 98 3b 00
        E 0 98 3e 00
        E 0 98 42 00
        E 0 98 32 5f
        E 50 98 32 00
        E 190 98 3e 5f
        E 0 98 3b 5f
        E 240 98 3b 00
        E 0 98 3e 00
        E 0 98 42 5f
        E 0 98 3e 5f
        E 0 98 3b 5f
        E 240 98 3b 00
        E 0 98 3e 00
        E 0 98 42 00
        E 0 98 32 5f
        E 50 98 32 00
        E 190 98 32 5f
        E 50 98 32 00
        E 190 98 42 5f
        E 0 98 3e 5f
        E 0 98 3b 5f
        E 240 98 3b 00
        E 0 98 42 00
        E 0 98 3e 00
        E 0 98 42 5f
        E 0 98 3e 5f
        E 0 98 3b 5f
        E 240 98 3e 00
        E 0 98 42 00
        E 0 98 3b 00
        E 0 98 32 5f
        E 50 98 32 00
        E 190 98 32 5f
        E 50 98 32 00
        E 190 98 42 5f
        E 0 98 3e 5f
        E 0 98 39 5f
        E 240 98 39 00
        E 0 98 3e 00
        E 0 98 42 00
        E 0 98 32 5f
        E 50 98 32 00
        E 190 98 32 5f
        E 50 98 32 00
        E 190 98 42 5f
        E 0 98 3e 5f
        E 0 98 39 5f
        E 240 98 39 00
        E 0 98 42 00
        E 0 98 3e 00
        E 0 98 32 5f
        E 50 98 32 00
        E 190 98 3e 5f
        E 0 98 32 5f
        E 50 98 32 00
        E 190 98 3e 00
        E 0 98 42 2f
        E 0 98 3e 5f
        E 0 98 39 5f
        E 240 98 39 00
        E 0 98 3e 00
        E 0 98 42 00
        E 0 98 32 5f
        E 50 98 32 00
        E 190 98 3e 5f
        E 0 98 32 5f
        E 50 98 32 00
        E 190 98 3e 00
        E 0 98 42 2f
        E 0 98 3e 5f
        E 0 98 39 5f
        E 240 98 39 00
        E 0 98 3e 00
        E 0 98 42 00
        E 0 98 3d 5f
        E 0 98 32 5f
        E 50 98 32 00
        E 430 98 3d 00
        E 0 98 42 5f
        E 0 98 3e 5f
        E 0 98 39 5f
        E 240 98 39 00
        E 0 98 3e 00
        E 0 98 42 00
        E 0 98 42 5f
        E 0 98 3e 5f
        E 0 98 39 5f
        E 240 98 42 00
        E 0 98 3e 00
        E 0 98 39 00
        E 0 98 3b 5f
        E 50 98 3b 00
        E 190 98 3b 5f
        E 50 98 3b 00
        E 190 98 3b 5f
        E 0 98 42 5f
        E 0 98 3d 5f
        E 50 98 3b 00
        E 190 98 3d 00
        E 0 98 42 00
        E 0 98 3b 5f
        E 50 98 3b 00
        E 190 98 3b 5f
        E 0 98 3d 5f
        E 50 98 3b 00
        E 190 98 3d 00
        E 0 98 45 2f
        E 0 98 42 5f
        E 0 98 3d 5f
        E 240 98 42 00
        E 0 98 45 00
        E 0 98 3d 00
        E 0 98 32 5f
        E 50 98 32 00
        E 190 98 37 5f
        E 0 98 3d 2f
        E 50 98 37 00
        E 190 98 3d 00
        E 0 98 45 2f
        E 0 98 42 5f
        E 0 98 3d 5f
        E 240 98 45 00
        E 0 98 3d 00
        E 0 98 42 00
        E 0 98 32 5f
        E 50 98 32 00
        E 190 98 37 5f
        E 0 98 3d 5f
        E 50 98 37 00
        E 190 98 3d 00
        E 0 98 45 2f
        E 0 98 42 5f
        E 0 98 3d 5f
        E 240 98 42 00
        E 0 98 45 00
        E 0 98 3d 00
        E 0 98 32 5f
        E 50 98 32 00
        E 190 98 3b 5f
        E 0 98 37 5f
        E 0 98 3d 5f
        E 50 98 37 00
        E 0 98 3b 00
        E 190 98 3d 00
        E 0 98 45 2f
        E 0 98 42 5f
        E 0 98 3d 5f
        E 480 98 45 00
        E 0 98 42 00
        E 0 98 3d 00
        E 0 98 32 5f
        E 50 98 32 00
        E 190 98 32 5f
        E 50 98 32 00
        E 190 98 44 2f
        E 0 98 40 5f
        E 0 98 3b 2f
        E 240 98 3b 00
        E 0 98 40 00
        E 0 98 44 00
        E 0 98 32 5f
        E 50 98 32 00
        E 190 98 44 2f
        E 0 98 40 2f
        E 0 98 3b 5f
        E 240 98 3b 00
        E 0 98 40 00
        E 0 98 44 00
        E 0 98 44 2f
        E 0 98 40 5f
        E 0 98 3b 2f
        E 240 98 3b 00
        E 0 98 44 00
        E 0 98 40 00
        E 0 98 40 5f
        E 50 98 40 00
        E 190 98 44 2f
        E 0 98 40 5f
        E 0 98 3b 2f
        E 240 98 3b 00
        E 0 98 44 00
        E 0 98 40 00
        E 0 98 37 5f
        E 50 98 37 00
        E 190 98 40 5f
        E 50 98 40 00
        E 190 98 44 2f
        E 0 98 40 5f
        E 0 98 3b 2f
        E 240 98 3b 00
        E 0 98 40 00
        E 0 98 44 00
        E 0 98 37 5f
        E 50 98 37 00
        E 190 98 42 2f
        E 0 98 3e 5f
        E 0 98 39 5f
        E 480 98 39 00
        E 0 98 42 00
        E 0 98 3e 00
        E 0 98 42 2f
        E 0 98 3d 5f
        E 0 98 39 5f
        E 480 98 3d 00
        E 0 98 42 00
        E 0 98 39 00
        E 0 98 32 5f
        E 50 98 32 00
        E 190 98 32 5f
        E 50 98 32 00
        E 190 98 42 2f
        E 0 98 3e 5f
        E 0 98 39 5f
        E 240 98 39 00
        E 0 98 3e 00
        E 0 98 42 00
        E 0 98 32 5f
        E 50 98 32 00
        E 190 98 36 5f
        E 240 98 36 00
        E 0 98 42 2f
        E 0 98 3e 5f
        E 0 98 39 5f
        E 240 98 39 00
        E 0 98 42 00
        E 0 98 3e 00
        E 0 98 32 5f
        E 50 98 32 00
        E 190 98 42 2f
        E 0 98 3e 5f
        E 0 98 3b 5f
        E 240 98 3b 00
        E 0 98 42 00
        E 0 98 3e 00
        E 0 98 3e 5f
        E 50 98 3e 00
        E 190 98 3e 5f
        E 50 98 3e 00
        E 190 98 42 5f
        E 0 98 3e 5f
        E 0 98 3b 5f
        E 50 98 3b 00
        E 190 98 3e 00
        E 0 98 42 00
        E 0 98 42 5f
        E 0 98 3e 5f
        E 0 98 3b 5f
        E 50 98 3b 00
        E 190 98 3e 00
        E 0 98 42 00
        E 0 98 32 5f
        E 50 98 32 00
        E 190 98 32 5f
        E 50 98 32 00
        E 190 98 42 5f
        E 0 98 3e 5f
        E 0 98 3b 5f
        E 240 98 3b 00
        E 0 98 42 00
        E 0 98 3e 00
        E 0 98 42 5f
        E 0 98 3e 5f
        E 0 98 3b 5f
        E 240 98 3e 00
        E 0 98 42 00
        E 0 98 3b 00
        E 0 98 32 5f
        E 50 98 32 00
        E 190 98 32 5f
        E 50 98 32 00
        E 190 98 42 5f
        E 0 98 3e 5f
        E 0 98 39 5f
        E 240 98 39 00
        E 0 98 3e 00
        E 0 98 42 00
        E 0 98 32 5f
        E 50 98 32 00
        E 190 98 32 5f
        E 50 98 32 00
        E 190 98 42 5f
        E 0 98 3e 5f
        E 0 98 39 5f
        E 240 98 39 00
        E 0 98 42 00
        E 0 98 3e 00
        E 0 98 32 5f
        E 50 98 32 00
        E 190 98 3e 5f
        E 0 98 32 5f
        E 50 98 32 00
        E 190 98 3e 00
        E 0 98 42 5f
        E 0 98 3e 5f
        E 0 98 39 5f
        E 240 98 39 00
        E 0 98 3e 00
        E 0 98 42 00
        E 0 98 32 5f
        E 50 98 32 00
        E 190 98 3e 5f
        E 0 98 32 5f
        E 50 98 32 00
        E 190 98 3e 00
        E 0 98 42 5f
        E 0 98 3e 5f
        E 0 98 39 5f
        E 240 98 39 00
        E 0 98 3e 00
        E 0 98 42 00
        E 0 98 3d 5f
        E 0 98 32 5f
        E 50 98 32 00
        E 430 98 3d 00
        E 0 98 42 5f
        E 0 98 3e 5f
        E 0 98 39 5f
        E 240 98 3e 00
        E 0 98 39 00
        E 0 98 42 00
        E 0 98 42 5f
        E 0 98 3e 5f
        E 0 98 39 5f
        E 240 98 42 00
        E 0 98 3e 00
        E 0 98 39 00
        E 0 98 32 5f
        E 50 98 32 00
        E 190 98 32 5f
        E 50 98 32 00
        E 190 98 40 5f
        E 50 98 40 00
        E 190 98 40 5f
        E 0 98 32 5f
        E 50 98 32 00
        E 0 98 40 00
        E 190 98 3b 5f
        E 0 98 3d 5f
        E 50 98 3b 00
        E 190 98 3d 00
        E 0 98 45 2f
        E 0 98 42 5f
        E 0 98 3d 5f
        E 240 98 42 00
        E 0 98 45 00
        E 0 98 3d 00
        E 0 98 32 5f
        E 50 98 32 00
        E 190 98 37 5f
        E 0 98 3d 2f
        E 50 98 37 00
        E 190 98 3d 00
        E 0 98 45 2f
        E 0 98 42 5f
        E 0 98 3d 5f
        E 240 98 45 00
        E 0 98 3d 00
        E 0 98 42 00
        E 0 98 32 5f
        E 50 98 32 00
        E 190 98 37 5f
        E 0 98 3d 5f
        E 50 98 37 00
        E 190 98 3d 00
        E 0 98 45 2f
        E 0 98 42 5f
        E 0 98 3d 5f
        E 240 98 42 00
        E 0 98 45 00
        E 0 98 3d 00
        E 0 98 32 5f
        E 50 98 32 00
        E 190 98 42 5f
        E 0 98 3d 5f
        E 240 98 42 00
        E 0 98 3d 00
        E 0 98 45 2f
        E 0 98 42 5f
        E 0 98 3d 5f
        E 240 98 3d 00
        E 0 98 45 00
        E 0 98 42 00
        E 0 98 45 5f
        E 0 98 42 5f
        E 0 98 3d 5f
        E 240 98 42 00
        E 0 98 45 00
        E 0 98 3d 00
        E 0 98 32 5f
        E 50 98 32 00
        E 190 98 32 5f
        E 50 98 32 00
        E 190 98 44 2f
        E 0 98 40 5f
        E 0 98 3b 5f
        E 240 98 3b 00
        E 0 98 40 00
        E 0 98 44 00
        E 0 98 32 5f
        E 50 98 32 00
        E 190 98 44 2f
        E 0 98 40 2f
        E 0 98 3b 5f
        E 240 98 3b 00
        E 0 98 40 00
        E 0 98 44 00
        E 0 98 44 2f
        E 0 98 40 5f
        E 0 98 3b 5f
        E 240 98 3b 00
        E 0 98 44 00
        E 0 98 40 00
        E 0 98 40 5f
        E 50 98 40 00
        E 190 98 44 2f
        E 0 98 40 5f
        E 0 98 3b 5f
        E 240 98 3b 00
        E 0 98 44 00
        E 0 98 40 00
        E 0 98 37 5f
        E 50 98 37 00
        E 190 98 40 5f
        E 50 98 40 00
        E 190 98 44 2f
        E 0 98 40 5f
        E 0 98 3b 5f
        E 240 98 3b 00
        E 0 98 40 00
        E 0 98 44 00
        E 0 98 37 5f
        E 50 98 37 00
        E 190 98 37 5f
        E 50 98 37 00
        E 190 98 40 5f
        E 50 98 40 00
        E 190 98 44 2f
        E 0 98 40 5f
        E 0 98 3b 5f
        E 240 98 3b 00
        E 0 98 40 00
        E 0 98 44 00
        E 0 98 44 2f
        E 0 98 40 5f
        E 0 98 3b 5f
        E 240 98 3b 00
        E 0 98 44 00
        E 0 98 40 00
        E 0 98 32 5f
        E 50 98 32 00
        E 190 98 32 5f
        E 50 98 32 00
        E 190 98 42 2f
        E 0 98 3e 5f
        E 0 98 39 5f
        E 240 98 39 00
        E 0 98 3e 00
        E 0 98 42 00
        E 0 98 32 5f
        E 50 98 32 00
        E 190 98 36 5f
        E 240 98 36 00
        E 0 98 42 2f
        E 0 98 3e 5f
        E 0 98 39 5f
        E 240 98 39 00
        E 0 98 42 00
        E 0 98 3e 00
        E 0 98 32 5f
        E 50 98 32 00
        E 190 98 3e 5f
        E 0 98 3b 5f
        E 240 98 3e 00
        E 0 98 3b 00
        E 0 98 42 5f
        E 0 98 3e 5f
        E 0 98 3b 5f
        E 240 98 3b 00
        E 0 98 3e 00
        E 0 98 42 00
        E 0 98 32 5f
        E 50 98 32 00
        E 190 98 3e 5f
        E 0 98 3b 5f
        E 240 98 3b 00
        E 0 98 3e 00
        E 0 98 42 5f
        E 0 98 3e 5f
        E 0 98 3b 5f
        E 240 98 3b 00
        E 0 98 3e 00
        E 0 98 42 00
        E 0 98 32 5f
        E 50 98 32 00
        E 190 98 32 5f
        E 50 98 32 00
        E 190 98 42 5f
        E 0 98 3e 5f
        E 0 98 3b 5f
        E 240 98 3b 00
        E 0 98 42 00
        E 0 98 3e 00
        E 0 98 42 5f
        E 0 98 3e 5f
        E 0 98 3b 5f
        E 240 98 3b 00
        E 0 98 3e 00
        E 0 98 42 00
        E 0 98 32 5f
        E 50 98 32 00
        E 190 98 32 5f
        E 50 98 32 00
        E 190 98 42 5f
        E 0 98 3e 5f
        E 0 98 39 5f
        E 240 98 39 00
        E 0 98 3e 00
        E 0 98 42 00
        E 0 98 32 5f
        E 50 98 32 00
        E 190 98 32 5f
        E 50 98 32 00
        E 190 98 42 5f
        E 0 98 3e 5f
        E 0 98 39 5f
        E 240 98 39 00
        E 0 98 42 00
        E 0 98 3e 00
        E 0 98 32 5f
        E 50 98 32 00
        E 190 98 3e 5f
        E 0 98 32 5f
        E 50 98 32 00
        E 190 98 3e 00
        E 0 98 42 2f
        E 0 98 3e 5f
        E 0 98 39 5f
        E 240 98 39 00
        E 0 98 3e 00
        E 0 98 42 00
        E 0 98 32 5f
        E 50 98 32 00
        E 190 98 3e 5f
        E 0 98 32 5f
        E 50 98 32 00
        E 190 98 3e 00
        E 0 98 42 2f
        E 0 98 3e 5f
        E 0 98 39 5f
        E 240 98 39 00
        E 0 98 3e 00
        E 0 98 42 00
        E 0 98 3d 5f
        E 0 98 32 5f
        E 50 98 32 00
        E 430 98 3d 00
        E 0 98 42 5f
        E 0 98 3e 5f
        E 0 98 39 5f
        E 240 98 39 00
        E 0 98 3e 00
        E 0 98 42 00
        E 0 98 42 5f
        E 0 98 3e 5f
        E 0 98 39 5f
        E 120 e8 00 48
        E 120 e8 00 40
        E 0 98 42 00
        E 0 98 3e 00
        E 0 98 39 00
        E 0 98 45 5f
        E 0 98 42 5f
        E 240 98 42 00
        E 0 98 45 00
        E 0 98 3b 5f
        E 50 98 3b 00
        E 190 98 3b 5f
        E 0 98 42 5f
        E 0 98 3d 5f
        E 50 98 3b 00
        E 190 98 3d 00
        E 0 98 42 00
        E 0 98 3b 5f
        E 50 98 3b 00
        E 190 98 3b 5f
        E 0 98 3d 5f
        E 50 98 3b 00
        E 190 98 3d 00
        E 0 98 45 2f
        E 0 98 42 5f
        E 0 98 3d 5f
        E 240 98 42 00
        E 0 98 45 00
        E 0 98 3d 00
        E 0 98 32 5f
        E 50 98 32 00
        E 190 98 37 5f
        E 0 98 3d 2f
        E 50 98 37 00
        E 190 98 3d 00
        E 0 98 45 2f
        E 0 98 42 5f
        E 0 98 3d 5f
        E 240 98 45 00
        E 0 98 3d 00
        E 0 98 42 00
        E 0 98 32 5f
        E 50 98 32 00
        E 190 98 37 5f
        E 0 98 3d 5f
        E 50 98 37 00
        E 190 98 3d 00
        E 0 98 45 2f
        E 0 98 42 5f
        E 0 98 3d 5f
        E 240 98 42 00
        E 0 98 45 00
        E 0 98 3d 00
        E 0 98 32 5f
        E 50 98 32 00
        E 190 98 3b 5f
        E 0 98 37 5f
        E 0 98 3d 5f
        E 50 98 37 00
        E 0 98 3b 00
        E 190 98 3d 00
        E 0 98 45 5f
        E 0 98 42 5f
        E 0 98 3d 5f
        E 480 98 45 00
        E 0 98 42 00
        E 0 98 3d 00
        E 0 98 32 5f
        E 50 98 32 00
        E 190 98 32 5f
        E 50 98 32 00
        E 190 98 44 2f
        E 0 98 40 5f
        E 0 98 3b 2f
        E 240 98 3b 00
        E 0 98 40 00
        E 0 98 44 00
        E 0 98 32 5f
        E 50 98 32 00
        E 190 98 44 2f
        E 0 98 40 2f
        E 0 98 3b 5f
        E 240 98 3b 00
        E 0 98 40 00
        E 0 98 44 00
        E 0 98 44 2f
        E 0 98 40 5f
        E 0 98 3b 2f
        E 240 98 3b 00
        E 0 98 44 00
        E 0 98 40 00
        E 0 98 40 5f
        E 50 98 40 00
        E 190 98 44 2f
        E 0 98 40 5f
        E 0 98 3b 2f
        E 240 98 3b 00
        E 0 98 44 00
        E 0 98 40 00
        E 0 98 37 5f
        E 50 98 37 00
        E 190 98 40 5f
        E 50 98 40 00
        E 190 98 44 2f
        E 0 98 40 5f
        E 0 98 3b 2f
        E 240 98 3b 00
        E 0 98 40 00
        E 0 98 44 00
        E 0 98 37 5f
        E 50 98 37 00
        E 190 98 37 5f
        E 50 98 37 00
        E 190 98 40 5f
        E 50 98 40 00
        E 190 98 44 2f
        E 0 98 40 5f
        E 0 98 3b 5f
        E 240 98 3b 00
        E 0 98 40 00
        E 0 98 44 00
        E 0 98 44 2f
        E 0 98 40 5f
        E 0 98 3b 5f
        E 238 98 44 00
        E 0 98 40 00
        E 0 98 3b 00
        E 2 b0 7b 00
        GUID {8F84EC8A-606E-42FA-BBF3-96C63B053E0A}
        IGNTEMPO 0 120 4 4
        SRCCOLOR 38
        VELLANE -1 100 0
      >
    >
  >
  <TRACK {F14C1399-816C-44BD-8AC0-69ED1C5559D4}
    NAME "untitled - GetluckyfeatPharrellWilliams.mid [chan 10] [chan 10]"
    PEAKCOL 25822414
    BEAT -1
    AUTOMODE 0
    VOLPAN 1 0 -1 -1 1
    MUTESOLO 0 0 0
    IPHASE 0
    ISBUS 0 0
    BUSCOMP 0 0
    SHOWINMIX 1 0.6667 0.5 1 0.5 0 0 0
    FREEMODE 0
    SEL 1
    REC 0 0 0 0 0 0 0
    VU 2
    TRACKHEIGHT 0 0 0
    INQ 0 0 0 0.5 100 0 0 100
    NCHAN 2
    FX 1
    TRACKID {F14C1399-816C-44BD-8AC0-69ED1C5559D4}
    PERF 0
    MIDIOUT -1
    MAINSEND 1 0
    <ITEM
      POSITION 38.5
      SNAPOFFS 0
      LENGTH 242
      LOOP 1
      ALLTAKES 0
      FADEIN 1 0 0 1 0 0
      FADEOUT 1 0 0 1 0 0
      MUTE 0
      SEL 0
      IGUID {7D8A55BF-E0EE-4A10-AD1D-AD4B658B9E5C}
      IID 19
      NAME "untitled - GetluckyfeatPharrellWilliams.mid [chan 10]"
      VOLPAN 1 0 1 -1
      SOFFS 0 0
      PLAYRATE 1 1 0 -1 0 0.0025
      CHANMODE 0
      GUID {FE8B7830-4725-42B8-A2C2-055CDE07BB09}
      <SOURCE MIDI
        HASDATA 1 960 QN
        POOLEDEVTS {FA1B9544-7C18-4C91-84DC-47619757EC69}
        E 54 b9 65 00
        E 2 b9 64 00
        E 2 b9 06 0c
        E 2 b9 26 00
        E 36 b9 00 7f
        E 0 b9 20 00
        E 0 c9 00 00
        E 0 b9 07 7f
        E 0 b9 0a 40
        E 0 e9 00 40
        E 0 b9 5d 00
        E 0 b9 5b 00
        E 0 b9 5f 00
        E 0 b9 5c 00
        E 0 99 1f 5f
        E 864 99 1f 00
        E 0 99 1f 5f
        E 960 99 1f 00
        E 0 99 1f 5f
        E 960 99 1f 00
        E 0 99 1f 5f
        E 960 99 1f 00
        E 0 99 31 5f
        E 0 99 23 5f
        E 480 99 23 00
        E 0 99 31 00
        E 0 99 2a 5f
        E 480 99 2a 00
        E 0 99 2a 5f
        E 0 99 27 5f
        E 0 99 28 5f
        E 480 99 28 00
        E 0 99 27 00
        E 0 99 2a 00
        E 0 99 2a 5f
        E 480 99 2a 00
        E 0 99 2a 5f
        E 0 99 23 5f
        E 480 99 2a 00
        E 0 99 23 00
        E 0 99 2a 5f
        E 480 99 2a 00
        E 0 99 2a 5f
        E 0 99 27 5f
        E 0 99 28 5f
        E 480 99 28 00
        E 0 99 27 00
        E 0 99 2a 00
        E 0 99 2a 5f
        E 240 99 2a 00
        E 0 99 2a 5f
        E 240 99 2a 00
        E 0 99 2a 5f
        E 0 99 23 5f
        E 480 99 23 00
        E 0 99 2a 00
        E 0 99 2a 5f
        E 480 99 2a 00
        E 0 99 2a 5f
        E 0 99 27 5f
        E 0 99 28 5f
        E 480 99 28 00
        E 0 99 27 00
        E 0 99 2a 00
        E 0 99 2a 5f
        E 480 99 2a 00
        E 0 99 2a 5f
        E 0 99 23 5f
        E 480 99 2a 00
        E 0 99 23 00
        E 0 99 2a 5f
        E 480 99 2a 00
        E 0 99 2a 5f
        E 0 99 27 5f
        E 0 99 28 5f
        E 480 99 2a 00
        E 0 99 27 00
        E 0 99 28 00
        E 0 99 2a 5f
        E 240 99 2a 00
        E 0 99 2a 5f
        E 240 99 2a 00
        E 0 99 2a 5f
        E 0 99 23 5f
        E 480 99 23 00
        E 0 99 2a 00
        E 0 99 2a 5f
        E 480 99 2a 00
        E 0 99 2a 5f
        E 0 99 27 5f
        E 0 99 28 5f
        E 480 99 27 00
        E 0 99 28 00
        E 0 99 2a 00
        E 0 99 2a 5f
        E 480 99 2a 00
        E 0 99 2a 5f
        E 0 99 23 5f
        E 480 99 23 00
        E 0 99 2a 00
        E 0 99 2a 5f
        E 480 99 2a 00
        E 0 99 2a 5f
        E 0 99 27 5f
        E 0 99 28 5f
        E 480 99 28 00
        E 0 99 2a 00
        E 0 99 27 00
        E 0 99 2a 5f
        E 240 99 2a 00
        E 0 99 2a 5f
        E 240 99 2a 00
        E 0 99 2a 5f
        E 0 99 23 5f
        E 480 99 23 00
        E 0 99 2a 00
        E 0 99 2a 5f
        E 480 99 2a 00
        E 0 99 2a 5f
        E 0 99 27 5f
        E 0 99 28 5f
        E 480 99 28 00
        E 0 99 2a 00
        E 0 99 27 00
        E 0 99 2a 5f
        E 480 99 2a 00
        E 0 99 2a 2f
        E 0 99 23 5f
        E 240 99 23 00
        E 0 99 2a 00
        E 0 99 2a 5f
        E 240 99 2a 00
        E 0 99 2a 5f
        E 480 99 2a 00
        E 0 99 2a 5f
        E 0 99 27 5f
        E 0 99 28 5f
        E 480 99 27 00
        E 0 99 28 00
        E 0 99 2a 00
        E 0 99 2e 5f
        E 480 99 2e 00
        E 0 99 2a 5f
        E 0 99 23 5f
        E 480 99 23 00
        E 0 99 2a 00
        E 0 99 2a 5f
        E 480 99 2a 00
        E 0 99 2a 5f
        E 0 99 27 5f
        E 0 99 28 5f
        E 480 99 28 00
        E 0 99 27 00
        E 0 99 2a 00
        E 0 99 2a 5f
        E 480 99 2a 00
        E 0 99 2a 5f
        E 0 99 23 5f
        E 480 99 2a 00
        E 0 99 23 00
        E 0 99 2a 5f
        E 480 99 2a 00
        E 0 99 2a 5f
        E 0 99 27 5f
        E 0 99 28 5f
        E 480 99 2a 00
        E 0 99 28 00
        E 0 99 27 00
        E 0 99 2a 5f
        E 240 99 2a 00
        E 0 99 2a 5f
        E 240 99 2a 00
        E 0 99 2a 5f
        E 0 99 23 5f
        E 480 99 23 00
        E 0 99 2a 00
        E 0 99 2a 5f
        E 480 99 2a 00
        E 0 99 2a 5f
        E 0 99 27 5f
        E 0 99 28 5f
        E 480 99 28 00
        E 0 99 27 00
        E 0 99 2a 00
        E 0 99 2a 5f
        E 480 99 2a 00
        E 0 99 2a 5f
        E 0 99 23 5f
        E 480 99 23 00
        E 0 99 2a 00
        E 0 99 2a 5f
        E 480 99 2a 00
        E 0 99 2a 5f
        E 0 99 27 5f
        E 0 99 28 5f
        E 480 99 27 00
        E 0 99 28 00
        E 0 99 2a 00
        E 0 99 2a 5f
        E 240 99 2a 00
        E 0 99 2a 5f
        E 240 99 2a 00
        E 0 99 2a 5f
        E 0 99 23 5f
        E 480 99 23 00
        E 0 99 2a 00
        E 0 99 2a 5f
        E 480 99 2a 00
        E 0 99 2a 5f
        E 0 99 27 5f
        E 0 99 28 5f
        E 480 99 27 00
        E 0 99 28 00
        E 0 99 2a 00
        E 0 99 2a 5f
        E 480 99 2a 00
        E 0 99 2a 5f
        E 0 99 23 5f
        E 480 99 23 00
        E 0 99 2a 00
        E 0 99 2a 5f
        E 480 99 2a 00
        E 0 99 2a 5f
        E 0 99 27 5f
        E 0 99 28 5f
        E 480 99 2a 00
        E 0 99 28 00
        E 0 99 27 00
        E 0 99 2a 5f
        E 240 99 2a 00
        E 0 99 2a 5f
        E 240 99 2a 00
        E 0 99 2a 5f
        E 0 99 23 5f
        E 480 99 23 00
        E 0 99 2a 00
        E 0 99 2a 5f
        E 480 99 2a 00
        E 0 99 2a 5f
        E 0 99 27 5f
        E 0 99 28 5f
        E 480 99 28 00
        E 0 99 2a 00
        E 0 99 27 00
        E 0 99 2a 5f
        E 480 99 2a 00
        E 0 99 2a 5f
        E 0 99 23 5f
        E 480 99 2a 00
        E 0 99 23 00
        E 0 99 2e 5f
        E 480 99 2e 00
        E 0 99 27 5f
        E 0 99 28 5f
        E 240 99 28 00
        E 0 99 27 00
        E 0 99 2a 5f
        E 240 99 2a 00
        E 0 99 2e 5f
        E 480 99 2e 00
        E 0 99 31 5f
        E 0 99 23 5f
        E 480 99 31 00
        E 0 99 23 00
        E 0 99 2a 5f
        E 480 99 2a 00
        E 0 99 2a 5f
        E 0 99 27 5f
        E 0 99 28 5f
        E 480 99 28 00
        E 0 99 2a 00
        E 0 99 27 00
        E 0 99 2a 5f
        E 480 99 2a 00
        E 0 99 2a 5f
        E 0 99 23 5f
        E 480 99 23 00
        E 0 99 2a 00
        E 0 99 2a 5f
        E 480 99 2a 00
        E 0 99 2a 5f
        E 0 99 27 5f
        E 0 99 28 5f
        E 480 99 28 00
        E 0 99 27 00
        E 0 99 2a 00
        E 0 99 2a 5f
        E 240 99 2a 00
        E 0 99 2a 5f
        E 240 99 2a 00
        E 0 99 2a 5f
        E 0 99 23 5f
        E 480 99 23 00
        E 0 99 2a 00
        E 0 99 2a 5f
        E 480 99 2a 00
        E 0 99 2a 5f
        E 0 99 27 5f
        E 0 99 28 5f
        E 480 99 28 00
        E 0 99 27 00
        E 0 99 2a 00
        E 0 99 2a 5f
        E 480 99 2a 00
        E 0 99 2a 5f
        E 0 99 23 5f
        E 480 99 2a 00
        E 0 99 23 00
        E 0 99 2a 5f
        E 480 99 2a 00
        E 0 99 2a 5f
        E 0 99 27 5f
        E 0 99 28 5f
        E 480 99 27 00
        E 0 99 28 00
        E 0 99 2a 00
        E 0 99 2a 5f
        E 240 99 2a 00
        E 0 99 2a 5f
        E 240 99 2a 00
        E 0 99 2a 5f
        E 0 99 23 5f
        E 480 99 2a 00
        E 0 99 23 00
        E 0 99 2a 5f
        E 480 99 2a 00
        E 0 99 2a 5f
        E 0 99 27 5f
        E 0 99 28 5f
        E 480 99 28 00
        E 0 99 27 00
        E 0 99 2a 00
        E 0 99 2a 5f
        E 480 99 2a 00
        E 0 99 2a 5f
        E 0 99 23 5f
        E 480 99 23 00
        E 0 99 2a 00
        E 0 99 2a 5f
        E 480 99 2a 00
        E 0 99 2a 5f
        E 0 99 27 5f
        E 0 99 28 5f
        E 480 99 28 00
        E 0 99 2a 00
        E 0 99 27 00
        E 0 99 2a 5f
        E 240 99 2a 00
        E 0 99 2a 5f
        E 240 99 2a 00
        E 0 99 2a 5f
        E 0 99 23 5f
        E 480 99 23 00
        E 0 99 2a 00
        E 0 99 2a 5f
        E 480 99 2a 00
        E 0 99 2a 5f
        E 0 99 27 5f
        E 0 99 28 5f
        E 480 99 28 00
        E 0 99 2a 00
        E 0 99 27 00
        E 0 99 2a 5f
        E 480 99 2a 00
        E 0 99 2a 2f
        E 0 99 23 5f
        E 240 99 23 00
        E 0 99 2a 00
        E 0 99 2a 5f
        E 240 99 2a 00
        E 0 99 2a 2f
        E 480 99 2a 00
        E 0 99 2a 5f
        E 0 99 27 5f
        E 0 99 28 5f
        E 480 99 27 00
        E 0 99 2a 00
        E 0 99 28 00
        E 0 99 2e 5f
        E 480 99 2e 00
        E 0 99 2a 5f
        E 0 99 23 5f
        E 480 99 2a 00
        E 0 99 23 00
        E 0 99 2a 5f
        E 480 99 2a 00
        E 0 99 2a 5f
        E 0 99 27 5f
        E 0 99 28 5f
        E 480 99 27 00
        E 0 99 28 00
        E 0 99 2a 00
        E 0 99 2a 5f
        E 480 99 2a 00
        E 0 99 2a 5f
        E 0 99 23 5f
        E 480 99 23 00
        E 0 99 2a 00
        E 0 99 2a 5f
        E 480 99 2a 00
        E 0 99 2a 5f
        E 0 99 27 5f
        E 0 99 28 5f
        E 480 99 28 00
        E 0 99 2a 00
        E 0 99 27 00
        E 0 99 2a 5f
        E 240 99 2a 00
        E 0 99 2a 5f
        E 240 99 2a 00
        E 0 99 2a 5f
        E 0 99 23 5f
        E 480 99 23 00
        E 0 99 2a 00
        E 0 99 2a 5f
        E 480 99 2a 00
        E 0 99 2a 5f
        E 0 99 27 5f
        E 0 99 28 5f
        E 480 99 28 00
        E 0 99 27 00
        E 0 99 2a 00
        E 0 99 2a 5f
        E 480 99 2a 00
        E 0 99 2a 5f
        E 0 99 23 5f
        E 480 99 2a 00
        E 0 99 23 00
        E 0 99 2a 5f
        E 480 99 2a 00
        E 0 99 2a 5f
        E 0 99 27 5f
        E 0 99 28 5f
        E 480 99 27 00
        E 0 99 2a 00
        E 0 99 28 00
        E 0 99 2a 5f
        E 240 99 2a 00
        E 0 99 2a 5f
        E 240 99 2a 00
        E 0 99 2a 5f
        E 0 99 23 5f
        E 480 99 2a 00
        E 0 99 23 00
        E 0 99 2a 5f
        E 480 99 2a 00
        E 0 99 2a 5f
        E 0 99 27 5f
        E 0 99 28 5f
        E 480 99 28 00
        E 0 99 27 00
        E 0 99 2a 00
        E 0 99 2a 5f
        E 480 99 2a 00
        E 0 99 2a 5f
        E 0 99 23 5f
        E 480 99 23 00
        E 0 99 2a 00
        E 0 99 2a 5f
        E 480 99 2a 00
        E 0 99 2a 5f
        E 0 99 27 5f
        E 0 99 28 5f
        E 480 99 28 00
        E 0 99 2a 00
        E 0 99 27 00
        E 0 99 2a 5f
        E 240 99 2a 00
        E 0 99 2a 5f
        E 240 99 2a 00
        E 0 99 2a 5f
        E 0 99 23 5f
        E 480 99 23 00
        E 0 99 2a 00
        E 0 99 2a 5f
        E 480 99 2a 00
        E 0 99 2a 5f
        E 0 99 27 5f
        E 0 99 28 5f
        E 480 99 28 00
        E 0 99 27 00
        E 0 99 2a 00
        E 0 99 2a 5f
        E 480 99 2a 00
        E 0 99 2a 5f
        E 0 99 23 5f
        E 480 99 23 00
        E 0 99 2a 00
        E 0 99 2e 5f
        E 480 99 2e 00
        E 0 99 27 5f
        E 0 99 28 5f
        E 240 99 28 00
        E 0 99 27 00
        E 0 99 2a 5f
        E 240 99 2a 00
        E 0 99 2e 5f
        E 480 99 2e 00
        E 0 99 31 5f
        E 0 99 23 5f
        E 480 99 23 00
        E 0 99 31 00
        E 0 99 2a 5f
        E 480 99 2a 00
        E 0 99 2a 5f
        E 0 99 27 5f
        E 0 99 28 5f
        E 480 99 2a 00
        E 0 99 28 00
        E 0 99 27 00
        E 0 99 2a 5f
        E 480 99 2a 00
        E 0 99 2a 5f
        E 0 99 23 5f
        E 480 99 23 00
        E 0 99 2a 00
        E 0 99 2a 5f
        E 480 99 2a 00
        E 0 99 2a 5f
        E 0 99 27 5f
        E 0 99 28 5f
        E 480 99 28 00
        E 0 99 27 00
        E 0 99 2a 00
        E 0 99 2a 5f
        E 240 99 2a 00
        E 0 99 2a 5f
        E 240 99 2a 00
        E 0 99 2a 5f
        E 0 99 23 5f
        E 480 99 23 00
        E 0 99 2a 00
        E 0 99 2a 5f
        E 480 99 2a 00
        E 0 99 2a 5f
        E 0 99 27 5f
        E 0 99 28 5f
        E 480 99 2a 00
        E 0 99 28 00
        E 0 99 27 00
        E 0 99 2a 5f
        E 480 99 2a 00
        E 0 99 2a 5f
        E 0 99 23 5f
        E 480 99 23 00
        E 0 99 2a 00
        E 0 99 2a 5f
        E 480 99 2a 00
        E 0 99 2a 5f
        E 0 99 27 5f
        E 0 99 28 5f
        E 480 99 2a 00
        E 0 99 27 00
        E 0 99 28 00
        E 0 99 2a 5f
        E 240 99 2a 00
        E 0 99 2a 5f
        E 240 99 2a 00
        E 0 99 2a 5f
        E 0 99 23 5f
        E 480 99 23 00
        E 0 99 2a 00
        E 0 99 2a 5f
        E 480 99 2a 00
        E 0 99 2a 5f
        E 0 99 27 5f
        E 0 99 28 5f
        E 480 99 27 00
        E 0 99 28 00
        E 0 99 2a 00
        E 0 99 2a 5f
        E 480 99 2a 00
        E 0 99 2a 5f
        E 0 99 23 5f
        E 480 99 23 00
        E 0 99 2a 00
        E 0 99 2a 5f
        E 480 99 2a 00
        E 0 99 2a 5f
        E 0 99 27 5f
        E 0 99 28 5f
        E 480 99 28 00
        E 0 99 27 00
        E 0 99 2a 00
        E 0 99 2a 5f
        E 240 99 2a 00
        E 0 99 2a 5f
        E 240 99 2a 00
        E 0 99 2a 5f
        E 0 99 23 5f
        E 480 99 23 00
        E 0 99 2a 00
        E 0 99 2a 5f
        E 480 99 2a 00
        E 0 99 2a 5f
        E 0 99 27 5f
        E 0 99 28 5f
        E 480 99 28 00
        E 0 99 2a 00
        E 0 99 27 00
        E 0 99 2a 5f
        E 480 99 2a 00
        E 0 99 2a 2f
        E 0 99 23 5f
        E 240 99 23 00
        E 0 99 2a 00
        E 0 99 2a 5f
        E 240 99 2a 00
        E 0 99 2a 2f
        E 480 99 2a 00
        E 0 99 2a 5f
        E 0 99 27 5f
        E 0 99 28 5f
        E 480 99 28 00
        E 0 99 2a 00
        E 0 99 27 00
        E 0 99 2e 5f
        E 480 99 2e 00
        E 0 99 2a 5f
        E 0 99 23 5f
        E 480 99 23 00
        E 0 99 2a 00
        E 0 99 2a 5f
        E 480 99 2a 00
        E 0 99 2a 5f
        E 0 99 27 5f
        E 0 99 28 5f
        E 480 99 2a 00
        E 0 99 28 00
        E 0 99 27 00
        E 0 99 2a 5f
        E 480 99 2a 00
        E 0 99 2a 5f
        E 0 99 23 5f
        E 480 99 23 00
        E 0 99 2a 00
        E 0 99 2a 5f
        E 480 99 2a 00
        E 0 99 2a 5f
        E 0 99 27 5f
        E 0 99 28 5f
        E 480 99 28 00
        E 0 99 27 00
        E 0 99 2a 00
        E 0 99 2a 5f
        E 240 99 2a 00
        E 0 99 2a 5f
        E 240 99 2a 00
        E 0 99 2a 5f
        E 0 99 23 5f
        E 480 99 23 00
        E 0 99 2a 00
        E 0 99 2a 5f
        E 480 99 2a 00
        E 0 99 2a 5f
        E 0 99 27 5f
        E 0 99 28 5f
        E 480 99 2a 00
        E 0 99 28 00
        E 0 99 27 00
        E 0 99 2a 5f
        E 480 99 2a 00
        E 0 99 2a 5f
        E 0 99 23 5f
        E 480 99 23 00
        E 0 99 2a 00
        E 0 99 2a 5f
        E 480 99 2a 00
        E 0 99 2a 5f
        E 0 99 27 5f
        E 0 99 28 5f
        E 480 99 2a 00
        E 0 99 27 00
        E 0 99 28 00
        E 0 99 2a 5f
        E 240 99 2a 00
        E 0 99 2a 5f
        E 240 99 2a 00
        E 0 99 2a 5f
        E 0 99 23 5f
        E 480 99 23 00
        E 0 99 2a 00
        E 0 99 2a 5f
        E 480 99 2a 00
        E 0 99 2a 5f
        E 0 99 27 5f
        E 0 99 28 5f
        E 480 99 27 00
        E 0 99 28 00
        E 0 99 2a 00
        E 0 99 2a 5f
        E 480 99 2a 00
        E 0 99 2a 5f
        E 0 99 23 5f
        E 480 99 23 00
        E 0 99 2a 00
        E 0 99 2a 5f
        E 480 99 2a 00
        E 0 99 2a 5f
        E 0 99 27 5f
        E 0 99 28 5f
        E 480 99 28 00
        E 0 99 27 00
        E 0 99 2a 00
        E 0 99 2a 5f
        E 240 99 2a 00
        E 0 99 2a 5f
        E 240 99 2a 00
        E 0 99 2a 5f
        E 0 99 23 5f
        E 480 99 23 00
        E 0 99 2a 00
        E 0 99 2a 5f
        E 480 99 2a 00
        E 0 99 2a 5f
        E 0 99 27 5f
        E 0 99 28 5f
        E 480 99 28 00
        E 0 99 2a 00
        E 0 99 27 00
        E 0 99 2a 5f
        E 480 99 2a 00
        E 0 99 2a 5f
        E 0 99 23 5f
        E 480 99 23 00
        E 0 99 2a 00
        E 0 99 2e 5f
        E 480 99 2e 00
        E 0 99 27 5f
        E 0 99 28 5f
        E 240 99 28 00
        E 0 99 27 00
        E 0 99 2a 5f
        E 240 99 2a 00
        E 0 99 2e 5f
        E 480 99 2e 00
        E 0 99 31 5f
        E 0 99 23 5f
        E 480 99 23 00
        E 0 99 31 00
        E 0 99 2a 5f
        E 480 99 2a 00
        E 0 99 2a 5f
        E 0 99 27 5f
        E 0 99 28 5f
        E 480 99 27 00
        E 0 99 2a 00
        E 0 99 28 00
        E 0 99 2a 5f
        E 480 99 2a 00
        E 0 99 2a 5f
        E 0 99 23 5f
        E 480 99 2a 00
        E 0 99 23 00
        E 0 99 2a 5f
        E 480 99 2a 00
        E 0 99 2a 5f
        E 0 99 27 5f
        E 0 99 28 5f
        E 480 99 28 00
        E 0 99 27 00
        E 0 99 2a 00
        E 0 99 2a 5f
        E 240 99 2a 00
        E 0 99 2a 5f
        E 240 99 2a 00
        E 0 99 2a 5f
        E 0 99 23 5f
        E 480 99 23 00
        E 0 99 2a 00
        E 0 99 2a 5f
        E 480 99 2a 00
        E 0 99 2a 5f
        E 0 99 27 5f
        E 0 99 28 5f
        E 480 99 28 00
        E 0 99 2a 00
        E 0 99 27 00
        E 0 99 2a 5f
        E 480 99 2a 00
        E 0 99 2a 5f
        E 0 99 23 5f
        E 480 99 23 00
        E 0 99 2a 00
        E 0 99 2a 5f
        E 480 99 2a 00
        E 0 99 2a 5f
        E 0 99 27 5f
        E 0 99 28 5f
        E 480 99 27 00
        E 0 99 2a 00
        E 0 99 28 00
        E 0 99 2a 5f
        E 240 99 2a 00
        E 0 99 2a 5f
        E 240 99 2a 00
        E 0 99 2a 5f
        E 0 99 23 5f
        E 480 99 23 00
        E 0 99 2a 00
        E 0 99 2a 5f
        E 480 99 2a 00
        E 0 99 2a 5f
        E 0 99 27 5f
        E 0 99 28 5f
        E 480 99 28 00
        E 0 99 2a 00
        E 0 99 27 00
        E 0 99 2a 5f
        E 480 99 2a 00
        E 0 99 2a 5f
        E 0 99 23 5f
        E 480 99 23 00
        E 0 99 2a 00
        E 0 99 2a 5f
        E 480 99 2a 00
        E 0 99 2a 5f
        E 0 99 27 5f
        E 0 99 28 5f
        E 480 99 2a 00
        E 0 99 27 00
        E 0 99 28 00
        E 0 99 2a 5f
        E 240 99 2a 00
        E 0 99 2a 5f
        E 240 99 2a 00
        E 0 99 2a 5f
        E 0 99 23 5f
        E 480 99 23 00
        E 0 99 2a 00
        E 0 99 2a 5f
        E 480 99 2a 00
        E 0 99 2a 5f
        E 0 99 27 5f
        E 0 99 28 5f
        E 480 99 27 00
        E 0 99 28 00
        E 0 99 2a 00
        E 0 99 2a 5f
        E 480 99 2a 00
        E 0 99 2a 2f
        E 0 99 23 5f
        E 240 99 23 00
        E 0 99 2a 00
        E 0 99 2a 5f
        E 240 99 2a 00
        E 0 99 2a 2f
        E 480 99 2a 00
        E 0 99 2a 5f
        E 0 99 27 5f
        E 0 99 28 5f
        E 480 99 28 00
        E 0 99 2a 00
        E 0 99 27 00
        E 0 99 2e 5f
        E 480 99 2e 00
        E 0 99 2a 5f
        E 0 99 23 5f
        E 480 99 23 00
        E 0 99 2a 00
        E 0 99 2a 5f
        E 480 99 2a 00
        E 0 99 2a 5f
        E 0 99 27 5f
        E 0 99 28 5f
        E 480 99 27 00
        E 0 99 2a 00
        E 0 99 28 00
        E 0 99 2a 5f
        E 480 99 2a 00
        E 0 99 2a 5f
        E 0 99 23 5f
        E 480 99 2a 00
        E 0 99 23 00
        E 0 99 2a 5f
        E 480 99 2a 00
        E 0 99 2a 5f
        E 0 99 27 5f
        E 0 99 28 5f
        E 480 99 27 00
        E 0 99 2a 00
        E 0 99 28 00
        E 0 99 2a 5f
        E 240 99 2a 00
        E 0 99 2a 5f
        E 240 99 2a 00
        E 0 99 2a 5f
        E 0 99 23 5f
        E 480 99 23 00
        E 0 99 2a 00
        E 0 99 2a 5f
        E 480 99 2a 00
        E 0 99 2a 5f
        E 0 99 27 5f
        E 0 99 28 5f
        E 480 99 28 00
        E 0 99 2a 00
        E 0 99 27 00
        E 0 99 2a 5f
        E 480 99 2a 00
        E 0 99 2a 5f
        E 0 99 23 5f
        E 480 99 23 00
        E 0 99 2a 00
        E 0 99 2a 5f
        E 480 99 2a 00
        E 0 99 2a 5f
        E 0 99 27 5f
        E 0 99 28 5f
        E 480 99 27 00
        E 0 99 2a 00
        E 0 99 28 00
        E 0 99 2a 5f
        E 240 99 2a 00
        E 0 99 2a 5f
        E 240 99 2a 00
        E 0 99 2a 5f
        E 0 99 23 5f
        E 480 99 23 00
        E 0 99 2a 00
        E 0 99 2a 5f
        E 480 99 2a 00
        E 0 99 2a 5f
        E 0 99 27 5f
        E 0 99 28 5f
        E 480 99 27 00
        E 0 99 28 00
        E 0 99 2a 00
        E 0 99 2a 5f
        E 480 99 2a 00
        E 0 99 2a 5f
        E 0 99 23 5f
        E 480 99 23 00
        E 0 99 2a 00
        E 0 99 2a 5f
        E 480 99 2a 00
        E 0 99 2a 5f
        E 0 99 27 5f
        E 0 99 28 5f
        E 480 99 28 00
        E 0 99 27 00
        E 0 99 2a 00
        E 0 99 2a 5f
        E 240 99 2a 00
        E 0 99 2a 5f
        E 240 99 2a 00
        E 0 99 2a 5f
        E 0 99 23 5f
        E 480 99 23 00
        E 0 99 2a 00
        E 0 99 2a 5f
        E 480 99 2a 00
        E 0 99 2a 5f
        E 0 99 27 5f
        E 0 99 28 5f
        E 480 99 2a 00
        E 0 99 27 00
        E 0 99 28 00
        E 0 99 2a 5f
        E 480 99 2a 00
        E 0 99 2a 5f
        E 0 99 23 5f
        E 480 99 23 00
        E 0 99 2a 00
        E 0 99 2e 5f
        E 480 99 2e 00
        E 0 99 27 5f
        E 0 99 28 5f
        E 240 99 28 00
        E 0 99 27 00
        E 0 99 2a 5f
        E 240 99 2a 00
        E 0 99 2e 5f
        E 480 99 2e 00
        E 0 99 31 5f
        E 0 99 23 5f
        E 480 99 23 00
        E 0 99 31 00
        E 0 99 2a 5f
        E 480 99 2a 00
        E 0 99 2a 5f
        E 0 99 27 5f
        E 0 99 28 5f
        E 480 99 27 00
        E 0 99 28 00
        E 0 99 2a 00
        E 0 99 2a 5f
        E 480 99 2a 00
        E 0 99 2a 5f
        E 0 99 23 5f
        E 480 99 2a 00
        E 0 99 23 00
        E 0 99 2a 5f
        E 480 99 2a 00
        E 0 99 2a 5f
        E 0 99 27 5f
        E 0 99 28 5f
        E 480 99 28 00
        E 0 99 2a 00
        E 0 99 27 00
        E 0 99 2a 5f
        E 240 99 2a 00
        E 0 99 2a 5f
        E 240 99 2a 00
        E 0 99 2a 5f
        E 0 99 23 5f
        E 480 99 23 00
        E 0 99 2a 00
        E 0 99 2a 5f
        E 480 99 2a 00
        E 0 99 2a 5f
        E 0 99 27 5f
        E 0 99 28 5f
        E 480 99 27 00
        E 0 99 28 00
        E 0 99 2a 00
        E 0 99 2a 5f
        E 480 99 2a 00
        E 0 99 2a 5f
        E 0 99 23 5f
        E 480 99 2a 00
        E 0 99 23 00
        E 0 99 2a 5f
        E 480 99 2a 00
        E 0 99 2a 5f
        E 0 99 27 5f
        E 0 99 28 5f
        E 480 99 28 00
        E 0 99 2a 00
        E 0 99 27 00
        E 0 99 2a 5f
        E 240 99 2a 00
        E 0 99 2a 5f
        E 240 99 2a 00
        E 0 99 2a 5f
        E 0 99 23 5f
        E 480 99 23 00
        E 0 99 2a 00
        E 0 99 2a 5f
        E 480 99 2a 00
        E 0 99 2a 5f
        E 0 99 27 5f
        E 0 99 28 5f
        E 480 99 27 00
        E 0 99 28 00
        E 0 99 2a 00
        E 0 99 2a 5f
        E 480 99 2a 00
        E 0 99 2a 5f
        E 0 99 23 5f
        E 480 99 2a 00
        E 0 99 23 00
        E 0 99 2a 5f
        E 480 99 2a 00
        E 0 99 2a 5f
        E 0 99 27 5f
        E 0 99 28 5f
        E 480 99 27 00
        E 0 99 2a 00
        E 0 99 28 00
        E 0 99 2a 5f
        E 240 99 2a 00
        E 0 99 2a 5f
        E 240 99 2a 00
        E 0 99 2a 5f
        E 0 99 23 5f
        E 480 99 23 00
        E 0 99 2a 00
        E 0 99 2a 5f
        E 480 99 2a 00
        E 0 99 2a 5f
        E 0 99 27 5f
        E 0 99 28 5f
        E 480 99 27 00
        E 0 99 28 00
        E 0 99 2a 00
        E 0 99 2a 5f
        E 480 99 2a 00
        E 0 99 2a 2f
        E 0 99 23 5f
        E 240 99 23 00
        E 0 99 2a 00
        E 0 99 2a 5f
        E 240 99 2a 00
        E 0 99 2a 2f
        E 480 99 2a 00
        E 0 99 2a 5f
        E 0 99 27 5f
        E 0 99 28 5f
        E 480 99 28 00
        E 0 99 2a 00
        E 0 99 27 00
        E 0 99 2e 5f
        E 480 99 2e 00
        E 0 99 2a 5f
        E 0 99 23 5f
        E 480 99 23 00
        E 0 99 2a 00
        E 0 99 2a 5f
        E 480 99 2a 00
        E 0 99 2a 5f
        E 0 99 27 5f
        E 0 99 28 5f
        E 480 99 28 00
        E 0 99 27 00
        E 0 99 2a 00
        E 0 99 2a 5f
        E 480 99 2a 00
        E 0 99 2a 5f
        E 0 99 23 5f
        E 480 99 2a 00
        E 0 99 23 00
        E 0 99 2a 5f
        E 480 99 2a 00
        E 0 99 2a 5f
        E 0 99 27 5f
        E 0 99 28 5f
        E 480 99 2a 00
        E 0 99 28 00
        E 0 99 27 00
        E 0 99 2a 5f
        E 240 99 2a 00
        E 0 99 2a 5f
        E 240 99 2a 00
        E 0 99 2a 5f
        E 0 99 23 5f
        E 480 99 23 00
        E 0 99 2a 00
        E 0 99 2a 5f
        E 480 99 2a 00
        E 0 99 2a 5f
        E 0 99 27 5f
        E 0 99 28 5f
        E 480 99 28 00
        E 0 99 27 00
        E 0 99 2a 00
        E 0 99 2a 5f
        E 480 99 2a 00
        E 0 99 2a 5f
        E 0 99 23 5f
        E 480 99 23 00
        E 0 99 2a 00
        E 0 99 2a 5f
        E 480 99 2a 00
        E 0 99 2a 5f
        E 0 99 27 5f
        E 0 99 28 5f
        E 480 99 27 00
        E 0 99 28 00
        E 0 99 2a 00
        E 0 99 2a 5f
        E 240 99 2a 00
        E 0 99 2a 5f
        E 240 99 2a 00
        E 0 99 2a 5f
        E 0 99 23 5f
        E 480 99 23 00
        E 0 99 2a 00
        E 0 99 2a 5f
        E 480 99 2a 00
        E 0 99 2a 5f
        E 0 99 27 5f
        E 0 99 28 5f
        E 480 99 27 00
        E 0 99 28 00
        E 0 99 2a 00
        E 0 99 2a 5f
        E 480 99 2a 00
        E 0 99 2a 5f
        E 0 99 23 5f
        E 480 99 23 00
        E 0 99 2a 00
        E 0 99 2a 5f
        E 480 99 2a 00
        E 0 99 2a 5f
        E 0 99 27 5f
        E 0 99 28 5f
        E 480 99 2a 00
        E 0 99 28 00
        E 0 99 27 00
        E 0 99 2a 5f
        E 240 99 2a 00
        E 0 99 2a 5f
        E 240 99 2a 00
        E 0 99 2a 5f
        E 0 99 23 5f
        E 480 99 23 00
        E 0 99 2a 00
        E 0 99 2a 5f
        E 480 99 2a 00
        E 0 99 2a 5f
        E 0 99 27 5f
        E 0 99 28 5f
        E 480 99 28 00
        E 0 99 2a 00
        E 0 99 27 00
        E 0 99 2a 5f
        E 480 99 2a 00
        E 0 99 2a 5f
        E 0 99 23 5f
        E 480 99 2a 00
        E 0 99 23 00
        E 0 99 2e 5f
        E 480 99 2e 00
        E 0 99 27 5f
        E 0 99 28 5f
        E 240 99 28 00
        E 0 99 27 00
        E 0 99 2a 5f
        E 240 99 2a 00
        E 0 99 2e 5f
        E 480 99 2e 00
        E 0 99 31 5f
        E 0 99 23 5f
        E 480 99 31 00
        E 0 99 23 00
        E 0 99 2a 5f
        E 480 99 2a 00
        E 0 99 2a 5f
        E 0 99 27 5f
        E 0 99 28 5f
        E 480 99 28 00
        E 0 99 2a 00
        E 0 99 27 00
        E 0 99 2a 5f
        E 480 99 2a 00
        E 0 99 2a 5f
        E 0 99 23 5f
        E 480 99 23 00
        E 0 99 2a 00
        E 0 99 2a 5f
        E 480 99 2a 00
        E 0 99 2a 5f
        E 0 99 27 5f
        E 0 99 28 5f
        E 480 99 28 00
        E 0 99 27 00
        E 0 99 2a 00
        E 0 99 2a 5f
        E 240 99 2a 00
        E 0 99 2a 5f
        E 240 99 2a 00
        E 0 99 2a 5f
        E 0 99 23 5f
        E 480 99 23 00
        E 0 99 2a 00
        E 0 99 2a 5f
        E 480 99 2a 00
        E 0 99 2a 5f
        E 0 99 27 5f
        E 0 99 28 5f
        E 480 99 28 00
        E 0 99 27 00
        E 0 99 2a 00
        E 0 99 2a 5f
        E 480 99 2a 00
        E 0 99 2a 5f
        E 0 99 23 5f
        E 480 99 2a 00
        E 0 99 23 00
        E 0 99 2a 5f
        E 480 99 2a 00
        E 0 99 2a 5f
        E 0 99 27 5f
        E 0 99 28 5f
        E 480 99 28 00
        E 0 99 27 00
        E 0 99 2a 00
        E 0 99 2a 5f
        E 240 99 2a 00
        E 0 99 2a 5f
        E 240 99 2a 00
        E 0 99 2a 5f
        E 0 99 23 5f
        E 480 99 2a 00
        E 0 99 23 00
        E 0 99 2a 5f
        E 480 99 2a 00
        E 0 99 2a 5f
        E 0 99 27 5f
        E 0 99 28 5f
        E 480 99 28 00
        E 0 99 27 00
        E 0 99 2a 00
        E 0 99 2a 5f
        E 480 99 2a 00
        E 0 99 2a 5f
        E 0 99 23 5f
        E 480 99 23 00
        E 0 99 2a 00
        E 0 99 2a 5f
        E 480 99 2a 00
        E 0 99 2a 5f
        E 0 99 27 5f
        E 0 99 28 5f
        E 480 99 28 00
        E 0 99 2a 00
        E 0 99 27 00
        E 0 99 2a 5f
        E 240 99 2a 00
        E 0 99 2a 5f
        E 240 99 2a 00
        E 0 99 2a 5f
        E 0 99 23 5f
        E 480 99 23 00
        E 0 99 2a 00
        E 0 99 2a 5f
        E 480 99 2a 00
        E 0 99 2a 5f
        E 0 99 27 5f
        E 0 99 28 5f
        E 480 99 28 00
        E 0 99 2a 00
        E 0 99 27 00
        E 0 99 2a 5f
        E 480 99 2a 00
        E 0 99 2a 2f
        E 0 99 23 5f
        E 240 99 23 00
        E 0 99 2a 00
        E 0 99 2a 5f
        E 240 99 2a 00
        E 0 99 2a 2f
        E 480 99 2a 00
        E 0 99 2a 5f
        E 0 99 27 5f
        E 0 99 28 5f
        E 480 99 27 00
        E 0 99 2a 00
        E 0 99 28 00
        E 0 99 2e 5f
        E 480 99 2e 00
        E 0 99 2a 5f
        E 0 99 23 5f
        E 480 99 2a 00
        E 0 99 23 00
        E 0 99 2a 5f
        E 480 99 2a 00
        E 0 99 2a 5f
        E 0 99 27 5f
        E 0 99 28 5f
        E 480 99 27 00
        E 0 99 28 00
        E 0 99 2a 00
        E 0 99 2a 5f
        E 480 99 2a 00
        E 0 99 2a 5f
        E 0 99 23 5f
        E 480 99 23 00
        E 0 99 2a 00
        E 0 99 2a 5f
        E 480 99 2a 00
        E 0 99 2a 5f
        E 0 99 27 5f
        E 0 99 28 5f
        E 480 99 28 00
        E 0 99 2a 00
        E 0 99 27 00
        E 0 99 2a 5f
        E 240 99 2a 00
        E 0 99 2a 5f
        E 240 99 2a 00
        E 0 99 2a 5f
        E 0 99 23 5f
        E 480 99 23 00
        E 0 99 2a 00
        E 0 99 2a 5f
        E 480 99 2a 00
        E 0 99 2a 5f
        E 0 99 27 5f
        E 0 99 28 5f
        E 480 99 28 00
        E 0 99 27 00
        E 0 99 2a 00
        E 0 99 2a 5f
        E 480 99 2a 00
        E 0 99 2a 5f
        E 0 99 23 5f
        E 480 99 2a 00
        E 0 99 23 00
        E 0 99 2a 5f
        E 480 99 2a 00
        E 0 99 2a 5f
        E 0 99 27 5f
        E 0 99 28 5f
        E 480 99 27 00
        E 0 99 2a 00
        E 0 99 28 00
        E 0 99 2a 5f
        E 240 99 2a 00
        E 0 99 2a 5f
        E 240 99 2a 00
        E 0 99 2a 5f
        E 0 99 23 5f
        E 480 99 2a 00
        E 0 99 23 00
        E 0 99 2a 5f
        E 480 99 2a 00
        E 0 99 2a 5f
        E 0 99 27 5f
        E 0 99 28 5f
        E 480 99 28 00
        E 0 99 27 00
        E 0 99 2a 00
        E 0 99 2a 5f
        E 480 99 2a 00
        E 0 99 2a 5f
        E 0 99 23 5f
        E 480 99 23 00
        E 0 99 2a 00
        E 0 99 2a 5f
        E 480 99 2a 00
        E 0 99 2a 5f
        E 0 99 27 5f
        E 0 99 28 5f
        E 480 99 28 00
        E 0 99 2a 00
        E 0 99 27 00
        E 0 99 2a 5f
        E 240 99 2a 00
        E 0 99 2a 5f
        E 240 99 2a 00
        E 0 99 2a 5f
        E 0 99 23 5f
        E 480 99 23 00
        E 0 99 2a 00
        E 0 99 2a 5f
        E 480 99 2a 00
        E 0 99 2a 5f
        E 0 99 27 5f
        E 0 99 28 5f
        E 480 99 28 00
        E 0 99 27 00
        E 0 99 2a 00
        E 0 99 2a 5f
        E 480 99 2a 00
        E 0 99 2a 5f
        E 0 99 23 5f
        E 480 99 23 00
        E 0 99 2a 00
        E 0 99 2e 5f
        E 480 99 2e 00
        E 0 99 27 5f
        E 0 99 28 5f
        E 240 99 28 00
        E 0 99 27 00
        E 0 99 2a 5f
        E 240 99 2a 00
        E 0 99 2e 5f
        E 480 99 2e 00
        E 0 99 31 5f
        E 0 99 23 5f
        E 480 99 23 00
        E 0 99 31 00
        E 0 99 2a 5f
        E 480 99 2a 00
        E 0 99 2a 5f
        E 0 99 27 5f
        E 0 99 28 5f
        E 480 99 2a 00
        E 0 99 28 00
        E 0 99 27 00
        E 0 99 2a 5f
        E 480 99 2a 00
        E 0 99 2a 5f
        E 0 99 23 5f
        E 480 99 23 00
        E 0 99 2a 00
        E 0 99 2a 5f
        E 480 99 2a 00
        E 0 99 2a 5f
        E 0 99 27 5f
        E 0 99 28 5f
        E 480 99 28 00
        E 0 99 27 00
        E 0 99 2a 00
        E 0 99 2a 5f
        E 240 99 2a 00
        E 0 99 2a 5f
        E 240 99 2a 00
        E 0 99 2a 5f
        E 0 99 23 5f
        E 480 99 23 00
        E 0 99 2a 00
        E 0 99 2a 5f
        E 480 99 2a 00
        E 0 99 2a 5f
        E 0 99 27 5f
        E 0 99 28 5f
        E 480 99 2a 00
        E 0 99 28 00
        E 0 99 27 00
        E 0 99 2a 5f
        E 480 99 2a 00
        E 0 99 2a 5f
        E 0 99 23 5f
        E 480 99 23 00
        E 0 99 2a 00
        E 0 99 2a 5f
        E 480 99 2a 00
        E 0 99 2a 5f
        E 0 99 27 5f
        E 0 99 28 5f
        E 480 99 2a 00
        E 0 99 27 00
        E 0 99 28 00
        E 0 99 2a 5f
        E 240 99 2a 00
        E 0 99 2a 5f
        E 240 99 2a 00
        E 0 99 2a 5f
        E 0 99 23 5f
        E 480 99 23 00
        E 0 99 2a 00
        E 0 99 2a 5f
        E 480 99 2a 00
        E 0 99 2a 5f
        E 0 99 27 5f
        E 0 99 28 5f
        E 480 99 27 00
        E 0 99 28 00
        E 0 99 2a 00
        E 0 99 2a 5f
        E 480 99 2a 00
        E 0 99 2a 5f
        E 0 99 23 5f
        E 480 99 23 00
        E 0 99 2a 00
        E 0 99 2a 5f
        E 480 99 2a 00
        E 0 99 2a 5f
        E 0 99 27 5f
        E 0 99 28 5f
        E 480 99 28 00
        E 0 99 27 00
        E 0 99 2a 00
        E 0 99 2a 5f
        E 240 99 2a 00
        E 0 99 2a 5f
        E 240 99 2a 00
        E 0 99 2a 5f
        E 0 99 23 5f
        E 480 99 23 00
        E 0 99 2a 00
        E 0 99 2a 5f
        E 480 99 2a 00
        E 0 99 2a 5f
        E 0 99 27 5f
        E 0 99 28 5f
        E 480 99 28 00
        E 0 99 2a 00
        E 0 99 27 00
        E 0 99 2a 5f
        E 480 99 2a 00
        E 0 99 2a 2f
        E 0 99 23 5f
        E 240 99 23 00
        E 0 99 2a 00
        E 0 99 2a 5f
        E 240 99 2a 00
        E 0 99 2a 2f
        E 480 99 2a 00
        E 0 99 2a 5f
        E 0 99 27 5f
        E 0 99 28 5f
        E 480 99 28 00
        E 0 99 2a 00
        E 0 99 27 00
        E 0 99 2e 5f
        E 480 99 2e 00
        E 0 99 2a 5f
        E 0 99 23 5f
        E 480 99 23 00
        E 0 99 2a 00
        E 0 99 2a 5f
        E 480 99 2a 00
        E 0 99 2a 5f
        E 0 99 27 5f
        E 0 99 28 5f
        E 480 99 2a 00
        E 0 99 28 00
        E 0 99 27 00
        E 0 99 2a 5f
        E 480 99 2a 00
        E 0 99 2a 5f
        E 0 99 23 5f
        E 480 99 23 00
        E 0 99 2a 00
        E 0 99 2a 5f
        E 480 99 2a 00
        E 0 99 2a 5f
        E 0 99 27 5f
        E 0 99 28 5f
        E 480 99 28 00
        E 0 99 27 00
        E 0 99 2a 00
        E 0 99 2a 5f
        E 240 99 2a 00
        E 0 99 2a 5f
        E 240 99 2a 00
        E 0 99 2a 5f
        E 0 99 23 5f
        E 480 99 23 00
        E 0 99 2a 00
        E 0 99 2a 5f
        E 480 99 2a 00
        E 0 99 2a 5f
        E 0 99 27 5f
        E 0 99 28 5f
        E 480 99 2a 00
        E 0 99 28 00
        E 0 99 27 00
        E 0 99 2a 5f
        E 480 99 2a 00
        E 0 99 2a 5f
        E 0 99 23 5f
        E 480 99 23 00
        E 0 99 2a 00
        E 0 99 2a 5f
        E 480 99 2a 00
        E 0 99 2a 5f
        E 0 99 27 5f
        E 0 99 28 5f
        E 480 99 2a 00
        E 0 99 27 00
        E 0 99 28 00
        E 0 99 2a 5f
        E 240 99 2a 00
        E 0 99 2a 5f
        E 240 99 2a 00
        E 0 99 2a 5f
        E 0 99 23 5f
        E 480 99 23 00
        E 0 99 2a 00
        E 0 99 2a 5f
        E 480 99 2a 00
        E 0 99 2a 5f
        E 0 99 27 5f
        E 0 99 28 5f
        E 480 99 27 00
        E 0 99 28 00
        E 0 99 2a 00
        E 0 99 2a 5f
        E 480 99 2a 00
        E 0 99 2a 5f
        E 0 99 23 5f
        E 480 99 23 00
        E 0 99 2a 00
        E 0 99 2a 5f
        E 480 99 2a 00
        E 0 99 2a 5f
        E 0 99 27 5f
        E 0 99 28 5f
        E 480 99 28 00
        E 0 99 27 00
        E 0 99 2a 00
        E 0 99 2a 5f
        E 240 99 2a 00
        E 0 99 2a 5f
        E 240 99 2a 00
        E 0 99 2a 5f
        E 0 99 23 5f
        E 480 99 23 00
        E 0 99 2a 00
        E 0 99 2a 5f
        E 480 99 2a 00
        E 0 99 2a 5f
        E 0 99 27 5f
        E 0 99 28 5f
        E 480 99 28 00
        E 0 99 2a 00
        E 0 99 27 00
        E 0 99 2a 5f
        E 480 99 2a 00
        E 0 99 2a 5f
        E 0 99 23 5f
        E 480 99 23 00
        E 0 99 2a 00
        E 0 99 2e 5f
        E 480 99 2e 00
        E 0 99 27 5f
        E 0 99 28 5f
        E 240 99 28 00
        E 0 99 27 00
        E 0 99 2a 5f
        E 240 99 2a 00
        E 0 99 2e 5f
        E 480 99 2e 00
        E 0 99 31 5f
        E 0 99 23 5f
        E 480 99 23 00
        E 0 99 31 00
        E 0 99 2a 5f
        E 480 99 2a 00
        E 0 99 2a 5f
        E 0 99 27 5f
        E 0 99 28 5f
        E 480 99 27 00
        E 0 99 2a 00
        E 0 99 28 00
        E 0 99 2a 5f
        E 480 99 2a 00
        E 0 99 2a 5f
        E 0 99 23 5f
        E 480 99 2a 00
        E 0 99 23 00
        E 0 99 2a 5f
        E 480 99 2a 00
        E 0 99 2a 5f
        E 0 99 27 5f
        E 0 99 28 5f
        E 480 99 27 00
        E 0 99 28 00
        E 0 99 2a 00
        E 0 99 2a 5f
        E 240 99 2a 00
        E 0 99 2a 5f
        E 240 99 2a 00
        E 0 99 2a 5f
        E 0 99 23 5f
        E 480 99 23 00
        E 0 99 2a 00
        E 0 99 2a 5f
        E 480 99 2a 00
        E 0 99 2a 5f
        E 0 99 27 5f
        E 0 99 28 5f
        E 480 99 28 00
        E 0 99 2a 00
        E 0 99 27 00
        E 0 99 2a 5f
        E 480 99 2a 00
        E 0 99 2a 5f
        E 0 99 23 5f
        E 480 99 23 00
        E 0 99 2a 00
        E 0 99 2a 5f
        E 480 99 2a 00
        E 0 99 2a 5f
        E 0 99 27 5f
        E 0 99 28 5f
        E 480 99 2a 00
        E 0 99 27 00
        E 0 99 28 00
        E 0 99 2a 5f
        E 240 99 2a 00
        E 0 99 2a 5f
        E 240 99 2a 00
        E 0 99 2a 5f
        E 0 99 23 5f
        E 480 99 23 00
        E 0 99 2a 00
        E 0 99 2a 5f
        E 480 99 2a 00
        E 0 99 2a 5f
        E 0 99 27 5f
        E 0 99 28 5f
        E 480 99 27 00
        E 0 99 28 00
        E 0 99 2a 00
        E 0 99 2a 5f
        E 480 99 2a 00
        E 0 99 2a 5f
        E 0 99 23 5f
        E 480 99 2a 00
        E 0 99 23 00
        E 0 99 2a 5f
        E 480 99 2a 00
        E 0 99 2a 5f
        E 0 99 27 5f
        E 0 99 28 5f
        E 480 99 28 00
        E 0 99 27 00
        E 0 99 2a 00
        E 0 99 2a 5f
        E 240 99 2a 00
        E 0 99 2a 5f
        E 240 99 2a 00
        E 0 99 2a 5f
        E 0 99 23 5f
        E 480 99 23 00
        E 0 99 2a 00
        E 0 99 2a 5f
        E 480 99 2a 00
        E 0 99 2a 5f
        E 0 99 27 5f
        E 0 99 28 5f
        E 480 99 2a 00
        E 0 99 27 00
        E 0 99 28 00
        E 0 99 2a 5f
        E 480 99 2a 00
        E 0 99 2a 2f
        E 0 99 23 5f
        E 240 99 23 00
        E 0 99 2a 00
        E 0 99 2a 5f
        E 240 99 2a 00
        E 0 99 2a 2f
        E 480 99 2a 00
        E 0 99 2a 5f
        E 0 99 27 5f
        E 0 99 28 5f
        E 480 99 28 00
        E 0 99 2a 00
        E 0 99 27 00
        E 0 99 2e 5f
        E 480 99 2e 00
        E 960 99 27 5f
        E 960 99 27 00
        E 960 99 27 5f
        E 960 99 27 00
        E 960 99 27 5f
        E 960 99 27 00
        E 960 99 27 5f
        E 960 99 27 00
        E 960 99 27 5f
        E 960 99 27 00
        E 960 99 27 5f
        E 960 99 27 00
        E 960 99 27 5f
        E 960 99 27 00
        E 960 99 27 5f
        E 960 99 27 00
        E 960 99 27 5f
        E 960 99 27 00
        E 960 99 27 5f
        E 960 99 27 00
        E 960 99 27 5f
        E 960 99 27 00
        E 960 99 27 5f
        E 960 99 27 00
        E 960 99 27 5f
        E 960 99 27 00
        E 960 99 27 5f
        E 960 99 27 00
        E 960 99 27 5f
        E 960 99 27 00
        E 0 99 2a 5f
        E 240 99 2a 00
        E 0 99 2a 2f
        E 240 99 2a 00
        E 0 99 2e 5f
        E 480 99 2e 00
        E 0 99 2a 5f
        E 0 99 27 5f
        E 0 99 28 5f
        E 240 99 28 00
        E 0 99 27 00
        E 0 99 2a 00
        E 0 99 2a 5f
        E 240 99 2a 00
        E 0 99 2e 5f
        E 480 99 2e 00
        E 0 99 31 5f
        E 0 99 2e 5f
        E 0 99 23 5f
        E 240 99 2e 00
        E 0 99 31 00
        E 0 99 23 00
        E 0 99 2a 5f
        E 240 99 2a 00
        E 0 99 2a 5f
        E 240 99 2a 00
        E 0 99 2a 5f
        E 240 99 2a 00
        E 0 99 2e 5f
        E 0 99 27 5f
        E 0 99 28 5f
        E 240 99 28 00
        E 0 99 2e 00
        E 0 99 27 00
        E 0 99 2a 5f
        E 240 99 2a 00
        E 0 99 2a 5f
        E 240 99 2a 00
        E 0 99 2a 5f
        E 240 99 2a 00
        E 0 99 2e 5f
        E 0 99 23 5f
        E 240 99 23 00
        E 0 99 2e 00
        E 0 99 2a 5f
        E 240 99 2a 00
        E 0 99 2a 5f
        E 240 99 2a 00
        E 0 99 2a 5f
        E 240 99 2a 00
        E 0 99 2e 5f
        E 0 99 27 5f
        E 0 99 28 5f
        E 240 99 28 00
        E 0 99 27 00
        E 0 99 2e 00
        E 0 99 2a 5f
        E 240 99 2a 00
        E 0 99 2a 5f
        E 240 99 2a 00
        E 0 99 2a 5f
        E 240 99 2a 00
        E 0 99 2e 5f
        E 0 99 23 5f
        E 240 99 2e 00
        E 0 99 23 00
        E 0 99 2a 5f
        E 240 99 2a 00
        E 0 99 2a 5f
        E 240 99 2a 00
        E 0 99 2a 5f
        E 240 99 2a 00
        E 0 99 2e 5f
        E 0 99 27 5f
        E 0 99 28 5f
        E 240 99 28 00
        E 0 99 2e 00
        E 0 99 27 00
        E 0 99 2a 5f
        E 240 99 2a 00
        E 0 99 2a 5f
        E 240 99 2a 00
        E 0 99 2a 5f
        E 240 99 2a 00
        E 0 99 2e 5f
        E 0 99 23 5f
        E 240 99 23 00
        E 0 99 2e 00
        E 0 99 2a 5f
        E 240 99 2a 00
        E 0 99 2a 5f
        E 240 99 2a 00
        E 0 99 2a 5f
        E 240 99 2a 00
        E 0 99 2e 5f
        E 0 99 27 5f
        E 0 99 28 5f
        E 240 99 27 00
        E 0 99 2e 00
        E 0 99 28 00
        E 0 99 2a 5f
        E 240 99 2a 00
        E 0 99 2a 5f
        E 240 99 2a 00
        E 0 99 2a 5f
        E 240 99 2a 00
        E 0 99 2e 5f
        E 0 99 23 5f
        E 240 99 2e 00
        E 0 99 23 00
        E 0 99 2a 5f
        E 240 99 2a 00
        E 0 99 2a 5f
        E 240 99 2a 00
        E 0 99 2a 5f
        E 240 99 2a 00
        E 0 99 2e 5f
        E 0 99 27 5f
        E 0 99 28 5f
        E 240 99 28 00
        E 0 99 2e 00
        E 0 99 27 00
        E 0 99 2a 5f
        E 240 99 2a 00
        E 0 99 2a 5f
        E 240 99 2a 00
        E 0 99 2a 5f
        E 240 99 2a 00
        E 0 99 2e 5f
        E 0 99 23 5f
        E 240 99 23 00
        E 0 99 2e 00
        E 0 99 2a 5f
        E 240 99 2a 00
        E 0 99 2a 5f
        E 240 99 2a 00
        E 0 99 2a 5f
        E 240 99 2a 00
        E 0 99 2e 5f
        E 0 99 27 5f
        E 0 99 28 5f
        E 240 99 27 00
        E 0 99 2e 00
        E 0 99 28 00
        E 0 99 2a 5f
        E 240 99 2a 00
        E 0 99 2a 5f
        E 240 99 2a 00
        E 0 99 2a 5f
        E 240 99 2a 00
        E 0 99 2e 5f
        E 0 99 23 5f
        E 240 99 2e 00
        E 0 99 23 00
        E 0 99 2a 5f
        E 240 99 2a 00
        E 0 99 2a 5f
        E 240 99 2a 00
        E 0 99 2a 5f
        E 240 99 2a 00
        E 0 99 2e 5f
        E 0 99 27 5f
        E 0 99 28 5f
        E 240 99 28 00
        E 0 99 2e 00
        E 0 99 27 00
        E 0 99 2a 5f
        E 240 99 2a 00
        E 0 99 2a 5f
        E 240 99 2a 00
        E 0 99 2a 5f
        E 240 99 2a 00
        E 0 99 2e 5f
        E 0 99 23 5f
        E 240 99 23 00
        E 0 99 2e 00
        E 0 99 2a 5f
        E 240 99 2a 00
        E 0 99 2a 5f
        E 240 99 2a 00
        E 0 99 2a 5f
        E 240 99 2a 00
        E 0 99 2e 5f
        E 0 99 27 5f
        E 0 99 28 5f
        E 240 99 27 00
        E 0 99 2e 00
        E 0 99 28 00
        E 0 99 2a 5f
        E 240 99 2a 00
        E 0 99 2e 5f
        E 480 99 2e 00
        E 0 99 31 5f
        E 0 99 2e 5f
        E 0 99 23 5f
        E 240 99 2e 00
        E 0 99 23 00
        E 0 99 31 00
        E 0 99 2a 5f
        E 240 99 2a 00
        E 0 99 2a 5f
        E 240 99 2a 00
        E 0 99 2a 5f
        E 240 99 2a 00
        E 0 99 2e 5f
        E 0 99 27 5f
        E 0 99 28 5f
        E 240 99 28 00
        E 0 99 2e 00
        E 0 99 27 00
        E 0 99 2a 5f
        E 240 99 2a 00
        E 0 99 2a 5f
        E 240 99 2a 00
        E 0 99 2a 5f
        E 240 99 2a 00
        E 0 99 2e 5f
        E 0 99 23 5f
        E 240 99 23 00
        E 0 99 2e 00
        E 0 99 2a 5f
        E 240 99 2a 00
        E 0 99 2a 5f
        E 240 99 2a 00
        E 0 99 2a 5f
        E 240 99 2a 00
        E 0 99 2e 5f
        E 0 99 27 5f
        E 0 99 28 5f
        E 240 99 28 00
        E 0 99 27 00
        E 0 99 2e 00
        E 0 99 2a 5f
        E 240 99 2a 00
        E 0 99 2a 5f
        E 240 99 2a 00
        E 0 99 2a 5f
        E 240 99 2a 00
        E 0 99 2e 5f
        E 0 99 23 5f
        E 240 99 23 00
        E 0 99 2e 00
        E 0 99 2a 5f
        E 240 99 2a 00
        E 0 99 2a 5f
        E 240 99 2a 00
        E 0 99 2a 5f
        E 240 99 2a 00
        E 0 99 2e 5f
        E 0 99 27 5f
        E 0 99 28 5f
        E 240 99 28 00
        E 0 99 2e 00
        E 0 99 27 00
        E 0 99 2a 5f
        E 240 99 2a 00
        E 0 99 2a 5f
        E 240 99 2a 00
        E 0 99 2a 5f
        E 240 99 2a 00
        E 0 99 2e 5f
        E 0 99 23 5f
        E 240 99 23 00
        E 0 99 2e 00
        E 0 99 2a 5f
        E 240 99 2a 00
        E 0 99 2a 5f
        E 240 99 2a 00
        E 0 99 2a 5f
        E 240 99 2a 00
        E 0 99 2e 5f
        E 0 99 27 5f
        E 0 99 28 5f
        E 240 99 27 00
        E 0 99 28 00
        E 0 99 2e 00
        E 0 99 2a 5f
        E 240 99 2a 00
        E 0 99 2a 5f
        E 240 99 2a 00
        E 0 99 2a 5f
        E 240 99 2a 00
        E 0 99 2e 5f
        E 0 99 23 5f
        E 240 99 23 00
        E 0 99 2e 00
        E 0 99 2a 5f
        E 240 99 2a 00
        E 0 99 2a 5f
        E 240 99 2a 00
        E 0 99 2a 5f
        E 240 99 2a 00
        E 0 99 2e 5f
        E 0 99 27 5f
        E 0 99 28 5f
        E 240 99 27 00
        E 0 99 2e 00
        E 0 99 28 00
        E 0 99 2a 5f
        E 240 99 2a 00
        E 0 99 2a 5f
        E 240 99 2a 00
        E 0 99 2a 5f
        E 240 99 2a 00
        E 0 99 2e 5f
        E 0 99 23 5f
        E 240 99 23 00
        E 0 99 2e 00
        E 0 99 2a 5f
        E 240 99 2a 00
        E 0 99 2a 5f
        E 240 99 2a 00
        E 0 99 2a 5f
        E 240 99 2a 00
        E 0 99 2e 5f
        E 0 99 27 5f
        E 0 99 28 5f
        E 240 99 28 00
        E 0 99 27 00
        E 0 99 2e 00
        E 0 99 2a 5f
        E 240 99 2a 00
        E 0 99 2a 5f
        E 240 99 2a 00
        E 0 99 2a 5f
        E 240 99 2a 00
        E 0 99 2e 5f
        E 0 99 23 5f
        E 240 99 23 00
        E 0 99 2e 00
        E 0 99 2a 5f
        E 240 99 2a 00
        E 0 99 2a 5f
        E 240 99 2a 00
        E 0 99 2a 5f
        E 240 99 2a 00
        E 0 99 2e 5f
        E 0 99 27 5f
        E 0 99 28 5f
        E 240 99 28 00
        E 0 99 2e 00
        E 0 99 27 00
        E 0 99 2a 5f
        E 240 99 2a 00
        E 0 99 2a 5f
        E 240 99 2a 00
        E 0 99 2a 5f
        E 240 99 2a 00
        E 0 99 2e 5f
        E 0 99 23 5f
        E 240 99 23 00
        E 0 99 2e 00
        E 0 99 2a 5f
        E 240 99 2a 00
        E 0 99 2a 5f
        E 240 99 2a 00
        E 0 99 2a 5f
        E 240 99 2a 00
        E 0 99 2e 5f
        E 0 99 27 5f
        E 0 99 28 5f
        E 240 99 27 00
        E 0 99 28 00
        E 0 99 2e 00
        E 0 99 2a 5f
        E 240 99 2a 00
        E 0 99 2e 5f
        E 480 99 2e 00
        E 0 99 31 5f
        E 0 99 2e 5f
        E 0 99 23 5f
        E 240 99 23 00
        E 0 99 31 00
        E 0 99 2e 00
        E 0 99 2a 5f
        E 240 99 2a 00
        E 0 99 2a 5f
        E 240 99 2a 00
        E 0 99 2a 5f
        E 240 99 2a 00
        E 0 99 2e 5f
        E 0 99 27 5f
        E 0 99 28 5f
        E 240 99 28 00
        E 0 99 2e 00
        E 0 99 27 00
        E 0 99 2a 5f
        E 240 99 2a 00
        E 0 99 2a 5f
        E 240 99 2a 00
        E 0 99 2a 5f
        E 240 99 2a 00
        E 0 99 2e 5f
        E 0 99 23 5f
        E 240 99 23 00
        E 0 99 2e 00
        E 0 99 2a 5f
        E 240 99 2a 00
        E 0 99 2a 5f
        E 240 99 2a 00
        E 0 99 2a 5f
        E 240 99 2a 00
        E 0 99 2e 5f
        E 0 99 27 5f
        E 0 99 28 5f
        E 240 99 28 00
        E 0 99 27 00
        E 0 99 2e 00
        E 0 99 2a 5f
        E 240 99 2a 00
        E 0 99 2a 5f
        E 240 99 2a 00
        E 0 99 2a 5f
        E 240 99 2a 00
        E 0 99 2e 5f
        E 0 99 23 5f
        E 240 99 23 00
        E 0 99 2e 00
        E 0 99 2a 5f
        E 240 99 2a 00
        E 0 99 2a 5f
        E 240 99 2a 00
        E 0 99 2a 5f
        E 240 99 2a 00
        E 0 99 2e 5f
        E 0 99 27 5f
        E 0 99 28 5f
        E 240 99 28 00
        E 0 99 2e 00
        E 0 99 27 00
        E 0 99 2a 5f
        E 240 99 2a 00
        E 0 99 2a 5f
        E 240 99 2a 00
        E 0 99 2a 5f
        E 240 99 2a 00
        E 0 99 2e 5f
        E 0 99 23 5f
        E 240 99 23 00
        E 0 99 2e 00
        E 0 99 2a 5f
        E 240 99 2a 00
        E 0 99 2a 5f
        E 240 99 2a 00
        E 0 99 2a 5f
        E 240 99 2a 00
        E 0 99 2e 5f
        E 0 99 27 5f
        E 0 99 28 5f
        E 240 99 28 00
        E 0 99 27 00
        E 0 99 2e 00
        E 0 99 2a 5f
        E 240 99 2a 00
        E 0 99 2a 5f
        E 240 99 2a 00
        E 0 99 2a 5f
        E 240 99 2a 00
        E 0 99 2e 5f
        E 0 99 23 5f
        E 240 99 23 00
        E 0 99 2e 00
        E 0 99 2a 5f
        E 240 99 2a 00
        E 0 99 2a 5f
        E 240 99 2a 00
        E 0 99 2a 5f
        E 240 99 2a 00
        E 0 99 2e 5f
        E 0 99 27 5f
        E 0 99 28 5f
        E 240 99 28 00
        E 0 99 2e 00
        E 0 99 27 00
        E 0 99 2a 5f
        E 240 99 2a 00
        E 0 99 2a 5f
        E 240 99 2a 00
        E 0 99 2a 5f
        E 240 99 2a 00
        E 0 99 2e 5f
        E 0 99 23 5f
        E 240 99 23 00
        E 0 99 2e 00
        E 0 99 2a 5f
        E 240 99 2a 00
        E 0 99 2a 5f
        E 240 99 2a 00
        E 0 99 2a 5f
        E 240 99 2a 00
        E 0 99 2e 5f
        E 0 99 27 5f
        E 0 99 28 5f
        E 240 99 28 00
        E 0 99 27 00
        E 0 99 2e 00
        E 0 99 2a 5f
        E 240 99 2a 00
        E 0 99 2a 5f
        E 240 99 2a 00
        E 0 99 2a 5f
        E 240 99 2a 00
        E 0 99 2e 5f
        E 0 99 23 5f
        E 240 99 23 00
        E 0 99 2e 00
        E 0 99 2a 5f
        E 240 99 2a 00
        E 0 99 2a 5f
        E 240 99 2a 00
        E 0 99 2a 5f
        E 240 99 2a 00
        E 0 99 2e 5f
        E 0 99 27 5f
        E 0 99 28 5f
        E 240 99 28 00
        E 0 99 2e 00
        E 0 99 27 00
        E 0 99 2a 5f
        E 240 99 2a 00
        E 0 99 2a 5f
        E 240 99 2a 00
        E 0 99 2a 5f
        E 240 99 2a 00
        E 0 99 2e 5f
        E 0 99 23 5f
        E 240 99 23 00
        E 0 99 2e 00
        E 0 99 2a 5f
        E 240 99 2a 00
        E 0 99 2a 5f
        E 240 99 2a 00
        E 0 99 2a 5f
        E 240 99 2a 00
        E 0 99 2e 5f
        E 0 99 27 5f
        E 0 99 28 5f
        E 240 99 28 00
        E 0 99 27 00
        E 0 99 2e 00
        E 0 99 2a 5f
        E 240 99 2a 00
        E 0 99 2e 5f
        E 480 99 2e 00
        E 0 99 31 5f
        E 0 99 2e 5f
        E 0 99 23 5f
        E 240 99 23 00
        E 0 99 31 00
        E 0 99 2e 00
        E 0 99 2a 5f
        E 240 99 2a 00
        E 0 99 2a 5f
        E 240 99 2a 00
        E 0 99 2a 5f
        E 240 99 2a 00
        E 0 99 2e 5f
        E 0 99 27 5f
        E 0 99 28 5f
        E 240 99 28 00
        E 0 99 2e 00
        E 0 99 27 00
        E 0 99 2a 5f
        E 240 99 2a 00
        E 0 99 2a 5f
        E 240 99 2a 00
        E 0 99 2a 5f
        E 240 99 2a 00
        E 0 99 2e 5f
        E 0 99 23 5f
        E 240 99 23 00
        E 0 99 2e 00
        E 0 99 2a 5f
        E 240 99 2a 00
        E 0 99 2a 5f
        E 240 99 2a 00
        E 0 99 2a 5f
        E 240 99 2a 00
        E 0 99 2e 5f
        E 0 99 27 5f
        E 0 99 28 5f
        E 240 99 28 00
        E 0 99 27 00
        E 0 99 2e 00
        E 0 99 2a 5f
        E 240 99 2a 00
        E 0 99 2a 5f
        E 240 99 2a 00
        E 0 99 2a 5f
        E 240 99 2a 00
        E 0 99 2e 5f
        E 0 99 23 5f
        E 240 99 23 00
        E 0 99 2e 00
        E 0 99 2a 5f
        E 240 99 2a 00
        E 0 99 2a 5f
        E 240 99 2a 00
        E 0 99 2a 5f
        E 240 99 2a 00
        E 0 99 2e 5f
        E 0 99 27 5f
        E 0 99 28 5f
        E 240 99 28 00
        E 0 99 2e 00
        E 0 99 27 00
        E 0 99 2a 5f
        E 240 99 2a 00
        E 0 99 2a 5f
        E 240 99 2a 00
        E 0 99 2a 5f
        E 240 99 2a 00
        E 0 99 2e 5f
        E 0 99 23 5f
        E 240 99 23 00
        E 0 99 2e 00
        E 0 99 2a 5f
        E 240 99 2a 00
        E 0 99 2a 5f
        E 240 99 2a 00
        E 0 99 2a 5f
        E 240 99 2a 00
        E 0 99 2e 5f
        E 0 99 27 5f
        E 0 99 28 5f
        E 240 99 28 00
        E 0 99 27 00
        E 0 99 2e 00
        E 0 99 2a 5f
        E 240 99 2a 00
        E 0 99 2a 5f
        E 240 99 2a 00
        E 0 99 2a 5f
        E 240 99 2a 00
        E 0 99 2e 5f
        E 0 99 23 5f
        E 240 99 23 00
        E 0 99 2e 00
        E 0 99 2a 5f
        E 240 99 2a 00
        E 0 99 2a 5f
        E 240 99 2a 00
        E 0 99 2a 5f
        E 240 99 2a 00
        E 0 99 2e 5f
        E 0 99 27 5f
        E 0 99 28 5f
        E 240 99 28 00
        E 0 99 2e 00
        E 0 99 27 00
        E 0 99 2a 5f
        E 240 99 2a 00
        E 0 99 2a 5f
        E 240 99 2a 00
        E 0 99 2a 5f
        E 240 99 2a 00
        E 0 99 2e 5f
        E 0 99 23 5f
        E 240 99 23 00
        E 0 99 2e 00
        E 0 99 2a 5f
        E 240 99 2a 00
        E 0 99 2a 5f
        E 240 99 2a 00
        E 0 99 2a 5f
        E 240 99 2a 00
        E 0 99 2e 5f
        E 0 99 27 5f
        E 0 99 28 5f
        E 240 99 28 00
        E 0 99 27 00
        E 0 99 2e 00
        E 0 99 2a 5f
        E 240 99 2a 00
        E 0 99 2a 5f
        E 240 99 2a 00
        E 0 99 2a 5f
        E 240 99 2a 00
        E 0 99 2e 5f
        E 0 99 23 5f
        E 240 99 23 00
        E 0 99 2e 00
        E 0 99 2a 5f
        E 240 99 2a 00
        E 0 99 2a 5f
        E 240 99 2a 00
        E 0 99 2a 5f
        E 240 99 2a 00
        E 0 99 2e 5f
        E 0 99 27 5f
        E 0 99 28 5f
        E 240 99 28 00
        E 0 99 2e 00
        E 0 99 27 00
        E 0 99 2a 5f
        E 240 99 2a 00
        E 0 99 2a 5f
        E 240 99 2a 00
        E 0 99 2a 5f
        E 240 99 2a 00
        E 0 99 2e 5f
        E 0 99 23 5f
        E 240 99 23 00
        E 0 99 2e 00
        E 0 99 2a 5f
        E 240 99 2a 00
        E 0 99 2a 5f
        E 240 99 2a 00
        E 0 99 2a 5f
        E 240 99 2a 00
        E 0 99 2e 5f
        E 0 99 27 5f
        E 0 99 28 5f
        E 240 99 28 00
        E 0 99 27 00
        E 0 99 2e 00
        E 0 99 2a 5f
        E 240 99 2a 00
        E 0 99 2e 5f
        E 480 99 2e 00
        E 0 99 31 5f
        E 0 99 2e 5f
        E 0 99 23 5f
        E 240 99 23 00
        E 0 99 2e 00
        E 0 99 31 00
        E 0 99 2a 5f
        E 240 99 2a 00
        E 0 99 2a 5f
        E 240 99 2a 00
        E 0 99 2a 5f
        E 240 99 2a 00
        E 0 99 2e 5f
        E 0 99 27 5f
        E 0 99 28 5f
        E 240 99 2e 00
        E 0 99 28 00
        E 0 99 27 00
        E 0 99 2a 5f
        E 240 99 2a 00
        E 0 99 2a 5f
        E 240 99 2a 00
        E 0 99 2a 5f
        E 240 99 2a 00
        E 0 99 2e 5f
        E 0 99 23 5f
        E 240 99 2e 00
        E 0 99 23 00
        E 0 99 2a 5f
        E 240 99 2a 00
        E 0 99 2a 5f
        E 240 99 2a 00
        E 0 99 2a 5f
        E 240 99 2a 00
        E 0 99 2e 5f
        E 0 99 27 5f
        E 0 99 28 5f
        E 240 99 28 00
        E 0 99 27 00
        E 0 99 2e 00
        E 0 99 2a 5f
        E 240 99 2a 00
        E 0 99 2a 5f
        E 240 99 2a 00
        E 0 99 2a 5f
        E 240 99 2a 00
        E 0 99 2e 5f
        E 0 99 23 5f
        E 240 99 23 00
        E 0 99 2e 00
        E 0 99 2a 5f
        E 240 99 2a 00
        E 0 99 2a 5f
        E 240 99 2a 00
        E 0 99 2a 5f
        E 240 99 2a 00
        E 0 99 2e 5f
        E 0 99 27 5f
        E 0 99 28 5f
        E 240 99 2e 00
        E 0 99 28 00
        E 0 99 27 00
        E 0 99 2a 5f
        E 240 99 2a 00
        E 0 99 2a 5f
        E 240 99 2a 00
        E 0 99 2a 5f
        E 240 99 2a 00
        E 0 99 2e 5f
        E 0 99 23 5f
        E 240 99 23 00
        E 0 99 2e 00
        E 0 99 2a 5f
        E 240 99 2a 00
        E 0 99 2a 5f
        E 240 99 2a 00
        E 0 99 2a 5f
        E 240 99 2a 00
        E 0 99 2e 5f
        E 0 99 27 5f
        E 0 99 28 5f
        E 240 99 28 00
        E 0 99 27 00
        E 0 99 2e 00
        E 0 99 2a 5f
        E 240 99 2a 00
        E 0 99 2a 5f
        E 240 99 2a 00
        E 0 99 2a 5f
        E 240 99 2a 00
        E 0 99 2e 5f
        E 0 99 23 5f
        E 240 99 23 00
        E 0 99 2e 00
        E 0 99 2a 5f
        E 240 99 2a 00
        E 0 99 2a 5f
        E 240 99 2a 00
        E 0 99 2a 5f
        E 240 99 2a 00
        E 0 99 2e 5f
        E 0 99 27 5f
        E 0 99 28 5f
        E 240 99 28 00
        E 0 99 2e 00
        E 0 99 27 00
        E 0 99 2a 5f
        E 240 99 2a 00
        E 0 99 2a 5f
        E 240 99 2a 00
        E 0 99 2a 5f
        E 240 99 2a 00
        E 0 99 2e 5f
        E 0 99 23 5f
        E 240 99 23 00
        E 0 99 2e 00
        E 0 99 2a 5f
        E 240 99 2a 00
        E 0 99 2a 5f
        E 240 99 2a 00
        E 0 99 2a 5f
        E 240 99 2a 00
        E 0 99 2e 5f
        E 0 99 27 5f
        E 0 99 28 5f
        E 240 99 28 00
        E 0 99 27 00
        E 0 99 2e 00
        E 0 99 2a 5f
        E 240 99 2a 00
        E 0 99 2a 5f
        E 240 99 2a 00
        E 0 99 2a 5f
        E 240 99 2a 00
        E 0 99 2e 5f
        E 0 99 23 5f
        E 240 99 23 00
        E 0 99 2e 00
        E 0 99 2a 5f
        E 240 99 2a 00
        E 0 99 2a 5f
        E 240 99 2a 00
        E 0 99 2a 5f
        E 240 99 2a 00
        E 0 99 2e 5f
        E 0 99 27 5f
        E 0 99 28 5f
        E 240 99 28 00
        E 0 99 2e 00
        E 0 99 27 00
        E 0 99 2a 5f
        E 240 99 2a 00
        E 0 99 2a 5f
        E 240 99 2a 00
        E 0 99 2a 5f
        E 240 99 2a 00
        E 0 99 2e 5f
        E 0 99 23 5f
        E 240 99 23 00
        E 0 99 2e 00
        E 0 99 2a 5f
        E 240 99 2a 00
        E 0 99 2a 5f
        E 240 99 2a 00
        E 0 99 2a 5f
        E 240 99 2a 00
        E 0 99 2e 5f
        E 0 99 27 5f
        E 0 99 28 5f
        E 240 99 28 00
        E 0 99 27 00
        E 0 99 2e 00
        E 0 99 2a 5f
        E 240 99 2a 00
        E 0 99 2e 5f
        E 480 99 2e 00
        E 0 99 31 5f
        E 0 99 2e 5f
        E 0 99 23 5f
        E 240 99 23 00
        E 0 99 2e 00
        E 0 99 31 00
        E 0 99 2a 5f
        E 240 99 2a 00
        E 0 99 2a 5f
        E 240 99 2a 00
        E 0 99 2a 5f
        E 240 99 2a 00
        E 0 99 2e 5f
        E 0 99 27 5f
        E 0 99 28 5f
        E 240 99 2e 00
        E 0 99 28 00
        E 0 99 27 00
        E 0 99 2a 5f
        E 240 99 2a 00
        E 0 99 2a 5f
        E 240 99 2a 00
        E 0 99 2a 5f
        E 240 99 2a 00
        E 0 99 2e 5f
        E 0 99 23 5f
        E 240 99 2e 00
        E 0 99 23 00
        E 0 99 2a 5f
        E 240 99 2a 00
        E 0 99 2a 5f
        E 240 99 2a 00
        E 0 99 2a 5f
        E 240 99 2a 00
        E 0 99 2e 5f
        E 0 99 27 5f
        E 0 99 28 5f
        E 240 99 28 00
        E 0 99 27 00
        E 0 99 2e 00
        E 0 99 2a 5f
        E 240 99 2a 00
        E 0 99 2a 5f
        E 240 99 2a 00
        E 0 99 2a 5f
        E 240 99 2a 00
        E 0 99 2e 5f
        E 0 99 23 5f
        E 240 99 23 00
        E 0 99 2e 00
        E 0 99 2a 5f
        E 240 99 2a 00
        E 0 99 2a 5f
        E 240 99 2a 00
        E 0 99 2a 5f
        E 240 99 2a 00
        E 0 99 2e 5f
        E 0 99 27 5f
        E 0 99 28 5f
        E 240 99 2e 00
        E 0 99 28 00
        E 0 99 27 00
        E 0 99 2a 5f
        E 240 99 2a 00
        E 0 99 2a 5f
        E 240 99 2a 00
        E 0 99 2a 5f
        E 240 99 2a 00
        E 0 99 2e 5f
        E 0 99 23 5f
        E 240 99 23 00
        E 0 99 2e 00
        E 0 99 2a 5f
        E 240 99 2a 00
        E 0 99 2a 5f
        E 240 99 2a 00
        E 0 99 2a 5f
        E 240 99 2a 00
        E 0 99 2e 5f
        E 0 99 27 5f
        E 0 99 28 5f
        E 240 99 28 00
        E 0 99 27 00
        E 0 99 2e 00
        E 0 99 2a 5f
        E 240 99 2a 00
        E 0 99 2a 5f
        E 240 99 2a 00
        E 0 99 2a 5f
        E 240 99 2a 00
        E 0 99 2e 5f
        E 0 99 23 5f
        E 240 99 23 00
        E 0 99 2e 00
        E 0 99 2a 5f
        E 240 99 2a 00
        E 0 99 2a 5f
        E 240 99 2a 00
        E 0 99 2a 5f
        E 240 99 2a 00
        E 0 99 2e 5f
        E 0 99 27 5f
        E 0 99 28 5f
        E 240 99 28 00
        E 0 99 2e 00
        E 0 99 27 00
        E 0 99 2a 5f
        E 240 99 2a 00
        E 0 99 2a 5f
        E 240 99 2a 00
        E 0 99 2a 5f
        E 240 99 2a 00
        E 0 99 2e 5f
        E 0 99 23 5f
        E 240 99 23 00
        E 0 99 2e 00
        E 0 99 2a 5f
        E 240 99 2a 00
        E 0 99 2a 5f
        E 240 99 2a 00
        E 0 99 2a 5f
        E 240 99 2a 00
        E 0 99 2e 5f
        E 0 99 27 5f
        E 0 99 28 5f
        E 240 99 28 00
        E 0 99 27 00
        E 0 99 2e 00
        E 0 99 2a 5f
        E 240 99 2a 00
        E 0 99 2a 5f
        E 240 99 2a 00
        E 0 99 2a 5f
        E 240 99 2a 00
        E 0 99 2e 5f
        E 0 99 23 5f
        E 240 99 23 00
        E 0 99 2e 00
        E 0 99 2a 5f
        E 240 99 2a 00
        E 0 99 2a 5f
        E 240 99 2a 00
        E 0 99 2a 5f
        E 240 99 2a 00
        E 0 99 2e 5f
        E 0 99 27 5f
        E 0 99 28 5f
        E 240 99 28 00
        E 0 99 2e 00
        E 0 99 27 00
        E 0 99 2a 5f
        E 240 99 2a 00
        E 0 99 2a 5f
        E 240 99 2a 00
        E 0 99 2a 5f
        E 240 99 2a 00
        E 0 99 2e 5f
        E 0 99 23 5f
        E 240 99 23 00
        E 0 99 2e 00
        E 0 99 2a 5f
        E 240 99 2a 00
        E 0 99 2a 5f
        E 240 99 2a 00
        E 0 99 2a 5f
        E 240 99 2a 00
        E 0 99 2e 5f
        E 0 99 27 5f
        E 0 99 28 5f
        E 240 99 28 00
        E 0 99 27 00
        E 0 99 2e 00
        E 0 99 2a 5f
        E 240 99 2a 00
        E 0 99 2e 5f
        E 480 99 2e 00
        E 0 99 31 5f
        E 0 99 2e 5f
        E 0 99 23 5f
        E 240 99 23 00
        E 0 99 31 00
        E 0 99 2e 00
        E 0 99 2a 5f
        E 240 99 2a 00
        E 0 99 2a 5f
        E 240 99 2a 00
        E 0 99 2a 5f
        E 240 99 2a 00
        E 0 99 2e 5f
        E 0 99 27 5f
        E 0 99 28 5f
        E 240 99 2e 00
        E 0 99 28 00
        E 0 99 27 00
        E 0 99 2a 5f
        E 240 99 2a 00
        E 0 99 2a 5f
        E 240 99 2a 00
        E 0 99 2a 5f
        E 240 99 2a 00
        E 0 99 2e 5f
        E 0 99 23 5f
        E 240 99 23 00
        E 0 99 2e 00
        E 0 99 2a 5f
        E 240 99 2a 00
        E 0 99 2a 5f
        E 240 99 2a 00
        E 0 99 2a 5f
        E 240 99 2a 00
        E 0 99 2e 5f
        E 0 99 27 5f
        E 0 99 28 5f
        E 240 99 28 00
        E 0 99 27 00
        E 0 99 2e 00
        E 0 99 2a 5f
        E 240 99 2a 00
        E 0 99 2a 5f
        E 240 99 2a 00
        E 0 99 2a 5f
        E 240 99 2a 00
        E 0 99 2e 5f
        E 0 99 23 5f
        E 240 99 23 00
        E 0 99 2e 00
        E 0 99 2a 5f
        E 240 99 2a 00
        E 0 99 2a 5f
        E 240 99 2a 00
        E 0 99 2a 5f
        E 240 99 2a 00
        E 0 99 2e 5f
        E 0 99 27 5f
        E 0 99 28 5f
        E 240 99 28 00
        E 0 99 27 00
        E 0 99 2e 00
        E 0 99 2a 5f
        E 240 99 2a 00
        E 0 99 2a 5f
        E 240 99 2a 00
        E 0 99 2a 5f
        E 240 99 2a 00
        E 0 99 2e 5f
        E 0 99 23 5f
        E 240 99 23 00
        E 0 99 2e 00
        E 0 99 2a 5f
        E 240 99 2a 00
        E 0 99 2a 5f
        E 240 99 2a 00
        E 0 99 2a 5f
        E 240 99 2a 00
        E 0 99 2e 5f
        E 0 99 27 5f
        E 0 99 28 5f
        E 240 99 28 00
        E 0 99 2e 00
        E 0 99 27 00
        E 0 99 2a 5f
        E 240 99 2a 00
        E 0 99 2a 5f
        E 240 99 2a 00
        E 0 99 2a 5f
        E 240 99 2a 00
        E 0 99 2e 5f
        E 0 99 23 5f
        E 240 99 23 00
        E 0 99 2e 00
        E 0 99 2a 5f
        E 240 99 2a 00
        E 0 99 2a 5f
        E 240 99 2a 00
        E 0 99 2a 5f
        E 240 99 2a 00
        E 0 99 2e 5f
        E 0 99 27 5f
        E 0 99 28 5f
        E 240 99 2e 00
        E 0 99 28 00
        E 0 99 27 00
        E 0 99 2a 5f
        E 240 99 2a 00
        E 0 99 2a 5f
        E 240 99 2a 00
        E 0 99 2a 5f
        E 240 99 2a 00
        E 0 99 2e 5f
        E 0 99 23 5f
        E 240 99 23 00
        E 0 99 2e 00
        E 0 99 2a 5f
        E 240 99 2a 00
        E 0 99 2a 5f
        E 240 99 2a 00
        E 0 99 2a 5f
        E 240 99 2a 00
        E 0 99 2e 5f
        E 0 99 27 5f
        E 0 99 28 5f
        E 240 99 27 00
        E 0 99 2e 00
        E 0 99 28 00
        E 0 99 2a 5f
        E 240 99 2a 00
        E 0 99 2a 5f
        E 240 99 2a 00
        E 0 99 2a 5f
        E 240 99 2a 00
        E 0 99 2e 5f
        E 0 99 23 5f
        E 240 99 23 00
        E 0 99 2e 00
        E 0 99 2a 5f
        E 240 99 2a 00
        E 0 99 2a 5f
        E 240 99 2a 00
        E 0 99 2a 5f
        E 240 99 2a 00
        E 0 99 2e 5f
        E 0 99 27 5f
        E 0 99 28 5f
        E 240 99 28 00
        E 0 99 27 00
        E 0 99 2e 00
        E 0 99 2a 5f
        E 240 99 2a 00
        E 0 99 2a 5f
        E 240 99 2a 00
        E 0 99 2a 5f
        E 240 99 2a 00
        E 0 99 2e 5f
        E 0 99 23 5f
        E 240 99 23 00
        E 0 99 2e 00
        E 0 99 2a 5f
        E 240 99 2a 00
        E 0 99 2a 5f
        E 240 99 2a 00
        E 0 99 2a 5f
        E 240 99 2a 00
        E 0 99 2e 5f
        E 0 99 27 5f
        E 0 99 28 5f
        E 240 99 28 00
        E 0 99 2e 00
        E 0 99 27 00
        E 0 99 2a 5f
        E 240 99 2a 00
        E 0 99 2e 5f
        E 480 99 2e 00
        E 0 99 2e 5f
        E 0 99 23 5f
        E 240 99 23 00
        E 0 99 2e 00
        E 0 99 2a 5f
        E 240 99 2a 00
        E 0 99 2a 5f
        E 240 99 2a 00
        E 0 99 2a 5f
        E 240 99 2a 00
        E 0 99 2e 5f
        E 0 99 27 5f
        E 0 99 28 5f
        E 240 99 27 00
        E 0 99 2e 00
        E 0 99 28 00
        E 0 99 2a 5f
        E 240 99 2a 00
        E 0 99 2a 5f
        E 240 99 2a 00
        E 0 99 2a 5f
        E 240 99 2a 00
        E 0 99 2e 5f
        E 0 99 23 5f
        E 240 99 23 00
        E 0 99 2e 00
        E 0 99 2a 5f
        E 240 99 2a 00
        E 0 99 2a 5f
        E 240 99 2a 00
        E 0 99 2a 5f
        E 240 99 2a 00
        E 0 99 2e 5f
        E 0 99 27 5f
        E 0 99 28 5f
        E 240 99 28 00
        E 0 99 27 00
        E 0 99 2e 00
        E 0 99 2a 5f
        E 240 99 2a 00
        E 0 99 2a 5f
        E 240 99 2a 00
        E 0 99 2a 5f
        E 240 99 2a 00
        E 0 99 2e 5f
        E 0 99 23 5f
        E 240 99 23 00
        E 0 99 2e 00
        E 0 99 2a 5f
        E 240 99 2a 00
        E 0 99 2a 5f
        E 240 99 2a 00
        E 0 99 2a 5f
        E 240 99 2a 00
        E 0 99 2e 5f
        E 0 99 27 5f
        E 0 99 28 5f
        E 240 99 28 00
        E 0 99 2e 00
        E 0 99 27 00
        E 0 99 2a 5f
        E 240 99 2a 00
        E 0 99 2a 5f
        E 240 99 2a 00
        E 0 99 2a 5f
        E 240 99 2a 00
        E 0 99 2e 5f
        E 0 99 23 5f
        E 240 99 23 00
        E 0 99 2e 00
        E 0 99 2a 5f
        E 240 99 2a 00
        E 0 99 2a 5f
        E 240 99 2a 00
        E 0 99 2a 5f
        E 240 99 2a 00
        E 0 99 2e 5f
        E 0 99 27 5f
        E 0 99 28 5f
        E 240 99 28 00
        E 0 99 2e 00
        E 0 99 27 00
        E 0 99 2a 5f
        E 240 99 2a 00
        E 0 99 2a 5f
        E 240 99 2a 00
        E 0 99 2a 5f
        E 240 99 2a 00
        E 0 99 2e 5f
        E 0 99 23 5f
        E 240 99 23 00
        E 0 99 2e 00
        E 0 99 2a 5f
        E 240 99 2a 00
        E 0 99 2a 5f
        E 240 99 2a 00
        E 0 99 2a 5f
        E 240 99 2a 00
        E 0 99 2e 5f
        E 0 99 27 5f
        E 0 99 28 5f
        E 240 99 2e 00
        E 0 99 28 00
        E 0 99 27 00
        E 0 99 2a 5f
        E 240 99 2a 00
        E 0 99 2a 5f
        E 240 99 2a 00
        E 0 99 2a 5f
        E 240 99 2a 00
        E 0 99 2e 5f
        E 0 99 23 5f
        E 240 99 23 00
        E 0 99 2e 00
        E 0 99 2a 5f
        E 240 99 2a 00
        E 0 99 2a 5f
        E 240 99 2a 00
        E 0 99 2a 5f
        E 240 99 2a 00
        E 0 99 2e 5f
        E 0 99 27 5f
        E 0 99 28 5f
        E 240 99 27 00
        E 0 99 2e 00
        E 0 99 28 00
        E 0 99 2a 5f
        E 240 99 2a 00
        E 0 99 2a 5f
        E 240 99 2a 00
        E 0 99 2a 5f
        E 240 99 2a 00
        E 0 99 2e 5f
        E 0 99 23 5f
        E 240 99 23 00
        E 0 99 2e 00
        E 0 99 2a 5f
        E 240 99 2a 00
        E 0 99 2a 5f
        E 240 99 2a 00
        E 0 99 2a 5f
        E 240 99 2a 00
        E 0 99 2e 5f
        E 0 99 27 5f
        E 0 99 28 5f
        E 240 99 28 00
        E 0 99 2e 00
        E 0 99 27 00
        E 0 99 2a 5f
        E 240 99 2a 00
        E 0 99 2a 5f
        E 240 99 2a 00
        E 0 99 2a 5f
        E 240 99 2a 00
        E 0 99 2e 5f
        E 0 99 23 5f
        E 240 99 23 00
        E 0 99 2e 00
        E 0 99 2a 5f
        E 240 99 2a 00
        E 0 99 2a 5f
        E 240 99 2a 00
        E 0 99 2a 5f
        E 240 99 2a 00
        E 0 99 2e 5f
        E 0 99 27 5f
        E 0 99 28 5f
        E 240 99 28 00
        E 0 99 2e 00
        E 0 99 27 00
        E 0 99 2a 5f
        E 240 99 2a 00
        E 0 99 2e 5f
        E 480 99 2e 00
        E 0 99 31 5f
        E 0 99 2e 5f
        E 0 99 23 5f
        E 240 99 23 00
        E 0 99 31 00
        E 0 99 2e 00
        E 0 99 2a 5f
        E 240 99 2a 00
        E 0 99 2a 5f
        E 240 99 2a 00
        E 0 99 2a 5f
        E 240 99 2a 00
        E 0 99 2e 5f
        E 0 99 27 5f
        E 0 99 28 5f
        E 240 99 2e 00
        E 0 99 28 00
        E 0 99 27 00
        E 0 99 2a 5f
        E 240 99 2a 00
        E 0 99 2a 5f
        E 240 99 2a 00
        E 0 99 2a 5f
        E 240 99 2a 00
        E 0 99 2e 5f
        E 0 99 23 5f
        E 240 99 23 00
        E 0 99 2e 00
        E 0 99 2a 5f
        E 240 99 2a 00
        E 0 99 2a 5f
        E 240 99 2a 00
        E 0 99 2a 5f
        E 240 99 2a 00
        E 0 99 2e 5f
        E 0 99 27 5f
        E 0 99 28 5f
        E 240 99 28 00
        E 0 99 27 00
        E 0 99 2e 00
        E 0 99 2a 5f
        E 240 99 2a 00
        E 0 99 2a 5f
        E 240 99 2a 00
        E 0 99 2a 5f
        E 240 99 2a 00
        E 0 99 2e 5f
        E 0 99 23 5f
        E 240 99 23 00
        E 0 99 2e 00
        E 0 99 2a 5f
        E 240 99 2a 00
        E 0 99 2a 5f
        E 240 99 2a 00
        E 0 99 2a 5f
        E 240 99 2a 00
        E 0 99 2e 5f
        E 0 99 27 5f
        E 0 99 28 5f
        E 240 99 28 00
        E 0 99 27 00
        E 0 99 2e 00
        E 0 99 2a 5f
        E 240 99 2a 00
        E 0 99 2a 5f
        E 240 99 2a 00
        E 0 99 2a 5f
        E 240 99 2a 00
        E 0 99 2e 5f
        E 0 99 23 5f
        E 240 99 23 00
        E 0 99 2e 00
        E 0 99 2a 5f
        E 240 99 2a 00
        E 0 99 2a 5f
        E 240 99 2a 00
        E 0 99 2a 5f
        E 240 99 2a 00
        E 0 99 2e 5f
        E 0 99 27 5f
        E 0 99 28 5f
        E 240 99 28 00
        E 0 99 2e 00
        E 0 99 27 00
        E 0 99 2a 5f
        E 240 99 2a 00
        E 0 99 2a 5f
        E 240 99 2a 00
        E 0 99 2a 5f
        E 240 99 2a 00
        E 0 99 2e 5f
        E 0 99 23 5f
        E 240 99 23 00
        E 0 99 2e 00
        E 0 99 2a 5f
        E 240 99 2a 00
        E 0 99 2a 5f
        E 240 99 2a 00
        E 0 99 2a 5f
        E 240 99 2a 00
        E 0 99 2e 5f
        E 0 99 27 5f
        E 0 99 28 5f
        E 240 99 27 00
        E 0 99 2e 00
        E 0 99 28 00
        E 0 99 2a 5f
        E 240 99 2a 00
        E 0 99 2a 5f
        E 240 99 2a 00
        E 0 99 2a 5f
        E 240 99 2a 00
        E 0 99 2e 5f
        E 0 99 23 5f
        E 240 99 23 00
        E 0 99 2e 00
        E 0 99 2a 5f
        E 240 99 2a 00
        E 0 99 2a 5f
        E 240 99 2a 00
        E 0 99 2a 5f
        E 240 99 2a 00
        E 0 99 2e 5f
        E 0 99 27 5f
        E 0 99 28 5f
        E 240 99 28 00
        E 0 99 2e 00
        E 0 99 27 00
        E 0 99 2a 5f
        E 240 99 2a 00
        E 0 99 2a 5f
        E 240 99 2a 00
        E 0 99 2a 5f
        E 240 99 2a 00
        E 0 99 2e 5f
        E 0 99 23 5f
        E 240 99 23 00
        E 0 99 2e 00
        E 0 99 2a 5f
        E 240 99 2a 00
        E 0 99 2a 5f
        E 240 99 2a 00
        E 0 99 2a 5f
        E 240 99 2a 00
        E 0 99 2e 5f
        E 0 99 27 5f
        E 0 99 28 5f
        E 240 99 28 00
        E 0 99 27 00
        E 0 99 2e 00
        E 0 99 2a 5f
        E 240 99 2a 00
        E 0 99 2a 5f
        E 240 99 2a 00
        E 0 99 2a 5f
        E 240 99 2a 00
        E 0 99 2e 5f
        E 0 99 23 5f
        E 240 99 23 00
        E 0 99 2e 00
        E 0 99 2a 5f
        E 240 99 2a 00
        E 0 99 2a 5f
        E 240 99 2a 00
        E 0 99 2a 5f
        E 240 99 2a 00
        E 0 99 2e 5f
        E 0 99 27 5f
        E 0 99 28 5f
        E 240 99 28 00
        E 0 99 2e 00
        E 0 99 27 00
        E 0 99 2a 5f
        E 240 99 2a 00
        E 0 99 2e 5f
        E 480 99 2e 00
        E 0 99 31 5f
        E 0 99 2e 5f
        E 0 99 23 5f
        E 240 99 23 00
        E 0 99 31 00
        E 0 99 2e 00
        E 0 99 2a 5f
        E 240 99 2a 00
        E 0 99 2a 5f
        E 240 99 2a 00
        E 0 99 2a 5f
        E 240 99 2a 00
        E 0 99 2e 5f
        E 0 99 27 5f
        E 0 99 28 5f
        E 240 99 2e 00
        E 0 99 28 00
        E 0 99 27 00
        E 0 99 2a 5f
        E 240 99 2a 00
        E 0 99 2a 5f
        E 240 99 2a 00
        E 0 99 2a 5f
        E 240 99 2a 00
        E 0 99 2e 5f
        E 0 99 23 5f
        E 240 99 23 00
        E 0 99 2e 00
        E 0 99 2a 5f
        E 240 99 2a 00
        E 0 99 2a 5f
        E 240 99 2a 00
        E 0 99 2a 5f
        E 240 99 2a 00
        E 0 99 2e 5f
        E 0 99 27 5f
        E 0 99 28 5f
        E 240 99 28 00
        E 0 99 27 00
        E 0 99 2e 00
        E 0 99 2a 5f
        E 240 99 2a 00
        E 0 99 2a 5f
        E 240 99 2a 00
        E 0 99 2a 5f
        E 240 99 2a 00
        E 0 99 2e 5f
        E 0 99 23 5f
        E 240 99 23 00
        E 0 99 2e 00
        E 0 99 2a 5f
        E 240 99 2a 00
        E 0 99 2a 5f
        E 240 99 2a 00
        E 0 99 2a 5f
        E 240 99 2a 00
        E 0 99 2e 5f
        E 0 99 27 5f
        E 0 99 28 5f
        E 240 99 28 00
        E 0 99 2e 00
        E 0 99 27 00
        E 0 99 2a 5f
        E 240 99 2a 00
        E 0 99 2a 5f
        E 240 99 2a 00
        E 0 99 2a 5f
        E 240 99 2a 00
        E 0 99 2e 5f
        E 0 99 23 5f
        E 240 99 23 00
        E 0 99 2e 00
        E 0 99 2a 5f
        E 240 99 2a 00
        E 0 99 2a 5f
        E 240 99 2a 00
        E 0 99 2a 5f
        E 240 99 2a 00
        E 0 99 2e 5f
        E 0 99 27 5f
        E 0 99 28 5f
        E 240 99 28 00
        E 0 99 2e 00
        E 0 99 27 00
        E 0 99 2a 5f
        E 240 99 2a 00
        E 0 99 2a 5f
        E 240 99 2a 00
        E 0 99 2a 5f
        E 240 99 2a 00
        E 0 99 2e 5f
        E 0 99 23 5f
        E 240 99 23 00
        E 0 99 2e 00
        E 0 99 2a 5f
        E 240 99 2a 00
        E 0 99 2a 5f
        E 240 99 2a 00
        E 0 99 2a 5f
        E 240 99 2a 00
        E 0 99 2e 5f
        E 0 99 27 5f
        E 0 99 28 5f
        E 240 99 27 00
        E 0 99 2e 00
        E 0 99 28 00
        E 0 99 2a 5f
        E 240 99 2a 00
        E 0 99 2a 5f
        E 240 99 2a 00
        E 0 99 2a 5f
        E 240 99 2a 00
        E 0 99 2e 5f
        E 0 99 23 5f
        E 240 99 23 00
        E 0 99 2e 00
        E 0 99 2a 5f
        E 240 99 2a 00
        E 0 99 2a 5f
        E 240 99 2a 00
        E 0 99 2a 5f
        E 240 99 2a 00
        E 0 99 2e 5f
        E 0 99 27 5f
        E 0 99 28 5f
        E 240 99 28 00
        E 0 99 2e 00
        E 0 99 27 00
        E 0 99 2a 5f
        E 240 99 2a 00
        E 0 99 2a 5f
        E 240 99 2a 00
        E 0 99 2a 5f
        E 240 99 2a 00
        E 0 99 2e 5f
        E 0 99 23 5f
        E 240 99 23 00
        E 0 99 2e 00
        E 0 99 2a 5f
        E 240 99 2a 00
        E 0 99 2a 5f
        E 240 99 2a 00
        E 0 99 2a 5f
        E 240 99 2a 00
        E 0 99 2e 5f
        E 0 99 27 5f
        E 0 99 28 5f
        E 240 99 28 00
        E 0 99 27 00
        E 0 99 2e 00
        E 0 99 2a 5f
        E 240 99 2a 00
        E 0 99 2a 5f
        E 240 99 2a 00
        E 0 99 2a 5f
        E 240 99 2a 00
        E 0 99 2e 5f
        E 0 99 23 5f
        E 240 99 23 00
        E 0 99 2e 00
        E 0 99 2a 5f
        E 240 99 2a 00
        E 0 99 2e 5f
        E 480 99 2e 00
        E 0 99 2a 5f
        E 0 99 27 5f
        E 0 99 28 5f
        E 240 99 28 00
        E 0 99 2a 00
        E 0 99 27 00
        E 0 99 2a 5f
        E 240 99 2a 00
        E 0 99 2e 5f
        E 480 99 2e 00
        E 0 99 31 5f
        E 0 99 23 5f
        E 480 99 23 00
        E 0 99 31 00
        E 0 99 2a 5f
        E 480 99 2a 00
        E 0 99 2a 5f
        E 0 99 27 5f
        E 0 99 28 5f
        E 480 99 2a 00
        E 0 99 28 00
        E 0 99 27 00
        E 0 99 2a 5f
        E 480 99 2a 00
        E 0 99 2a 5f
        E 0 99 23 5f
        E 480 99 23 00
        E 0 99 2a 00
        E 0 99 2a 5f
        E 480 99 2a 00
        E 0 99 2a 5f
        E 0 99 27 5f
        E 0 99 28 5f
        E 480 99 2a 00
        E 0 99 27 00
        E 0 99 28 00
        E 0 99 2a 5f
        E 240 99 2a 00
        E 0 99 2a 5f
        E 240 99 2a 00
        E 0 99 2a 5f
        E 0 99 23 5f
        E 480 99 23 00
        E 0 99 2a 00
        E 0 99 2a 5f
        E 480 99 2a 00
        E 0 99 2a 5f
        E 0 99 27 5f
        E 0 99 28 5f
        E 480 99 2a 00
        E 0 99 28 00
        E 0 99 27 00
        E 0 99 2a 5f
        E 480 99 2a 00
        E 0 99 2a 5f
        E 0 99 23 5f
        E 480 99 23 00
        E 0 99 2a 00
        E 0 99 2a 5f
        E 480 99 2a 00
        E 0 99 2a 5f
        E 0 99 27 5f
        E 0 99 28 5f
        E 480 99 2a 00
        E 0 99 27 00
        E 0 99 28 00
        E 0 99 2a 5f
        E 240 99 2a 00
        E 0 99 2a 5f
        E 240 99 2a 00
        E 0 99 2a 5f
        E 0 99 23 5f
        E 480 99 23 00
        E 0 99 2a 00
        E 0 99 2a 5f
        E 480 99 2a 00
        E 0 99 2a 5f
        E 0 99 27 5f
        E 0 99 28 5f
        E 480 99 27 00
        E 0 99 28 00
        E 0 99 2a 00
        E 0 99 2a 5f
        E 480 99 2a 00
        E 0 99 2a 5f
        E 0 99 23 5f
        E 480 99 2a 00
        E 0 99 23 00
        E 0 99 2a 5f
        E 480 99 2a 00
        E 0 99 2a 5f
        E 0 99 27 5f
        E 0 99 28 5f
        E 480 99 28 00
        E 0 99 2a 00
        E 0 99 27 00
        E 0 99 2a 5f
        E 240 99 2a 00
        E 0 99 2a 5f
        E 240 99 2a 00
        E 0 99 2a 5f
        E 0 99 23 5f
        E 480 99 23 00
        E 0 99 2a 00
        E 0 99 2a 5f
        E 480 99 2a 00
        E 0 99 2a 5f
        E 0 99 27 5f
        E 0 99 28 5f
        E 480 99 28 00
        E 0 99 2a 00
        E 0 99 27 00
        E 0 99 2a 5f
        E 480 99 2a 00
        E 0 99 2a 2f
        E 0 99 23 5f
        E 240 99 23 00
        E 0 99 2a 00
        E 0 99 2a 5f
        E 240 99 2a 00
        E 0 99 2a 5f
        E 480 99 2a 00
        E 0 99 2a 5f
        E 0 99 27 5f
        E 0 99 28 5f
        E 480 99 28 00
        E 0 99 2a 00
        E 0 99 27 00
        E 0 99 2e 5f
        E 480 99 2e 00
        E 0 99 2a 5f
        E 0 99 23 5f
        E 480 99 23 00
        E 0 99 2a 00
        E 0 99 2a 5f
        E 480 99 2a 00
        E 0 99 2a 5f
        E 0 99 27 5f
        E 0 99 28 5f
        E 480 99 2a 00
        E 0 99 28 00
        E 0 99 27 00
        E 0 99 2a 5f
        E 480 99 2a 00
        E 0 99 2a 5f
        E 0 99 23 5f
        E 480 99 2a 00
        E 0 99 23 00
        E 0 99 2a 5f
        E 480 99 2a 00
        E 0 99 2a 5f
        E 0 99 27 5f
        E 0 99 28 5f
        E 480 99 28 00
        E 0 99 2a 00
        E 0 99 27 00
        E 0 99 2a 5f
        E 240 99 2a 00
        E 0 99 2a 5f
        E 240 99 2a 00
        E 0 99 2a 5f
        E 0 99 23 5f
        E 480 99 23 00
        E 0 99 2a 00
        E 0 99 2a 5f
        E 480 99 2a 00
        E 0 99 2a 5f
        E 0 99 27 5f
        E 0 99 28 5f
        E 480 99 2a 00
        E 0 99 28 00
        E 0 99 27 00
        E 0 99 2a 5f
        E 480 99 2a 00
        E 0 99 2a 5f
        E 0 99 23 5f
        E 480 99 23 00
        E 0 99 2a 00
        E 0 99 2a 5f
        E 480 99 2a 00
        E 0 99 2a 5f
        E 0 99 27 5f
        E 0 99 28 5f
        E 480 99 27 00
        E 0 99 28 00
        E 0 99 2a 00
        E 0 99 2a 5f
        E 240 99 2a 00
        E 0 99 2a 5f
        E 240 99 2a 00
        E 0 99 2a 5f
        E 0 99 23 5f
        E 480 99 23 00
        E 0 99 2a 00
        E 0 99 2a 5f
        E 480 99 2a 00
        E 0 99 2a 5f
        E 0 99 27 5f
        E 0 99 28 5f
        E 480 99 27 00
        E 0 99 28 00
        E 0 99 2a 00
        E 0 99 2a 5f
        E 480 99 2a 00
        E 0 99 2a 5f
        E 0 99 23 5f
        E 480 99 2a 00
        E 0 99 23 00
        E 0 99 2a 5f
        E 480 99 2a 00
        E 0 99 2a 5f
        E 0 99 27 5f
        E 0 99 28 5f
        E 480 99 2a 00
        E 0 99 28 00
        E 0 99 27 00
        E 0 99 2a 5f
        E 240 99 2a 00
        E 0 99 2a 5f
        E 240 99 2a 00
        E 0 99 2a 5f
        E 0 99 23 5f
        E 480 99 23 00
        E 0 99 2a 00
        E 0 99 2a 5f
        E 480 99 2a 00
        E 0 99 2a 5f
        E 0 99 27 5f
        E 0 99 28 5f
        E 480 99 28 00
        E 0 99 2a 00
        E 0 99 27 00
        E 0 99 2a 5f
        E 480 99 2a 00
        E 0 99 2a 5f
        E 0 99 23 5f
        E 480 99 2a 00
        E 0 99 23 00
        E 0 99 2e 5f
        E 480 99 2e 00
        E 0 99 27 5f
        E 0 99 28 5f
        E 240 99 28 00
        E 0 99 27 00
        E 0 99 2a 5f
        E 240 99 2a 00
        E 0 99 2e 5f
        E 480 99 2e 00
        E 0 99 31 5f
        E 0 99 23 5f
        E 480 99 23 00
        E 0 99 31 00
        E 0 99 2a 5f
        E 480 99 2a 00
        E 0 99 2a 5f
        E 0 99 27 5f
        E 0 99 28 5f
        E 480 99 2a 00
        E 0 99 28 00
        E 0 99 27 00
        E 0 99 2a 5f
        E 480 99 2a 00
        E 0 99 2a 5f
        E 0 99 23 5f
        E 480 99 23 00
        E 0 99 2a 00
        E 0 99 2a 5f
        E 480 99 2a 00
        E 0 99 2a 5f
        E 0 99 27 5f
        E 0 99 28 5f
        E 480 99 2a 00
        E 0 99 27 00
        E 0 99 28 00
        E 0 99 2a 5f
        E 240 99 2a 00
        E 0 99 2a 5f
        E 240 99 2a 00
        E 0 99 2a 5f
        E 0 99 23 5f
        E 480 99 23 00
        E 0 99 2a 00
        E 0 99 2a 5f
        E 480 99 2a 00
        E 0 99 2a 5f
        E 0 99 27 5f
        E 0 99 28 5f
        E 480 99 2a 00
        E 0 99 28 00
        E 0 99 27 00
        E 0 99 2a 5f
        E 480 99 2a 00
        E 0 99 2a 5f
        E 0 99 23 5f
        E 480 99 23 00
        E 0 99 2a 00
        E 0 99 2a 5f
        E 480 99 2a 00
        E 0 99 2a 5f
        E 0 99 27 5f
        E 0 99 28 5f
        E 480 99 2a 00
        E 0 99 27 00
        E 0 99 28 00
        E 0 99 2a 5f
        E 240 99 2a 00
        E 0 99 2a 5f
        E 240 99 2a 00
        E 0 99 2a 5f
        E 0 99 23 5f
        E 480 99 23 00
        E 0 99 2a 00
        E 0 99 2a 5f
        E 480 99 2a 00
        E 0 99 2a 5f
        E 0 99 27 5f
        E 0 99 28 5f
        E 480 99 27 00
        E 0 99 28 00
        E 0 99 2a 00
        E 0 99 2a 5f
        E 480 99 2a 00
        E 0 99 2a 5f
        E 0 99 23 5f
        E 480 99 2a 00
        E 0 99 23 00
        E 0 99 2a 5f
        E 480 99 2a 00
        E 0 99 2a 5f
        E 0 99 27 5f
        E 0 99 28 5f
        E 480 99 28 00
        E 0 99 2a 00
        E 0 99 27 00
        E 0 99 2a 5f
        E 240 99 2a 00
        E 0 99 2a 5f
        E 240 99 2a 00
        E 0 99 2a 5f
        E 0 99 23 5f
        E 480 99 23 00
        E 0 99 2a 00
        E 0 99 2a 5f
        E 480 99 2a 00
        E 0 99 2a 5f
        E 0 99 27 5f
        E 0 99 28 5f
        E 480 99 28 00
        E 0 99 2a 00
        E 0 99 27 00
        E 0 99 2a 5f
        E 480 99 2a 00
        E 0 99 2a 2f
        E 0 99 23 5f
        E 240 99 23 00
        E 0 99 2a 00
        E 0 99 2a 5f
        E 240 99 2a 00
        E 0 99 2a 5f
        E 480 99 2a 00
        E 0 99 2a 5f
        E 0 99 27 5f
        E 0 99 28 5f
        E 480 99 27 00
        E 0 99 28 00
        E 0 99 2a 00
        E 0 99 2e 5f
        E 478 99 2e 00
        E 2 b0 7b 00
        GUID {71230F75-5027-4EB4-89CB-F44E631F0410}
        IGNTEMPO 0 120 4 4
        SRCCOLOR 40
        VELLANE -1 100 0
      >
    >
  >
  <TRACK {AB70D805-B165-40FE-880C-8DFF8D59DC18}
    NAME "untitled - GetluckyfeatPharrellWilliams.mid [chan 11] [chan 11]"
    PEAKCOL 23396243
    BEAT -1
    AUTOMODE 0
    VOLPAN 1 0 -1 -1 1
    MUTESOLO 0 0 0
    IPHASE 0
    ISBUS 0 0
    BUSCOMP 0 0
    SHOWINMIX 1 0.6667 0.5 1 0.5 0 0 0
    FREEMODE 0
    SEL 1
    REC 0 0 0 0 0 0 0
    VU 2
    TRACKHEIGHT 0 0 0
    INQ 0 0 0 0.5 100 0 0 100
    NCHAN 2
    FX 1
    TRACKID {AB70D805-B165-40FE-880C-8DFF8D59DC18}
    PERF 0
    MIDIOUT -1
    MAINSEND 1 0
    <ITEM
      POSITION 38.5
      SNAPOFFS 0
      LENGTH 242
      LOOP 1
      ALLTAKES 0
      FADEIN 1 0 0 1 0 0
      FADEOUT 1 0 0 1 0 0
      MUTE 0
      SEL 0
      IGUID {B9C144A3-857D-48AA-81D0-A76A6859352F}
      IID 20
      NAME "untitled - GetluckyfeatPharrellWilliams.mid [chan 11]"
      VOLPAN 1 0 1 -1
      SOFFS 0 0
      PLAYRATE 1 1 0 -1 0 0.0025
      CHANMODE 0
      GUID {3F37C943-4274-4080-953D-469C4CD70460}
      <SOURCE MIDI
        HASDATA 1 960 QN
        POOLEDEVTS {4BB74C04-DB32-4C4D-A4F8-F126A70C7339}
        E 60 ba 65 00
        E 2 ba 64 00
        E 2 ba 06 0c
        E 2 ba 26 00
        E 30 ca 07 00
        E 0 ba 07 7f
        E 0 ba 0a 30
        E 0 ea 00 40
        E 0 ba 5d 00
        E 0 ba 5b 00
        E 0 ba 5f 00
        E 0 ba 5c 00
        E 0 ba 07 7f
        E 0 ba 0a 3f
        E 0 ba 5d 00
        E 0 ba 5b 00
        E 0 ba 5f 00
        E 0 ba 5c 00
        E 265344 9a 42 5f
        E 0 9a 3e 5f
        E 240 9a 3e 00
        E 0 9a 42 00
        E 0 9a 32 5f
        E 480 9a 32 00
        E 0 9a 42 5f
        E 0 9a 3e 5f
        E 240 9a 3e 00
        E 0 9a 42 00
        E 0 9a 26 5f
        E 240 9a 26 00
        E 0 9a 32 5f
        E 240 9a 32 00
        E 240 9a 32 5f
        E 240 9a 32 00
        E 0 9a 32 5f
        E 480 9a 32 00
        E 1440 9a 42 5f
        E 0 9a 3e 5f
        E 240 9a 3e 00
        E 0 9a 42 00
        E 0 9a 32 5f
        E 480 9a 32 00
        E 0 9a 42 5f
        E 0 9a 3e 5f
        E 240 9a 3e 00
        E 0 9a 42 00
        E 0 9a 26 5f
        E 240 9a 26 00
        E 0 9a 32 5f
        E 240 9a 32 00
        E 240 9a 32 5f
        E 240 9a 32 00
        E 0 9a 32 5f
        E 480 9a 32 00
        E 1440 9a 45 5f
        E 0 9a 42 5f
        E 240 9a 42 00
        E 0 9a 45 00
        E 0 9a 36 5f
        E 480 9a 36 00
        E 0 9a 45 5f
        E 0 9a 42 5f
        E 240 9a 42 00
        E 0 9a 45 00
        E 0 9a 2a 5f
        E 240 9a 2a 00
        E 0 9a 36 5f
        E 240 9a 36 00
        E 240 9a 36 5f
        E 240 9a 36 00
        E 0 9a 36 5f
        E 480 9a 36 00
        E 1440 9a 44 5f
        E 0 9a 40 5f
        E 240 9a 40 00
        E 0 9a 44 00
        E 0 9a 34 5f
        E 480 9a 34 00
        E 0 9a 44 5f
        E 0 9a 40 5f
        E 240 9a 40 00
        E 0 9a 44 00
        E 0 9a 28 5f
        E 240 9a 28 00
        E 0 9a 34 5f
        E 240 9a 34 00
        E 240 9a 34 5f
        E 240 9a 34 00
        E 0 9a 34 5f
        E 480 9a 34 00
        E 1440 9a 42 5f
        E 0 9a 3e 5f
        E 240 9a 3e 00
        E 0 9a 42 00
        E 0 9a 32 5f
        E 480 9a 32 00
        E 0 9a 42 5f
        E 0 9a 3e 5f
        E 240 9a 3e 00
        E 0 9a 42 00
        E 0 9a 26 5f
        E 240 9a 26 00
        E 0 9a 32 5f
        E 240 9a 32 00
        E 240 9a 32 5f
        E 240 9a 32 00
        E 0 9a 32 5f
        E 480 9a 32 00
        E 1440 9a 42 5f
        E 0 9a 3e 5f
        E 240 9a 3e 00
        E 0 9a 42 00
        E 0 9a 32 5f
        E 480 9a 32 00
        E 0 9a 42 5f
        E 0 9a 3e 5f
        E 240 9a 3e 00
        E 0 9a 42 00
        E 0 9a 26 5f
        E 240 9a 26 00
        E 0 9a 32 5f
        E 240 9a 32 00
        E 240 9a 32 5f
        E 240 9a 32 00
        E 0 9a 32 5f
        E 480 9a 32 00
        E 1440 9a 45 5f
        E 0 9a 42 5f
        E 240 9a 42 00
        E 0 9a 45 00
        E 0 9a 36 5f
        E 480 9a 36 00
        E 0 9a 45 5f
        E 0 9a 42 5f
        E 240 9a 42 00
        E 0 9a 45 00
        E 0 9a 2a 5f
        E 240 9a 2a 00
        E 0 9a 36 5f
        E 240 9a 36 00
        E 240 9a 36 5f
        E 240 9a 36 00
        E 0 9a 36 5f
        E 480 9a 36 00
        E 1440 9a 44 5f
        E 0 9a 40 5f
        E 240 9a 40 00
        E 0 9a 44 00
        E 0 9a 34 5f
        E 480 9a 34 00
        E 0 9a 44 5f
        E 0 9a 40 5f
        E 240 9a 40 00
        E 0 9a 44 00
        E 0 9a 28 5f
        E 240 9a 28 00
        E 0 9a 34 5f
        E 240 9a 34 00
        E 240 9a 34 5f
        E 240 9a 34 00
        E 0 9a 34 5f
        E 480 9a 34 00
        E 1440 9a 42 5f
        E 0 9a 3e 5f
        E 240 9a 3e 00
        E 0 9a 42 00
        E 0 9a 32 5f
        E 480 9a 32 00
        E 0 9a 42 5f
        E 0 9a 3e 5f
        E 240 9a 3e 00
        E 0 9a 42 00
        E 0 9a 26 5f
        E 240 9a 26 00
        E 0 9a 32 5f
        E 240 9a 32 00
        E 240 9a 32 5f
        E 240 9a 32 00
        E 0 9a 32 5f
        E 480 9a 32 00
        E 1440 9a 42 5f
        E 0 9a 3e 5f
        E 240 9a 3e 00
        E 0 9a 42 00
        E 0 9a 32 5f
        E 480 9a 32 00
        E 0 9a 42 5f
        E 0 9a 3e 5f
        E 240 9a 3e 00
        E 0 9a 42 00
        E 0 9a 26 5f
        E 240 9a 26 00
        E 0 9a 32 5f
        E 240 9a 32 00
        E 240 9a 32 5f
        E 240 9a 32 00
        E 0 9a 32 5f
        E 480 9a 32 00
        E 1440 9a 45 5f
        E 0 9a 42 5f
        E 240 9a 42 00
        E 0 9a 45 00
        E 0 9a 36 5f
        E 480 9a 36 00
        E 0 9a 45 5f
        E 0 9a 42 5f
        E 240 9a 42 00
        E 0 9a 45 00
        E 0 9a 2a 5f
        E 240 9a 2a 00
        E 0 9a 36 5f
        E 240 9a 36 00
        E 240 9a 36 5f
        E 240 9a 36 00
        E 0 9a 36 5f
        E 480 9a 36 00
        E 1440 9a 44 5f
        E 0 9a 40 5f
        E 240 9a 40 00
        E 0 9a 44 00
        E 0 9a 34 5f
        E 480 9a 34 00
        E 0 9a 44 5f
        E 0 9a 40 5f
        E 240 9a 40 00
        E 0 9a 44 00
        E 0 9a 28 5f
        E 240 9a 28 00
        E 0 9a 34 5f
        E 240 9a 34 00
        E 240 9a 34 5f
        E 240 9a 34 00
        E 0 9a 34 5f
        E 480 9a 34 00
        E 1440 9a 42 5f
        E 0 9a 3e 5f
        E 240 9a 3e 00
        E 0 9a 42 00
        E 0 9a 32 5f
        E 480 9a 32 00
        E 0 9a 42 5f
        E 0 9a 3e 5f
        E 240 9a 3e 00
        E 0 9a 42 00
        E 0 9a 26 5f
        E 240 9a 26 00
        E 0 9a 32 5f
        E 240 9a 32 00
        E 240 9a 32 5f
        E 240 9a 32 00
        E 0 9a 32 5f
        E 480 9a 32 00
        E 1440 9a 42 5f
        E 0 9a 3e 5f
        E 240 9a 3e 00
        E 0 9a 42 00
        E 0 9a 32 5f
        E 480 9a 32 00
        E 0 9a 42 5f
        E 0 9a 3e 5f
        E 240 9a 3e 00
        E 0 9a 42 00
        E 0 9a 26 5f
        E 240 9a 26 00
        E 0 9a 32 5f
        E 240 9a 32 00
        E 240 9a 32 5f
        E 240 9a 32 00
        E 0 9a 32 5f
        E 480 9a 32 00
        E 1440 9a 45 5f
        E 0 9a 42 5f
        E 240 9a 42 00
        E 0 9a 45 00
        E 0 9a 36 5f
        E 480 9a 36 00
        E 0 9a 45 5f
        E 0 9a 42 5f
        E 240 9a 42 00
        E 0 9a 45 00
        E 0 9a 2a 5f
        E 240 9a 2a 00
        E 0 9a 36 5f
        E 240 9a 36 00
        E 240 9a 36 5f
        E 240 9a 36 00
        E 0 9a 36 5f
        E 480 9a 36 00
        E 1440 9a 44 5f
        E 0 9a 40 5f
        E 240 9a 40 00
        E 0 9a 44 00
        E 0 9a 34 5f
        E 480 9a 34 00
        E 0 9a 44 5f
        E 0 9a 40 5f
        E 240 9a 40 00
        E 0 9a 44 00
        E 0 9a 28 5f
        E 240 9a 28 00
        E 0 9a 34 5f
        E 240 9a 34 00
        E 240 9a 34 5f
        E 240 9a 34 00
        E 0 9a 34 5f
        E 480 9a 34 00
        E 1440 9a 42 5f
        E 0 9a 3e 5f
        E 240 9a 3e 00
        E 0 9a 42 00
        E 0 9a 32 5f
        E 480 9a 32 00
        E 0 9a 42 5f
        E 0 9a 3e 5f
        E 240 9a 3e 00
        E 0 9a 42 00
        E 0 9a 26 5f
        E 240 9a 26 00
        E 0 9a 32 5f
        E 240 9a 32 00
        E 240 9a 32 5f
        E 240 9a 32 00
        E 0 9a 32 5f
        E 480 9a 32 00
        E 1440 9a 42 5f
        E 0 9a 3e 5f
        E 240 9a 3e 00
        E 0 9a 42 00
        E 0 9a 32 5f
        E 480 9a 32 00
        E 0 9a 42 5f
        E 0 9a 3e 5f
        E 240 9a 3e 00
        E 0 9a 42 00
        E 0 9a 26 5f
        E 240 9a 26 00
        E 0 9a 32 5f
        E 240 9a 32 00
        E 240 9a 32 5f
        E 240 9a 32 00
        E 0 9a 32 5f
        E 480 9a 32 00
        E 1440 9a 45 5f
        E 0 9a 42 5f
        E 240 9a 42 00
        E 0 9a 45 00
        E 0 9a 36 5f
        E 480 9a 36 00
        E 0 9a 45 5f
        E 0 9a 42 5f
        E 240 9a 42 00
        E 0 9a 45 00
        E 0 9a 2a 5f
        E 240 9a 2a 00
        E 0 9a 36 5f
        E 240 9a 36 00
        E 240 9a 36 5f
        E 240 9a 36 00
        E 0 9a 36 5f
        E 480 9a 36 00
        E 1440 9a 44 5f
        E 0 9a 40 5f
        E 240 9a 44 00
        E 0 9a 40 00
        E 0 9a 34 5f
        E 480 9a 34 00
        E 0 9a 44 5f
        E 0 9a 40 5f
        E 240 9a 40 00
        E 0 9a 44 00
        E 0 9a 28 5f
        E 240 9a 28 00
        E 0 9a 34 5f
        E 240 9a 34 00
        E 240 9a 34 5f
        E 240 9a 34 00
        E 0 9a 34 5f
        E 480 9a 34 00
        E 1440 9a 42 5f
        E 0 9a 3e 5f
        E 240 9a 3e 00
        E 0 9a 42 00
        E 0 9a 32 5f
        E 480 9a 32 00
        E 0 9a 42 5f
        E 0 9a 3e 5f
        E 240 9a 3e 00
        E 0 9a 42 00
        E 0 9a 26 5f
        E 240 9a 26 00
        E 0 9a 32 5f
        E 240 9a 32 00
        E 240 9a 32 5f
        E 240 9a 32 00
        E 0 9a 32 5f
        E 480 9a 32 00
        E 1440 9a 42 5f
        E 0 9a 3e 5f
        E 240 9a 3e 00
        E 0 9a 42 00
        E 0 9a 32 5f
        E 480 9a 32 00
        E 0 9a 42 5f
        E 0 9a 3e 5f
        E 240 9a 3e 00
        E 0 9a 42 00
        E 0 9a 26 5f
        E 240 9a 26 00
        E 0 9a 32 5f
        E 240 9a 32 00
        E 240 9a 32 5f
        E 240 9a 32 00
        E 0 9a 32 5f
        E 480 9a 32 00
        E 1440 9a 45 5f
        E 0 9a 42 5f
        E 240 9a 42 00
        E 0 9a 45 00
        E 0 9a 36 5f
        E 480 9a 36 00
        E 0 9a 45 5f
        E 0 9a 42 5f
        E 240 9a 42 00
        E 0 9a 45 00
        E 0 9a 2a 5f
        E 240 9a 2a 00
        E 0 9a 36 5f
        E 240 9a 36 00
        E 240 9a 36 5f
        E 240 9a 36 00
        E 0 9a 36 5f
        E 480 9a 36 00
        E 1440 9a 44 5f
        E 0 9a 40 5f
        E 240 9a 40 00
        E 0 9a 44 00
        E 0 9a 34 5f
        E 480 9a 34 00
        E 0 9a 44 5f
        E 0 9a 40 5f
        E 240 9a 40 00
        E 0 9a 44 00
        E 0 9a 28 5f
        E 240 9a 28 00
        E 0 9a 34 5f
        E 240 9a 34 00
        E 240 9a 34 5f
        E 240 9a 34 00
        E 0 9a 34 5f
        E 480 9a 34 00
        E 108480 b0 7b 00
        GUID {645E883D-65C6-4807-A590-3DCD0660081A}
        IGNTEMPO 0 120 4 4
        SRCCOLOR 42
        VELLANE -1 100 0
      >
    >
  >
  <TRACK {27D88F7F-7960-40E0-B742-E9D4E112CB0C}
    NAME "untitled - GetluckyfeatPharrellWilliams.mid [chan 12] [chan 12]"
    PEAKCOL 33515700
    BEAT -1
    AUTOMODE 0
    VOLPAN 1 0 -1 -1 1
    MUTESOLO 0 0 0
    IPHASE 0
    ISBUS 0 0
    BUSCOMP 0 0
    SHOWINMIX 1 0.6667 0.5 1 0.5 0 0 0
    FREEMODE 0
    SEL 1
    REC 0 0 0 0 0 0 0
    VU 2
    TRACKHEIGHT 0 0 0
    INQ 0 0 0 0.5 100 0 0 100
    NCHAN 2
    FX 1
    TRACKID {27D88F7F-7960-40E0-B742-E9D4E112CB0C}
    PERF 0
    MIDIOUT -1
    MAINSEND 1 0
    <ITEM
      POSITION 38.5
      SNAPOFFS 0
      LENGTH 242
      LOOP 1
      ALLTAKES 0
      FADEIN 1 0 0 1 0 0
      FADEOUT 1 0 0 1 0 0
      MUTE 0
      SEL 0
      IGUID {B04FE274-F16B-4EFD-8533-CCA8FFEA6EAB}
      IID 21
      NAME "untitled - GetluckyfeatPharrellWilliams.mid [chan 12]"
      VOLPAN 1 0 1 -1
      SOFFS 0 0
      PLAYRATE 1 1 0 -1 0 0.0025
      CHANMODE 0
      GUID {3421151C-6805-4E43-89C3-A6606F8A1837}
      <SOURCE MIDI
        HASDATA 1 960 QN
        POOLEDEVTS {6F546BD4-B3AD-44B6-8068-3B3EC7CBC3B1}
        E 66 bb 65 00
        E 2 bb 64 00
        E 2 bb 06 0c
        E 2 bb 26 00
        E 24 cb 07 00
        E 0 bb 07 7f
        E 0 bb 0a 60
        E 0 eb 00 40
        E 0 bb 5d 00
        E 0 bb 5b 00
        E 0 bb 5f 00
        E 0 bb 5c 00
        E 280224 9b 40 5f
        E 240 9b 40 00
        E 0 9b 42 5f
        E 240 9b 42 00
        E 240 9b 45 5f
        E 240 9b 45 00
        E 240 9b 42 5f
        E 240 9b 42 00
        E 240 9b 49 5f
        E 0 9b 47 5f
        E 480 9b 47 00
        E 0 9b 49 00
        E 0 9b 45 5f
        E 240 9b 45 00
        E 240 9b 42 5f
        E 240 9b 42 00
        E 480 9b 42 2f
        E 240 9b 42 00
        E 0 9b 44 5f
        E 720 9b 44 00
        E 0 9b 42 5f
        E 240 9b 42 00
        E 480 9b 40 5f
        E 240 9b 40 00
        E 240 9b 42 5f
        E 240 9b 42 00
        E 0 9b 49 5f
        E 240 9b 49 00
        E 240 9b 47 5f
        E 240 9b 47 00
        E 240 9b 45 5f
        E 240 9b 45 00
        E 240 9b 42 5f
        E 240 9b 42 00
        E 0 9b 47 5f
        E 720 9b 47 00
        E 0 9b 42 5f
        E 240 9b 42 00
        E 0 9b 42 5f
        E 240 9b 42 00
        E 0 9b 42 5f
        E 240 9b 42 00
        E 240 9b 42 5f
        E 240 9b 42 00
        E 0 9b 45 5f
        E 0 9b 42 5f
        E 480 9b 42 00
        E 0 9b 45 00
        E 0 9b 45 5f
        E 0 9b 42 5f
        E 240 9b 42 00
        E 0 9b 45 00
        E 0 9b 47 5f
        E 0 9b 42 5f
        E 480 9b 47 00
        E 0 9b 42 00
        E 0 9b 49 5f
        E 0 9b 42 5f
        E 480 9b 49 00
        E 0 9b 42 00
        E 0 9b 47 5f
        E 0 9b 42 5f
        E 480 9b 42 00
        E 0 9b 47 00
        E 240 9b 40 5f
        E 240 9b 40 00
        E 0 9b 40 5f
        E 240 9b 40 00
        E 0 9b 40 5f
        E 240 9b 40 00
        E 240 9b 40 5f
        E 240 9b 40 00
        E 0 9b 3b 5f
        E 240 9b 3b 00
        E 0 9b 44 2f
        E 0 9b 40 5f
        E 0 9b 3b 5f
        E 240 9b 3b 00
        E 0 9b 40 00
        E 0 9b 44 00
        E 240 9b 44 2f
        E 0 9b 40 5f
        E 0 9b 3a 5f
        E 240 9b 3a 00
        E 0 9b 40 00
        E 0 9b 44 00
        E 0 9b 3b 5f
        E 240 9b 3b 00
        E 0 9b 3d 5f
        E 240 9b 3d 00
        E 0 9b 40 5f
        E 240 9b 40 00
        E 240 9b 42 5f
        E 240 9b 42 00
        E 0 9b 45 5f
        E 720 9b 45 00
        E 0 9b 42 5f
        E 240 9b 42 00
        E 960 9b 42 2f
        E 0 9b 3e 5f
        E 0 9b 39 5f
        E 480 9b 39 00
        E 0 9b 42 00
        E 0 9b 3e 00
        E 0 9b 42 2f
        E 0 9b 3e 5f
        E 0 9b 39 5f
        E 240 9b 39 00
        E 0 9b 3e 00
        E 0 9b 42 00
        E 0 9b 42 2f
        E 0 9b 3e 5f
        E 0 9b 39 5f
        E 120 eb 00 46
        E 120 eb 00 4d
        E 120 eb 00 54
        E 120 eb 00 40
        E 0 9b 3e 00
        E 0 9b 42 00
        E 0 9b 39 00
        E 0 9b 45 2f
        E 0 9b 42 5f
        E 0 9b 3e 5f
        E 480 9b 45 00
        E 0 9b 3e 00
        E 0 9b 42 00
        E 0 9b 45 2f
        E 0 9b 42 5f
        E 0 9b 3e 5f
        E 480 9b 45 00
        E 0 9b 3e 00
        E 0 9b 42 00
        E 0 9b 42 5f
        E 480 9b 42 00
        E 0 9b 42 5f
        E 240 9b 42 00
        E 0 9b 3e 5f
        E 240 9b 3e 00
        E 240 9b 3e 5f
        E 240 9b 3e 00
        E 240 9b 42 2f
        E 0 9b 3e 2f
        E 0 9b 39 5f
        E 480 9b 39 00
        E 0 9b 42 00
        E 0 9b 3e 00
        E 0 9b 42 2f
        E 0 9b 3e 5f
        E 0 9b 39 5f
        E 240 9b 39 00
        E 0 9b 42 00
        E 0 9b 3e 00
        E 0 9b 42 2f
        E 0 9b 3e 5f
        E 0 9b 39 5f
        E 120 eb 00 46
        E 120 eb 00 4d
        E 120 eb 00 54
        E 120 eb 00 40
        E 0 9b 3e 00
        E 0 9b 42 00
        E 0 9b 39 00
        E 0 9b 45 2f
        E 0 9b 42 5f
        E 0 9b 3e 5f
        E 480 9b 42 00
        E 0 9b 3e 00
        E 0 9b 45 00
        E 0 9b 45 2f
        E 0 9b 42 5f
        E 0 9b 3e 5f
        E 480 9b 45 00
        E 0 9b 3e 00
        E 0 9b 42 00
        E 0 9b 45 5f
        E 480 9b 45 00
        E 0 9b 45 5f
        E 240 9b 45 00
        E 0 9b 42 5f
        E 240 9b 42 00
        E 240 9b 42 5f
        E 240 9b 42 00
        E 240 9b 45 2f
        E 0 9b 42 2f
        E 0 9b 3d 5f
        E 480 9b 3d 00
        E 0 9b 45 00
        E 0 9b 42 00
        E 0 9b 45 2f
        E 0 9b 42 5f
        E 0 9b 3d 5f
        E 240 9b 3d 00
        E 0 9b 42 00
        E 0 9b 45 00
        E 0 9b 45 2f
        E 0 9b 42 5f
        E 0 9b 3d 5f
        E 120 eb 00 46
        E 120 eb 00 4d
        E 120 eb 00 54
        E 120 eb 00 40
        E 0 9b 42 00
        E 0 9b 3d 00
        E 0 9b 45 00
        E 0 9b 49 2f
        E 0 9b 45 5f
        E 0 9b 42 5f
        E 480 9b 42 00
        E 0 9b 45 00
        E 0 9b 49 00
        E 0 9b 49 2f
        E 0 9b 45 5f
        E 0 9b 42 5f
        E 480 9b 45 00
        E 0 9b 49 00
        E 0 9b 42 00
        E 0 9b 44 5f
        E 480 9b 44 00
        E 0 9b 44 5f
        E 240 9b 44 00
        E 0 9b 40 5f
        E 240 9b 40 00
        E 240 9b 40 5f
        E 240 9b 40 00
        E 240 9b 44 2f
        E 0 9b 40 2f
        E 0 9b 3b 5f
        E 480 9b 3b 00
        E 0 9b 44 00
        E 0 9b 40 00
        E 0 9b 44 2f
        E 0 9b 40 5f
        E 0 9b 3b 5f
        E 240 9b 3b 00
        E 0 9b 40 00
        E 0 9b 44 00
        E 0 9b 44 2f
        E 0 9b 40 5f
        E 0 9b 3b 5f
        E 120 eb 00 46
        E 120 eb 00 4d
        E 120 eb 00 54
        E 120 eb 00 40
        E 0 9b 3b 00
        E 0 9b 44 00
        E 0 9b 40 00
        E 0 9b 47 2f
        E 0 9b 44 5f
        E 0 9b 40 5f
        E 480 9b 44 00
        E 0 9b 40 00
        E 0 9b 47 00
        E 0 9b 47 2f
        E 0 9b 44 5f
        E 0 9b 40 5f
        E 240 9b 40 00
        E 0 9b 44 00
        E 0 9b 47 00
        E 0 9b 45 5f
        E 720 9b 45 00
        E 0 9b 42 5f
        E 240 9b 42 00
        E 960 9b 42 2f
        E 0 9b 3e 5f
        E 0 9b 39 5f
        E 480 9b 39 00
        E 0 9b 42 00
        E 0 9b 3e 00
        E 0 9b 42 2f
        E 0 9b 3e 5f
        E 0 9b 39 5f
        E 240 9b 39 00
        E 0 9b 3e 00
        E 0 9b 42 00
        E 0 9b 42 2f
        E 0 9b 3e 5f
        E 0 9b 39 5f
        E 120 eb 00 46
        E 120 eb 00 4d
        E 120 eb 00 54
        E 120 eb 00 40
        E 0 9b 3e 00
        E 0 9b 42 00
        E 0 9b 39 00
        E 0 9b 45 2f
        E 0 9b 42 5f
        E 0 9b 3e 5f
        E 480 9b 45 00
        E 0 9b 3e 00
        E 0 9b 42 00
        E 0 9b 45 2f
        E 0 9b 42 5f
        E 0 9b 3e 5f
        E 480 9b 45 00
        E 0 9b 3e 00
        E 0 9b 42 00
        E 0 9b 42 5f
        E 480 9b 42 00
        E 0 9b 42 5f
        E 240 9b 42 00
        E 0 9b 3e 5f
        E 240 9b 3e 00
        E 240 9b 3e 5f
        E 240 9b 3e 00
        E 240 9b 42 2f
        E 0 9b 3e 2f
        E 0 9b 39 5f
        E 480 9b 39 00
        E 0 9b 42 00
        E 0 9b 3e 00
        E 0 9b 42 2f
        E 0 9b 3e 5f
        E 0 9b 39 5f
        E 240 9b 39 00
        E 0 9b 42 00
        E 0 9b 3e 00
        E 0 9b 42 2f
        E 0 9b 3e 5f
        E 0 9b 39 5f
        E 120 eb 00 46
        E 120 eb 00 4d
        E 120 eb 00 54
        E 120 eb 00 40
        E 0 9b 3e 00
        E 0 9b 42 00
        E 0 9b 39 00
        E 0 9b 45 2f
        E 0 9b 42 5f
        E 0 9b 3e 5f
        E 480 9b 42 00
        E 0 9b 3e 00
        E 0 9b 45 00
        E 0 9b 45 2f
        E 0 9b 42 5f
        E 0 9b 3e 5f
        E 480 9b 3e 00
        E 0 9b 42 00
        E 0 9b 45 00
        E 0 9b 45 5f
        E 480 9b 45 00
        E 0 9b 45 5f
        E 240 9b 45 00
        E 0 9b 42 5f
        E 240 9b 42 00
        E 240 9b 42 5f
        E 240 9b 42 00
        E 240 9b 45 2f
        E 0 9b 42 2f
        E 0 9b 3d 5f
        E 480 9b 3d 00
        E 0 9b 45 00
        E 0 9b 42 00
        E 0 9b 45 2f
        E 0 9b 42 5f
        E 0 9b 3d 5f
        E 240 9b 3d 00
        E 0 9b 42 00
        E 0 9b 45 00
        E 0 9b 45 2f
        E 0 9b 42 5f
        E 0 9b 3d 5f
        E 120 eb 00 46
        E 120 eb 00 4d
        E 120 eb 00 54
        E 120 eb 00 40
        E 0 9b 42 00
        E 0 9b 3d 00
        E 0 9b 45 00
        E 0 9b 49 2f
        E 0 9b 45 5f
        E 0 9b 42 5f
        E 480 9b 42 00
        E 0 9b 45 00
        E 0 9b 49 00
        E 0 9b 49 2f
        E 0 9b 45 5f
        E 0 9b 42 5f
        E 480 9b 45 00
        E 0 9b 49 00
        E 0 9b 42 00
        E 0 9b 44 5f
        E 480 9b 44 00
        E 0 9b 44 5f
        E 240 9b 44 00
        E 0 9b 40 5f
        E 240 9b 40 00
        E 240 9b 40 5f
        E 240 9b 40 00
        E 240 9b 44 2f
        E 0 9b 40 2f
        E 0 9b 3b 5f
        E 480 9b 3b 00
        E 0 9b 44 00
        E 0 9b 40 00
        E 0 9b 44 2f
        E 0 9b 40 5f
        E 0 9b 3b 5f
        E 240 9b 3b 00
        E 0 9b 40 00
        E 0 9b 44 00
        E 0 9b 44 2f
        E 0 9b 40 5f
        E 0 9b 3b 5f
        E 120 eb 00 46
        E 120 eb 00 4d
        E 120 eb 00 54
        E 120 eb 00 40
        E 0 9b 3b 00
        E 0 9b 44 00
        E 0 9b 40 00
        E 0 9b 47 2f
        E 0 9b 44 5f
        E 0 9b 40 5f
        E 480 9b 44 00
        E 0 9b 40 00
        E 0 9b 47 00
        E 0 9b 47 2f
        E 0 9b 44 5f
        E 0 9b 40 5f
        E 480 9b 40 00
        E 0 9b 44 00
        E 0 9b 47 00
        E 0 9b 42 5f
        E 480 9b 42 00
        E 0 9b 42 5f
        E 240 9b 42 00
        E 0 9b 3e 5f
        E 240 9b 3e 00
        E 240 9b 3e 5f
        E 240 9b 3e 00
        E 240 9b 42 2f
        E 0 9b 3e 2f
        E 0 9b 39 5f
        E 480 9b 42 00
        E 0 9b 3e 00
        E 0 9b 39 00
        E 0 9b 42 2f
        E 0 9b 3e 5f
        E 0 9b 39 5f
        E 240 9b 39 00
        E 0 9b 42 00
        E 0 9b 3e 00
        E 0 9b 42 2f
        E 0 9b 3e 5f
        E 0 9b 39 5f
        E 120 eb 00 46
        E 120 eb 00 4d
        E 120 eb 00 54
        E 120 eb 00 40
        E 0 9b 39 00
        E 0 9b 3e 00
        E 0 9b 42 00
        E 0 9b 45 2f
        E 0 9b 42 5f
        E 0 9b 3e 5f
        E 480 9b 42 00
        E 0 9b 45 00
        E 0 9b 3e 00
        E 0 9b 45 2f
        E 0 9b 42 5f
        E 0 9b 3e 5f
        E 480 9b 3e 00
        E 0 9b 42 00
        E 0 9b 45 00
        E 0 9b 42 5f
        E 480 9b 42 00
        E 0 9b 42 5f
        E 240 9b 42 00
        E 0 9b 3e 5f
        E 240 9b 3e 00
        E 240 9b 3e 5f
        E 240 9b 3e 00
        E 240 9b 42 2f
        E 0 9b 3e 2f
        E 0 9b 39 5f
        E 480 9b 3e 00
        E 0 9b 42 00
        E 0 9b 39 00
        E 0 9b 42 2f
        E 0 9b 3e 5f
        E 0 9b 39 5f
        E 240 9b 39 00
        E 0 9b 42 00
        E 0 9b 3e 00
        E 0 9b 42 2f
        E 0 9b 3e 5f
        E 0 9b 39 5f
        E 120 eb 00 46
        E 120 eb 00 4d
        E 120 eb 00 54
        E 120 eb 00 40
        E 0 9b 3e 00
        E 0 9b 42 00
        E 0 9b 39 00
        E 0 9b 45 2f
        E 0 9b 42 5f
        E 0 9b 3e 5f
        E 480 9b 45 00
        E 0 9b 42 00
        E 0 9b 3e 00
        E 0 9b 45 2f
        E 0 9b 42 5f
        E 0 9b 3e 5f
        E 480 9b 3e 00
        E 0 9b 45 00
        E 0 9b 42 00
        E 0 9b 45 5f
        E 480 9b 45 00
        E 0 9b 45 5f
        E 240 9b 45 00
        E 0 9b 42 5f
        E 240 9b 42 00
        E 240 9b 42 5f
        E 240 9b 42 00
        E 240 9b 45 2f
        E 0 9b 42 2f
        E 0 9b 3d 5f
        E 480 9b 3d 00
        E 0 9b 42 00
        E 0 9b 45 00
        E 0 9b 45 2f
        E 0 9b 42 5f
        E 0 9b 3d 5f
        E 240 9b 42 00
        E 0 9b 45 00
        E 0 9b 3d 00
        E 0 9b 45 2f
        E 0 9b 42 5f
        E 0 9b 3d 5f
        E 120 eb 00 46
        E 120 eb 00 4d
        E 120 eb 00 54
        E 120 eb 00 40
        E 0 9b 42 00
        E 0 9b 45 00
        E 0 9b 3d 00
        E 0 9b 49 2f
        E 0 9b 45 5f
        E 0 9b 42 5f
        E 480 9b 49 00
        E 0 9b 45 00
        E 0 9b 42 00
        E 0 9b 49 2f
        E 0 9b 45 5f
        E 0 9b 42 5f
        E 480 9b 42 00
        E 0 9b 49 00
        E 0 9b 45 00
        E 0 9b 44 5f
        E 480 9b 44 00
        E 0 9b 44 5f
        E 240 9b 44 00
        E 0 9b 40 5f
        E 240 9b 40 00
        E 240 9b 40 5f
        E 240 9b 40 00
        E 240 9b 44 2f
        E 0 9b 40 2f
        E 0 9b 3b 5f
        E 480 9b 3b 00
        E 0 9b 44 00
        E 0 9b 40 00
        E 0 9b 44 2f
        E 0 9b 40 5f
        E 0 9b 3b 5f
        E 240 9b 3b 00
        E 0 9b 44 00
        E 0 9b 40 00
        E 0 9b 44 2f
        E 0 9b 40 5f
        E 0 9b 3b 5f
        E 120 eb 00 46
        E 120 eb 00 4d
        E 120 eb 00 54
        E 120 eb 00 40
        E 0 9b 40 00
        E 0 9b 3b 00
        E 0 9b 44 00
        E 0 9b 47 2f
        E 0 9b 44 5f
        E 0 9b 40 5f
        E 480 9b 44 00
        E 0 9b 40 00
        E 0 9b 47 00
        E 0 9b 47 2f
        E 0 9b 44 5f
        E 0 9b 40 5f
        E 480 9b 40 00
        E 0 9b 47 00
        E 0 9b 44 00
        E 0 9b 42 5f
        E 480 9b 42 00
        E 0 9b 42 5f
        E 240 9b 42 00
        E 0 9b 3e 5f
        E 240 9b 3e 00
        E 240 9b 3e 5f
        E 240 9b 3e 00
        E 240 9b 42 2f
        E 0 9b 3e 2f
        E 0 9b 39 5f
        E 480 9b 42 00
        E 0 9b 3e 00
        E 0 9b 39 00
        E 0 9b 42 2f
        E 0 9b 3e 5f
        E 0 9b 39 5f
        E 240 9b 39 00
        E 0 9b 42 00
        E 0 9b 3e 00
        E 0 9b 42 2f
        E 0 9b 3e 5f
        E 0 9b 39 5f
        E 120 eb 00 46
        E 120 eb 00 4d
        E 120 eb 00 54
        E 120 eb 00 40
        E 0 9b 39 00
        E 0 9b 3e 00
        E 0 9b 42 00
        E 0 9b 45 2f
        E 0 9b 42 5f
        E 0 9b 3e 5f
        E 480 9b 42 00
        E 0 9b 45 00
        E 0 9b 3e 00
        E 0 9b 45 2f
        E 0 9b 42 5f
        E 0 9b 3e 5f
        E 480 9b 3e 00
        E 0 9b 42 00
        E 0 9b 45 00
        E 0 9b 42 5f
        E 480 9b 42 00
        E 0 9b 42 5f
        E 240 9b 42 00
        E 0 9b 3e 5f
        E 240 9b 3e 00
        E 240 9b 3e 5f
        E 240 9b 3e 00
        E 240 9b 42 2f
        E 0 9b 3e 2f
        E 0 9b 39 5f
        E 480 9b 3e 00
        E 0 9b 42 00
        E 0 9b 39 00
        E 0 9b 42 2f
        E 0 9b 3e 5f
        E 0 9b 39 5f
        E 240 9b 39 00
        E 0 9b 42 00
        E 0 9b 3e 00
        E 0 9b 42 2f
        E 0 9b 3e 5f
        E 0 9b 39 5f
        E 120 eb 00 46
        E 120 eb 00 4d
        E 120 eb 00 54
        E 120 eb 00 40
        E 0 9b 3e 00
        E 0 9b 42 00
        E 0 9b 39 00
        E 0 9b 45 2f
        E 0 9b 42 5f
        E 0 9b 3e 5f
        E 480 9b 45 00
        E 0 9b 42 00
        E 0 9b 3e 00
        E 0 9b 45 2f
        E 0 9b 42 5f
        E 0 9b 3e 5f
        E 480 9b 3e 00
        E 0 9b 45 00
        E 0 9b 42 00
        E 0 9b 45 5f
        E 480 9b 45 00
        E 0 9b 45 5f
        E 240 9b 45 00
        E 0 9b 42 5f
        E 240 9b 42 00
        E 240 9b 42 5f
        E 240 9b 42 00
        E 240 9b 45 2f
        E 0 9b 42 2f
        E 0 9b 3d 5f
        E 480 9b 3d 00
        E 0 9b 42 00
        E 0 9b 45 00
        E 0 9b 45 2f
        E 0 9b 42 5f
        E 0 9b 3d 5f
        E 240 9b 42 00
        E 0 9b 45 00
        E 0 9b 3d 00
        E 0 9b 45 2f
        E 0 9b 42 5f
        E 0 9b 3d 5f
        E 120 eb 00 46
        E 120 eb 00 4d
        E 120 eb 00 54
        E 120 eb 00 40
        E 0 9b 42 00
        E 0 9b 3d 00
        E 0 9b 45 00
        E 0 9b 49 2f
        E 0 9b 45 5f
        E 0 9b 42 5f
        E 480 9b 49 00
        E 0 9b 45 00
        E 0 9b 42 00
        E 0 9b 49 2f
        E 0 9b 45 5f
        E 0 9b 42 5f
        E 480 9b 42 00
        E 0 9b 49 00
        E 0 9b 45 00
        E 0 9b 44 5f
        E 480 9b 44 00
        E 0 9b 44 5f
        E 240 9b 44 00
        E 0 9b 40 5f
        E 240 9b 40 00
        E 240 9b 40 5f
        E 240 9b 40 00
        E 240 9b 44 2f
        E 0 9b 40 2f
        E 0 9b 3b 5f
        E 480 9b 3b 00
        E 0 9b 44 00
        E 0 9b 40 00
        E 0 9b 44 2f
        E 0 9b 40 5f
        E 0 9b 3b 5f
        E 240 9b 3b 00
        E 0 9b 44 00
        E 0 9b 40 00
        E 0 9b 44 2f
        E 0 9b 40 5f
        E 0 9b 3b 5f
        E 120 eb 00 46
        E 120 eb 00 4d
        E 120 eb 00 54
        E 120 eb 00 40
        E 0 9b 40 00
        E 0 9b 3b 00
        E 0 9b 44 00
        E 0 9b 47 2f
        E 0 9b 44 5f
        E 0 9b 40 5f
        E 480 9b 44 00
        E 0 9b 40 00
        E 0 9b 47 00
        E 0 9b 47 2f
        E 0 9b 44 5f
        E 0 9b 40 5f
        E 480 9b 40 00
        E 0 9b 44 00
        E 0 9b 47 00
        E 107520 b0 7b 00
        GUID {99846FF4-96E4-4675-8422-5152ED3E19B1}
        IGNTEMPO 0 120 4 4
        SRCCOLOR 44
        VELLANE -1 100 0
      >
    >
  >
  <TRACK {7798F2BA-C5AB-4087-9738-AAE87F1F05F9}
    NAME "untitled - GetluckyfeatPharrellWilliams.mid [chan 13] [chan 13]"
    PEAKCOL 24991080
    BEAT -1
    AUTOMODE 0
    VOLPAN 1 0 -1 -1 1
    MUTESOLO 0 0 0
    IPHASE 0
    ISBUS 0 0
    BUSCOMP 0 0
    SHOWINMIX 1 0.6667 0.5 1 0.5 0 0 0
    FREEMODE 0
    SEL 1
    REC 0 0 0 0 0 0 0
    VU 2
    TRACKHEIGHT 0 0 0
    INQ 0 0 0 0.5 100 0 0 100
    NCHAN 2
    FX 1
    TRACKID {7798F2BA-C5AB-4087-9738-AAE87F1F05F9}
    PERF 0
    MIDIOUT -1
    MAINSEND 1 0
    <ITEM
      POSITION 38.5
      SNAPOFFS 0
      LENGTH 242
      LOOP 1
      ALLTAKES 0
      FADEIN 1 0 0 1 0 0
      FADEOUT 1 0 0 1 0 0
      MUTE 0
      SEL 0
      IGUID {2F43D6A1-DC59-4326-B96A-0FAE61F81552}
      IID 22
      NAME "untitled - GetluckyfeatPharrellWilliams.mid [chan 13]"
      VOLPAN 1 0 1 -1
      SOFFS 0 0
      PLAYRATE 1 1 0 -1 0 0.0025
      CHANMODE 0
      GUID {7632567F-4A5B-42A0-858D-3DFBA3F10889}
      <SOURCE MIDI
        HASDATA 1 960 QN
        POOLEDEVTS {04801E65-1CA7-48AD-8568-97407DF46210}
        E 72 bc 65 00
        E 2 bc 64 00
        E 2 bc 06 0c
        E 2 bc 26 00
        E 18 cc 23 00
        E 0 bc 07 7f
        E 0 bc 0a 40
        E 0 ec 00 40
        E 0 bc 5d 00
        E 0 bc 5b 00
        E 0 bc 5f 00
        E 0 bc 5c 00
        E 418464 9c 42 5f
        E 3360 9c 42 00
        E 0 9c 45 5f
        E 4320 9c 45 00
        E 0 9c 49 5f
        E 240 9c 49 00
        E 0 9c 4c 5f
        E 240 9c 4c 00
        E 0 9c 49 5f
        E 240 9c 49 00
        E 0 9c 45 5f
        E 240 9c 45 00
        E 0 9c 49 5f
        E 240 9c 49 00
        E 0 9c 45 5f
        E 240 9c 45 00
        E 0 9c 42 5f
        E 240 9c 42 00
        E 0 9c 45 5f
        E 240 9c 45 00
        E 0 9c 42 5f
        E 240 9c 42 00
        E 0 9c 40 5f
        E 240 9c 40 00
        E 0 9c 42 5f
        E 240 9c 42 00
        E 0 9c 45 5f
        E 240 9c 45 00
        E 0 9c 49 5f
        E 240 9c 49 00
        E 240 9c 47 5f
        E 4320 9c 47 00
        E 0 9c 42 5f
        E 3360 9c 42 00
        E 0 9c 45 5f
        E 4320 9c 45 00
        E 0 9c 49 5f
        E 240 9c 49 00
        E 0 9c 4c 5f
        E 240 9c 4c 00
        E 0 9c 49 5f
        E 240 9c 49 00
        E 0 9c 45 5f
        E 240 9c 45 00
        E 0 9c 49 5f
        E 240 9c 49 00
        E 0 9c 45 5f
        E 240 9c 45 00
        E 0 9c 42 5f
        E 240 9c 42 00
        E 0 9c 45 5f
        E 240 9c 45 00
        E 0 9c 42 5f
        E 240 9c 42 00
        E 0 9c 40 5f
        E 240 9c 40 00
        E 0 9c 42 5f
        E 240 9c 42 00
        E 0 9c 45 5f
        E 240 9c 45 00
        E 0 9c 49 5f
        E 240 9c 49 00
        E 240 9c 47 5f
        E 4320 9c 47 00
        E 0 9c 42 5f
        E 3360 9c 42 00
        E 0 9c 45 5f
        E 4320 9c 45 00
        E 0 9c 49 5f
        E 240 9c 49 00
        E 0 9c 4c 5f
        E 240 9c 4c 00
        E 0 9c 49 5f
        E 240 9c 49 00
        E 0 9c 45 5f
        E 240 9c 45 00
        E 0 9c 49 5f
        E 240 9c 49 00
        E 0 9c 45 5f
        E 240 9c 45 00
        E 0 9c 42 5f
        E 240 9c 42 00
        E 0 9c 45 5f
        E 240 9c 45 00
        E 0 9c 42 5f
        E 240 9c 42 00
        E 0 9c 40 5f
        E 240 9c 40 00
        E 0 9c 42 5f
        E 240 9c 42 00
        E 0 9c 45 5f
        E 240 9c 45 00
        E 0 9c 49 5f
        E 240 9c 49 00
        E 240 9c 47 5f
        E 4318 9c 47 00
        E 2 b0 7b 00
        GUID {344EDF80-D6FB-4B32-93C6-64ACA4DCA3D0}
        IGNTEMPO 0 120 4 4
        SRCCOLOR 46
        VELLANE -1 100 0
      >
    >
  >
  <TRACK {EC541DB2-655B-42FF-8633-8E793E14273C}
    NAME "untitled - GetluckyfeatPharrellWilliams.mid [chan 14] [chan 14]"
    PEAKCOL 31717332
    BEAT -1
    AUTOMODE 0
    VOLPAN 1 0 -1 -1 1
    MUTESOLO 0 0 0
    IPHASE 0
    ISBUS 0 0
    BUSCOMP 0 0
    SHOWINMIX 1 0.6667 0.5 1 0.5 0 0 0
    FREEMODE 0
    SEL 1
    REC 0 0 0 0 0 0 0
    VU 2
    TRACKHEIGHT 0 0 0
    INQ 0 0 0 0.5 100 0 0 100
    NCHAN 2
    FX 1
    TRACKID {EC541DB2-655B-42FF-8633-8E793E14273C}
    PERF 0
    MIDIOUT -1
    MAINSEND 1 0
    <ITEM
      POSITION 38.5
      SNAPOFFS 0
      LENGTH 242
      LOOP 1
      ALLTAKES 0
      FADEIN 1 0 0 1 0 0
      FADEOUT 1 0 0 1 0 0
      MUTE 0
      SEL 0
      IGUID {8AFCB1D8-3205-4B82-8227-9348E67F41AD}
      IID 23
      NAME "untitled - GetluckyfeatPharrellWilliams.mid [chan 14]"
      VOLPAN 1 0 1 -1
      SOFFS 0 0
      PLAYRATE 1 1 0 -1 0 0.0025
      CHANMODE 0
      GUID {49E1620E-7AE6-47C6-BCF8-07B7B3FDB767}
      <SOURCE MIDI
        HASDATA 1 960 QN
        POOLEDEVTS {2F286329-563D-47B3-9365-FE2BBB5140A0}
        E 78 bd 65 00
        E 2 bd 64 00
        E 2 bd 06 0c
        E 2 bd 26 00
        E 12 cd 41 00
        E 0 bd 07 6e
        E 0 bd 0a 40
        E 0 ed 00 40
        E 0 bd 5d 00
        E 0 bd 5b 00
        E 0 bd 5f 00
        E 0 bd 5c 00
        E 31584 9d 34 5f
        E 480 9d 34 00
        E 0 9d 34 5f
        E 480 9d 34 00
        E 0 9d 3b 5f
        E 480 9d 3b 00
        E 0 9d 39 5f
        E 240 9d 39 00
        E 0 9d 38 5f
        E 480 9d 38 00
        E 0 9d 39 5f
        E 480 9d 39 00
        E 0 9d 38 5f
        E 480 9d 38 00
        E 0 9d 36 5f
        E 720 9d 36 00
        E 4320 9d 36 5f
        E 480 9d 36 00
        E 0 9d 3b 5f
        E 480 9d 3b 00
        E 0 9d 39 5f
        E 240 9d 39 00
        E 0 9d 38 5f
        E 480 9d 38 00
        E 0 9d 39 5f
        E 480 9d 39 00
        E 0 9d 38 5f
        E 480 9d 38 00
        E 0 9d 36 5f
        E 720 9d 36 00
        E 4320 9d 34 5f
        E 480 9d 34 00
        E 0 9d 3b 5f
        E 480 9d 3b 00
        E 0 9d 39 5f
        E 240 9d 39 00
        E 0 9d 38 5f
        E 480 9d 38 00
        E 0 9d 39 5f
        E 480 9d 39 00
        E 0 9d 38 5f
        E 480 9d 38 00
        E 0 9d 39 5f
        E 720 9d 39 00
        E 2400 9d 34 5f
        E 480 9d 34 00
        E 0 9d 36 5f
        E 960 9d 36 00
        E 480 9d 36 5f
        E 480 9d 36 00
        E 0 9d 3b 5f
        E 480 9d 3b 00
        E 0 9d 39 5f
        E 240 9d 39 00
        E 0 9d 38 5f
        E 480 9d 38 00
        E 0 9d 39 5f
        E 480 9d 39 00
        E 0 9d 38 5f
        E 480 9d 38 00
        E 0 9d 36 5f
        E 720 9d 36 00
        E 6720 9d 3e 5f
        E 2400 9d 3e 00
        E 0 9d 3d 5f
        E 480 9d 3d 00
        E 0 9d 3e 5f
        E 480 9d 3e 00
        E 0 9d 42 5f
        E 2880 9d 42 00
        E 0 9d 45 2f
        E 0 9d 42 5f
        E 0 9d 3e 5f
        E 480 9d 45 00
        E 0 9d 3e 00
        E 0 9d 42 00
        E 0 9d 47 2f
        E 0 9d 44 5f
        E 0 9d 40 5f
        E 480 9d 47 00
        E 0 9d 44 00
        E 0 9d 40 00
        E 0 9d 49 2f
        E 0 9d 45 5f
        E 0 9d 42 5f
        E 2880 9d 45 00
        E 0 9d 49 00
        E 0 9d 42 00
        E 0 9d 45 5f
        E 0 9d 42 5f
        E 0 9d 3d 2f
        E 480 9d 45 00
        E 0 9d 3d 00
        E 0 9d 42 00
        E 0 9d 47 5f
        E 0 9d 44 5f
        E 0 9d 40 2f
        E 480 9d 44 00
        E 0 9d 40 00
        E 0 9d 47 00
        E 0 9d 47 2f
        E 0 9d 44 5f
        E 0 9d 40 5f
        E 3360 9d 47 00
        E 0 9d 44 00
        E 0 9d 40 00
        E 480 9d 39 5f
        E 480 9d 39 00
        E 0 9d 3e 5f
        E 2400 9d 3e 00
        E 0 9d 3d 5f
        E 480 9d 3d 00
        E 0 9d 3e 5f
        E 480 9d 3e 00
        E 0 9d 42 5f
        E 2880 9d 42 00
        E 0 9d 45 2f
        E 0 9d 42 5f
        E 0 9d 3d 5f
        E 480 9d 45 00
        E 0 9d 3d 00
        E 0 9d 42 00
        E 0 9d 47 2f
        E 0 9d 44 5f
        E 0 9d 40 5f
        E 480 9d 47 00
        E 0 9d 44 00
        E 0 9d 40 00
        E 0 9d 49 2f
        E 0 9d 45 5f
        E 0 9d 42 5f
        E 2880 9d 45 00
        E 0 9d 49 00
        E 0 9d 42 00
        E 0 9d 42 5f
        E 0 9d 3d 5f
        E 480 9d 42 00
        E 0 9d 3d 00
        E 0 9d 49 5f
        E 0 9d 45 5f
        E 0 9d 42 2f
        E 480 9d 45 00
        E 0 9d 42 00
        E 0 9d 49 00
        E 0 9d 47 5f
        E 0 9d 44 5f
        E 0 9d 40 2f
        E 3360 9d 44 00
        E 0 9d 40 00
        E 0 9d 47 00
        E 1440 9d 3e 5f
        E 240 9d 3e 00
        E 0 9d 3e 5f
        E 480 9d 3e 00
        E 0 9d 3e 5f
        E 480 9d 3e 00
        E 0 9d 3e 5f
        E 480 9d 3e 00
        E 0 9d 3e 5f
        E 240 9d 3e 00
        E 0 9d 3e 5f
        E 480 9d 3e 00
        E 0 9d 40 5f
        E 960 9d 40 00
        E 480 9d 3e 5f
        E 240 9d 3e 00
        E 0 9d 3e 5f
        E 480 9d 3e 00
        E 0 9d 3e 5f
        E 480 9d 3e 00
        E 0 9d 3e 5f
        E 480 9d 3e 00
        E 0 9d 3e 5f
        E 240 9d 3e 00
        E 0 9d 3e 5f
        E 480 9d 3e 00
        E 0 9d 40 5f
        E 960 9d 40 00
        E 480 9d 3d 5f
        E 240 9d 3d 00
        E 0 9d 3d 5f
        E 480 9d 3d 00
        E 0 9d 3d 5f
        E 480 9d 3d 00
        E 0 9d 3d 5f
        E 480 9d 3d 00
        E 0 9d 3d 5f
        E 240 9d 3d 00
        E 0 9d 3d 5f
        E 480 9d 3d 00
        E 0 9d 40 5f
        E 960 9d 40 00
        E 480 9d 3b 5f
        E 240 9d 3b 00
        E 0 9d 3b 5f
        E 480 9d 3b 00
        E 0 9d 3b 5f
        E 480 9d 3b 00
        E 0 9d 3b 5f
        E 480 9d 3b 00
        E 0 9d 3b 5f
        E 240 9d 3b 00
        E 0 9d 3d 5f
        E 480 9d 3d 00
        E 0 9d 3b 5f
        E 480 9d 3b 00
        E 0 9d 39 5f
        E 480 9d 39 00
        E 480 9d 3e 5f
        E 240 9d 3e 00
        E 0 9d 3e 5f
        E 480 9d 3e 00
        E 0 9d 3e 5f
        E 480 9d 3e 00
        E 0 9d 3e 5f
        E 480 9d 3e 00
        E 0 9d 3e 5f
        E 240 9d 3e 00
        E 0 9d 3e 5f
        E 480 9d 3e 00
        E 0 9d 40 5f
        E 960 9d 40 00
        E 480 9d 3e 5f
        E 240 9d 3e 00
        E 0 9d 3e 5f
        E 480 9d 3e 00
        E 0 9d 3e 5f
        E 480 9d 3e 00
        E 0 9d 3e 5f
        E 480 9d 3e 00
        E 0 9d 3e 5f
        E 240 9d 3e 00
        E 0 9d 3e 5f
        E 480 9d 3e 00
        E 0 9d 40 5f
        E 960 9d 40 00
        E 480 9d 3d 5f
        E 240 9d 3d 00
        E 0 9d 3d 5f
        E 480 9d 3d 00
        E 0 9d 3d 5f
        E 480 9d 3d 00
        E 0 9d 3d 5f
        E 480 9d 3d 00
        E 0 9d 3d 5f
        E 240 9d 3d 00
        E 0 9d 3d 5f
        E 480 9d 3d 00
        E 0 9d 40 5f
        E 960 9d 40 00
        E 480 9d 3b 5f
        E 240 9d 3b 00
        E 0 9d 3b 5f
        E 480 9d 3b 00
        E 0 9d 3b 5f
        E 480 9d 3b 00
        E 0 9d 3b 5f
        E 480 9d 3b 00
        E 0 9d 3b 5f
        E 240 9d 3b 00
        E 0 9d 3d 5f
        E 480 9d 3d 00
        E 0 9d 3b 5f
        E 480 9d 3b 00
        E 0 9d 39 5f
        E 480 9d 39 00
        E 480 9d 3b 5f
        E 240 9d 3b 00
        E 0 9d 3b 5f
        E 480 9d 3b 00
        E 0 9d 3b 5f
        E 480 9d 3b 00
        E 0 9d 3b 5f
        E 480 9d 3b 00
        E 0 9d 3b 5f
        E 240 9d 3b 00
        E 0 9d 3d 5f
        E 480 9d 3d 00
        E 0 9d 3b 5f
        E 480 9d 3b 00
        E 0 9d 39 5f
        E 480 9d 39 00
        E 480 9d 3b 5f
        E 240 9d 3b 00
        E 0 9d 3b 5f
        E 480 9d 3b 00
        E 0 9d 3b 5f
        E 480 9d 3b 00
        E 0 9d 3b 5f
        E 480 9d 3b 00
        E 0 9d 3b 5f
        E 240 9d 3b 00
        E 0 9d 3d 5f
        E 480 9d 3d 00
        E 0 9d 3b 5f
        E 480 9d 3b 00
        E 0 9d 39 5f
        E 480 9d 39 00
        E 480 9d 3b 5f
        E 240 9d 3b 00
        E 0 9d 3b 5f
        E 480 9d 3b 00
        E 0 9d 3b 5f
        E 480 9d 3b 00
        E 0 9d 3b 5f
        E 480 9d 3b 00
        E 0 9d 3b 5f
        E 240 9d 3b 00
        E 0 9d 3d 5f
        E 480 9d 3d 00
        E 0 9d 3b 5f
        E 480 9d 3b 00
        E 0 9d 39 5f
        E 480 9d 39 00
        E 480 9d 3b 5f
        E 240 9d 3b 00
        E 0 9d 3b 5f
        E 480 9d 3b 00
        E 0 9d 3b 5f
        E 480 9d 3b 00
        E 0 9d 3b 5f
        E 480 9d 3b 00
        E 0 9d 3b 5f
        E 240 9d 3b 00
        E 0 9d 3d 5f
        E 480 9d 3d 00
        E 0 9d 3b 5f
        E 480 9d 3b 00
        E 0 9d 39 5f
        E 480 9d 39 00
        E 12480 9d 34 5f
        E 480 9d 34 00
        E 0 9d 34 5f
        E 480 9d 34 00
        E 0 9d 3b 5f
        E 480 9d 3b 00
        E 0 9d 39 5f
        E 240 9d 39 00
        E 0 9d 38 5f
        E 480 9d 38 00
        E 0 9d 39 5f
        E 480 9d 39 00
        E 0 9d 38 5f
        E 480 9d 38 00
        E 0 9d 36 5f
        E 720 9d 36 00
        E 4320 9d 36 5f
        E 480 9d 36 00
        E 0 9d 3b 5f
        E 480 9d 3b 00
        E 0 9d 39 2f
        E 240 9d 39 00
        E 0 9d 38 5f
        E 480 9d 38 00
        E 0 9d 39 5f
        E 480 9d 39 00
        E 0 9d 38 5f
        E 480 9d 38 00
        E 0 9d 36 5f
        E 720 9d 36 00
        E 4800 9d 3b 5f
        E 240 9d 3b 00
        E 0 9d 39 5f
        E 480 9d 39 00
        E 0 9d 38 5f
        E 480 9d 38 00
        E 0 9d 39 5f
        E 480 9d 39 00
        E 0 9d 38 5f
        E 480 9d 38 00
        E 0 9d 36 5f
        E 720 9d 36 00
        E 4320 9d 36 5f
        E 480 9d 36 00
        E 0 9d 3b 5f
        E 480 9d 3b 00
        E 0 9d 39 5f
        E 240 9d 39 00
        E 0 9d 38 5f
        E 480 9d 38 00
        E 0 9d 39 5f
        E 480 9d 39 00
        E 0 9d 38 5f
        E 480 9d 38 00
        E 0 9d 36 5f
        E 720 9d 36 00
        E 6720 9d 3e 5f
        E 2400 9d 3e 00
        E 0 9d 3d 5f
        E 480 9d 3d 00
        E 0 9d 3e 5f
        E 480 9d 3e 00
        E 0 9d 42 5f
        E 2880 9d 42 00
        E 0 9d 45 2f
        E 0 9d 42 5f
        E 0 9d 3e 5f
        E 480 9d 45 00
        E 0 9d 3e 00
        E 0 9d 42 00
        E 0 9d 47 2f
        E 0 9d 44 5f
        E 0 9d 40 5f
        E 480 9d 47 00
        E 0 9d 44 00
        E 0 9d 40 00
        E 0 9d 49 2f
        E 0 9d 45 5f
        E 0 9d 42 5f
        E 2880 9d 45 00
        E 0 9d 49 00
        E 0 9d 42 00
        E 0 9d 45 5f
        E 0 9d 42 5f
        E 0 9d 3d 2f
        E 480 9d 45 00
        E 0 9d 3d 00
        E 0 9d 42 00
        E 0 9d 47 5f
        E 0 9d 44 5f
        E 0 9d 40 2f
        E 480 9d 44 00
        E 0 9d 40 00
        E 0 9d 47 00
        E 0 9d 47 2f
        E 0 9d 44 5f
        E 0 9d 40 5f
        E 3360 9d 47 00
        E 0 9d 44 00
        E 0 9d 40 00
        E 480 9d 39 5f
        E 480 9d 39 00
        E 0 9d 3e 5f
        E 2400 9d 3e 00
        E 0 9d 3d 5f
        E 480 9d 3d 00
        E 0 9d 3e 5f
        E 480 9d 3e 00
        E 0 9d 42 5f
        E 2880 9d 42 00
        E 0 9d 45 2f
        E 0 9d 42 5f
        E 0 9d 3d 5f
        E 480 9d 45 00
        E 0 9d 3d 00
        E 0 9d 42 00
        E 0 9d 47 2f
        E 0 9d 44 5f
        E 0 9d 40 5f
        E 480 9d 47 00
        E 0 9d 44 00
        E 0 9d 40 00
        E 0 9d 49 2f
        E 0 9d 45 5f
        E 0 9d 42 5f
        E 2880 9d 45 00
        E 0 9d 49 00
        E 0 9d 42 00
        E 0 9d 42 5f
        E 0 9d 3d 5f
        E 480 9d 42 00
        E 0 9d 3d 00
        E 0 9d 49 5f
        E 0 9d 45 5f
        E 0 9d 42 2f
        E 480 9d 45 00
        E 0 9d 42 00
        E 0 9d 49 00
        E 0 9d 47 5f
        E 0 9d 44 5f
        E 0 9d 40 2f
        E 3360 9d 44 00
        E 0 9d 40 00
        E 0 9d 47 00
        E 1440 9d 3e 5f
        E 240 9d 3e 00
        E 0 9d 3e 5f
        E 480 9d 3e 00
        E 0 9d 3e 5f
        E 480 9d 3e 00
        E 0 9d 3e 5f
        E 480 9d 3e 00
        E 0 9d 3e 5f
        E 240 9d 3e 00
        E 0 9d 3e 5f
        E 480 9d 3e 00
        E 0 9d 40 5f
        E 960 9d 40 00
        E 480 9d 3e 5f
        E 240 9d 3e 00
        E 0 9d 3e 5f
        E 480 9d 3e 00
        E 0 9d 3e 5f
        E 480 9d 3e 00
        E 0 9d 3e 5f
        E 480 9d 3e 00
        E 0 9d 3e 5f
        E 240 9d 3e 00
        E 0 9d 3e 5f
        E 480 9d 3e 00
        E 0 9d 40 5f
        E 960 9d 40 00
        E 480 9d 3d 5f
        E 240 9d 3d 00
        E 0 9d 3d 5f
        E 480 9d 3d 00
        E 0 9d 3d 5f
        E 480 9d 3d 00
        E 0 9d 3d 5f
        E 480 9d 3d 00
        E 0 9d 3d 5f
        E 240 9d 3d 00
        E 0 9d 3d 5f
        E 480 9d 3d 00
        E 0 9d 40 5f
        E 960 9d 40 00
        E 480 9d 3b 5f
        E 240 9d 3b 00
        E 0 9d 3b 5f
        E 480 9d 3b 00
        E 0 9d 3b 5f
        E 480 9d 3b 00
        E 0 9d 3b 5f
        E 480 9d 3b 00
        E 0 9d 3b 5f
        E 240 9d 3b 00
        E 0 9d 3d 5f
        E 480 9d 3d 00
        E 0 9d 3b 5f
        E 480 9d 3b 00
        E 0 9d 39 5f
        E 480 9d 39 00
        E 480 9d 3e 5f
        E 240 9d 3e 00
        E 0 9d 3e 5f
        E 480 9d 3e 00
        E 0 9d 3e 5f
        E 480 9d 3e 00
        E 0 9d 3e 5f
        E 480 9d 3e 00
        E 0 9d 3e 5f
        E 240 9d 3e 00
        E 0 9d 3e 5f
        E 480 9d 3e 00
        E 0 9d 40 5f
        E 960 9d 40 00
        E 480 9d 3e 5f
        E 240 9d 3e 00
        E 0 9d 3e 5f
        E 480 9d 3e 00
        E 0 9d 3e 5f
        E 480 9d 3e 00
        E 0 9d 3e 5f
        E 480 9d 3e 00
        E 0 9d 3e 5f
        E 240 9d 3e 00
        E 0 9d 3e 5f
        E 480 9d 3e 00
        E 0 9d 40 5f
        E 960 9d 40 00
        E 480 9d 3d 5f
        E 240 9d 3d 00
        E 0 9d 3d 5f
        E 480 9d 3d 00
        E 0 9d 3d 5f
        E 480 9d 3d 00
        E 0 9d 3d 5f
        E 480 9d 3d 00
        E 0 9d 3d 5f
        E 240 9d 3d 00
        E 0 9d 3d 5f
        E 480 9d 3d 00
        E 0 9d 40 5f
        E 960 9d 40 00
        E 480 9d 3b 5f
        E 240 9d 3b 00
        E 0 9d 3b 5f
        E 480 9d 3b 00
        E 0 9d 3b 5f
        E 480 9d 3b 00
        E 0 9d 3b 5f
        E 480 9d 3b 00
        E 0 9d 3b 5f
        E 240 9d 3b 00
        E 0 9d 3d 5f
        E 480 9d 3d 00
        E 0 9d 3b 5f
        E 480 9d 3b 00
        E 0 9d 39 5f
        E 480 9d 39 00
        E 480 9d 3b 5f
        E 240 9d 3b 00
        E 0 9d 3b 5f
        E 480 9d 3b 00
        E 0 9d 3b 5f
        E 480 9d 3b 00
        E 0 9d 3b 5f
        E 480 9d 3b 00
        E 0 9d 3b 5f
        E 240 9d 3b 00
        E 0 9d 3d 5f
        E 480 9d 3d 00
        E 0 9d 3b 5f
        E 480 9d 3b 00
        E 0 9d 39 5f
        E 480 9d 39 00
        E 480 9d 3b 5f
        E 240 9d 3b 00
        E 0 9d 3b 5f
        E 480 9d 3b 00
        E 0 9d 3b 5f
        E 480 9d 3b 00
        E 0 9d 3b 5f
        E 480 9d 3b 00
        E 0 9d 3b 5f
        E 240 9d 3b 00
        E 0 9d 3d 5f
        E 480 9d 3d 00
        E 0 9d 3b 5f
        E 480 9d 3b 00
        E 0 9d 39 5f
        E 480 9d 39 00
        E 480 9d 3b 5f
        E 240 9d 3b 00
        E 0 9d 3b 5f
        E 480 9d 3b 00
        E 0 9d 3b 5f
        E 480 9d 3b 00
        E 0 9d 3b 5f
        E 480 9d 3b 00
        E 0 9d 3b 5f
        E 240 9d 3b 00
        E 0 9d 3d 5f
        E 480 9d 3d 00
        E 0 9d 3b 5f
        E 480 9d 3b 00
        E 0 9d 39 5f
        E 480 9d 39 00
        E 480 9d 3b 5f
        E 240 9d 3b 00
        E 0 9d 3b 5f
        E 480 9d 3b 00
        E 0 9d 3b 5f
        E 480 9d 3b 00
        E 0 9d 3b 5f
        E 480 9d 3b 00
        E 0 9d 3b 5f
        E 240 9d 3b 00
        E 0 9d 3d 5f
        E 480 9d 3d 00
        E 0 9d 3b 5f
        E 480 9d 3b 00
        E 0 9d 39 5f
        E 480 9d 39 00
        E 61440 9d 3e 5f
        E 2400 9d 3e 00
        E 0 9d 3d 5f
        E 480 9d 3d 00
        E 0 9d 3e 5f
        E 480 9d 3e 00
        E 0 9d 42 5f
        E 2880 9d 42 00
        E 0 9d 45 2f
        E 0 9d 42 5f
        E 0 9d 3e 5f
        E 480 9d 42 00
        E 0 9d 45 00
        E 0 9d 3e 00
        E 0 9d 47 2f
        E 0 9d 44 5f
        E 0 9d 40 5f
        E 480 9d 47 00
        E 0 9d 44 00
        E 0 9d 40 00
        E 0 9d 49 2f
        E 0 9d 45 5f
        E 0 9d 42 5f
        E 2880 9d 45 00
        E 0 9d 49 00
        E 0 9d 42 00
        E 0 9d 45 5f
        E 0 9d 42 5f
        E 0 9d 3d 2f
        E 480 9d 42 00
        E 0 9d 45 00
        E 0 9d 3d 00
        E 0 9d 47 5f
        E 0 9d 44 5f
        E 0 9d 40 2f
        E 480 9d 44 00
        E 0 9d 40 00
        E 0 9d 47 00
        E 0 9d 47 2f
        E 0 9d 44 5f
        E 0 9d 40 5f
        E 3360 9d 40 00
        E 0 9d 47 00
        E 0 9d 44 00
        E 480 9d 39 5f
        E 480 9d 39 00
        E 0 9d 3e 5f
        E 2400 9d 3e 00
        E 0 9d 3d 5f
        E 480 9d 3d 00
        E 0 9d 3e 5f
        E 480 9d 3e 00
        E 0 9d 42 5f
        E 2880 9d 42 00
        E 0 9d 45 2f
        E 0 9d 42 5f
        E 0 9d 3d 5f
        E 480 9d 42 00
        E 0 9d 45 00
        E 0 9d 3d 00
        E 0 9d 47 2f
        E 0 9d 44 5f
        E 0 9d 40 5f
        E 480 9d 47 00
        E 0 9d 44 00
        E 0 9d 40 00
        E 0 9d 49 2f
        E 0 9d 45 5f
        E 0 9d 42 5f
        E 2880 9d 45 00
        E 0 9d 49 00
        E 0 9d 42 00
        E 0 9d 42 5f
        E 0 9d 3d 5f
        E 480 9d 3d 00
        E 0 9d 42 00
        E 0 9d 49 5f
        E 0 9d 45 5f
        E 0 9d 42 2f
        E 480 9d 45 00
        E 0 9d 42 00
        E 0 9d 49 00
        E 0 9d 47 5f
        E 0 9d 44 5f
        E 0 9d 40 2f
        E 3360 9d 44 00
        E 0 9d 47 00
        E 0 9d 40 00
        E 1440 9d 3e 5f
        E 240 9d 3e 00
        E 0 9d 3e 5f
        E 480 9d 3e 00
        E 0 9d 3e 5f
        E 480 9d 3e 00
        E 0 9d 3e 5f
        E 480 9d 3e 00
        E 0 9d 3e 5f
        E 240 9d 3e 00
        E 0 9d 3e 5f
        E 480 9d 3e 00
        E 0 9d 40 5f
        E 960 9d 40 00
        E 480 9d 3e 5f
        E 240 9d 3e 00
        E 0 9d 3e 5f
        E 480 9d 3e 00
        E 0 9d 3e 5f
        E 480 9d 3e 00
        E 0 9d 3e 5f
        E 480 9d 3e 00
        E 0 9d 3e 5f
        E 240 9d 3e 00
        E 0 9d 3e 5f
        E 480 9d 3e 00
        E 0 9d 40 5f
        E 960 9d 40 00
        E 480 9d 3d 5f
        E 240 9d 3d 00
        E 0 9d 3d 5f
        E 480 9d 3d 00
        E 0 9d 3d 5f
        E 480 9d 3d 00
        E 0 9d 3d 5f
        E 480 9d 3d 00
        E 0 9d 3d 5f
        E 240 9d 3d 00
        E 0 9d 3d 5f
        E 480 9d 3d 00
        E 0 9d 40 5f
        E 960 9d 40 00
        E 480 9d 3b 5f
        E 240 9d 3b 00
        E 0 9d 3b 5f
        E 480 9d 3b 00
        E 0 9d 3b 5f
        E 480 9d 3b 00
        E 0 9d 3b 5f
        E 480 9d 3b 00
        E 0 9d 3b 5f
        E 240 9d 3b 00
        E 0 9d 3d 5f
        E 480 9d 3d 00
        E 0 9d 3b 5f
        E 480 9d 3b 00
        E 0 9d 39 5f
        E 480 9d 39 00
        E 480 9d 3e 5f
        E 240 9d 3e 00
        E 0 9d 3e 5f
        E 480 9d 3e 00
        E 0 9d 3e 5f
        E 480 9d 3e 00
        E 0 9d 3e 5f
        E 480 9d 3e 00
        E 0 9d 3e 5f
        E 240 9d 3e 00
        E 0 9d 3e 5f
        E 480 9d 3e 00
        E 0 9d 40 5f
        E 960 9d 40 00
        E 480 9d 3e 5f
        E 240 9d 3e 00
        E 0 9d 3e 5f
        E 480 9d 3e 00
        E 0 9d 3e 5f
        E 480 9d 3e 00
        E 0 9d 3e 5f
        E 480 9d 3e 00
        E 0 9d 3e 5f
        E 240 9d 3e 00
        E 0 9d 3e 5f
        E 480 9d 3e 00
        E 0 9d 40 5f
        E 960 9d 40 00
        E 480 9d 3d 5f
        E 240 9d 3d 00
        E 0 9d 3d 5f
        E 480 9d 3d 00
        E 0 9d 3d 5f
        E 480 9d 3d 00
        E 0 9d 3d 5f
        E 480 9d 3d 00
        E 0 9d 3d 5f
        E 240 9d 3d 00
        E 0 9d 3d 5f
        E 480 9d 3d 00
        E 0 9d 40 5f
        E 960 9d 40 00
        E 480 9d 3b 5f
        E 240 9d 3b 00
        E 0 9d 3b 5f
        E 480 9d 3b 00
        E 0 9d 3b 5f
        E 480 9d 3b 00
        E 0 9d 3b 5f
        E 480 9d 3b 00
        E 0 9d 3b 5f
        E 240 9d 3b 00
        E 0 9d 3d 5f
        E 480 9d 3d 00
        E 0 9d 3b 5f
        E 480 9d 3b 00
        E 0 9d 39 5f
        E 480 9d 39 00
        E 480 9d 3b 5f
        E 240 9d 3b 00
        E 0 9d 3b 5f
        E 480 9d 3b 00
        E 0 9d 3b 5f
        E 480 9d 3b 00
        E 0 9d 3b 5f
        E 480 9d 3b 00
        E 0 9d 3b 5f
        E 240 9d 3b 00
        E 0 9d 3d 5f
        E 480 9d 3d 00
        E 0 9d 3b 5f
        E 480 9d 3b 00
        E 0 9d 39 5f
        E 480 9d 39 00
        E 480 9d 3b 5f
        E 240 9d 3b 00
        E 0 9d 3b 5f
        E 480 9d 3b 00
        E 0 9d 3b 5f
        E 480 9d 3b 00
        E 0 9d 3b 5f
        E 480 9d 3b 00
        E 0 9d 3b 5f
        E 240 9d 3b 00
        E 0 9d 3d 5f
        E 480 9d 3d 00
        E 0 9d 3b 5f
        E 480 9d 3b 00
        E 0 9d 39 5f
        E 480 9d 39 00
        E 480 9d 3b 5f
        E 240 9d 3b 00
        E 0 9d 3b 5f
        E 480 9d 3b 00
        E 0 9d 3b 5f
        E 480 9d 3b 00
        E 0 9d 3b 5f
        E 480 9d 3b 00
        E 0 9d 3b 5f
        E 240 9d 3b 00
        E 0 9d 3d 5f
        E 480 9d 3d 00
        E 0 9d 3b 5f
        E 480 9d 3b 00
        E 0 9d 39 5f
        E 480 9d 39 00
        E 480 9d 3b 5f
        E 240 9d 3b 00
        E 0 9d 3b 5f
        E 480 9d 3b 00
        E 0 9d 3b 5f
        E 480 9d 3b 00
        E 0 9d 3b 5f
        E 480 9d 3b 00
        E 0 9d 3b 5f
        E 240 9d 3b 00
        E 0 9d 3d 5f
        E 480 9d 3d 00
        E 0 9d 3b 5f
        E 480 9d 3b 00
        E 0 9d 39 5f
        E 480 9d 39 00
        E 480 9d 3b 5f
        E 240 9d 3b 00
        E 0 9d 3b 5f
        E 480 9d 3b 00
        E 0 9d 3b 5f
        E 480 9d 3b 00
        E 0 9d 3b 5f
        E 480 9d 3b 00
        E 0 9d 3b 5f
        E 240 9d 3b 00
        E 0 9d 3d 5f
        E 480 9d 3d 00
        E 0 9d 3b 5f
        E 480 9d 3b 00
        E 0 9d 39 5f
        E 480 9d 39 00
        E 480 9d 3b 5f
        E 240 9d 3b 00
        E 0 9d 3b 5f
        E 480 9d 3b 00
        E 0 9d 3b 5f
        E 480 9d 3b 00
        E 0 9d 3b 5f
        E 480 9d 3b 00
        E 0 9d 3b 5f
        E 240 9d 3b 00
        E 0 9d 3d 5f
        E 480 9d 3d 00
        E 0 9d 3b 5f
        E 480 9d 3b 00
        E 0 9d 39 5f
        E 480 9d 39 00
        E 480 9d 3b 5f
        E 240 9d 3b 00
        E 0 9d 3b 5f
        E 480 9d 3b 00
        E 0 9d 3b 5f
        E 480 9d 3b 00
        E 0 9d 3b 5f
        E 480 9d 3b 00
        E 0 9d 3b 5f
        E 240 9d 3b 00
        E 0 9d 3d 5f
        E 480 9d 3d 00
        E 0 9d 3b 5f
        E 480 9d 3b 00
        E 0 9d 39 5f
        E 480 9d 39 00
        E 480 9d 3b 5f
        E 240 9d 3b 00
        E 0 9d 3b 5f
        E 480 9d 3b 00
        E 0 9d 3b 5f
        E 480 9d 3b 00
        E 0 9d 3b 5f
        E 480 9d 3b 00
        E 0 9d 3b 5f
        E 240 9d 3b 00
        E 0 9d 3d 5f
        E 480 9d 3d 00
        E 0 9d 3b 5f
        E 480 9d 3b 00
        E 0 9d 39 5f
        E 480 9d 39 00
        E 46080 b0 7b 00
        GUID {703C0CBF-3404-4683-B2B8-A4585F7C3BEC}
        IGNTEMPO 0 120 4 4
        SRCCOLOR 48
        VELLANE -1 100 0
      >
    >
  >
  <TRACK {1A79D5DF-06BE-485E-836D-08E95EB38B48}
    NAME "untitled - GetluckyfeatPharrellWilliams.mid [chan 15] [chan 15]"
    PEAKCOL 30677903
    BEAT -1
    AUTOMODE 0
    VOLPAN 1 0 -1 -1 1
    MUTESOLO 0 0 0
    IPHASE 0
    ISBUS 0 0
    BUSCOMP 0 0
    SHOWINMIX 1 0.6667 0.5 1 0.5 0 0 0
    FREEMODE 0
    SEL 1
    REC 0 0 0 0 0 0 0
    VU 2
    TRACKHEIGHT 0 0 0
    INQ 0 0 0 0.5 100 0 0 100
    NCHAN 2
    FX 1
    TRACKID {1A79D5DF-06BE-485E-836D-08E95EB38B48}
    PERF 0
    MIDIOUT -1
    MAINSEND 1 0
    <ITEM
      POSITION 38.5
      SNAPOFFS 0
      LENGTH 242
      LOOP 1
      ALLTAKES 0
      FADEIN 1 0 0 1 0 0
      FADEOUT 1 0 0 1 0 0
      MUTE 0
      SEL 0
      IGUID {5B537749-985E-4CA9-85D4-3F34656EDD04}
      IID 24
      NAME "untitled - GetluckyfeatPharrellWilliams.mid [chan 15]"
      VOLPAN 1 0 1 -1
      SOFFS 0 0
      PLAYRATE 1 1 0 -1 0 0.0025
      CHANMODE 0
      GUID {E01C3A46-D206-4E1E-9E62-DF0AA9020961}
      <SOURCE MIDI
        HASDATA 1 960 QN
        POOLEDEVTS {DFDF802C-5223-483F-894F-39810BC67ECC}
        E 84 be 65 00
        E 2 be 64 00
        E 2 be 06 0c
        E 2 be 26 00
        E 464550 b0 7b 00
        GUID {D41A7758-B668-43C4-8CF2-15A7D160720E}
        IGNTEMPO 0 120 4 4
        SRCCOLOR 50
        VELLANE -1 100 0
      >
    >
  >
  <TRACK {89E902E1-9385-4172-B1BE-07090AC43BC7}
    NAME "untitled - GetluckyfeatPharrellWilliams.mid [chan 16] [chan 16]"
    PEAKCOL 33516680
    BEAT -1
    AUTOMODE 0
    VOLPAN 1 0 -1 -1 1
    MUTESOLO 0 0 0
    IPHASE 0
    ISBUS 0 0
    BUSCOMP 0 0
    SHOWINMIX 1 0.6667 0.5 1 0.5 0 0 0
    FREEMODE 0
    SEL 1
    REC 0 0 0 0 0 0 0
    VU 2
    TRACKHEIGHT 0 0 0
    INQ 0 0 0 0.5 100 0 0 100
    NCHAN 2
    FX 1
    TRACKID {89E902E1-9385-4172-B1BE-07090AC43BC7}
    PERF 0
    MIDIOUT -1
    MAINSEND 1 0
    <ITEM
      POSITION 38.5
      SNAPOFFS 0
      LENGTH 242
      LOOP 1
      ALLTAKES 0
      FADEIN 1 0 0 1 0 0
      FADEOUT 1 0 0 1 0 0
      MUTE 0
      SEL 0
      IGUID {9E3D9E17-FAF4-4045-B07B-D108B28FAB26}
      IID 25
      NAME "untitled - GetluckyfeatPharrellWilliams.mid [chan 16]"
      VOLPAN 1 0 1 -1
      SOFFS 0 0
      PLAYRATE 1 1 0 -1 0 0.0025
      CHANMODE 0
      GUID {F63FFBAC-EA1A-4162-8E4A-BCD94ACAED84}
      <SOURCE MIDI
        HASDATA 1 960 QN
        POOLEDEVTS {F4FAFBA4-44DC-4992-A625-3BFABA6D7F08}
        E 90 bf 65 00
        E 2 bf 64 00
        E 2 bf 06 0c
        E 2 bf 26 00
        E 464544 b0 7b 00
        GUID {72F28AE8-638C-404B-87AB-193E2DE6980F}
        IGNTEMPO 0 120 4 4
        SRCCOLOR 52
        VELLANE -1 100 0
      >
    >
  >
  <TRACK {2D16196F-A9E1-44D1-A95F-91D57049BA81}
    NAME 74913__mrmayo__arcade
    PEAKCOL 26330002
    BEAT -1
    AUTOMODE 0
    VOLPAN 1 0 -1 -1 1
    MUTESOLO 0 0 0
    IPHASE 0
    ISBUS 0 0
    BUSCOMP 0 0
    SHOWINMIX 1 0.6667 0.5 1 0.5 0 0 0
    FREEMODE 0
    SEL 1
    REC 0 0 0 0 0 0 0
    VU 2
    TRACKHEIGHT 0 0 0
    INQ 0 0 0 0.5 100 0 0 100
    NCHAN 2
    FX 1
    TRACKID {2D16196F-A9E1-44D1-A95F-91D57049BA81}
    PERF 0
    MIDIOUT -1
    MAINSEND 1 0
    <ITEM
      POSITION 280.5
      SNAPOFFS 0
      LENGTH 60.30533333333333
      LOOP 1
      ALLTAKES 0
      FADEIN 1 0 0 1 0 0
      FADEOUT 1 0 0 1 0 0
      MUTE 0
      SEL 0
      IGUID {0B615C5C-AC6B-4FE2-92A9-AFFAC2798A85}
      IID 26
      NAME 74913__mrmayo__arcade.wav
      VOLPAN 1 0 1 -1
      SOFFS 0
      PLAYRATE 1 1 0 -1 0 0.0025
      CHANMODE 0
      GUID {14C03427-0059-49B9-9DFF-0474C6C01B5A}
      <SOURCE WAVE
        FILE "74913__mrmayo__arcade.wav"
      >
    >
  >
  <TRACK {A3250E31-D59A-4E66-88FB-FBB3A4177795}
    NAME 390743__icenhower__oldtruckcutsoff
    PEAKCOL 33526138
    BEAT -1
    AUTOMODE 0
    VOLPAN 1 0 -1 -1 1
    MUTESOLO 0 0 0
    IPHASE 0
    ISBUS 0 0
    BUSCOMP 0 0
    SHOWINMIX 1 0.6667 0.5 1 0.5 0 0 0
    FREEMODE 0
    SEL 1
    REC 0 0 0 0 0 0 0
    VU 2
    TRACKHEIGHT 0 0 0
    INQ 0 0 0 0.5 100 0 0 100
    NCHAN 2
    FX 1
    TRACKID {A3250E31-D59A-4E66-88FB-FBB3A4177795}
    PERF 0
    MIDIOUT -1
    MAINSEND 1 0
    <ITEM
      POSITION 352
      SNAPOFFS 0
      LENGTH 6.13981859410431
      LOOP 1
      ALLTAKES 0
      FADEIN 1 0 0 1 0 0
      FADEOUT 1 0 0 1 0 0
      MUTE 0
      SEL 0
      IGUID {0A4FB0B2-6577-4886-8515-E3F0FB3A1A3B}
      IID 27
      NAME 390743__icenhower__oldtruckcutsoff.mp3
      VOLPAN 1 0 1 -1
      SOFFS 0
      PLAYRATE 1 1 0 -1 0 0.0025
      CHANMODE 0
      GUID {E3DC24AE-179E-4725-A98B-EAF7C8E7FE99}
      <SOURCE MP3
        FILE "390743__icenhower__oldtruckcutsoff.mp3" 1
      >
    >
    <ITEM
      POSITION 380
      SNAPOFFS 0
      LENGTH 2.91641723356009
      LOOP 1
      ALLTAKES 0
      FADEIN 1 0 0 1 0 0
      FADEOUT 1 0 0 1 0 0
      MUTE 0
      SEL 0
      IGUID {AECD3FA3-D719-4655-86C9-75E8FCDCFCB1}
      IID 28
      NAME 265775__richerlandtv__arcade-game.wav
      VOLPAN 1 0 1 -1
      SOFFS 0
      PLAYRATE 1 1 0 -1 0 0.0025
      CHANMODE 0
      GUID {403AE60C-747E-4B85-BB4C-F848E0794786}
      <SOURCE WAVE
        FILE "265775__richerlandtv__arcade-game.wav"
      >
    >
  >
  <TRACK {0C34064D-CF41-4D46-90BA-8FCFFC33DD4E}
    NAME "DTCK GLASS SMASH Big Drop and Smash"
    PEAKCOL 33526125
    BEAT -1
    AUTOMODE 0
    VOLPAN 1 0 -1 -1 1
    MUTESOLO 0 0 0
    IPHASE 0
    ISBUS 0 0
    BUSCOMP 0 0
    SHOWINMIX 1 0.6667 0.5 1 0.5 0 0 0
    FREEMODE 0
    SEL 1
    REC 0 0 0 0 0 0 0
    VU 2
    TRACKHEIGHT 0 0 0
    INQ 0 0 0 0.5 100 0 0 100
    NCHAN 2
    FX 1
    TRACKID {0C34064D-CF41-4D46-90BA-8FCFFC33DD4E}
    PERF 0
    MIDIOUT -1
    MAINSEND 1 0
    <ITEM
      POSITION 384
      SNAPOFFS 0
      LENGTH 17.09782291666667
      LOOP 1
      ALLTAKES 0
      FADEIN 1 0 0 1 0 0
      FADEOUT 1 0 0 1 0 0
      MUTE 0
      SEL 1
      IGUID {38C30DFF-7EF2-4505-A593-624393DC8529}
      IID 37
      NAME "DTCK GLASS SMASH Big Drop and Smash.wav"
      VOLPAN 1 0 1 -1
      SOFFS 0
      PLAYRATE 1 1 0 -1 0 0.0025
      CHANMODE 0
      GUID {613011DC-B1B8-4EA1-B223-0D45DF66B552}
      <SOURCE WAVE
        FILE "DTCK GLASS SMASH Big Drop and Smash.wav"
      >
    >
  >
  <TRACK {4662A37C-C094-4A05-A9AB-EBDB255DF3B5}
    NAME "DTCK METAL CRASH Medium Multi Long"
    PEAKCOL 26570239
    BEAT -1
    AUTOMODE 0
    VOLPAN 1 0 -1 -1 1
    MUTESOLO 0 0 0
    IPHASE 0
    ISBUS 0 0
    BUSCOMP 0 0
    SHOWINMIX 1 0.6667 0.5 1 0.5 0 0 0
    FREEMODE 0
    SEL 1
    REC 0 0 0 0 0 0 0
    VU 2
    TRACKHEIGHT 0 0 0
    INQ 0 0 0 0.5 100 0 0 100
    NCHAN 2
    FX 1
    TRACKID {4662A37C-C094-4A05-A9AB-EBDB255DF3B5}
    PERF 0
    MIDIOUT -1
    MAINSEND 1 0
    <ITEM
      POSITION 401.09782291666664
      SNAPOFFS 0
      LENGTH 69.9
      LOOP 1
      ALLTAKES 0
      FADEIN 1 0 0 1 0 0
      FADEOUT 1 0 0 1 0 0
      MUTE 0
      SEL 1
      IGUID {F73277D7-C365-4350-99CA-AB796BDB0695}
      IID 38
      NAME "DTCK METAL CRASH Medium Multi Long.wav"
      VOLPAN 1 0 1 -1
      SOFFS 0
      PLAYRATE 1 1 0 -1 0 0.0025
      CHANMODE 0
      GUID {BD3F8D3C-AA05-4905-B8B3-1400DA7F1ECA}
      <SOURCE WAVE
        FILE "DTCK METAL CRASH Medium Multi Long.wav"
      >
    >
  >
  <TRACK {8079621F-1FF2-4AFF-B1B5-A187758E59DF}
    NAME "DTCK ROCK IMPACT Brick Metal Multi"
    PEAKCOL 33522290
    BEAT -1
    AUTOMODE 0
    VOLPAN 1 0 -1 -1 1
    MUTESOLO 0 0 0
    IPHASE 0
    ISBUS 0 0
    BUSCOMP 0 0
    SHOWINMIX 1 0.6667 0.5 1 0.5 0 0 0
    FREEMODE 0
    SEL 1
    REC 0 0 0 0 0 0 0
    VU 2
    TRACKHEIGHT 0 0 0
    INQ 0 0 0 0.5 100 0 0 100
    NCHAN 2
    FX 1
    TRACKID {8079621F-1FF2-4AFF-B1B5-A187758E59DF}
    PERF 0
    MIDIOUT -1
    MAINSEND 1 0
    <ITEM
      POSITION 470.99782291666668
      SNAPOFFS 0
      LENGTH 13.904
      LOOP 1
      ALLTAKES 0
      FADEIN 1 0 0 1 0 0
      FADEOUT 1 0 0 1 0 0
      MUTE 0
      SEL 1
      IGUID {91A4355D-03F8-4F74-958C-55CBABFD2AF9}
      IID 39
      NAME "DTCK ROCK IMPACT Brick Metal Multi.wav"
      VOLPAN 1 0 1 -1
      SOFFS 0
      PLAYRATE 1 1 0 -1 0 0.0025
      CHANMODE 0
      GUID {D2223EC7-809C-41AC-80DE-D53AF4C45A17}
      <SOURCE WAVE
        FILE "DTCK ROCK IMPACT Brick Metal Multi.wav"
      >
    >
  >
  <TRACK {3B131CBF-4E40-4D7D-A06E-7CCA54B25DD5}
    NAME "DTCK WOOD BREAK Large"
    PEAKCOL 32660718
    BEAT -1
    AUTOMODE 0
    VOLPAN 1 0 -1 -1 1
    MUTESOLO 0 0 0
    IPHASE 0
    ISBUS 0 0
    BUSCOMP 0 0
    SHOWINMIX 1 0.6667 0.5 1 0.5 0 0 0
    FREEMODE 0
    SEL 1
    REC 0 0 0 0 0 0 0
    VU 2
    TRACKHEIGHT 0 0 0
    INQ 0 0 0 0.5 100 0 0 100
    NCHAN 2
    FX 1
    TRACKID {3B131CBF-4E40-4D7D-A06E-7CCA54B25DD5}
    PERF 0
    MIDIOUT -1
    MAINSEND 1 0
    <ITEM
      POSITION 484.90182291666667
      SNAPOFFS 0
      LENGTH 53.39503125
      LOOP 1
      ALLTAKES 0
      FADEIN 1 0 0 1 0 0
      FADEOUT 1 0 0 1 0 0
      MUTE 0
      SEL 1
      IGUID {7CD62076-A27A-43B2-A024-4095B3B1A3C1}
      IID 40
      NAME "DTCK WOOD BREAK Large.wav"
      VOLPAN 1 0 1 -1
      SOFFS 0
      PLAYRATE 1 1 0 -1 0 0.0025
      CHANMODE 0
      GUID {4DE0382F-4455-4968-8748-7D3B85C4C058}
      <SOURCE WAVE
        FILE "DTCK WOOD BREAK Large.wav"
      >
    >
  >
>
